<?xml version="1.0" encoding="utf-8"?>
<!-- Generator: Adobe Illustrator 19.1.0, SVG Export Plug-In . SVG Version: 6.00 Build 0)  -->
<!DOCTYPE svg PUBLIC "-//W3C//DTD SVG 1.1//EN" "http://www.w3.org/Graphics/SVG/1.1/DTD/svg11.dtd">
<svg version="1.1" id="Layer_1" xmlns="http://www.w3.org/2000/svg" xmlns:xlink="http://www.w3.org/1999/xlink" x="0px" y="0px"
	 width="600px" height="600px" viewBox="-211 213 600 600" style="enable-background:new -211 213 600 600;" xml:space="preserve">
<style type="text/css">
	.st0{fill:#411F1F;}
	.st1{fill:#FFFFFF;}
</style>
<path id="XMLID_258_" class="st0" d="M149.7,418.8c0,0.5,0.1,0.9,0.1,1.2c0.1,0.3,0.2,0.6,0.3,0.8c0.2,0.2,0.3,0.4,0.6,0.4
	c0.2,0.1,0.5,0.1,0.8,0.1s0.6,0,0.9-0.1c0.3-0.1,0.6-0.2,0.9-0.4l0.2,0.8c-0.2,0.1-0.5,0.2-0.9,0.4c-0.4,0.2-0.8,0.2-1.2,0.2
	c-1,0-1.7-0.3-2.2-0.9c-0.5-0.6-0.7-1.6-0.7-2.9c0-0.7,0.1-1.2,0.2-1.7s0.3-0.9,0.6-1.2c0.2-0.3,0.5-0.5,0.9-0.7
	c0.3-0.1,0.7-0.2,1.1-0.2s0.8,0.1,1.1,0.2c0.3,0.2,0.6,0.4,0.8,0.7s0.4,0.6,0.5,1.1s0.2,0.9,0.2,1.4v0.8L149.7,418.8L149.7,418.8z
	 M152.8,417.7c0-0.8-0.1-1.4-0.4-1.8c-0.2-0.3-0.6-0.5-1.1-0.5c-0.2,0-0.5,0-0.7,0.1c-0.2,0.1-0.4,0.2-0.5,0.4
	c-0.1,0.2-0.3,0.4-0.3,0.8c-0.1,0.3-0.1,0.7-0.2,1.2h3.2V417.7z M146.8,415.7h-0.6c-0.3,0-0.6,0.1-0.8,0.2c-0.2,0.1-0.4,0.2-0.7,0.4
	v5.8h-1v-7.3h0.6l0.4,0.9l0.7-0.8l0.5-0.2l0.5-0.1c0.2,0,0.4,0,0.6,0.1c0.2,0,0.3,0.1,0.4,0.1l-0.2,1
	C147.1,415.8,147,415.7,146.8,415.7L146.8,415.7z M139,422.2c-0.9,0-1.6-0.3-2.1-1c-0.5-0.6-0.8-1.6-0.8-2.8c0-0.6,0.1-1.2,0.2-1.6
	c0.1-0.5,0.3-0.9,0.6-1.2c0.2-0.3,0.5-0.6,0.9-0.7c0.3-0.2,0.7-0.2,1.2-0.2c0.4,0,0.8,0.1,1.2,0.2c0.4,0.1,0.6,0.4,0.9,0.7
	c0.2,0.3,0.4,0.7,0.6,1.2s0.2,1,0.2,1.6c0,1.3-0.3,2.2-0.8,2.9C140.5,421.9,139.9,422.2,139,422.2L139,422.2z M140.7,418.4
	c0-0.6,0-1-0.1-1.4c-0.1-0.4-0.2-0.7-0.3-0.9c-0.1-0.2-0.3-0.4-0.5-0.5c-0.2-0.1-0.5-0.1-0.7-0.1c-0.3,0-0.5,0-0.7,0.1
	c-0.2,0.1-0.4,0.2-0.5,0.4c-0.1,0.2-0.3,0.5-0.3,0.9c-0.1,0.4-0.1,0.8-0.1,1.3v0.2c0,0.5,0,1,0.1,1.4c0.1,0.4,0.2,0.7,0.3,0.9
	c0.1,0.2,0.3,0.4,0.5,0.5c0.2,0.1,0.5,0.2,0.7,0.2c0.3,0,0.5-0.1,0.7-0.2c0.2-0.1,0.4-0.3,0.5-0.5s0.3-0.5,0.3-0.9
	C140.7,419.4,140.7,419,140.7,418.4z M133.2,416.8c0-0.5-0.1-0.8-0.3-1s-0.5-0.3-0.8-0.3s-0.6,0.1-0.9,0.2c-0.2,0.1-0.5,0.3-0.7,0.5
	v5.9h-1v-5.3c0-0.5-0.1-0.8-0.3-1s-0.5-0.3-0.8-0.3s-0.6,0.1-0.9,0.2c-0.2,0.1-0.5,0.3-0.8,0.4v5.9h-1v-7.3h0.6l0.4,0.9l0.6-0.7
	c0.1-0.1,0.3-0.1,0.5-0.2c0.2-0.1,0.5-0.1,0.8-0.1s0.5,0,0.7,0.1l0.6,0.2l0.5,0.8l0.7-0.8c0.1-0.1,0.3-0.1,0.5-0.2
	c0.2-0.1,0.5-0.1,0.8-0.1c0.6,0,1.1,0.2,1.4,0.5c0.3,0.4,0.5,0.9,0.5,1.8v5.1h-1L133.2,416.8L133.2,416.8L133.2,416.8z M118.7,416.8
	c0-0.5-0.1-0.8-0.3-1c-0.2-0.2-0.5-0.3-0.8-0.3c-0.4,0-0.7,0.1-0.9,0.2c-0.3,0.1-0.5,0.3-0.8,0.5v5.9h-1v-7.3h0.6l0.4,0.9l0.7-0.7
	c0.2-0.1,0.3-0.1,0.6-0.2c0.2-0.1,0.5-0.1,0.8-0.1c0.6,0,1.1,0.2,1.4,0.5c0.3,0.4,0.5,0.9,0.5,1.8v5.1h-1v-5.3H118.7L118.7,416.8z
	 M112.5,415.7h-0.6c-0.3,0-0.6,0.1-0.8,0.2c-0.2,0.1-0.4,0.2-0.7,0.4v5.8h-1v-7.3h0.6l0.4,0.9l0.7-0.8l0.5-0.2l0.5-0.1
	c0.2,0,0.4,0,0.6,0.1c0.2,0,0.3,0.1,0.4,0.1l-0.2,1C112.8,415.8,112.7,415.7,112.5,415.7L112.5,415.7z M107,422.2
	c-0.2,0-0.4,0-0.6-0.1l-0.5-0.8l-0.6,0.7c-0.1,0.1-0.3,0.1-0.5,0.2c-0.2,0-0.4,0.1-0.7,0.1c-0.3,0-0.6,0-0.8-0.1
	c-0.3-0.1-0.5-0.2-0.7-0.4c-0.2-0.2-0.3-0.4-0.4-0.6c-0.1-0.3-0.2-0.6-0.2-1c0-0.4,0.1-0.7,0.2-0.9c0.1-0.3,0.3-0.5,0.5-0.7
	s0.5-0.3,0.8-0.4c0.3-0.1,0.7-0.2,1.2-0.2l1.3-0.1V417c0-0.2,0-0.4-0.1-0.6c0-0.2-0.1-0.3-0.2-0.5c-0.1-0.1-0.2-0.2-0.4-0.3
	c-0.2-0.1-0.4-0.1-0.6-0.1c-0.3,0-0.7,0-1,0.1c-0.3,0.1-0.7,0.2-1.1,0.3l-0.2-0.8l1-0.4c0.4-0.1,0.8-0.2,1.3-0.2
	c0.8,0,1.4,0.2,1.7,0.6c0.3,0.4,0.5,1.1,0.5,2.1v3.6c0,0.2,0,0.3,0.1,0.4c0.1,0.1,0.2,0.1,0.4,0.1h0.3v0.6l-0.3,0.1
	C107.3,422.2,107.2,422.2,107,422.2L107,422.2z M105.9,418.5l-1.2,0.1c-0.6,0.1-1,0.2-1.2,0.4s-0.4,0.6-0.4,1.1v0.1
	c0,0.5,0.1,0.8,0.3,1c0.2,0.2,0.5,0.3,1,0.3c0.4,0,0.7-0.1,0.9-0.2c0.2-0.1,0.4-0.3,0.6-0.5L105.9,418.5L105.9,418.5z M96.4,420
	c0.1,0.3,0.2,0.6,0.3,0.8c0.2,0.2,0.3,0.4,0.6,0.4c0.2,0.1,0.5,0.1,0.8,0.1s0.6,0,0.9-0.1c0.3-0.1,0.6-0.2,0.9-0.4l0.2,0.8
	c-0.2,0.1-0.5,0.2-0.9,0.4c-0.4,0.1-0.8,0.2-1.2,0.2c-1,0-1.7-0.3-2.2-0.9c-0.5-0.6-0.7-1.6-0.7-2.9c0-0.7,0.1-1.2,0.2-1.7
	s0.3-0.9,0.6-1.2c0.2-0.3,0.5-0.5,0.9-0.7c0.3-0.1,0.7-0.2,1.1-0.2s0.8,0.1,1.1,0.2c0.3,0.2,0.6,0.4,0.8,0.7
	c0.2,0.3,0.4,0.6,0.5,1.1c0.1,0.4,0.2,0.9,0.2,1.4v0.8h-4.2C96.3,419.2,96.4,419.7,96.4,420L96.4,420z M99.5,417.9v-0.2
	c0-0.8-0.1-1.4-0.4-1.8c-0.2-0.3-0.6-0.5-1.1-0.5c-0.2,0-0.5,0-0.7,0.1c-0.2,0.1-0.4,0.2-0.5,0.4c-0.1,0.2-0.3,0.4-0.3,0.8
	c-0.1,0.3-0.1,0.7-0.2,1.2H99.5z M89.3,413h1.2v8.1h3.7v0.9h-4.9L89.3,413L89.3,413z"/>
<path class="st1" d="M267.9,541.5c-6.5,2.7-14.9,6.7-14.9,9.9c0,1.6,2.3,1.9,3.8,1.8c5.5-0.4,10.4-6.8,13.1-10.8
	C269.1,542.1,268.4,541.8,267.9,541.5z M324.6,543c-1.2,0-2.3,1.4-2.3,3c0,1,0.4,1.7,1.2,2c0.8-1,1.9-2.8,1.9-4.1
	C325.4,543.4,325.2,543,324.6,543L324.6,543z M350,550c2.1,0,4.1-4.3,6-6.8c-2.8-0.2-6.6,3.8-6.6,6.1C349.4,549.7,349.5,550,350,550
	L350,550z M321.6,544.8c-0.8,0.7-2.3,2.8-2.3,4.3c0,0.7,0.3,1,0.9,1c1,0,2-0.7,2.8-1.6C321.8,548,321.3,546.6,321.6,544.8
	L321.6,544.8z M271.7,539.3c1.7-3,4.4-7.7,6.8-10.6c-7.4,3.2-11.3,5.6-11.3,9c0,1.2,0.4,2.2,1.1,2.8
	C269.4,540.2,271.2,539.5,271.7,539.3L271.7,539.3z M345.7,543.5c0-0.1-0.3-0.5-1.1-0.5c-3.1,0-6.5,4-6.5,6.3c0,0.5,0.2,0.8,0.7,0.8
	c2.2,0,3.8-4.1,5.2-5.9C344.5,543.6,345,543.5,345.7,543.5L345.7,543.5z M89.3,513v63h300v-63H89.3L89.3,513z M251.3,551.6
	c-0.1-3.8,10.2-8.3,15.9-10.6c-1.1-0.9-1.7-2.1-1.7-3.5c0-5.1,9.5-7.8,14-10.2c0.8-1,1.9-2.9,3.3-2.8c0.6,0,1.1,0.3,1,1
	c-0.1,1.1-1.8,1.9-3.6,2.7c-1.4,1.9-4,6.5-5.7,9.9l-0.2,0.4c4.1-1.4,10-4,12-6c2.1-4,3.3-6,4.7-6c0.5,0,1,0.3,1,1
	c0,0.9-1,2.6-3.1,5.2c-0.8,1-5,7.9-6.2,10c7-0.1,15.4-3.2,15.4-11.2c0-7.1-7.8-9.8-14.3-9.8c-6.9,0-13.7,2.3-18,6.7
	c-0.2,0.2-0.3,0.2-0.4,0.2c-0.2,0-0.3-0.2-0.2-0.4c1.5-2.1,8.2-7.7,19.3-7.7c8.3,0,16,3.3,16,10.6c0,8.2-8.8,12.3-18.3,12.3
	c-0.3,0.6-1,1.6-1.9,3c-2.2,3.6-4.4,6.6-6.2,6.6c-0.6,0-1-0.4-1-0.8c0-0.8,1.6-1.3,3-2.9c1.4-1.7,2.9-3.8,4.3-6
	c-1.1-0.1-1.4-0.1-1.4-0.4c0-0.1,0.1-0.2,0.3-0.2h1.6c2.4-4.1,4.7-8.5,4.7-8.5v-0.1c-3.1,1.9-6.9,3.5-11.6,5.2
	c-0.4,0.6-1.1,1.9-1.7,2.9c0.5,0.1,1.1,0.2,1.7,0.2c0.6,0.1,0.7,0.2,0.7,0.3s-0.1,0.3-0.4,0.3c-0.9,0-1.7-0.1-2.4-0.2
	c-3,4.7-8.6,10.9-15.3,11.4C254.2,554.3,251.4,554.1,251.3,551.6L251.3,551.6z M284,548.3c0,1-1.1,1.1-1.9,1.1
	c-0.5,0-0.8-0.2-0.8-0.6c0-0.7,0.8-1.1,1.5-1.1C283.2,547.7,283.9,547.7,284,548.3L284,548.3z M272.9,548.1c0,0.8-1,1.1-1.7,1.1
	c-0.5,0-0.9-0.2-1-0.7c0-0.9,1.1-1,1.8-1C272.5,547.5,272.9,547.7,272.9,548.1L272.9,548.1z M365.7,562.8c-7.9,0-16.7-1.4-30.4-2.8
	c-1.9,1.8-4.1,3.3-6,3.3c-0.9,0-1.4-0.5-1.4-1.2c0-0.8,0.7-1.8,1.6-2.7c-8.4-0.6-20.3-1.2-30.6-1.2c-18.1,0-31.9,2.9-36.7,7.4
	c-0.5,0.5-0.6,0.9-0.4,1.4c0.1,0.3,0.7,0.8,0.7,1.1s-0.3,0.4-0.6,0.4c-0.7,0-1.5-0.6-1.5-1.5c0-0.7,0.5-1.4,0.9-1.8
	c3.8-4.2,17.4-8.5,38.9-8.5c10.5,0,22.8,0.6,30.9,1.4c2.8-2.2,6.1-4.2,8.4-5.6c0.4-0.7,1.1-2,1.9-3.4c-0.9,1.1-2.1,1.8-3.2,1.8
	c-1,0-1.5-0.6-1.5-1.6c0-0.4,0.1-0.9,0.3-1.4c-1.7,1.6-3.5,3-5.2,3c-1.1,0-1.6-0.6-1.6-1.4c0-1.6,2.6-4.4,4.2-6.4
	c-0.7,0-1.5,0.2-2.2,0.1c-1.9,2.3-5,5.7-8.4,5.4c-1,1-2.4,2.2-4,2.2c-1.1,0-1.9-0.6-1.9-1.9c0-0.2,0-0.5,0.1-0.7
	c-1.3,1.3-3.1,2.6-4.7,2.6c-1.3,0-2.1-0.8-2.1-2.1c0-1.6,1.5-4.5,3.7-8.4c1.5-2.5,3.6-6,5.1-8.7c-3.5,3.7-6.6,7.3-9.8,10.9
	c-1,1.1-2.5,2.6-3.4,3.7c-1.2,1.6-2.9,4.9-4.6,4.9c-0.5,0-0.7-0.3-0.7-0.6c0-0.8,2-3.2,2.3-3.7c1.2-1.9,5.6-11.3,6.4-14.7
	c-3.9,5.2-11.3,15.7-19.3,19.9c-1.2,0.6-2,1-3.1,1c-1.1,0-1.8-0.6-1.8-1.4c0-0.4,0.2-0.7,0.7-0.7c9.2-0.8,19.1-13.6,23.8-22
	c1.1-2.1,1.4-3.7,2.5-3.7c0.7,0,0.9,0.7,0.9,1.2c0,0.9-0.5,2.3-0.8,3.1c-1.9,5.3-3.8,10.2-6.5,15.4c2.3-2.3,5.9-6.2,9.1-9.8
	c5.1-5.6,6.7-9.6,8.3-9.6c0.5,0,0.8,0.3,0.8,0.9c0,0.3-0.2,0.8-0.4,1.3l-5.9,10.1c-1.3,2.3-5.6,9.1-5.6,11.4c0,0.6,0.3,0.9,0.9,0.9
	c1.6,0,3.7-1.8,5-3.4c0.9-1.6,2.1-2.9,3.3-3.8c0.5-1.3,1.3-1.5,2.1-1.2c0.5-0.2,0.9-0.4,1.5-0.4c1,0,1.6,0.6,1.6,1.7
	c0,1.7-1.5,4-2.7,5.3c2.6,0,5.8-3.1,6.9-4.9c0.1-0.2,0.1-0.2,0.1-0.4s-0.4-0.4-0.4-1s0.4-0.9,0.8-0.9c0.7,0,0.5,1.2,2.3,1.2
	c0.5,0,1-0.1,1.3-0.1c0.4,0,0.8,0.3,0.8,0.8c0,0.3-0.1,0.6-0.3,0.9c-1.6,2-4.3,4.6-4.3,5.8c0,0.4,0.2,0.6,0.6,0.6
	c1.5,0,3.4-1.5,5.6-4.1c2.1-2.4,4.6-4.5,7.3-4.5c1.5,0,2.1,0.9,2.1,1.9c0,0.5-0.2,1-0.9,1c-0.2,0-0.4-0.1-0.6-0.2
	c-0.4,0.9-1.4,2.3-2.4,3.4c-0.6,0.9-1.4,2.4-2.1,3.7c2.5-1.4,6.8-4.1,8.5-6c1.8-2,4.1-3.8,6.8-3.7c0.2,0,0.5-0.3,0.9-0.3
	c0.5,0,0.9,0.3,0.9,0.7c0,0.3-0.2,0.6-0.5,1c-1.2,1.7-3.9,4.6-3.9,6.2c0,0.5,0.2,0.8,0.7,0.8c1.2,0,2.6-1.3,5-4.2
	c2.2-2.6,3.6-4.2,5-4.2c0.8,0,1,0.5,1,1s-0.2,1.1-0.4,1.6c1.1-1,2.7-2.6,4.2-2.6c0.7,0,1.1,0.4,1.1,1.1c0,1.9-3.4,4.9-3.4,6.4
	c0,0.5,0.2,0.9,1.3,0.9s2.3-0.1,3.3-0.1c4.1,0,7,1.9,7,5.5C379.3,559,375.9,562.8,365.7,562.8L365.7,562.8z M269,541
	c0.4,0.3,0.8,0.5,1.3,0.6c0.3-0.4,0.6-0.9,0.9-1.5c-0.4,0.1-1.2,0.4-1.7,0.6L269,541L269,541z M372.3,550.6l-3.9,0.2
	c-1.3,0-2.3-0.3-2.3-1.6c0-1.5,3.2-4.4,3.2-5.8c0-0.2-0.1-0.4-0.4-0.4c-1.5,0-4.2,3.4-5.5,5.2c-1,1.4-1.6,2.4-2.6,2.4
	c-0.4,0-0.7-0.2-0.7-0.6c0-0.3,0.3-0.6,0.6-1c1.4-1.6,3.8-4.2,3.8-5.7c0-0.2-0.1-0.4-0.3-0.4c-0.7,0-1.6,0.9-4.1,3.8
	c-2.5,3-3.8,3.9-5.2,3.9s-1.8-1-1.7-2.3c-0.9,1.1-2.1,2.3-3.5,2.3c-0.9,0-1.5-0.5-1.5-1.6c0-0.6,0.2-1.3,0.5-1.8
	c-2.2,1.8-5.4,3.6-7.8,5.1c-0.8,1.5-2.5,4.2-4.2,6.1c13.8,1.7,21.2,3.3,30,3.3c6.7,0,11.4-2.3,11.4-6.6
	C378,552.6,376.1,550.6,372.3,550.6z M332.2,558.2c1,0.1,2.1,0.2,3,0.3c1.4-1.5,2.6-3.1,3.7-4.8
	C336.4,555.2,334.1,556.7,332.2,558.2z M328.7,562.1c0,0.4,0.2,0.5,0.6,0.5c0.8,0,2.2-0.8,3.2-1.5c0.5-0.4,1-0.8,1.4-1.3
	c-1-0.1-2.2-0.2-3.3-0.3C329.5,560.5,328.7,561.6,328.7,562.1L328.7,562.1z M-57.1,256.1c-0.3,0.3-0.7,0.4-1.1,0.4s-0.8-0.1-1.1-0.4
	s-0.5-0.7-0.5-1.1c0-0.5,0.2-0.9,0.5-1.2s0.7-0.4,1.1-0.4s0.8,0.1,1.1,0.4s0.5,0.7,0.5,1.2C-56.6,255.4-56.8,255.8-57.1,256.1z
	 M-66,256.6c-0.8,0-1.4-0.1-2-0.2c-0.5-0.2-1-0.3-1.3-0.5l0.2-1.5c0.4,0.2,0.8,0.3,1.3,0.5c0.5,0.1,1,0.2,1.6,0.2
	c0.7,0,1.2-0.1,1.6-0.4c0.4-0.3,0.6-0.7,0.6-1.4c0-0.3,0-0.6-0.1-0.8s-0.2-0.4-0.4-0.5l-0.8-0.4c-0.3-0.1-0.8-0.2-1.3-0.4
	c-0.4-0.1-0.8-0.2-1.1-0.4l-0.9-0.6l-0.6-0.9c-0.1-0.4-0.2-0.8-0.2-1.3c0-1.1,0.3-2,1-2.5s1.6-0.8,2.7-0.8c0.7,0,1.3,0.1,1.8,0.2
	c0.5,0.1,0.9,0.3,1.3,0.5l-0.3,1.5l-1.2-0.4c-0.4-0.1-0.9-0.1-1.4-0.1c-0.7,0-1.2,0.1-1.5,0.3s-0.5,0.6-0.5,1.3c0,0.3,0,0.5,0.1,0.7
	s0.2,0.3,0.4,0.5c0.2,0.1,0.4,0.2,0.7,0.3s0.7,0.2,1.1,0.3c0.5,0.1,0.9,0.3,1.3,0.5s0.7,0.4,0.9,0.7c0.3,0.3,0.4,0.6,0.6,1
	c0.1,0.4,0.2,0.8,0.2,1.4c0,1-0.3,1.8-1,2.4C-63.7,256.3-64.7,256.6-66,256.6L-66,256.6z M-72.2,247.3l0.1,0.5l0.1,0.6
	c0,0.7-0.1,1.3-0.3,1.8s-0.5,0.9-0.9,1.2s-0.8,0.5-1.3,0.6s-1,0.2-1.6,0.2c-0.8,0-1.4-0.1-1.9-0.3c-0.2,0.1-0.3,0.3-0.4,0.4
	c-0.1,0.2-0.2,0.4-0.2,0.6c0,0.7,0.5,1.1,1.4,1.1h2.5c1.1,0,2,0.2,2.6,0.7s0.9,1.2,0.9,2.1c0,0.6-0.1,1.2-0.4,1.6
	c-0.3,0.5-0.6,0.8-1.1,1.1c-0.5,0.3-1,0.5-1.6,0.6c-0.6,0.1-1.3,0.2-2,0.2c-1.4,0-2.5-0.2-3.2-0.7s-1.1-1.2-1.1-2
	c0-0.4,0.1-0.8,0.2-1l0.4-0.6l1.3-0.6c-0.4-0.1-0.7-0.3-1-0.6s-0.4-0.7-0.4-1.3c0-0.4,0-0.7,0.2-0.9c0.1-0.2,0.2-0.4,0.3-0.5
	l1.2-0.7l-1.3-0.8l-0.4-0.9c0,0-0.1-0.7-0.1-1.1c0-0.7,0.1-1.3,0.4-1.7c0.2-0.5,0.6-0.8,1-1.1s0.9-0.5,1.4-0.6s1-0.2,1.5-0.2
	c1,0,1.8,0.2,2.5,0.7l2.6-0.9v1.9h-2.6L-72.2,247.3L-72.2,247.3z M-78.9,257.1c0,0.6,0.2,1,0.6,1.2c0.4,0.3,1.1,0.4,2,0.4
	c1.1,0,1.8-0.2,2.4-0.6c0.5-0.4,0.8-0.8,0.8-1.3v-0.1c0-0.4-0.1-0.7-0.3-0.9c-0.2-0.2-0.6-0.4-1.3-0.4H-78c-0.3,0.2-0.5,0.5-0.6,0.7
	C-78.8,256.5-78.9,256.8-78.9,257.1L-78.9,257.1z M-74,248.3c0-0.7-0.2-1.2-0.5-1.6c-0.3-0.3-0.9-0.5-1.6-0.5
	c-0.8,0-1.3,0.2-1.7,0.5c-0.3,0.3-0.5,0.9-0.5,1.5v0.3c0,0.8,0.2,1.3,0.5,1.7s0.9,0.5,1.7,0.5c0.7,0,1.3-0.2,1.6-0.5
	c0.3-0.3,0.5-0.9,0.5-1.7V248.3z M-85.3,248.1c0-0.7-0.2-1.1-0.5-1.3s-0.7-0.4-1.2-0.4s-0.9,0.1-1.3,0.2l-1.2,0.6v9.1h-2V245h1.2
	l0.7,1.5l1.1-1.2c0.2-0.1,0.5-0.2,0.9-0.3c0.3-0.1,0.7-0.1,1.2-0.1c1,0,1.7,0.3,2.2,0.8c0.5,0.6,0.8,1.5,0.8,2.8v8h-2v-8.4H-85.3z
	 M-96.1,243c-0.3,0-0.7-0.1-0.9-0.3c-0.3-0.2-0.4-0.5-0.4-0.9s0.1-0.7,0.4-0.9s0.6-0.4,0.9-0.4s0.6,0.1,0.9,0.4
	c0.3,0.2,0.4,0.5,0.4,0.9s-0.1,0.7-0.4,0.9S-95.8,243-96.1,243z M-102.7,255l-1.2,1.3l-0.6,0.2c-0.3,0.1-0.6,0.1-0.9,0.1
	c-1.3,0-2.3-0.5-3-1.5c-0.7-1-1-2.5-1-4.4c0-1,0.1-1.9,0.3-2.7c0.2-0.8,0.5-1.3,0.9-1.8s0.8-0.8,1.3-1.1c0.5-0.2,1-0.3,1.6-0.3
	s1.1,0.1,1.5,0.3s0.8,0.4,1.1,0.7v-4.9h2v15.6h-1.2C-101.9,256.5-102.7,255-102.7,255z M-102.8,247.2c-0.2-0.2-0.5-0.4-0.9-0.5
	c-0.4-0.2-0.8-0.3-1.3-0.3c-0.4,0-0.7,0.1-1,0.2s-0.5,0.3-0.7,0.6s-0.4,0.7-0.5,1.2s-0.2,1.1-0.2,1.9v0.8c0,1.5,0.2,2.6,0.6,3.2
	c0.4,0.6,1,0.9,1.8,0.9c0.5,0,0.9-0.1,1.2-0.3c0.3-0.2,0.7-0.4,1-0.8C-102.8,254.1-102.8,247.2-102.8,247.2z M-114.6,240.7h2v15.6
	h-2V240.7z M-119.5,243c-0.3,0-0.7-0.1-0.9-0.3c-0.3-0.2-0.4-0.5-0.4-0.9s0.1-0.7,0.4-0.9s0.6-0.4,0.9-0.4s0.6,0.1,0.9,0.4
	c0.3,0.2,0.4,0.5,0.4,0.9s-0.1,0.7-0.4,0.9C-118.8,242.9-119.1,243-119.5,243z M-122.9,229.1c-0.8,0-1.4-0.1-2-0.2
	c-0.5-0.2-1-0.3-1.3-0.5l0.2-1.5c0.4,0.2,0.8,0.3,1.3,0.5c0.5,0.1,1,0.2,1.6,0.2c0.7,0,1.2-0.1,1.6-0.4c0.4-0.3,0.6-0.7,0.6-1.4
	c0-0.3,0-0.6-0.1-0.8s-0.2-0.4-0.4-0.5l-0.8-0.4c-0.3-0.1-0.8-0.2-1.3-0.4c-0.4-0.1-0.8-0.2-1.1-0.4l-0.9-0.6l-0.6-0.9
	c-0.1-0.4-0.2-0.8-0.2-1.3c0-1.1,0.3-2,1-2.5s1.6-0.8,2.7-0.8c0.7,0,1.3,0.1,1.8,0.2s0.9,0.3,1.3,0.5l-0.3,1.5l-1.2-0.4
	c-0.4-0.1-0.9-0.1-1.4-0.1c-0.7,0-1.2,0.1-1.5,0.3s-0.5,0.6-0.5,1.3c0,0.3,0,0.5,0.1,0.7s0.2,0.3,0.4,0.5c0.2,0.1,0.4,0.2,0.7,0.3
	c0.3,0.1,0.7,0.2,1.1,0.3c0.5,0.1,0.9,0.3,1.3,0.5s0.7,0.4,0.9,0.7c0.3,0.3,0.4,0.6,0.6,1c0.1,0.4,0.2,0.8,0.2,1.4
	c0,1-0.3,1.8-1,2.4C-120.7,228.8-121.6,229.1-122.9,229.1L-122.9,229.1z M-126.2,245h2v11.4h-1.2l-0.7-1.4l-1,1.2l-0.9,0.3
	c-0.4,0.1-0.8,0.1-1.2,0.1c-0.9,0-1.7-0.3-2.2-0.9c-0.6-0.6-0.8-1.5-0.8-2.8v-8h2v8.2c0,0.7,0.1,1.2,0.4,1.5s0.7,0.4,1.2,0.4
	s1-0.1,1.4-0.2l1.1-0.6L-126.2,245L-126.2,245z M-130.4,229.1c-0.9,0-1.5-0.2-1.9-0.7s-0.6-1.2-0.6-2.2v-7.3h-1.3v-1.4h1.5l1-3.1
	h0.9v3.1h2.5v1.5h-2.5v7.6c0,0.4,0.1,0.6,0.2,0.8c0.1,0.1,0.4,0.2,0.8,0.2h1.6l0.1,1.1c-0.3,0.1-0.6,0.2-1,0.3
	C-129.1,229-130.4,229.1-130.4,229.1z M-139.3,256.6c-0.4,0-0.7,0-1.1-0.1c-0.3-0.1-0.6-0.2-0.7-0.2l-1.2-1.3l-0.6,1.3h-1v-15.6h2
	v5.2c0.3-0.3,0.7-0.6,1.1-0.8s1-0.4,1.7-0.4c1.3,0,2.2,0.5,2.9,1.4c0.7,1,1,2.4,1,4.5s-0.4,3.6-1.1,4.5
	C-136.9,256.1-138,256.6-139.3,256.6z M-137.2,250.3c0-0.8-0.1-1.4-0.2-1.9s-0.3-0.9-0.5-1.2s-0.4-0.5-0.7-0.6s-0.6-0.2-1-0.2
	c-0.6,0-1.1,0.1-1.4,0.3c-0.4,0.2-0.7,0.4-0.9,0.7v7.1l1,0.6c0.4,0.1,0.8,0.2,1.2,0.2s0.8-0.1,1.1-0.2c0.3-0.1,0.6-0.4,0.8-0.7
	s0.4-0.8,0.5-1.3s0.2-1.2,0.2-1.9v-0.9L-137.2,250.3L-137.2,250.3z M-141.3,225.3c0.1,0.5,0.3,1,0.5,1.3s0.5,0.6,0.8,0.7
	c0.3,0.1,0.7,0.2,1.1,0.2c0.5,0,1-0.1,1.4-0.2c0.4-0.1,0.9-0.3,1.3-0.5l0.3,1.5c-0.4,0.2-0.8,0.4-1.3,0.6s-1.2,0.3-1.8,0.3
	c-1.4,0-2.6-0.5-3.3-1.5c-0.8-1-1.2-2.5-1.2-4.5s0.4-3.5,1.1-4.4c0.8-1,1.9-1.5,3.3-1.5c0.6,0,1.2,0.1,1.7,0.2
	c0.5,0.1,1,0.3,1.3,0.5l-0.3,1.5c-0.5-0.2-0.9-0.3-1.4-0.4c-0.4-0.1-0.8-0.1-1.3-0.1c-0.4,0-0.8,0.1-1.1,0.2
	c-0.3,0.1-0.6,0.3-0.8,0.6s-0.4,0.7-0.5,1.2s-0.2,1.2-0.2,2v0.3C-141.5,224.1-141.4,224.8-141.3,225.3z M-152.2,225.6
	c0.1,0.5,0.3,0.9,0.5,1.1c0.2,0.3,0.5,0.5,0.9,0.6c0.3,0.1,0.8,0.2,1.2,0.2c0.5,0,1-0.1,1.5-0.2c0.5-0.1,1-0.3,1.5-0.5l0.3,1.5
	c-0.3,0.2-0.8,0.4-1.4,0.6c-0.6,0.2-1.3,0.3-2,0.3c-1.6,0-2.7-0.5-3.5-1.5s-1.2-2.5-1.2-4.5s0.4-3.5,1.2-4.5s1.9-1.4,3.3-1.4
	c1.4,0,2.5,0.5,3.1,1.4c0.7,0.9,1,2.2,1,3.9v1.2h-6.5C-152.4,224.5-152.3,225.1-152.2,225.6z M-147.8,222.4V222c0-1.2-0.2-2-0.5-2.5
	c-0.4-0.5-0.9-0.8-1.6-0.8c-0.4,0-0.7,0.1-1,0.2c-0.3,0.1-0.6,0.3-0.8,0.6s-0.4,0.6-0.5,1.1s-0.2,1.1-0.2,1.8L-147.8,222.4
	L-147.8,222.4z M-152.9,248.3v8h-2v-8.2c0-0.7-0.2-1.1-0.5-1.3s-0.7-0.4-1.2-0.4s-0.9,0.1-1.3,0.2l-1.2,0.6v9.1h-2V245h1.2l0.7,1.5
	l1.1-1.2c0.2-0.1,0.5-0.2,0.9-0.3s0.7-0.1,1.2-0.1c1,0,1.7,0.3,2.2,0.8C-153.1,246.1-152.9,247.1-152.9,248.3z M-158.7,229.1
	c-0.9,0-1.5-0.2-1.9-0.7s-0.6-1.2-0.6-2.2v-7.3h-1.3v-1.4h1.5l1-3.1h0.9v3.1h2.4v1.5h-2.5v7.6c0,0.4,0.1,0.6,0.2,0.8
	c0.1,0.1,0.4,0.2,0.8,0.2h1.6l0.1,1.1c-0.3,0.1-0.6,0.2-1,0.3C-157.8,229-158.2,229.1-158.7,229.1z M-164.5,247.3l0.1,0.5l0.1,0.6
	c0,0.7-0.1,1.3-0.3,1.8s-0.5,0.9-0.9,1.2s-0.8,0.5-1.3,0.6s-1,0.2-1.6,0.2c-0.8,0-1.4-0.1-1.9-0.3c-0.2,0.1-0.3,0.3-0.4,0.4
	c-0.1,0.2-0.2,0.4-0.2,0.6c0,0.7,0.5,1.1,1.4,1.1h2.5c1.1,0,2,0.2,2.6,0.7s0.9,1.2,0.9,2.1c0,0.6-0.1,1.2-0.4,1.6
	c-0.3,0.5-0.6,0.8-1.1,1.1c-0.5,0.3-1,0.5-1.6,0.6c-0.6,0.1-1.3,0.2-2,0.2c-1.4,0-2.5-0.2-3.2-0.7s-1.1-1.2-1.1-2
	c0-0.4,0.1-0.8,0.2-1c0.1-0.2,0.3-0.4,0.4-0.6l1.3-0.6c-0.4-0.1-0.7-0.3-1-0.6s-0.4-0.7-0.4-1.3c0-0.4,0.1-0.7,0.2-0.9
	c0.1-0.2,0.2-0.4,0.3-0.5l1.2-0.7l-1.3-0.8l-0.4-0.9c-0.1-0.3-0.1-0.7-0.1-1.1c0-0.7,0.1-1.3,0.4-1.7c0.2-0.5,0.6-0.8,1-1.1
	s0.9-0.5,1.4-0.6s1-0.2,1.5-0.2c1,0,1.8,0.2,2.5,0.7l2.6-0.9v1.9h-2.6C-165.7,246.7-164.5,247.3-164.5,247.3z M-171.2,257.1
	c0,0.6,0.2,1,0.6,1.2c0.4,0.3,1.1,0.4,2,0.4c1.1,0,1.8-0.2,2.4-0.6c0.5-0.4,0.8-0.8,0.8-1.3v-0.1c0-0.4-0.1-0.7-0.3-0.9
	c-0.2-0.2-0.6-0.4-1.3-0.4h-3.3c-0.3,0.2-0.5,0.5-0.6,0.7C-171.1,256.5-171.2,256.8-171.2,257.1z M-166.3,248.3
	c0-0.7-0.2-1.2-0.5-1.6c-0.3-0.3-0.9-0.5-1.6-0.5c-0.8,0-1.3,0.2-1.7,0.5c-0.3,0.3-0.5,0.9-0.5,1.5v0.3c0,0.8,0.2,1.3,0.5,1.7
	c0.3,0.3,0.9,0.5,1.7,0.5c0.7,0,1.3-0.2,1.6-0.5s0.5-0.9,0.5-1.7V248.3z M-165.1,228.8h-2v-11.3h2V228.8z M-166.1,215.5
	c-0.3,0-0.7-0.1-0.9-0.3c-0.3-0.2-0.4-0.5-0.4-0.9s0.1-0.7,0.4-0.9c0.3-0.3,0.6-0.4,0.9-0.4s0.6,0.1,0.9,0.4
	c0.3,0.2,0.4,0.5,0.4,0.9s-0.1,0.7-0.4,0.9S-165.8,215.5-166.1,215.5z M-172.7,220.6c0-0.7-0.2-1.1-0.5-1.3s-0.7-0.4-1.2-0.4
	s-0.9,0.1-1.3,0.2l-1.2,0.6v9.1h-2v-15.5h2v5.6l1-1.2c0.2-0.1,0.5-0.2,0.9-0.3s0.7-0.1,1.2-0.1c1,0,1.7,0.3,2.2,0.8
	c0.6,0.6,0.9,1.5,0.9,2.8v8h-2C-172.7,228.9-172.7,220.6-172.7,220.6z M-184.6,256.6c-0.8,0-1.4-0.1-2-0.2c-0.5-0.2-1-0.3-1.3-0.5
	l0.2-1.5c0.4,0.2,0.8,0.3,1.3,0.5c0.5,0.1,1,0.2,1.6,0.2c0.7,0,1.2-0.1,1.6-0.4c0.4-0.3,0.6-0.7,0.6-1.4c0-0.3,0-0.6-0.1-0.8
	s-0.2-0.4-0.4-0.5l-0.8-0.4c-0.3-0.1-0.8-0.2-1.3-0.4c-0.4-0.1-0.8-0.2-1.1-0.4l-0.9-0.6l-0.6-0.9c-0.1-0.4-0.2-0.8-0.2-1.3
	c0-1.1,0.3-2,1-2.5s1.6-0.8,2.7-0.8c0.7,0,1.3,0.1,1.8,0.2c0.5,0.1,0.9,0.3,1.3,0.5l-0.3,1.5l-1.2-0.4c-0.4-0.1-0.9-0.1-1.4-0.1
	c-0.7,0-1.2,0.1-1.5,0.3s-0.5,0.6-0.5,1.3c0,0.3,0,0.5,0.1,0.7s0.2,0.3,0.4,0.5c0.2,0.1,0.4,0.2,0.7,0.3s0.7,0.2,1.1,0.3
	c0.5,0.1,0.9,0.3,1.3,0.5s0.7,0.4,0.9,0.7c0.3,0.3,0.4,0.6,0.6,1c0.1,0.4,0.2,0.8,0.2,1.4c0,1-0.3,1.8-1,2.4
	C-182.3,256.3-183.3,256.6-184.6,256.6z M-187,225.3c0.1,0.5,0.3,1,0.5,1.3s0.5,0.6,0.8,0.7c0.3,0.1,0.7,0.2,1.1,0.2
	c0.5,0,1-0.1,1.4-0.2c0.4-0.1,0.9-0.3,1.3-0.5l0.3,1.5c-0.4,0.2-0.8,0.4-1.3,0.6s-1.1,0.3-1.8,0.3c-1.4,0-2.6-0.5-3.3-1.5
	c-0.8-1-1.2-2.5-1.2-4.5s0.4-3.5,1.1-4.4c0.8-1,1.9-1.5,3.3-1.5c0.6,0,1.2,0.1,1.7,0.2c0.5,0.1,1,0.3,1.3,0.5l-0.3,1.5
	c-0.5-0.2-0.9-0.3-1.4-0.4c-0.2-0.1-0.7-0.2-1.1-0.2s-0.8,0.1-1.1,0.2c-0.3,0.1-0.6,0.3-0.8,0.6s-0.4,0.7-0.5,1.2s-0.2,1.2-0.2,2
	v0.3C-187.1,224.1-187.1,224.8-187,225.3z M-196.5,253c0.1,0.5,0.3,0.9,0.5,1.1c0.2,0.3,0.5,0.5,0.9,0.6c0.3,0.1,0.8,0.2,1.2,0.2
	c0.5,0,1-0.1,1.5-0.2c0.5-0.1,1-0.3,1.5-0.5l0.3,1.5c-0.3,0.2-0.8,0.4-1.4,0.6c-0.6,0.2-1.3,0.3-2,0.3c-1.6,0-2.7-0.5-3.5-1.5
	c-0.8-1-1.2-2.5-1.2-4.5s0.4-3.5,1.2-4.5s1.9-1.4,3.3-1.4c1.4,0,2.5,0.5,3.1,1.4c0.7,0.9,1,2.2,1,3.9v1.2h-6.6
	C-196.7,252-196.6,252.6-196.5,253z M-192.1,249.8v-0.3c0-1.2-0.2-2-0.5-2.5s-0.9-0.7-1.6-0.7c-0.4,0-0.7,0.1-1,0.2
	c-0.3,0.1-0.5,0.3-0.7,0.6s-0.4,0.6-0.5,1.1s-0.2,1.1-0.2,1.8h4.5V249.8z M-191.8,219.2c-0.2-0.1-0.5-0.1-0.9-0.1s-0.8,0.1-1.2,0.2
	c-0.3,0.2-0.7,0.3-1,0.6v8.9h-2v-11.3h1.2l0.8,1.5l1.2-1.4c0.2-0.1,0.5-0.2,0.8-0.3s0.5-0.1,0.8-0.1s0.6,0,0.9,0.1l0.6,0.2l-0.4,1.8
	C-191,219.3-191.8,219.2-191.8,219.2z M-202.6,226h-5.3l-0.9,2.8h-1.9l4.6-14.1h2.1l4.5,14.1h-2.3C-201.8,228.8-202.6,226-202.6,226
	z M-204.6,219.2l-0.6-2.8l-0.6,2.8l-1.7,5.4h4.4C-203.1,224.6-204.6,219.2-204.6,219.2z M-209.2,246.1c0.4-0.5,0.8-0.8,1.3-1.1
	c0.5-0.2,1-0.3,1.6-0.3s1.1,0.1,1.5,0.3s0.8,0.4,1.1,0.7v-4.9h2v15.6h-1.3l-0.6-1.4l-1.2,1.3l-0.6,0.2c-0.3,0.1-0.6,0.1-0.9,0.1
	c-1.3,0-2.3-0.5-3-1.5c-0.7-1-1-2.5-1-4.4c0-1,0.1-1.9,0.3-2.7C-209.8,247.2-209.6,246.6-209.2,246.1z M-208.3,251.1
	c0,1.5,0.2,2.6,0.6,3.2c0.4,0.6,1,0.9,1.8,0.9c0.5,0,0.9-0.1,1.2-0.3s0.7-0.4,1-0.8v-7c-0.2-0.2-0.5-0.4-0.9-0.5
	c-0.4-0.2-0.8-0.3-1.3-0.3c-0.4,0-0.7,0.1-1,0.2c-0.3,0.1-0.5,0.3-0.7,0.6s-0.4,0.7-0.5,1.2s-0.2,1.1-0.2,1.9
	C-208.3,250.2-208.3,251.1-208.3,251.1z M-176.8,240.5c0.3,0,0.6,0.1,0.9,0.4c0.3,0.2,0.4,0.5,0.4,0.9s-0.1,0.7-0.4,0.9
	c-0.3,0.2-0.6,0.3-0.9,0.3s-0.7-0.1-0.9-0.3c-0.3-0.2-0.4-0.5-0.4-0.9s0.1-0.7,0.4-0.9C-177.5,240.6-177.1,240.5-176.8,240.5z
	 M-175.8,256.3h-2V245h2V256.3z M-118.5,256.3h-2V245h2V256.3z M-95.1,256.3h-2V245h2V256.3z M-109.4,357.5
	c-0.3,0.3-0.8,0.5-1.2,0.5c-0.5,0-0.9-0.2-1.2-0.5c-0.4-0.3-0.5-0.7-0.5-1.3c0-0.5,0.2-1,0.5-1.3c0.4-0.3,0.8-0.5,1.2-0.5
	c0.5,0,0.9,0.2,1.2,0.5c0.3,0.3,0.5,0.8,0.5,1.3C-108.9,356.8-109,357.2-109.4,357.5z M-119.3,358.1c-0.9,0-1.6-0.1-2.2-0.3
	s-1.1-0.4-1.5-0.5l0.3-1.6c0.4,0.2,0.9,0.3,1.4,0.5s1.1,0.2,1.7,0.2c0.8,0,1.4-0.1,1.8-0.4s0.6-0.8,0.6-1.5c0-0.4,0-0.6-0.1-0.9
	c-0.1-0.2-0.2-0.4-0.4-0.5c-0.2-0.1-0.5-0.3-0.9-0.4c-0.4-0.1-0.8-0.3-1.4-0.4c-0.4-0.1-0.9-0.3-1.2-0.4c-0.4-0.2-0.7-0.4-1-0.7
	c-0.3-0.3-0.5-0.6-0.6-1c-0.1-0.4-0.2-0.9-0.2-1.5c0-1.3,0.4-2.2,1.1-2.8c0.8-0.6,1.8-0.9,3-0.9c0.8,0,1.4,0.1,2,0.2
	c0.6,0.1,1,0.3,1.4,0.5l-0.3,1.6c-0.5-0.2-0.9-0.3-1.4-0.4c-0.4-0.1-1-0.2-1.6-0.2c-0.8,0-1.3,0.1-1.7,0.4c-0.4,0.2-0.6,0.7-0.6,1.4
	c0,0.3,0,0.6,0.1,0.8s0.2,0.4,0.5,0.5c0.3,0.1,0.5,0.3,0.8,0.4c0.3,0.1,0.7,0.2,1.2,0.3s1,0.3,1.4,0.5s0.8,0.4,1,0.7
	c0.3,0.3,0.5,0.7,0.6,1.1c0.1,0.4,0.2,0.9,0.2,1.5c0,1.1-0.4,2-1.1,2.7C-116.8,357.8-117.8,358.1-119.3,358.1L-119.3,358.1z
	 M-132.4,354.1c0.1,0.5,0.3,0.9,0.6,1.3c0.2,0.3,0.6,0.5,0.9,0.7c0.4,0.1,0.8,0.2,1.4,0.2s1.2-0.1,1.7-0.2l1.6-0.6l0.4,1.6
	c-0.4,0.2-0.9,0.4-1.6,0.6c-0.7,0.2-1.4,0.3-2.2,0.3c-1.7,0-3-0.6-3.9-1.7c-0.9-1.1-1.3-2.8-1.3-4.9c0-2.2,0.5-3.9,1.4-5
	c0.9-1.1,2.1-1.6,3.6-1.6c1.6,0,2.7,0.5,3.4,1.6c0.7,1,1.1,2.5,1.1,4.3v1.4h-7.4C-132.6,353-132.6,353.6-132.4,354.1L-132.4,354.1z
	 M-127.6,350.6v-0.4c0-1.3-0.2-2.3-0.6-2.8c-0.4-0.5-1-0.8-1.8-0.8c-0.4,0-0.8,0.1-1.1,0.2c-0.3,0.1-0.6,0.3-0.8,0.6
	s-0.4,0.7-0.5,1.2s-0.2,1.2-0.3,2C-132.7,350.6-127.6,350.6-127.6,350.6z M-138.2,329.3c-0.9,0-1.6-0.1-2.2-0.3
	c-0.6-0.2-1.1-0.4-1.5-0.5l0.3-1.6c0.4,0.2,0.9,0.3,1.4,0.5s1.1,0.2,1.7,0.2c0.8,0,1.4-0.1,1.8-0.4c0.4-0.3,0.6-0.8,0.6-1.5
	c0-0.4,0-0.6-0.1-0.9c-0.1-0.2-0.2-0.4-0.4-0.5c-0.2-0.1-0.5-0.3-0.9-0.4c-0.4-0.1-0.8-0.3-1.4-0.4c-0.4-0.1-0.9-0.3-1.2-0.4
	c-0.4-0.2-0.7-0.4-1-0.7c-0.3-0.3-0.5-0.6-0.6-1c-0.2-0.4-0.2-0.9-0.2-1.5c0-1.3,0.4-2.2,1.1-2.8c0.7-0.6,1.8-0.9,3-0.9
	c0.8,0,1.4,0.1,2,0.2c0.6,0.1,1,0.3,1.4,0.5l-0.3,1.6c-0.5-0.2-0.9-0.3-1.4-0.4c-0.4-0.1-1-0.2-1.6-0.2c-0.8,0-1.3,0.1-1.7,0.4
	c-0.4,0.2-0.6,0.7-0.6,1.4c0,0.3,0,0.6,0.1,0.8c0.1,0.2,0.2,0.4,0.5,0.5c0.2,0.1,0.5,0.3,0.8,0.4c0.3,0.1,0.7,0.2,1.2,0.3
	s1,0.3,1.4,0.5s0.8,0.4,1,0.7c0.3,0.3,0.5,0.7,0.6,1.1c0.1,0.4,0.2,0.9,0.2,1.5c0,1.1-0.4,2-1.1,2.7
	C-135.7,328.9-136.7,329.3-138.2,329.3L-138.2,329.3z M-141,352.9l2.3-7.8h2l-3.9,12.6h-2.3l-3.9-12.6h2.3l2.2,7.8l0.6,4
	C-141.7,356.9-141,352.9-141,352.9z M-145,318.3c-0.3-0.1-0.6-0.1-1-0.1c-0.5,0-0.9,0.1-1.3,0.3c-0.4,0.2-0.7,0.4-1.1,0.6v9.9h-2.2
	v-12.6h1.3l0.8,1.7l1.3-1.5c0.3-0.1,0.6-0.2,0.8-0.3c0.3-0.1,0.6-0.1,0.9-0.1c0.4,0,0.7,0,1,0.1c0.3,0.1,0.5,0.2,0.6,0.2l-0.4,2
	C-144.5,318.4-144.7,318.3-145,318.3z M-149.7,340.6c0.3,0.3,0.4,0.6,0.4,1c0,0.4-0.1,0.8-0.4,1c-0.3,0.3-0.6,0.4-1,0.4
	s-0.7-0.1-1-0.4s-0.4-0.6-0.4-1c0-0.4,0.1-0.8,0.4-1c0.3-0.3,0.6-0.4,1-0.4S-150,340.4-149.7,340.6z M-158.9,329.3
	c-1.6,0-2.8-0.6-3.7-1.7c-0.9-1.1-1.4-2.8-1.4-4.9c0-2.1,0.5-3.8,1.4-4.9c0.9-1.1,2.1-1.7,3.7-1.7c1.6,0,2.8,0.6,3.7,1.7
	c0.9,1.1,1.4,2.7,1.4,4.8c0,2.2-0.4,3.8-1.3,4.9C-156.1,328.7-157.3,329.3-158.9,329.3z M-156.2,322.6c0-0.9-0.1-1.7-0.2-2.3
	c-0.1-0.6-0.3-1.1-0.5-1.4c-0.2-0.4-0.5-0.6-0.9-0.7c-0.3-0.1-0.7-0.2-1.2-0.2c-0.4,0-0.8,0.1-1.2,0.2c-0.3,0.1-0.6,0.4-0.9,0.7
	c-0.2,0.4-0.4,0.8-0.5,1.4c-0.1,0.6-0.2,1.3-0.2,2.2v0.4c0,0.9,0.1,1.6,0.2,2.3c0.1,0.6,0.3,1.1,0.5,1.5c0.2,0.4,0.5,0.6,0.9,0.8
	c0.3,0.2,0.7,0.2,1.2,0.2c0.4,0,0.8-0.1,1.2-0.2c0.3-0.2,0.6-0.4,0.9-0.8c0.2-0.4,0.4-0.8,0.5-1.4c0.1-0.6,0.2-1.3,0.2-2.2V322.6z
	 M-168.7,329.2c-1,0-1.7-0.3-2.1-0.8c-0.4-0.5-0.6-1.3-0.6-2.5v-8h-1.5v-1.6h1.6l1.1-3.4h1v3.4h2.7v1.6h-2.7v8.4
	c0,0.4,0.1,0.7,0.2,0.9c0.2,0.2,0.5,0.2,0.9,0.2h1.8l0.1,1.2c-0.3,0.1-0.7,0.2-1.1,0.3C-167.6,329.2-168.1,329.2-168.7,329.2z
	 M-168.8,346.5c0.7,1,1.1,2.5,1.1,4.3v1.4h-7.2c0,0.8,0.1,1.4,0.2,2c0.1,0.5,0.3,0.9,0.6,1.3c0.2,0.3,0.6,0.5,0.9,0.7
	c0.4,0.1,0.8,0.2,1.4,0.2c0.6,0,1.2-0.1,1.7-0.2l1.6-0.6l0.4,1.6c-0.4,0.2-0.9,0.4-1.6,0.6c-0.7,0.2-1.4,0.3-2.2,0.3
	c-1.7,0-3-0.6-3.9-1.7c-0.9-1.1-1.3-2.8-1.3-4.9c0-2.2,0.5-3.9,1.4-5c0.9-1.1,2.1-1.6,3.6-1.6C-170.6,345-169.5,345.5-168.8,346.5
	L-168.8,346.5z M-174.1,347.4c-0.2,0.3-0.4,0.7-0.5,1.2s-0.2,1.2-0.3,2h5.1v-0.4c0-1.3-0.2-2.3-0.6-2.8c-0.4-0.5-1-0.8-1.8-0.8
	c-0.4,0-0.8,0.1-1.1,0.2C-173.6,346.9-173.9,347.1-174.1,347.4z M-180.7,325.1c0.1,0.6,0.3,1.1,0.5,1.4c0.2,0.4,0.5,0.6,0.9,0.8
	c0.3,0.1,0.7,0.2,1.2,0.2c0.6,0,1.1-0.1,1.5-0.2c0.5-0.2,0.9-0.3,1.5-0.6l0.4,1.7c-0.4,0.2-0.9,0.4-1.5,0.6s-1.3,0.3-2,0.3
	c-1.6,0-2.8-0.6-3.7-1.7c-0.8-1.1-1.3-2.8-1.3-5s0.4-3.8,1.2-4.9c0.8-1.1,2.1-1.6,3.7-1.6c0.7,0,1.3,0.1,1.9,0.2
	c0.6,0.1,1.1,0.3,1.5,0.5l-0.3,1.7c-0.5-0.2-1-0.3-1.5-0.4c-0.5-0.1-0.9-0.2-1.4-0.2c-0.4,0-0.8,0.1-1.2,0.2
	c-0.4,0.1-0.6,0.3-0.9,0.7c-0.2,0.3-0.4,0.8-0.5,1.3c-0.1,0.6-0.2,1.3-0.2,2.2v0.4C-180.9,323.7-180.8,324.5-180.7,325.1z
	 M-178.9,345.2l-3.9,12.6h-2.3l-3.9-12.6h2.3l2.2,7.8l0.6,4l0.6-4l2.3-7.8C-181,345.2-178.9,345.2-178.9,345.2z M-190.7,329.3
	c-1.6,0-2.8-0.6-3.7-1.7c-0.9-1.1-1.4-2.8-1.4-4.9c0-2.1,0.5-3.8,1.4-4.9c0.9-1.1,2.1-1.7,3.7-1.7c1.6,0,2.8,0.6,3.7,1.7
	c0.9,1.1,1.4,2.7,1.4,4.8c0,2.2-0.4,3.8-1.3,4.9C-187.9,328.7-189.1,329.3-190.7,329.3z M-188,322.6c0-0.9-0.1-1.7-0.2-2.3
	c-0.1-0.6-0.3-1.1-0.5-1.4c-0.2-0.4-0.5-0.6-0.9-0.7c-0.4-0.1-0.7-0.2-1.2-0.2s-0.8,0.1-1.2,0.2c-0.4,0.1-0.6,0.4-0.9,0.7
	c-0.3,0.3-0.4,0.8-0.5,1.4c-0.1,0.6-0.2,1.3-0.2,2.2v0.4c0,0.9,0.1,1.6,0.2,2.3c0.1,0.6,0.3,1.1,0.5,1.5c0.2,0.4,0.5,0.6,0.9,0.8
	c0.3,0.2,0.7,0.2,1.2,0.2c0.4,0,0.8-0.1,1.2-0.2c0.3-0.2,0.6-0.4,0.9-0.8c0.3-0.4,0.4-0.8,0.5-1.4c0.1-0.6,0.2-1.3,0.2-2.2V322.6z
	 M-192.5,346.1c0.6,0.8,1,2,1,3.7v5.9c0,0.3,0.1,0.6,0.2,0.7c0.1,0.1,0.3,0.2,0.6,0.2h0.5l0.1,1.1c-0.1,0.1-0.3,0.2-0.5,0.3
	c-0.2,0.1-0.5,0.1-0.9,0.1h-0.6l-0.6-0.1l-0.9-1.4l-1.1,1.2c-0.2,0.1-0.5,0.2-0.9,0.3s-0.8,0.1-1.2,0.1c-0.5,0-0.9-0.1-1.4-0.2
	c-0.4-0.1-0.8-0.3-1.1-0.6s-0.6-0.7-0.8-1.1c-0.2-0.5-0.3-1-0.3-1.7c0-0.6,0.1-1.2,0.3-1.6c0.2-0.5,0.4-0.8,0.8-1.1
	c0.4-0.3,0.8-0.5,1.4-0.7c0.6-0.2,1.3-0.3,2.1-0.4l2.1-0.2V349c0-0.3,0-0.6-0.1-0.9s-0.2-0.5-0.3-0.7l-0.6-0.5
	c-0.3-0.1-0.6-0.2-1-0.2c-0.6,0-1.2,0.1-1.8,0.2c-0.6,0.2-1.3,0.3-1.9,0.6l-0.3-1.7c0.6-0.2,1.2-0.5,1.9-0.7s1.5-0.3,2.3-0.3
	C-194.2,345-193.1,345.3-192.5,346.1L-192.5,346.1z M-195.7,351.9c-0.9,0.1-1.6,0.3-2,0.6c-0.4,0.3-0.6,0.9-0.6,1.7v0.2
	c0,0.7,0.2,1.2,0.5,1.6c0.3,0.3,0.9,0.5,1.6,0.5c0.6,0,1.1-0.1,1.5-0.3s0.7-0.4,0.9-0.7v-3.8C-193.8,351.7-195.7,351.9-195.7,351.9z
	 M-205.2,329h-4.5v-15.6h4.7c2.2,0,3.9,0.7,5,2s1.6,3.3,1.6,5.8c0,2.6-0.6,4.6-1.7,5.9C-201.2,328.4-202.9,329-205.2,329z
	 M-200.9,320.7c0-1.1-0.1-2-0.3-2.7s-0.5-1.2-0.8-1.6c-0.4-0.4-0.8-0.7-1.4-0.8c-0.6-0.2-1.2-0.2-2-0.2h-1.8v11.9h1.9
	c0.7,0,1.4-0.1,1.9-0.2c0.6-0.2,1-0.4,1.4-0.9c0.4-0.4,0.6-1,0.8-1.7s0.3-1.7,0.3-2.9C-200.9,321.6-200.9,320.7-200.9,320.7z
	 M-205.4,353.1c-0.2-0.1-0.5-0.3-0.9-0.4c-0.4-0.1-0.8-0.3-1.4-0.4c-0.4-0.1-0.9-0.3-1.2-0.4c-0.3-0.1-0.7-0.4-1-0.7s-0.5-0.6-0.6-1
	c-0.1-0.4-0.2-1-0.2-1.5c0-1.3,0.4-2.2,1.1-2.8c0.8-0.6,1.8-0.9,3-0.9c0.8,0,1.4,0.1,2,0.2c0.6,0.1,1,0.3,1.4,0.5l-0.3,1.6
	c-0.5-0.2-0.9-0.3-1.4-0.4c-0.4-0.1-1-0.2-1.6-0.2c-0.8,0-1.3,0.1-1.7,0.4c-0.4,0.2-0.6,0.7-0.6,1.4c0,0.3,0,0.6,0.1,0.8
	c0.1,0.2,0.2,0.4,0.5,0.5c0.3,0.1,0.5,0.3,0.8,0.4c0.3,0.1,0.7,0.2,1.2,0.3s1,0.3,1.4,0.5s0.8,0.4,1,0.7c0.3,0.3,0.5,0.7,0.6,1.1
	c0.1,0.4,0.2,0.9,0.2,1.5c0,1.1-0.4,2-1.1,2.7c-0.7,0.7-1.8,1-3.2,1c-0.9,0-1.6-0.1-2.2-0.3c-0.6-0.2-1.1-0.4-1.5-0.5l0.3-1.6
	c0.4,0.2,0.9,0.3,1.4,0.5s1.1,0.2,1.7,0.2c0.8,0,1.4-0.1,1.8-0.4c0.4-0.3,0.6-0.8,0.6-1.5c0-0.4,0-0.6-0.1-0.9
	C-205,353.4-205.2,353.2-205.4,353.1L-205.4,353.1z M-156.1,357.8h-2.2v-17.2h2.2V357.8z M-149.6,357.8h-2.2v-12.6h2.2V357.8z
	 M-76.6,459.1c-0.3,0.3-0.8,0.5-1.2,0.5c-0.5,0-0.9-0.2-1.2-0.5c-0.4-0.3-0.5-0.7-0.5-1.3c0-0.5,0.2-1,0.5-1.3
	c0.4-0.3,0.8-0.5,1.2-0.5c0.5,0,0.9,0.2,1.2,0.5s0.5,0.8,0.5,1.3C-76.1,458.4-76.2,458.8-76.6,459.1z M-87.1,463.2l1.3-4.3
	l-4.1-12.2h2.3l2.3,7.3l0.6,3.6l0.6-3.6l2.2-7.3h2.1l-5.2,16.5H-87.1L-87.1,463.2z M-92.5,448.7c-0.3-0.1-0.6-0.1-1-0.1
	c-0.5,0-0.9,0.1-1.3,0.3c-0.4,0.2-0.7,0.4-1.1,0.6v9.9h-2.2v-12.6h1.3l0.8,1.7l1.3-1.5c0.3-0.1,0.6-0.2,0.8-0.3
	c0.3-0.1,0.6-0.1,0.9-0.1c0.4,0,0.7,0,1,0.1c0.3,0.1,0.5,0.2,0.6,0.2l-0.4,2C-92,448.8-92.2,448.7-92.5,448.7L-92.5,448.7z
	 M-105.9,459.7c-1.6,0-2.8-0.6-3.7-1.7c-0.9-1.1-1.4-2.8-1.4-4.9c0-2.1,0.5-3.8,1.4-4.9c0.9-1.1,2.1-1.7,3.7-1.7s2.8,0.6,3.7,1.7
	c0.9,1.1,1.4,2.7,1.4,4.8c0,2.2-0.4,3.8-1.3,4.9C-103.1,459.1-104.4,459.7-105.9,459.7L-105.9,459.7z M-103.2,452.9
	c0-0.9-0.1-1.7-0.2-2.3s-0.3-1.1-0.5-1.4c-0.2-0.4-0.5-0.6-0.9-0.7c-0.4-0.1-0.7-0.2-1.2-0.2c-0.4,0-0.8,0.1-1.2,0.2
	c-0.3,0.1-0.6,0.4-0.9,0.7c-0.2,0.4-0.4,0.8-0.5,1.4c-0.1,0.6-0.2,1.3-0.2,2.2v0.4c0,0.9,0.1,1.6,0.2,2.3c0.1,0.6,0.3,1.1,0.5,1.5
	c0.2,0.4,0.5,0.6,0.9,0.8c0.3,0.2,0.7,0.2,1.2,0.2c0.4,0,0.8-0.1,1.2-0.2c0.3-0.2,0.6-0.4,0.9-0.8c0.2-0.4,0.4-0.8,0.5-1.4
	c0.1-0.6,0.2-1.3,0.2-2.2V452.9z M-113.6,430.9c-0.9,0-1.6-0.1-2.2-0.3c-0.6-0.2-1.1-0.4-1.5-0.5l0.3-1.6c0.4,0.2,0.9,0.3,1.4,0.5
	s1.1,0.2,1.7,0.2c0.8,0,1.4-0.1,1.8-0.4s0.6-0.8,0.6-1.5c0-0.4,0-0.6-0.1-0.9c-0.1-0.2-0.2-0.4-0.4-0.5c-0.2-0.1-0.5-0.3-0.9-0.4
	c-0.4-0.1-0.8-0.3-1.4-0.4c-0.4-0.1-0.9-0.3-1.2-0.4c-0.4-0.2-0.7-0.4-1-0.7c-0.3-0.3-0.5-0.6-0.6-1c-0.2-0.4-0.2-0.9-0.2-1.5
	c0-1.3,0.4-2.2,1.1-2.8c0.8-0.6,1.8-0.9,3-0.9c0.8,0,1.4,0.1,2,0.2c0.6,0.1,1,0.3,1.4,0.5l-0.3,1.6c-0.5-0.2-0.9-0.3-1.4-0.4
	c-0.4-0.1-1-0.2-1.6-0.2c-0.8,0-1.3,0.1-1.7,0.4c-0.4,0.2-0.6,0.7-0.6,1.4c0,0.3,0,0.6,0.1,0.8c0.1,0.2,0.2,0.4,0.5,0.5
	c0.2,0.1,0.5,0.3,0.8,0.4c0.3,0.1,0.7,0.2,1.2,0.3c0.5,0.1,1,0.3,1.4,0.5s0.8,0.4,1,0.7c0.3,0.3,0.5,0.7,0.6,1.1
	c0.1,0.4,0.2,0.9,0.2,1.5c0,1.1-0.4,2-1.1,2.7C-111.1,430.5-112.2,430.9-113.6,430.9L-113.6,430.9z M-115.7,443.4v3.4h2.7v1.6h-2.7
	v8.4c0,0.4,0.1,0.7,0.2,0.9c0.2,0.2,0.5,0.2,0.9,0.2h1.8l0.1,1.2c-0.3,0.1-0.7,0.2-1.1,0.3s-0.9,0.2-1.4,0.2c-1,0-1.7-0.3-2.1-0.8
	s-0.6-1.3-0.6-2.5v-8h-1.5v-1.6h1.6l1.1-3.4L-115.7,443.4L-115.7,443.4z M-121.4,430.8c-1,0-1.7-0.3-2.1-0.8s-0.6-1.3-0.6-2.5v-8
	h-1.5v-1.6h1.6l1.1-3.4h1v3.4h2.7v1.6h-2.7v8.4c0,0.4,0.1,0.7,0.2,0.9c0.2,0.2,0.5,0.2,0.9,0.2h1.8l0.1,1.2
	c-0.3,0.1-0.7,0.2-1.1,0.3C-120.4,430.7-120.9,430.8-121.4,430.8L-121.4,430.8z M-122.7,446.7c0.6,0.1,1,0.3,1.4,0.5l-0.3,1.6
	c-0.5-0.2-0.9-0.3-1.4-0.4c-0.4-0.1-1-0.2-1.6-0.2c-0.8,0-1.3,0.1-1.7,0.4c-0.4,0.2-0.6,0.7-0.6,1.4c0,0.3,0,0.6,0.1,0.8
	s0.2,0.4,0.5,0.5c0.2,0.1,0.5,0.3,0.8,0.4c0.3,0.1,0.7,0.2,1.2,0.3s1,0.3,1.4,0.5s0.8,0.4,1,0.7c0.3,0.3,0.5,0.7,0.6,1.1
	c0.1,0.4,0.2,0.9,0.2,1.5c0,1.1-0.4,2-1.1,2.7s-1.8,1-3.2,1c-0.9,0-1.6-0.1-2.2-0.3c-0.6-0.2-1.1-0.4-1.5-0.5l0.3-1.6
	c0.4,0.2,0.9,0.3,1.4,0.5s1.1,0.2,1.7,0.2c0.8,0,1.4-0.1,1.8-0.4s0.6-0.8,0.6-1.5c0-0.4,0-0.6-0.1-0.9c-0.1-0.2-0.2-0.4-0.4-0.5
	c-0.2-0.1-0.5-0.3-0.9-0.4c-0.4-0.1-0.8-0.3-1.4-0.4c-0.4-0.1-0.9-0.3-1.2-0.4c-0.4-0.2-0.7-0.4-1-0.7s-0.5-0.6-0.6-1
	c-0.2-0.4-0.2-0.9-0.2-1.5c0-1.3,0.4-2.2,1.1-2.8c0.8-0.6,1.8-0.9,3-0.9C-123.9,446.5-123.3,446.6-122.7,446.7L-122.7,446.7z
	 M-130,421.4c0-0.7-0.2-1.2-0.5-1.5s-0.8-0.4-1.3-0.4c-0.6,0-1,0.1-1.4,0.3s-0.8,0.4-1.3,0.7v10.1h-2.2V418h1.3l0.8,1.6l1.2-1.3
	c0.3-0.1,0.6-0.2,1-0.3s0.8-0.2,1.3-0.2c1.1,0,1.9,0.3,2.5,0.9c0.6,0.6,0.9,1.6,0.9,3v8.8h-2.2v-9.1H-130z M-139.6,450.2
	c0-0.7-0.2-1.2-0.5-1.5s-0.8-0.4-1.3-0.4c-0.6,0-1,0.1-1.4,0.3c-0.4,0.2-0.8,0.4-1.3,0.7v10.1h-2.2v-17.2h2.2v6.2l1.1-1.3
	c0.3-0.1,0.6-0.2,1-0.3c0.4-0.1,0.8-0.2,1.3-0.2c1.1,0,1.9,0.3,2.5,0.9c0.6,0.6,0.9,1.6,0.9,3v8.8h-2.2L-139.6,450.2L-139.6,450.2z
	 M-146.6,426.9c0.1,0.5,0.3,0.9,0.6,1.3c0.2,0.3,0.6,0.5,0.9,0.7c0.4,0.1,0.8,0.2,1.4,0.2s1.2-0.1,1.7-0.2l1.6-0.6l0.4,1.6
	c-0.4,0.2-0.9,0.4-1.6,0.6c-0.7,0.2-1.4,0.3-2.2,0.3c-1.7,0-3-0.6-3.9-1.7c-0.9-1.1-1.3-2.8-1.3-4.9c0-2.2,0.5-3.9,1.4-5
	c0.9-1.1,2.1-1.6,3.6-1.6c1.6,0,2.7,0.5,3.4,1.6c0.7,1.1,1.1,2.5,1.1,4.3v1.4h-7.2C-146.8,425.7-146.7,426.4-146.6,426.9
	L-146.6,426.9z M-141.7,423.3V423c0-1.3-0.2-2.3-0.6-2.8c-0.4-0.5-1-0.8-1.8-0.8c-0.4,0-0.8,0.1-1.1,0.2c-0.3,0.1-0.6,0.3-0.8,0.6
	c-0.2,0.3-0.4,0.7-0.5,1.2s-0.2,1.2-0.3,2h5.1L-141.7,423.3L-141.7,423.3z M-154,429l-1.3,1.4c-0.2,0.1-0.4,0.2-0.7,0.2
	c-0.3,0.1-0.6,0.1-1,0.1c-1.5,0-2.6-0.6-3.3-1.7c-0.8-1.1-1.1-2.7-1.1-4.9c0-1.2,0.1-2.1,0.3-3c0.2-0.8,0.6-1.5,1-2s0.9-0.9,1.4-1.2
	c0.6-0.2,1.1-0.4,1.8-0.4s1.2,0.1,1.7,0.3s0.9,0.5,1.2,0.7V413h2.2v17.2h-1.4L-154,429L-154,429z M-154.1,420.4
	c-0.3-0.2-0.6-0.4-1-0.6s-0.9-0.3-1.5-0.3c-0.4,0-0.8,0.1-1.1,0.2c-0.3,0.1-0.6,0.3-0.8,0.7c-0.2,0.3-0.4,0.8-0.5,1.3
	s-0.2,1.3-0.2,2.1v0.9c0,1.7,0.2,2.9,0.7,3.5c0.5,0.7,1.1,1,2,1c0.5,0,0.9-0.1,1.3-0.3c0.4-0.2,0.7-0.5,1.2-0.8L-154.1,420.4
	L-154.1,420.4z M-159.2,446.5c1.6,0,2.7,0.5,3.4,1.6c0.7,1,1.1,2.5,1.1,4.3v1.4h-7.2c0,0.8,0.1,1.4,0.2,2c0.1,0.5,0.3,0.9,0.6,1.3
	c0.2,0.3,0.6,0.5,0.9,0.7c0.4,0.1,0.8,0.2,1.4,0.2c0.6,0,1.2-0.1,1.7-0.2c0.5-0.1,1.1-0.4,1.6-0.6l0.4,1.6c-0.4,0.2-0.9,0.4-1.6,0.6
	c-0.7,0.2-1.4,0.3-2.2,0.3c-1.7,0-3-0.6-3.9-1.7c-0.9-1.1-1.3-2.8-1.3-4.9c0-2.2,0.5-3.9,1.4-5C-161.9,447-160.7,446.5-159.2,446.5
	L-159.2,446.5z M-161.9,452.2h5.1v-0.4c0-1.3-0.2-2.3-0.6-2.8c-0.4-0.5-1-0.8-1.8-0.8c-0.4,0-0.8,0.1-1.1,0.2
	c-0.3,0.1-0.6,0.3-0.8,0.6c-0.2,0.3-0.4,0.7-0.5,1.2C-161.8,450.7-161.9,451.4-161.9,452.2z M-165.5,415.8c-0.4,0-0.7-0.1-1-0.4
	s-0.4-0.6-0.4-1c0-0.4,0.1-0.8,0.4-1c0.3-0.3,0.6-0.4,1-0.4s0.7,0.1,1,0.4s0.4,0.6,0.4,1c0,0.4-0.1,0.8-0.4,1
	C-164.7,415.7-165.1,415.8-165.5,415.8z M-166.6,417.9h2.2v12.6h-2.2V417.9z M-167.3,457.8c-0.7,1-1.8,1.5-3.3,1.5
	c-0.7,0-1.3-0.1-1.8-0.3c-0.5-0.2-0.9-0.5-1.3-0.7v5h-2.2v-16.5h1.3l0.8,1.5l1.2-1.3l0.9-0.3c0.3-0.1,0.7-0.1,1.2-0.1
	c1.4,0,2.5,0.6,3.2,1.7c0.7,1.1,1.1,2.7,1.1,4.9C-166.2,455.2-166.6,456.7-167.3,457.8L-167.3,457.8z M-168.5,452.6
	c0-0.8-0.1-1.5-0.2-2c-0.1-0.6-0.3-1-0.5-1.3s-0.5-0.6-0.8-0.7c-0.3-0.1-0.7-0.2-1.1-0.2c-0.5,0-1,0.1-1.4,0.2l-1.2,0.6v7.7
	c0.3,0.2,0.6,0.4,1,0.6s0.9,0.3,1.5,0.3c0.9,0,1.5-0.3,1.9-1s0.6-1.8,0.6-3.4v-0.8L-168.5,452.6L-168.5,452.6z M-173.6,430.9
	c-0.9,0-1.6-0.1-2.2-0.3c-0.6-0.2-1.1-0.4-1.5-0.5l0.3-1.6c0.4,0.2,0.9,0.3,1.4,0.5s1.1,0.2,1.7,0.2c0.8,0,1.4-0.1,1.8-0.4
	c0.4-0.3,0.6-0.8,0.6-1.5c0-0.4,0-0.6-0.1-0.9c-0.1-0.2-0.2-0.4-0.4-0.5c-0.2-0.1-0.5-0.3-0.9-0.4c-0.4-0.1-0.8-0.3-1.4-0.4
	c-0.4-0.1-0.9-0.3-1.2-0.4c-0.3-0.1-0.7-0.4-1-0.7c-0.3-0.3-0.5-0.6-0.6-1c-0.2-0.4-0.2-0.9-0.2-1.5c0-1.3,0.4-2.2,1.1-2.8
	c0.8-0.6,1.8-0.9,3-0.9c0.8,0,1.4,0.1,2,0.2c0.6,0.1,1,0.3,1.4,0.5l-0.3,1.6c-0.5-0.2-0.9-0.3-1.4-0.4c-0.4-0.1-1-0.2-1.6-0.2
	c-0.8,0-1.3,0.1-1.7,0.4c-0.4,0.2-0.6,0.7-0.6,1.4c0,0.3,0,0.6,0.1,0.8s0.2,0.4,0.5,0.5c0.2,0.1,0.5,0.3,0.8,0.4
	c0.3,0.1,0.7,0.2,1.2,0.3s1,0.3,1.4,0.5s0.8,0.4,1,0.7c0.3,0.3,0.5,0.7,0.6,1.1c0.1,0.4,0.2,0.9,0.2,1.5c0,1.1-0.4,2-1.1,2.7
	C-171.1,430.5-172.2,430.9-173.6,430.9L-173.6,430.9z M-179.6,459.6h-0.6l-0.6-0.1l-0.9-1.5l-1.1,1.2c-0.2,0.1-0.5,0.2-0.9,0.3
	s-0.8,0.1-1.2,0.1c-0.5,0-0.9-0.1-1.4-0.2c-0.4-0.1-0.8-0.3-1.1-0.6c-0.3-0.3-0.6-0.7-0.8-1.1c-0.2-0.5-0.3-1-0.3-1.7
	c0-0.6,0.1-1.2,0.3-1.6c0.2-0.5,0.4-0.8,0.8-1.1c0.4-0.3,0.8-0.5,1.4-0.7c0.6-0.2,1.3-0.3,2.1-0.4l2.1-0.2v-1.3c0-0.3,0-0.6-0.1-0.9
	s-0.2-0.5-0.3-0.7l-0.6-0.5c0,0-0.6-0.2-1-0.2c-0.6,0-1.2,0.1-1.8,0.2c-0.6,0.2-1.3,0.3-1.9,0.6l-0.3-1.7c0.6-0.2,1.2-0.5,1.9-0.7
	s1.5-0.3,2.3-0.3c1.4,0,2.5,0.4,3.1,1.1c0.6,0.8,1,2,1,3.7v5.9c0,0.3,0.1,0.6,0.2,0.7c0.1,0.1,0.3,0.2,0.6,0.2h0.5l0.1,1.1
	c-0.1,0.1-0.3,0.2-0.5,0.3C-179,459.6-179.3,459.6-179.6,459.6L-179.6,459.6z M-181.8,453.2l-1.9,0.2c-0.9,0.1-1.6,0.3-2,0.6
	s-0.6,0.9-0.6,1.7v0.2c0,0.7,0.2,1.2,0.5,1.6c0.4,0.3,0.9,0.5,1.6,0.5c0.6,0,1.1-0.1,1.5-0.3c0.4-0.2,0.7-0.4,0.9-0.7V453.2z
	 M-186.3,426.9c0.1,0.5,0.3,0.9,0.6,1.3c0.2,0.3,0.6,0.5,0.9,0.7c0.4,0.1,0.8,0.2,1.4,0.2c0.6,0,1.2-0.1,1.7-0.2l1.6-0.6l0.4,1.6
	c-0.4,0.2-0.9,0.4-1.6,0.6c-0.7,0.2-1.4,0.3-2.2,0.3c-1.7,0-3-0.6-3.9-1.7c-0.9-1.1-1.3-2.8-1.3-4.9c0-2.2,0.5-3.9,1.4-5
	c0.9-1.1,2.1-1.6,3.6-1.6c1.6,0,2.7,0.5,3.4,1.6c0.7,1,1.1,2.5,1.1,4.3v1.4h-7.2C-186.5,425.7-186.4,426.4-186.3,426.9L-186.3,426.9
	z M-181.4,423.3V423c0-1.3-0.2-2.3-0.6-2.8c-0.4-0.5-1-0.8-1.8-0.8c-0.4,0-0.8,0.1-1.1,0.2c-0.3,0.1-0.6,0.3-0.8,0.6
	s-0.4,0.7-0.5,1.2s-0.2,1.2-0.3,2h5.1L-181.4,423.3L-181.4,423.3z M-191.1,419.8c-0.3-0.1-0.6-0.1-1-0.1c-0.5,0-0.9,0.1-1.3,0.3
	l-1.1,0.6v9.9h-2.2v-12.6h1.3l0.8,1.7l1.3-1.5c0.3-0.1,0.6-0.2,0.8-0.3c0.3-0.1,0.6-0.1,0.9-0.1c0.4,0,0.7,0,1,0.1
	c0.3,0.1,0.5,0.2,0.6,0.2l-0.4,2C-190.6,420-190.9,419.9-191.1,419.8L-191.1,419.8z M-195.7,446.7c0.4-0.1,0.8-0.2,1.3-0.2
	c1.1,0,1.9,0.3,2.5,0.9c0.6,0.6,0.9,1.6,0.9,3v8.8h-2.2v-9.1c0-0.7-0.2-1.2-0.5-1.5s-0.8-0.4-1.3-0.4c-0.6,0-1,0.1-1.4,0.3
	c-0.4,0.2-0.8,0.4-1.3,0.7v10.1h-2.2v-17.2h2.2v6.2l1-1.3C-196.4,446.9-196.1,446.8-195.7,446.7z M-200.7,423.5
	c-0.4,0.4-1,0.8-1.6,1.1c-0.7,0.2-1.5,0.4-2.4,0.4h-2.5v5.6h-2.5V415h5c1.8,0,3.1,0.5,4,1.4c0.9,0.9,1.3,2.1,1.3,3.6
	c0,0.7-0.1,1.4-0.3,2C-199.9,422.6-200.3,423.1-200.7,423.5z M-201.9,419.7c0-1.1-0.2-1.9-0.7-2.3c-0.4-0.4-1.2-0.6-2.3-0.6h-2.3
	v6.5h2.4c1.1,0,1.8-0.2,2.2-0.7s0.7-1.3,0.7-2.4L-201.9,419.7L-201.9,419.7z M-205.4,454.6c-0.2-0.1-0.5-0.3-0.9-0.4
	c-0.4-0.1-0.8-0.2-1.4-0.4c-0.4-0.1-0.9-0.3-1.2-0.4c-0.3-0.1-0.7-0.4-1-0.7s-0.5-0.6-0.6-1c-0.2-0.4-0.2-0.9-0.2-1.5
	c0-1.3,0.4-2.2,1.1-2.8c0.8-0.6,1.8-0.9,3-0.9c0.8,0,1.4,0.1,2,0.2c0.6,0.1,1,0.3,1.4,0.5l-0.3,1.6c-0.5-0.2-0.9-0.3-1.4-0.4
	c-0.4-0.1-1-0.2-1.6-0.2c-0.8,0-1.3,0.1-1.7,0.4c-0.4,0.2-0.6,0.7-0.6,1.4c0,0.3,0,0.6,0.1,0.8c0.1,0.2,0.2,0.4,0.5,0.5
	c0.2,0.1,0.5,0.3,0.8,0.4c0.3,0.1,0.7,0.2,1.2,0.3s1,0.3,1.4,0.5s0.8,0.4,1,0.7c0.3,0.3,0.5,0.7,0.6,1.1c0.1,0.4,0.2,0.9,0.2,1.5
	c0,1.1-0.4,2-1.1,2.7s-1.8,1-3.2,1c-0.9,0-1.6-0.1-2.2-0.3c-0.6-0.2-1.1-0.4-1.5-0.5l0.3-1.6c0.4,0.2,0.9,0.3,1.4,0.5
	s1.1,0.2,1.7,0.2c0.8,0,1.4-0.1,1.8-0.4c0.4-0.3,0.6-0.8,0.6-1.5c0-0.4,0-0.6-0.1-0.9C-205,455-205.2,454.8-205.4,454.6
	L-205.4,454.6z M-132.7,441.8c0.4,0,0.7,0.1,1,0.4s0.4,0.6,0.4,1c0,0.4-0.1,0.8-0.4,1c-0.3,0.3-0.6,0.4-1,0.4s-0.7-0.1-1-0.4
	s-0.4-0.6-0.4-1c0-0.4,0.1-0.8,0.4-1C-133.4,441.9-133.1,441.8-132.7,441.8z M-131.6,459.3h-2.2v-12.6h2.2V459.3z M-35.6,548.7
	c-0.2,0.5-0.5,1-0.9,1.3c-0.4,0.4-0.8,0.7-1.3,0.9s-1.1,0.4-1.8,0.6v3.1h-1.7l-0.3-2.7c-0.1-0.5,0-0.8,0.1-1.1s0.5-0.5,1-0.6
	c0.6-0.2,1-0.3,1.4-0.5s0.6-0.4,0.8-0.6s0.3-0.5,0.4-0.8c0.1-0.3,0.1-0.7,0.1-1.2v-0.2c0-0.5,0-0.9-0.1-1.2s-0.2-0.6-0.4-0.7
	c-0.2-0.2-0.5-0.3-0.8-0.4c-0.3-0.1-0.7-0.1-1.2-0.1c-0.6,0-1.2,0.1-1.7,0.2s-1.1,0.3-1.7,0.5l-0.3-1.7c0.4-0.2,1-0.4,1.7-0.6
	c0.7-0.2,1.5-0.3,2.4-0.3c1.5,0,2.7,0.4,3.4,1.1c0.8,0.7,1.2,1.8,1.2,3.2C-35.3,547.5-35.4,548.2-35.6,548.7L-35.6,548.7z
	 M-51.8,526.9c0.1,0.5,0.3,0.9,0.6,1.3c0.2,0.3,0.6,0.5,0.9,0.7c0.4,0.1,0.8,0.2,1.4,0.2c0.6,0,1.2-0.1,1.7-0.2s1.1-0.4,1.6-0.6
	l0.4,1.6c-0.4,0.2-0.9,0.4-1.6,0.6c-0.7,0.2-1.4,0.3-2.2,0.3c-1.7,0-3-0.6-3.9-1.7c-0.9-1.1-1.3-2.8-1.3-4.9c0-2.2,0.5-3.9,1.4-5
	s2.1-1.6,3.6-1.6c1.6,0,2.7,0.5,3.4,1.6s1.1,2.5,1.1,4.3v1.4h-7.2C-52,525.7-52,526.4-51.8,526.9L-51.8,526.9z M-47,523.3V523
	c0-1.3-0.2-2.3-0.6-2.8c-0.4-0.5-1-0.8-1.8-0.8c-0.4,0-0.8,0.1-1.1,0.2c-0.3,0.1-0.6,0.3-0.8,0.6s-0.4,0.7-0.5,1.2s-0.2,1.2-0.3,2
	h5.1L-47,523.3z M-60.6,559.7c-1.6,0-2.8-0.6-3.7-1.7c-0.9-1.1-1.4-2.8-1.4-4.9c0-2.1,0.5-3.8,1.4-4.9s2.1-1.7,3.7-1.7
	s2.8,0.6,3.7,1.7s1.4,2.7,1.4,4.8c0,2.2-0.4,3.8-1.3,4.9C-57.8,559.1-59,559.7-60.6,559.7L-60.6,559.7z M-57.8,552.9
	c0-0.9-0.1-1.7-0.2-2.3c-0.1-0.6-0.3-1.1-0.5-1.4c-0.2-0.4-0.5-0.6-0.9-0.7c-0.3-0.1-0.7-0.2-1.2-0.2c-0.4,0-0.8,0.1-1.2,0.2
	c-0.3,0.1-0.6,0.4-0.9,0.7c-0.2,0.4-0.4,0.8-0.5,1.4s-0.2,1.3-0.2,2.2v0.4c0,0.9,0.1,1.6,0.2,2.3c0.1,0.6,0.3,1.1,0.5,1.5
	s0.5,0.6,0.9,0.8c0.3,0.2,0.7,0.2,1.2,0.2c0.4,0,0.8-0.1,1.2-0.2c0.4-0.1,0.6-0.4,0.9-0.8c0.2-0.4,0.4-0.8,0.5-1.4s0.2-1.3,0.2-2.2
	V552.9z M-61.4,530.9c-0.4,0-0.8,0-1.2-0.1c-0.3-0.1-0.6-0.2-0.8-0.3l-1.3-1.4l-0.7,1.5h-1.1v-17.3h2.2v5.7c0.3-0.3,0.8-0.6,1.2-0.9
	c0.5-0.3,1.1-0.4,1.8-0.4c1.4,0,2.5,0.5,3.2,1.6c0.8,1.1,1.1,2.7,1.1,4.9c0,2.3-0.4,4-1.2,5C-58.8,530.3-59.9,530.9-61.4,530.9
	L-61.4,530.9z M-59.1,523.9c0-0.9-0.1-1.6-0.2-2.1c-0.1-0.6-0.3-1-0.5-1.4c-0.2-0.3-0.5-0.6-0.8-0.7s-0.7-0.2-1.1-0.2
	c-0.6,0-1.2,0.1-1.6,0.4c-0.4,0.3-0.8,0.5-1,0.7v7.9c0.4,0.3,0.7,0.5,1.1,0.6c0.4,0.2,0.8,0.2,1.3,0.2c0.4,0,0.8-0.1,1.2-0.2
	c0.3-0.2,0.6-0.4,0.9-0.8c0.2-0.4,0.4-0.8,0.5-1.4s0.2-1.3,0.2-2.1L-59.1,523.9L-59.1,523.9z M-69,543.7c-0.4,0-0.7,0.1-0.9,0.3
	c-0.2,0.2-0.3,0.5-0.3,0.8v2h2.8v1.6h-2.8v10.9h-2.2v-10.9h-1.5v-1.6h1.5v-1.4c0-1.2,0.3-2,0.8-2.6s1.2-0.8,2.2-0.8
	c0.5,0,1,0.1,1.4,0.2s0.7,0.2,1,0.4l-0.1,1.2H-69V543.7z M-78.7,529l-1.1,1.3c-0.3,0.1-0.6,0.2-1,0.3s-0.8,0.1-1.3,0.1
	c-1,0-1.8-0.3-2.4-1c-0.6-0.6-0.9-1.7-0.9-3v-8.8h2.2v9.1c0,0.8,0.2,1.3,0.5,1.6s0.8,0.4,1.3,0.4c0.6,0,1.1-0.1,1.5-0.3
	s0.8-0.4,1.2-0.7v-10.2h2.2v12.6h-1.4L-78.7,529L-78.7,529z M-84.9,542.1h2.2v17.2h-1.4l-0.7-1.5l-1.3,1.4c-0.2,0.1-0.4,0.2-0.7,0.2
	c-0.3,0.1-0.6,0.1-1,0.1c-1.5,0-2.6-0.6-3.3-1.7c-0.8-1.1-1.1-2.7-1.1-4.9c0-1.2,0.1-2.1,0.3-3c0.2-0.8,0.6-1.5,1-2s0.9-0.9,1.4-1.2
	c0.6-0.2,1.1-0.4,1.8-0.4s1.2,0.1,1.7,0.3s0.9,0.5,1.2,0.7L-84.9,542.1L-84.9,542.1z M-85.9,548.6c-0.4-0.2-0.9-0.3-1.5-0.3
	c-0.4,0-0.8,0.1-1.1,0.2c-0.3,0.1-0.6,0.3-0.8,0.7c-0.2,0.3-0.4,0.8-0.5,1.3c-0.1,0.6-0.2,1.3-0.2,2.1v0.9c0,1.7,0.2,2.9,0.7,3.5
	c0.5,0.7,1.1,1,2,1c0.5,0,0.9-0.1,1.3-0.3s0.7-0.5,1.2-0.8v-7.7C-85.1,549-85.5,548.8-85.9,548.6L-85.9,548.6z M-93.7,530.9
	c-1.6,0-2.8-0.6-3.7-1.7c-0.9-1.1-1.4-2.8-1.4-4.9s0.5-3.8,1.4-4.9c0.9-1.1,2.1-1.7,3.7-1.7s2.8,0.6,3.7,1.7
	c0.9,1.1,1.4,2.7,1.4,4.8c0,2.2-0.4,3.8-1.3,4.9C-90.9,530.3-92.1,530.9-93.7,530.9L-93.7,530.9z M-90.9,524.1
	c0-0.9-0.1-1.7-0.2-2.3s-0.3-1.1-0.5-1.4c-0.2-0.4-0.5-0.6-0.9-0.7c-0.3-0.1-0.7-0.2-1.2-0.2s-0.8,0.1-1.2,0.2
	c-0.3,0.1-0.6,0.4-0.9,0.7s-0.4,0.8-0.5,1.4c-0.1,0.6-0.2,1.3-0.2,2.2v0.4c0,0.9,0.1,1.6,0.2,2.3s0.3,1.1,0.5,1.5s0.5,0.6,0.9,0.8
	c0.3,0.2,0.7,0.2,1.2,0.2s0.8-0.1,1.2-0.2c0.3-0.2,0.6-0.4,0.9-0.8c0.2-0.4,0.4-0.8,0.5-1.4c0.1-0.6,0.2-1.3,0.2-2.2V524.1z
	 M-95.9,548.1c0.7,1,1.1,2.5,1.1,4.3v1.4h-7.2c0,0.8,0.1,1.4,0.2,2c0.1,0.5,0.3,0.9,0.6,1.3c0.2,0.3,0.6,0.5,0.9,0.7
	c0.4,0.1,0.8,0.2,1.4,0.2s1.2-0.1,1.7-0.2s1.1-0.4,1.6-0.6l0.4,1.6c-0.4,0.2-0.9,0.4-1.6,0.6c-0.7,0.2-1.4,0.3-2.2,0.3
	c-1.7,0-3-0.6-3.9-1.7c-0.9-1.1-1.3-2.8-1.3-4.9c0-2.2,0.5-3.9,1.4-5s2.1-1.6,3.6-1.6C-97.8,546.5-96.7,547-95.9,548.1L-95.9,548.1z
	 M-99.3,548.1c-0.4,0-0.8,0.1-1.1,0.2c-0.3,0.1-0.6,0.3-0.8,0.6s-0.4,0.7-0.5,1.2s-0.2,1.2-0.3,2h5.1v-0.4c0-1.3-0.2-2.3-0.6-2.8
	S-98.5,548.1-99.3,548.1L-99.3,548.1z M-107.8,534.4l1.3-4.3l-4.1-12.2h2.3l2.3,7.3l0.6,3.6l0.6-3.6l2.2-7.3h2.1l-5.2,16.5H-107.8z
	 M-108.5,546.6c0.3-0.1,0.6-0.1,0.9-0.1c0.4,0,0.7,0,1,0.1s0.5,0.2,0.6,0.2l-0.4,2c-0.2-0.1-0.5-0.2-0.7-0.2c-0.3-0.1-0.6-0.1-1-0.1
	c-0.5,0-0.9,0.1-1.3,0.3s-0.7,0.4-1.1,0.6v9.9h-2.2v-12.6h1.3l0.8,1.7l1.3-1.5C-109.1,546.8-108.8,546.7-108.5,546.6L-108.5,546.6z
	 M-123.1,555.7c0.1,0.5,0.3,0.9,0.6,1.3c0.2,0.3,0.6,0.5,0.9,0.7c0.4,0.1,0.8,0.2,1.4,0.2s1.2-0.1,1.7-0.2s1.1-0.4,1.6-0.6l0.4,1.6
	c-0.4,0.2-0.9,0.4-1.6,0.6c-0.7,0.2-1.4,0.3-2.2,0.3c-1.7,0-3-0.6-3.9-1.7c-0.9-1.1-1.3-2.8-1.3-4.9c0-2.2,0.5-3.9,1.4-5
	s2.1-1.6,3.6-1.6c1.6,0,2.7,0.5,3.4,1.6c0.7,1,1.1,2.5,1.1,4.3v1.4h-7.2C-123.3,554.5-123.2,555.2-123.1,555.7L-123.1,555.7z
	 M-118.3,552.2v-0.4c0-1.3-0.2-2.3-0.6-2.8s-1-0.8-1.8-0.8c-0.4,0-0.8,0.1-1.1,0.2c-0.3,0.1-0.6,0.3-0.8,0.6s-0.4,0.7-0.5,1.2
	s-0.2,1.2-0.3,2H-118.3L-118.3,552.2z M-121.6,513.3h2.2v17.2h-2.2V513.3z M-128.1,513.3h2.2v17.2h-2.2V513.3z M-129.3,558.1
	c-0.8,1.1-1.9,1.6-3.4,1.6c-0.4,0-0.8,0-1.2-0.1c-0.3-0.1-0.6-0.2-0.8-0.3l-1.3-1.4l-0.7,1.5h-1.1v-17.3h2.2v5.7
	c0.3-0.3,0.8-0.6,1.2-0.9c0.5-0.3,1.1-0.4,1.8-0.4c1.4,0,2.5,0.5,3.2,1.6c0.8,1.1,1.1,2.7,1.1,4.9
	C-128.1,555.3-128.5,557-129.3,558.1L-129.3,558.1z M-130.4,552.7c0-0.9-0.1-1.6-0.2-2.1c-0.1-0.6-0.3-1-0.5-1.4
	c-0.2-0.3-0.5-0.6-0.8-0.7c-0.3-0.1-0.7-0.2-1.1-0.2c-0.6,0-1.2,0.1-1.6,0.4c-0.4,0.3-0.8,0.5-1,0.7v7.9c0.4,0.3,0.7,0.5,1.1,0.6
	c0.4,0.1,0.8,0.2,1.3,0.2c0.4,0,0.8-0.1,1.2-0.2c0.4-0.1,0.6-0.4,0.9-0.8c0.2-0.4,0.4-0.8,0.5-1.4c0.1-0.6,0.2-1.3,0.2-2.1
	L-130.4,552.7L-130.4,552.7z M-132.4,530.5h-2.2v-12.6h2.2V530.5z M-133.5,515.8c-0.4,0-0.7-0.1-1-0.4c-0.3-0.3-0.4-0.6-0.4-1
	s0.1-0.8,0.4-1c0.3-0.3,0.6-0.4,1-0.4s0.7,0.1,1,0.4c0.3,0.3,0.4,0.6,0.4,1s-0.1,0.8-0.4,1C-132.8,515.7-133.1,515.8-133.5,515.8z
	 M-142.8,530.5l-1.6-6.8l-0.6-4.2l-0.6,4.2l-1.7,6.8h-2.2l-3.1-12.6h2.3l1.7,7.6l0.4,3.8l0.7-4.6l1.6-6.8h2.2l1.6,6.8l0.6,4.6
	l0.4-3.8l1.7-7.6h2l-3.1,12.6H-142.8z M-150.3,546.6c0.4,0.1,0.7,0.2,1,0.4l0.9,1.4l1.2-1.4l0.9-0.3c0.4-0.1,0.8-0.2,1.3-0.2
	c1.1,0,1.9,0.3,2.4,0.9c0.6,0.6,0.9,1.6,0.9,3v8.8h-2.2v-9.1c0-0.7-0.2-1.2-0.5-1.5s-0.7-0.4-1.3-0.4c-0.5,0-1,0.1-1.4,0.3
	s-0.8,0.4-1.2,0.7v10.1h-2.2v-9.1c0-0.7-0.2-1.2-0.5-1.5s-0.8-0.4-1.3-0.4s-1,0.1-1.4,0.2l-1.2,0.6v10.1h-2.2v-12.6h1.4l0.8,1.6
	l1.1-1.3l0.9-0.3c0.4-0.1,0.8-0.2,1.3-0.2C-151.1,546.5-150.7,546.6-150.3,546.6L-150.3,546.6z M-162.7,530.8c-1,0-1.7-0.3-2.1-0.8
	s-0.6-1.3-0.6-2.5v-8h-1.5v-1.6h1.6l1.1-3.4h1v3.4h2.7v1.6h-2.7v8.4c0,0.4,0.1,0.7,0.2,0.9c0.2,0.2,0.5,0.2,0.9,0.2h1.8l0.1,1.2
	c-0.3,0.1-0.7,0.2-1.1,0.3C-161.6,530.7-162.1,530.8-162.7,530.8z M-164.9,546.5c1.6,0,2.7,0.5,3.4,1.6s1.1,2.5,1.1,4.3v1.4h-7.2
	c0,0.8,0.1,1.4,0.2,2c0.1,0.6,0.3,0.9,0.6,1.3c0.2,0.3,0.6,0.5,0.9,0.7c0.4,0.1,0.8,0.2,1.4,0.2c0.6,0,1.2-0.1,1.7-0.2
	c0.5-0.1,1.1-0.4,1.6-0.6l0.4,1.6c-0.4,0.2-0.9,0.4-1.6,0.6c-0.7,0.2-1.4,0.3-2.2,0.3c-1.7,0-3-0.6-3.9-1.7
	c-0.9-1.1-1.3-2.8-1.3-4.9c0-2.2,0.5-3.9,1.4-5C-167.6,547-166.4,546.5-164.9,546.5L-164.9,546.5z M-167.3,550.2
	c-0.1,0.5-0.2,1.2-0.3,2h5.1v-0.4c0-1.3-0.2-2.3-0.6-2.8s-1-0.8-1.8-0.8c-0.4,0-0.8,0.1-1.1,0.2s-0.6,0.3-0.8,0.6
	C-167,549.2-167.2,549.7-167.3,550.2L-167.3,550.2z M-169.9,530.8h-0.6l-0.6-0.1l-0.9-1.4l-1.1,1.2c-0.2,0.1-0.5,0.2-0.9,0.3
	s-0.7,0.1-1.2,0.1s-0.9-0.1-1.4-0.2c-0.4-0.1-0.8-0.3-1.1-0.6s-0.6-0.7-0.8-1.1c-0.2-0.5-0.3-1-0.3-1.7c0-0.6,0.1-1.2,0.3-1.6
	c0.2-0.5,0.4-0.8,0.8-1.1c0.4-0.3,0.8-0.5,1.4-0.7c0.6-0.2,1.3-0.3,2.1-0.4l2.1-0.2V522c0-0.3,0-0.6-0.1-0.9
	c-0.1-0.3-0.2-0.5-0.3-0.7l-0.6-0.5c-0.3-0.1-0.6-0.2-1-0.2c-0.6,0-1.2,0.1-1.8,0.2c-0.6,0.2-1.3,0.3-1.9,0.6l-0.3-1.7
	c0.6-0.2,1.2-0.5,1.9-0.7s1.5-0.3,2.3-0.3c1.4,0,2.5,0.4,3.1,1.1c0.6,0.8,1,2,1,3.7v5.9c0,0.3,0.1,0.6,0.2,0.7
	c0.1,0.1,0.3,0.2,0.6,0.2h0.5l0.1,1.1c-0.1,0.1-0.3,0.2-0.5,0.3C-169.3,530.7-169.5,530.8-169.9,530.8L-169.9,530.8z M-172,524.4
	l-1.9,0.2c-0.9,0.1-1.6,0.3-2,0.6s-0.6,0.9-0.6,1.7v0.2c0,0.7,0.2,1.2,0.5,1.6c0.4,0.3,0.9,0.5,1.6,0.5c0.6,0,1.1-0.1,1.5-0.3
	s0.7-0.4,0.9-0.7V524.4L-172,524.4z M-177.6,546.7c0.4-0.1,0.8-0.2,1.3-0.2c1.1,0,1.9,0.3,2.4,0.9s0.9,1.6,0.9,3v8.8h-2.2v-9.1
	c0-0.7-0.2-1.2-0.5-1.5s-0.7-0.4-1.3-0.4c-0.5,0-1,0.1-1.4,0.3s-0.8,0.4-1.2,0.7v10.1h-2.2v-9.1c0-0.7-0.2-1.2-0.5-1.5
	s-0.8-0.4-1.3-0.4s-1,0.1-1.4,0.2l-1.2,0.6v10.1h-2.2v-12.6h1.3l0.8,1.6l1.1-1.3l0.9-0.3c0.4-0.1,0.8-0.2,1.3-0.2s0.9,0,1.2,0.1
	c0.4,0.1,0.7,0.2,1,0.4l0.9,1.4l1.2-1.4C-178.3,546.9-178,546.8-177.6,546.7z M-184,521.4c0-0.7-0.2-1.2-0.5-1.5s-0.8-0.4-1.3-0.4
	c-0.6,0-1,0.1-1.4,0.3s-0.8,0.4-1.3,0.7v10.1h-2.2v-17.2h2.2v6.2l1.1-1.3c0.3-0.1,0.6-0.2,1-0.3s0.8-0.2,1.3-0.2
	c1.1,0,1.9,0.3,2.5,0.9c0.6,0.6,0.9,1.6,0.9,3v8.8h-2.2L-184,521.4L-184,521.4z M-198.6,555.7c0.1,0.5,0.3,0.9,0.6,1.3
	c0.2,0.3,0.6,0.5,0.9,0.7c0.4,0.1,0.8,0.2,1.4,0.2c0.6,0,1.2-0.1,1.7-0.2l1.6-0.6l0.4,1.6c-0.4,0.2-0.9,0.4-1.6,0.6
	s-1.4,0.3-2.2,0.3c-1.7,0-3-0.6-3.9-1.7c-0.9-1.1-1.3-2.8-1.3-4.9c0-2.2,0.5-3.9,1.4-5s2.1-1.6,3.6-1.6c1.6,0,2.7,0.5,3.4,1.6
	c0.7,1,1.1,2.5,1.1,4.3v1.4h-7.2C-198.8,554.5-198.8,555.2-198.6,555.7L-198.6,555.7z M-193.8,552.2v-0.4c0-1.3-0.2-2.3-0.6-2.8
	c-0.4-0.5-1-0.8-1.8-0.8c-0.4,0-0.8,0.1-1.1,0.2s-0.6,0.3-0.8,0.6s-0.4,0.7-0.5,1.2s-0.2,1.2-0.3,2H-193.8L-193.8,552.2z
	 M-199.6,530.5l-1.9-9.1l-0.6-5.1l-0.6,5.1l-2,9.1h-2.4l-3.6-15.6h2.5l1.8,8.9l0.6,5.4l0.7-5.1l1.9-9.2h2.5l1.9,9.2l0.6,5.1l0.6-5.4
	l1.9-8.9h2.1l-3.6,15.6H-199.6z M-207.4,548.5l1.3-1.5c0.3-0.1,0.6-0.2,0.8-0.3s0.6-0.1,0.9-0.1c0.4,0,0.7,0,1,0.1s0.5,0.2,0.6,0.2
	l-0.4,2c-0.2-0.1-0.5-0.2-0.7-0.2c-0.3-0.1-0.6-0.1-1-0.1c-0.5,0-0.9,0.1-1.3,0.3c-0.4,0.2-0.7,0.4-1.1,0.6v9.9h-2.3v-12.6h1.3
	C-208.3,546.8-207.4,548.5-207.4,548.5z M-50.1,548.5l1.3-1.5c0.3-0.1,0.6-0.2,0.8-0.3s0.6-0.1,0.9-0.1c0.4,0,0.7,0,1,0.1
	s0.5,0.2,0.6,0.2l-0.4,2c-0.2-0.1-0.5-0.2-0.7-0.2c-0.3-0.1-0.6-0.1-1-0.1c-0.5,0-0.9,0.1-1.3,0.3l-1.1,0.6v9.9h-2.2v-12.6h1.3
	L-50.1,548.5L-50.1,548.5z M-40.3,556.2c0.5,0,0.9,0.2,1.2,0.5s0.5,0.7,0.5,1.2s-0.2,0.9-0.5,1.2s-0.7,0.5-1.2,0.5
	c-0.4,0-0.8-0.2-1.2-0.5c-0.3-0.3-0.5-0.7-0.5-1.2s0.2-0.9,0.5-1.2C-41.1,556.4-40.8,556.2-40.3,556.2z M253.7,230.5v-9.1
	c0-0.7-0.2-1.2-0.5-1.5s-0.8-0.4-1.3-0.4s-1,0.1-1.4,0.3s-0.8,0.4-1.3,0.7v10.1H247v-17.3h2.2v6.2l1.1-1.3c0.3-0.1,0.6-0.2,1-0.3
	s0.8-0.2,1.3-0.2c1.1,0,1.9,0.3,2.5,0.9c0.6,0.6,0.9,1.6,0.9,3v8.8h-2.3V230.5z M238.4,226.6c0.1,0.6,0.3,1.1,0.5,1.4
	c0.2,0.4,0.5,0.6,0.9,0.8c0.3,0.1,0.7,0.2,1.2,0.2c0.6,0,1.1-0.1,1.5-0.2c0.5-0.2,0.9-0.3,1.5-0.6l0.4,1.7c-0.4,0.2-0.9,0.4-1.5,0.6
	s-1.3,0.3-2,0.3c-1.6,0-2.8-0.6-3.7-1.7c-0.8-1.1-1.3-2.8-1.3-5s0.4-3.8,1.2-4.9c0.8-1.1,2.1-1.6,3.7-1.6c0.7,0,1.3,0.1,1.9,0.2
	c0.6,0.2,1.1,0.3,1.5,0.5l-0.3,1.7c-0.5-0.2-1-0.3-1.5-0.4c-0.5-0.1-0.9-0.2-1.4-0.2c-0.4,0-0.8,0.1-1.2,0.2
	c-0.4,0.1-0.6,0.3-0.9,0.7c-0.2,0.3-0.4,0.8-0.5,1.3c-0.1,0.7-0.1,1.4-0.1,2.4v0.4C238.3,225.3,238.3,226,238.4,226.6L238.4,226.6z
	 M230.6,259.7c-0.9,0-1.6-0.1-2.2-0.3c-0.6-0.2-1.1-0.4-1.5-0.5l0.3-1.6c0.4,0.2,0.9,0.3,1.4,0.5s1.1,0.2,1.7,0.2
	c0.8,0,1.4-0.1,1.8-0.4c0.4-0.3,0.6-0.8,0.6-1.5c0-0.4,0-0.6-0.1-0.9c-0.1-0.2-0.2-0.4-0.4-0.5s-0.5-0.3-0.9-0.4
	c-0.4-0.1-0.8-0.3-1.4-0.4c-0.4-0.1-0.9-0.3-1.2-0.4c-0.4-0.2-0.7-0.4-1-0.7s-0.5-0.6-0.6-1c-0.2-0.4-0.2-0.9-0.2-1.5
	c0-1.3,0.4-2.2,1.1-2.8c0.8-0.6,1.8-0.9,3-0.9c0.8,0,1.4,0.1,2,0.2s1,0.3,1.4,0.5l-0.3,1.6c-0.5-0.2-0.9-0.3-1.4-0.4
	c-0.4-0.1-1-0.2-1.6-0.2c-0.8,0-1.3,0.1-1.7,0.4c-0.4,0.2-0.6,0.7-0.6,1.4c0,0.3,0,0.6,0.1,0.8s0.2,0.4,0.5,0.5
	c0.2,0.1,0.5,0.3,0.8,0.4s0.7,0.2,1.2,0.3s1,0.3,1.4,0.5s0.8,0.4,1,0.7c0.3,0.3,0.5,0.7,0.6,1.1s0.2,0.9,0.2,1.5
	c0,1.1-0.4,2-1.1,2.7C233.1,259.3,232.1,259.7,230.6,259.7L230.6,259.7z M231.8,230.8c-1,0-1.7-0.3-2.1-0.8s-0.6-1.3-0.6-2.5v-8
	h-1.5v-1.6h1.6l1.1-3.4h1v3.4h2.7v1.6h-2.7v8.5c0,0.4,0.1,0.7,0.2,0.9c0.2,0.2,0.5,0.2,0.9,0.2h1.8l0.1,1.2
	c-0.3,0.1-0.7,0.2-1.1,0.3C232.8,230.7,232.3,230.8,231.8,230.8z M225,230.8h-0.6l-0.6-0.1l-0.9-1.4l-1.1,1.2
	c-0.2,0.1-0.5,0.2-0.9,0.3s-0.7,0.1-1.2,0.1s-0.9-0.1-1.4-0.2c-0.4-0.1-0.8-0.3-1.1-0.6s-0.6-0.7-0.8-1.1c-0.2-0.5-0.3-1-0.3-1.7
	c0-0.6,0.1-1.2,0.3-1.6c0.2-0.5,0.4-0.8,0.8-1.1s0.8-0.5,1.4-0.7s1.3-0.3,2.1-0.4l2.1-0.2v-1.5c0-0.3,0-0.6-0.1-0.9
	s-0.2-0.5-0.3-0.7l-0.6-0.5c-0.3-0.1-0.6-0.2-1-0.2c-0.6,0-1.2,0.1-1.8,0.2s-1.3,0.3-1.9,0.6l-0.3-1.7c0.6-0.2,1.2-0.5,1.9-0.7
	s1.5-0.3,2.3-0.3c1.4,0,2.5,0.4,3.1,1.1s1,2,1,3.7v5.9c0,0.3,0.1,0.6,0.2,0.7s0.3,0.2,0.6,0.2h0.5l0.1,1.1c-0.1,0.1-0.3,0.2-0.5,0.3
	C225.6,230.7,225.4,230.8,225,230.8L225,230.8z M222.9,224.4l-1.9,0.2c-0.9,0.1-1.6,0.3-2,0.6s-0.6,0.9-0.6,1.7v0.2
	c0,0.7,0.2,1.2,0.5,1.6c0.4,0.3,0.9,0.5,1.6,0.5c0.6,0,1.1-0.1,1.5-0.3s0.7-0.4,0.9-0.7V224.4z M217.5,248.4l1.2-1.3
	c0.3-0.1,0.6-0.2,1-0.3s0.8-0.2,1.3-0.2c1.1,0,1.9,0.3,2.5,0.9s0.9,1.6,0.9,3v8.8h-2.2v-9.1c0-0.7-0.2-1.2-0.5-1.5s-0.8-0.4-1.3-0.4
	s-1,0.1-1.4,0.3s-0.8,0.4-1.3,0.7v10.1h-2.4v-12.6h1.3C216.6,246.8,217.5,248.4,217.5,248.4z M211.4,221.4c0-0.7-0.2-1.2-0.5-1.5
	s-0.7-0.4-1.3-0.4c-0.5,0-1,0.1-1.4,0.3s-0.8,0.4-1.2,0.7v10.1h-2.2v-9.2c0-0.7-0.2-1.2-0.5-1.5s-0.8-0.4-1.3-0.4s-1,0.1-1.4,0.2
	l-1.2,0.6v10.1h-2.1v-12.5h1.3l0.8,1.6l1.1-1.3l0.9-0.3c0.4-0.1,0.8-0.2,1.3-0.2s0.9,0,1.2,0.1c0.4,0.1,0.7,0.2,1,0.4l0.9,1.4
	l1.2-1.4l0.9-0.3c0.4-0.1,0.8-0.2,1.3-0.2c1.1,0,1.9,0.3,2.4,0.9c0.6,0.6,0.9,1.6,0.9,3v8.8h-2.2v-9L211.4,221.4L211.4,221.4z
	 M199.4,242.2c0.3,0.3,0.4,0.6,0.4,1s-0.1,0.8-0.4,1c-0.3,0.3-0.6,0.4-1,0.4s-0.7-0.1-1-0.4s-0.4-0.6-0.4-1s0.1-0.8,0.4-1
	s0.6-0.4,1-0.4S199.2,241.9,199.4,242.2z M192.3,259.6c-1,0-1.7-0.3-2.1-0.8s-0.6-1.3-0.6-2.5v-8h-1.5v-1.6h1.6l1.1-3.4h1v3.4h2.7
	v1.6h-2.7v8.4c0,0.4,0.1,0.7,0.2,0.9c0.2,0.2,0.5,0.2,0.9,0.2h1.8l0.1,1.2c-0.3,0.1-0.7,0.2-1.1,0.3
	C193.3,259.4,192.8,259.6,192.3,259.6z M185,230.9c-1.6,0-2.8-0.6-3.7-1.7c-0.9-1.1-1.4-2.8-1.4-4.9c0-2.1,0.5-3.8,1.4-4.9
	c0.9-1.1,2.1-1.7,3.7-1.7s2.8,0.6,3.7,1.7c0.9,1.1,1.4,2.7,1.4,4.8c0,2.2-0.4,3.8-1.3,4.9C187.9,230.2,186.5,230.9,185,230.9
	L185,230.9z M187.7,224.1c0-0.9-0.1-1.7-0.2-2.3c-0.1-0.6-0.3-1.1-0.5-1.4c-0.2-0.4-0.5-0.6-0.9-0.7s-0.7-0.2-1.2-0.2
	s-0.8,0.1-1.2,0.2s-0.6,0.4-0.9,0.7c-0.2,0.4-0.4,0.8-0.5,1.4c-0.1,0.6-0.2,1.3-0.2,2.2v0.4c0,0.9,0.1,1.6,0.2,2.3
	c0.1,0.6,0.3,1.1,0.5,1.5s0.5,0.6,0.9,0.8c0.3,0.2,0.7,0.2,1.2,0.2c0.4,0,0.8-0.1,1.2-0.2c0.3-0.2,0.6-0.4,0.9-0.8
	c0.2-0.4,0.4-0.8,0.5-1.4c0.1-0.6,0.2-1.3,0.2-2.2V224.1z M179.4,258.1c-0.8,1.1-1.9,1.6-3.4,1.6c-0.4,0-0.8,0-1.2-0.1
	c-0.3-0.1-0.6-0.2-0.8-0.3l-1.3-1.4l-0.7,1.5h-1.1v-17.3h2.2v5.7c0.3-0.3,0.8-0.6,1.2-0.9c0.5-0.3,1.1-0.4,1.8-0.4
	c1.4,0,2.5,0.5,3.2,1.6c0.8,1.1,1.1,2.7,1.1,4.9C180.6,255.3,180.2,257,179.4,258.1L179.4,258.1z M178.3,252.7
	c0-0.9-0.1-1.6-0.2-2.1c-0.1-0.6-0.3-1-0.5-1.4s-0.5-0.6-0.8-0.7s-0.7-0.2-1.1-0.2c-0.6,0-1.2,0.1-1.6,0.4s-0.8,0.5-1,0.7v7.9
	c0.4,0.3,0.7,0.5,1.1,0.6c0.4,0.2,0.8,0.2,1.3,0.2c0.4,0,0.8-0.1,1.2-0.2c0.3-0.2,0.6-0.4,0.9-0.8c0.2-0.4,0.4-0.8,0.5-1.4
	c0.1-0.6,0.2-1.3,0.2-2.1L178.3,252.7L178.3,252.7z M175.7,230.8c-1,0-1.7-0.3-2.1-0.8s-0.6-1.3-0.6-2.5v-8h-1.5v-1.6h1.6l1.1-3.4h1
	v3.4h2.7v1.6h-2.7v8.5c0,0.4,0.1,0.7,0.2,0.9c0.2,0.2,0.5,0.2,0.9,0.2h1.8l0.1,1.2c-0.3,0.1-0.7,0.2-1.1,0.3
	C176.7,230.7,176.2,230.8,175.7,230.8z M165.3,250.2c0-0.7-0.2-1.2-0.5-1.5s-0.7-0.4-1.3-0.4c-0.5,0-1,0.1-1.4,0.3s-0.8,0.4-1.2,0.7
	v10.1h-2.2v-9.1c0-0.7-0.2-1.2-0.5-1.5s-0.8-0.4-1.3-0.4s-1,0.1-1.4,0.2l-1.2,0.6v10.1h-2.2v-12.5h1.3l0.8,1.6l1.1-1.3l0.9-0.3
	c0.4-0.1,0.8-0.2,1.3-0.2s0.9,0,1.2,0.1c0.4,0.1,0.7,0.2,1,0.4l0.9,1.4l1.2-1.4l0.9-0.3c0.4-0.1,0.8-0.2,1.3-0.2
	c1.1,0,1.9,0.3,2.4,0.9c0.6,0.6,0.9,1.6,0.9,3v8.8h-2V250.2L165.3,250.2z M160.3,230.9c-0.9,0-1.6-0.1-2.2-0.3
	c-0.6-0.2-1.1-0.4-1.5-0.5l0.3-1.6c0.4,0.2,0.9,0.3,1.4,0.5s1.1,0.2,1.7,0.2c0.8,0,1.4-0.1,1.8-0.4s0.6-0.8,0.6-1.5
	c0-0.4,0-0.6-0.1-0.9c-0.1-0.2-0.2-0.4-0.4-0.5s-0.5-0.3-0.9-0.4s-0.8-0.3-1.4-0.4c-0.4-0.1-0.9-0.3-1.2-0.4c-0.4-0.2-0.7-0.4-1-0.7
	s-0.5-0.6-0.6-1c-0.2-0.4-0.2-0.9-0.2-1.5c0-1.3,0.4-2.2,1.1-2.8c0.8-0.6,1.8-0.9,3-0.9c0.8,0,1.4,0.1,2,0.2s1,0.3,1.4,0.5l-0.3,1.6
	c-0.5-0.2-0.9-0.3-1.4-0.4c-0.4-0.1-1-0.2-1.6-0.2c-0.8,0-1.3,0.1-1.7,0.4c-0.4,0.2-0.6,0.7-0.6,1.4c0,0.3,0,0.6,0.1,0.8
	s0.2,0.4,0.5,0.5c0.2,0.1,0.5,0.3,0.8,0.4s0.7,0.2,1.2,0.3s1,0.3,1.4,0.5s0.8,0.4,1,0.7c0.3,0.3,0.5,0.7,0.6,1.1
	c0.1,0.4,0.2,0.9,0.2,1.5c0,1.1-0.4,2-1.1,2.7C162.8,230.5,161.7,230.9,160.3,230.9L160.3,230.9z M152.5,230.8c-1,0-1.7-0.3-2.1-0.8
	s-0.6-1.3-0.6-2.5v-8h-1.5v-1.6h1.6l1.1-3.4h1v3.4h2.7v1.6H152v8.5c0,0.4,0.1,0.7,0.2,0.9c0.2,0.2,0.5,0.2,0.9,0.2h1.8l0.1,1.2
	c-0.3,0.1-0.7,0.2-1.1,0.3S153,230.8,152.5,230.8z M148.4,257.3c0,0.3,0.1,0.6,0.2,0.7c0.1,0.1,0.3,0.2,0.6,0.2h0.5l0.1,1.1
	c-0.1,0.1-0.3,0.2-0.5,0.3c-0.2,0.1-0.5,0.1-0.9,0.1h-0.6l-0.6-0.1l-0.9-1.6l-1.1,1.2c-0.2,0.1-0.5,0.2-0.9,0.3s-0.7,0.1-1.2,0.1
	s-0.9-0.1-1.4-0.2c-0.4-0.1-0.8-0.3-1.1-0.6s-0.6-0.7-0.8-1.1c-0.2-0.5-0.3-1-0.3-1.7c0-0.6,0.1-1.2,0.3-1.6
	c0.2-0.5,0.4-0.8,0.8-1.1s0.8-0.5,1.4-0.7c0.6-0.2,1.3-0.3,2.1-0.4l2.1-0.2v-1.3c0-0.3,0-0.6-0.1-0.9c-0.1-0.3-0.2-0.5-0.3-0.7
	l-0.6-0.5c-0.3-0.1-0.6-0.2-1-0.2c-0.6,0-1.2,0.1-1.8,0.2c-0.6,0.2-1.3,0.3-1.9,0.6l-0.3-1.7c0.6-0.2,1.2-0.5,1.9-0.7
	s1.5-0.3,2.3-0.3c1.4,0,2.5,0.4,3.1,1.1c0.6,0.8,1,2,1,3.7L148.4,257.3L148.4,257.3z M146.2,253.2l-1.9,0.2c-0.9,0.1-1.6,0.3-2,0.6
	s-0.6,0.9-0.6,1.7v0.3c0,0.7,0.2,1.2,0.5,1.6c0.3,0.4,0.9,0.5,1.6,0.5c0.6,0,1.1-0.1,1.5-0.3s0.7-0.4,0.9-0.7V253.2z M143.9,221.4
	c0-0.7-0.2-1.2-0.5-1.5s-0.8-0.4-1.3-0.4c-0.6,0-1,0.1-1.4,0.3s-0.8,0.4-1.3,0.7v10.1h-2.2v-17.3h2.2v6.2l1.1-1.3
	c0.3-0.1,0.6-0.2,1-0.3s0.8-0.2,1.3-0.2c1.1,0,1.9,0.3,2.5,0.9c0.6,0.6,0.9,1.6,0.9,3v8.8H144v-9H143.9z M133.8,220.5
	c0,0.2,0.1,0.4,0.1,0.5c0,0.2,0.1,0.4,0.1,0.7c0,0.8-0.1,1.4-0.4,1.9s-0.6,1-1,1.3s-0.9,0.6-1.5,0.7c-0.6,0.1-1.1,0.2-1.7,0.2
	c-0.8,0-1.5-0.1-2.1-0.4c-0.2,0.1-0.3,0.3-0.4,0.5s-0.2,0.4-0.2,0.7c0,0.8,0.5,1.2,1.6,1.2h2.8c1.2,0,2.2,0.3,2.8,0.8s1,1.3,1,2.4
	c0,0.7-0.1,1.3-0.4,1.8s-0.7,0.9-1.2,1.2s-1.1,0.6-1.8,0.7c-0.7,0.2-1.4,0.2-2.2,0.2c-1.6,0-2.8-0.3-3.6-0.8
	c-0.8-0.5-1.2-1.3-1.2-2.3c0-0.5,0.1-0.8,0.2-1.1s0.3-0.5,0.4-0.6l1.4-0.7c-0.4-0.1-0.8-0.4-1.1-0.7c-0.3-0.3-0.5-0.8-0.5-1.4
	c0-0.4,0.1-0.7,0.2-1l0.3-0.6l1.3-0.7l-1.4-0.9c-0.2-0.3-0.3-0.6-0.4-1s-0.2-0.8-0.2-1.3c0-0.8,0.1-1.4,0.4-1.9s0.6-0.9,1.1-1.3
	c0.4-0.3,0.9-0.5,1.5-0.7c0.6-0.1,1.1-0.2,1.6-0.2c1.1,0,2,0.2,2.8,0.7l2.9-1v2.1h-2.8L133.8,220.5L133.8,220.5z M126.4,231.4
	c0,0.6,0.2,1.1,0.7,1.3c0.5,0.3,1.2,0.4,2.2,0.4c1.2,0,2-0.2,2.6-0.6c0.6-0.4,0.9-0.9,0.9-1.5c0-0.4-0.1-0.7-0.4-1
	c-0.2-0.3-0.7-0.4-1.4-0.4h-3.7c-0.3,0.2-0.5,0.5-0.7,0.8S126.4,231,126.4,231.4z M131.8,221.6c0-0.8-0.2-1.3-0.6-1.7
	c-0.4-0.4-1-0.6-1.8-0.6s-1.5,0.2-1.8,0.6c-0.4,0.4-0.6,1-0.6,1.7v0.3c0,0.9,0.2,1.5,0.6,1.9s1,0.6,1.8,0.6s1.4-0.2,1.8-0.6
	c0.4-0.4,0.6-1,0.6-1.8V221.6z M120.2,257.8l-1.1,1.3c-0.3,0.1-0.6,0.2-1,0.3s-0.8,0.1-1.3,0.1c-1,0-1.8-0.3-2.4-1s-0.9-1.7-0.9-3
	v-8.8h2.2v9.1c0,0.8,0.2,1.3,0.5,1.6s0.8,0.4,1.3,0.4c0.6,0,1.1-0.1,1.5-0.3s0.8-0.4,1.2-0.7v-10h2.2v12.6H121L120.2,257.8
	L120.2,257.8z M121.7,230.5h-2.2v-12.6h2.2V230.5z M120.6,215.8c-0.4,0-0.7-0.1-1-0.4c-0.3-0.3-0.4-0.6-0.4-1s0.1-0.8,0.4-1
	s0.6-0.4,1-0.4s0.7,0.1,1,0.4c0.3,0.3,0.4,0.6,0.4,1s-0.1,0.8-0.4,1S121,215.8,120.6,215.8z M112.5,230.9c-0.9,0-1.6-0.1-2.2-0.3
	s-1.1-0.4-1.5-0.5l0.3-1.6c0.4,0.2,0.9,0.3,1.4,0.5s1.1,0.2,1.7,0.2c0.8,0,1.4-0.1,1.8-0.4s0.6-0.8,0.6-1.5c0-0.4,0-0.6-0.1-0.9
	c-0.1-0.2-0.2-0.4-0.4-0.5c-0.2-0.1-0.5-0.3-0.9-0.4c-0.4-0.1-0.8-0.3-1.4-0.4c-0.4-0.1-0.9-0.3-1.2-0.4c-0.4-0.2-0.7-0.4-1-0.7
	s-0.5-0.6-0.6-1s-0.2-0.9-0.2-1.5c0-1.3,0.4-2.2,1.1-2.8c0.8-0.6,1.8-0.9,3-0.9c0.8,0,1.4,0.1,2,0.2c0.6,0.1,1,0.3,1.4,0.5l-0.3,1.6
	c-0.5-0.2-0.9-0.3-1.4-0.4c-0.5-0.1-1-0.2-1.6-0.2c-0.8,0-1.3,0.1-1.7,0.4c-0.4,0.2-0.6,0.7-0.6,1.4c0,0.3,0,0.6,0.1,0.8
	s0.2,0.4,0.5,0.5c0.2,0.1,0.5,0.3,0.8,0.4c0.3,0.1,0.7,0.2,1.2,0.3s1,0.3,1.4,0.5s0.8,0.4,1,0.7c0.3,0.3,0.5,0.7,0.6,1.1
	c0.1,0.4,0.2,0.9,0.2,1.5c0,1.1-0.4,2-1.1,2.7C115,230.5,113.9,230.9,112.5,230.9L112.5,230.9z M110.8,253c0,2.2-0.4,3.8-1.3,4.9
	c-0.9,1.1-2.1,1.7-3.7,1.7s-2.8-0.6-3.7-1.7c-0.9-1.1-1.4-2.8-1.4-4.9s0.5-3.8,1.4-4.9c0.9-1.1,2.1-1.7,3.7-1.7s2.8,0.6,3.7,1.7
	C110.3,249.3,110.8,250.9,110.8,253z M108.5,252.9c0-0.9-0.1-1.7-0.2-2.3s-0.3-1.1-0.5-1.4c-0.2-0.4-0.5-0.6-0.9-0.7
	c-0.3-0.1-0.7-0.2-1.2-0.2c-0.4,0-0.8,0.1-1.2,0.2c-0.3,0.1-0.6,0.4-0.9,0.7c-0.2,0.4-0.4,0.8-0.5,1.4c-0.1,0.6-0.2,1.3-0.2,2.2v0.4
	c0,0.9,0.1,1.6,0.2,2.3c0.1,0.6,0.3,1.1,0.5,1.5s0.5,0.6,0.9,0.8c0.3,0.2,0.7,0.2,1.2,0.2c0.4,0,0.8-0.1,1.2-0.2
	c0.4-0.1,0.6-0.4,0.9-0.8c0.2-0.4,0.4-0.8,0.5-1.4c0.1-0.6,0.2-1.3,0.2-2.2V252.9z M104,221.4c0-0.7-0.2-1.2-0.5-1.5
	s-0.8-0.4-1.3-0.4s-1,0.1-1.4,0.3s-0.8,0.4-1.3,0.7v10.1h-2.2v-12.7h1.3l0.8,1.6l1.2-1.3c0.3-0.1,0.6-0.2,1-0.3s0.8-0.2,1.3-0.2
	c1.1,0,1.9,0.3,2.5,0.9c0.6,0.6,0.9,1.6,0.9,3v8.8h-2.2L104,221.4L104,221.4z M99.4,246.8l-5.2,16.5h-2.1l1.3-4.3l-4.1-12.2h2.3
	l2.3,7.3l0.6,3.6l0.6-3.6l2.2-7.3H99.4L99.4,246.8z M90.9,214.9h2.4v15.6h-2.4V214.9z M128.1,248.5l1.3-1.5c0.3-0.1,0.6-0.2,0.8-0.3
	c0.3-0.1,0.6-0.1,0.9-0.1c0.4,0,0.7,0,1,0.1s0.5,0.2,0.6,0.2l-0.4,2c-0.2-0.1-0.5-0.2-0.7-0.2c-0.3-0.1-0.6-0.1-1-0.1
	c-0.5,0-0.9,0.1-1.3,0.3l-1.1,0.6v9.9H126v-12.6h1.3L128.1,248.5L128.1,248.5z M184.6,241.8c0.4,0,0.7,0.1,1,0.4s0.4,0.6,0.4,1
	s-0.1,0.8-0.4,1c-0.3,0.3-0.6,0.4-1,0.4s-0.7-0.1-1-0.4s-0.4-0.6-0.4-1s0.1-0.8,0.4-1S184.2,241.8,184.6,241.8z M185.7,259.3h-2.2
	v-12.5h2.2V259.3z M199.5,259.3h-2.2v-12.5h2.2V259.3z M207.5,246.5c1.6,0,2.8,0.6,3.7,1.7c0.9,1.1,1.4,2.7,1.4,4.8
	c0,2.2-0.4,3.8-1.3,4.9c-0.9,1.1-2.1,1.7-3.7,1.7s-2.8-0.6-3.7-1.7c-0.9-1.1-1.4-2.8-1.4-4.9s0.5-3.8,1.4-4.9
	C204.7,247.1,205.9,246.5,207.5,246.5z M204.7,253.2c0,0.9,0.1,1.6,0.2,2.3c0.1,0.6,0.3,1.1,0.5,1.5c0.2,0.4,0.5,0.6,0.9,0.8
	s0.7,0.2,1.2,0.2c0.4,0,0.8-0.1,1.2-0.2c0.4-0.1,0.6-0.4,0.9-0.8c0.2-0.4,0.4-0.8,0.5-1.4c0.1-0.6,0.2-1.3,0.2-2.2V253
	c0-0.9-0.1-1.7-0.2-2.3s-0.3-1.1-0.5-1.4c-0.2-0.4-0.5-0.6-0.9-0.7c-0.3-0.1-0.7-0.2-1.2-0.2s-0.8,0.1-1.2,0.2
	c-0.3,0.1-0.6,0.4-0.9,0.7c-0.3,0.3-0.4,0.8-0.5,1.4c-0.1,0.6-0.2,1.3-0.2,2.2V253.2z M238.8,256.1c0.5,0,0.9,0.2,1.2,0.5
	s0.5,0.8,0.5,1.3s-0.2,0.9-0.5,1.3c-0.3,0.3-0.8,0.5-1.2,0.5c-0.5,0-0.9-0.2-1.2-0.5c-0.4-0.3-0.5-0.7-0.5-1.3c0-0.5,0.2-1,0.5-1.3
	C237.9,256.2,238.3,256.1,238.8,256.1z"/>
<g>
	<path class="st1" d="M137.8,324.2c0.8-0.9,1.2-2.4,1.2-4.3c0-1.8-0.4-3.2-1.2-4.2s-2-1.4-3.6-1.4H131v11.3h3
		C135.8,325.6,137,325.1,137.8,324.2z M132.5,324.5v-9h1.4c0.6,0,1.1,0.1,1.6,0.2c0.4,0.1,0.8,0.3,1.1,0.7c0.3,0.3,0.5,0.7,0.6,1.3
		c0.1,0.5,0.2,1.2,0.2,2.1v0.4c0,0.9-0.1,1.7-0.2,2.2c-0.1,0.6-0.4,1-0.7,1.3s-0.7,0.5-1.1,0.7c-0.4,0.1-0.9,0.2-1.5,0.2h-1.4V324.5
		z M141.6,325.6h1.3v-9h-1.3V325.6z M142.3,314.8c0.3,0,0.5-0.1,0.7-0.3c0.2-0.2,0.3-0.4,0.3-0.7s-0.1-0.5-0.3-0.7s-0.4-0.3-0.7-0.3
		c-0.2,0-0.5,0.1-0.6,0.3c-0.2,0.2-0.3,0.4-0.3,0.7c0,0.3,0.1,0.5,0.3,0.7C141.8,314.8,142,314.8,142.3,314.8z M146.1,320.7
		c0.2,0.2,0.4,0.4,0.7,0.5c0.3,0.1,0.6,0.2,0.9,0.3c0.4,0.1,0.8,0.2,1,0.3c0.3,0.1,0.5,0.2,0.6,0.3c0.2,0.1,0.3,0.3,0.3,0.4
		c0.1,0.2,0.1,0.4,0.1,0.7c0,0.6-0.2,1-0.5,1.2s-0.7,0.3-1.3,0.3c-0.5,0-0.9-0.1-1.3-0.2c-0.4-0.1-0.7-0.2-1-0.4l-0.2,1
		c0.3,0.1,0.6,0.3,1,0.4c0.4,0.1,0.9,0.2,1.5,0.2c1,0,1.7-0.2,2.2-0.7s0.7-1.1,0.7-1.9c0-0.4-0.1-0.8-0.2-1.1
		c-0.1-0.3-0.3-0.6-0.5-0.8s-0.4-0.4-0.7-0.5c-0.3-0.1-0.7-0.3-1.1-0.4c-0.3-0.1-0.6-0.2-0.9-0.3c-0.2-0.1-0.4-0.2-0.6-0.3
		c-0.1-0.1-0.3-0.2-0.3-0.4c-0.1-0.2-0.1-0.4-0.1-0.6c0-0.6,0.1-0.9,0.4-1.1c0.3-0.2,0.7-0.3,1.2-0.3c0.2,0,0.4,0,0.6,0
		c0.2,0,0.4,0.1,0.5,0.1c0.2,0,0.3,0.1,0.5,0.1c0.2,0.1,0.3,0.1,0.5,0.2l0.2-1c-0.3-0.1-0.6-0.3-1-0.4c-0.4-0.1-0.9-0.2-1.4-0.2
		c-0.9,0-1.6,0.2-2.1,0.6c-0.5,0.4-0.8,1.1-0.8,1.9c0,0.4,0.1,0.7,0.2,1C145.7,320.3,145.9,320.5,146.1,320.7z M157.7,325.6
		c0.4-0.1,0.8-0.3,1.1-0.5l-0.3-1c-0.4,0.2-0.7,0.3-1.1,0.4c-0.3,0.1-0.7,0.2-1.1,0.2c-0.3,0-0.7-0.1-0.9-0.2
		c-0.3-0.1-0.5-0.3-0.7-0.6c-0.2-0.3-0.3-0.6-0.4-1.1c-0.1-0.5-0.1-1.1-0.1-1.8v-0.3c0-0.7,0-1.2,0.1-1.7c0.1-0.4,0.2-0.8,0.4-1
		c0.2-0.3,0.4-0.4,0.7-0.5c0.3-0.1,0.6-0.1,0.9-0.1c0.3,0,0.7,0,1,0.1c0.3,0.1,0.7,0.2,1.1,0.3l0.2-1c-0.3-0.1-0.7-0.3-1.1-0.4
		c-0.4-0.1-0.9-0.2-1.3-0.2c-1.1,0-2,0.4-2.6,1.1c-0.6,0.8-0.9,1.9-0.9,3.5c0,1.6,0.3,2.8,0.9,3.6c0.6,0.8,1.5,1.2,2.6,1.2
		C156.8,325.8,157.3,325.7,157.7,325.6z M164,325.8c1.1,0,1.9-0.4,2.6-1.2c0.6-0.8,1-2,1-3.6c0-0.8-0.1-1.4-0.3-2
		c-0.2-0.6-0.4-1.1-0.7-1.5c-0.3-0.4-0.7-0.7-1.1-0.9c-0.4-0.2-0.9-0.3-1.4-0.3s-1,0.1-1.5,0.3c-0.4,0.2-0.8,0.5-1.1,0.9
		c-0.3,0.4-0.6,0.9-0.7,1.5c-0.2,0.6-0.3,1.3-0.3,2c0,1.5,0.3,2.7,1,3.5C162,325.4,162.9,325.8,164,325.8z M161.8,320.9
		c0-0.7,0-1.2,0.1-1.7c0.1-0.4,0.2-0.8,0.4-1.1s0.4-0.5,0.7-0.6c0.3-0.1,0.6-0.2,0.9-0.2c0.3,0,0.7,0.1,0.9,0.2
		c0.3,0.1,0.5,0.3,0.7,0.6c0.2,0.3,0.3,0.6,0.4,1.1c0.1,0.5,0.1,1,0.1,1.7v0.2c0,0.7-0.1,1.2-0.2,1.7c-0.1,0.4-0.2,0.8-0.4,1.1
		c-0.2,0.3-0.4,0.5-0.7,0.6c-0.3,0.1-0.6,0.2-0.9,0.2c-0.3,0-0.6-0.1-0.9-0.2c-0.3-0.1-0.5-0.3-0.7-0.6s-0.3-0.7-0.4-1.1
		c-0.1-0.5-0.2-1-0.2-1.7v-0.2H161.8z M172.9,322.5l-0.5,2.7l-0.5-2.7l-1.7-5.9h-1.4l2.8,9h1.4l2.8-9h-1.3L172.9,322.5z
		 M180.9,325.8c0.6,0,1.1-0.1,1.6-0.2c0.5-0.2,0.9-0.3,1.1-0.5l-0.2-1c-0.4,0.2-0.8,0.3-1.2,0.4c-0.4,0.1-0.8,0.2-1.2,0.2
		s-0.7-0.1-1-0.2c-0.3-0.1-0.5-0.3-0.7-0.6s-0.3-0.6-0.4-1c-0.1-0.4-0.2-0.9-0.2-1.5h5.3v-0.9c0-0.6-0.1-1.2-0.2-1.7
		c-0.1-0.5-0.3-1-0.6-1.3c-0.3-0.4-0.6-0.6-1-0.8s-0.9-0.3-1.4-0.3s-1,0.1-1.4,0.3c-0.4,0.2-0.8,0.5-1.1,0.8
		c-0.3,0.4-0.6,0.9-0.7,1.5c-0.2,0.6-0.3,1.3-0.3,2.1c0,1.6,0.3,2.8,0.9,3.6C178.8,325.4,179.7,325.8,180.9,325.8z M178.9,318.9
		c0.1-0.4,0.3-0.7,0.4-0.9c0.2-0.2,0.4-0.4,0.7-0.5c0.3-0.1,0.5-0.1,0.8-0.1c0.6,0,1.1,0.2,1.4,0.6c0.3,0.4,0.5,1.2,0.5,2.2v0.3h-4
		C178.7,319.8,178.8,319.3,178.9,318.9z M187.8,318.3c0.3-0.2,0.6-0.4,0.8-0.5c0.3-0.1,0.6-0.2,1-0.2c0.3,0,0.5,0,0.7,0.1
		c0.2,0,0.4,0.1,0.5,0.2l0.3-1.2c-0.1-0.1-0.3-0.1-0.5-0.2c-0.2-0.1-0.4-0.1-0.7-0.1c-0.2,0-0.5,0-0.7,0.1c-0.2,0.1-0.4,0.1-0.6,0.2
		l-0.9,1l-0.5-1.2h-0.8v9h1.3L187.8,318.3L187.8,318.3z M200.3,325.6l1.3-5.3l0.4-2.9l0.4,2.9l1.2,5.3h1.4l2.2-9H206l-1.4,5.9
		l-0.3,2.4l-0.4-3l-1.2-5.3h-1.4l-1.3,5.3l-0.5,3l-0.3-2.4l-1.4-5.9h-1.4l2.3,9H200.3z M214.3,319v6.6h1.3v-6.4c0-1-0.2-1.7-0.7-2.2
		c-0.4-0.4-1-0.7-1.8-0.7c-0.4,0-0.7,0-1,0.1c-0.3,0.1-0.5,0.2-0.7,0.3l-0.8,0.9v-4.5h-1.3v12.4h1.3v-7.3c0.4-0.2,0.7-0.4,1-0.6
		c0.3-0.1,0.7-0.2,1.2-0.2c0.4,0,0.8,0.1,1.1,0.3C214.2,318,214.3,318.4,214.3,319z M218.8,325.2c0.2,0.2,0.5,0.3,0.8,0.4
		c0.3,0.1,0.7,0.1,1,0.1s0.6,0,0.8-0.1c0.2-0.1,0.5-0.1,0.6-0.2l0.8-0.9l0.6,1c0.2,0.1,0.5,0.1,0.7,0.1s0.4,0,0.5-0.1
		c0.2-0.1,0.3-0.1,0.3-0.2v-0.7h-0.3c-0.2,0-0.4,0-0.5-0.1c-0.1-0.1-0.1-0.3-0.1-0.5v-4.4c0-1.2-0.2-2.1-0.7-2.6s-1.2-0.8-2.2-0.8
		c-0.6,0-1.1,0.1-1.6,0.2c-0.5,0.1-0.9,0.3-1.3,0.5l0.2,1c0.5-0.2,0.9-0.3,1.3-0.4c0.4-0.1,0.9-0.2,1.3-0.2c0.3,0,0.6,0,0.8,0.1
		c0.2,0.1,0.4,0.2,0.5,0.4s0.2,0.3,0.2,0.6c0,0.2,0.1,0.5,0.1,0.7v1l-1.6,0.1c-0.6,0.1-1,0.2-1.4,0.3s-0.7,0.3-1,0.5
		s-0.5,0.5-0.6,0.8s-0.2,0.7-0.2,1.2s0.1,0.9,0.2,1.2C218.4,324.8,218.6,325,218.8,325.2z M219.4,323.1c0-0.6,0.2-1.1,0.5-1.3
		c0.3-0.3,0.8-0.4,1.5-0.5l1.5-0.2v2.8c-0.2,0.2-0.4,0.4-0.7,0.6s-0.7,0.3-1.1,0.3c-0.6,0-1-0.1-1.2-0.4c-0.3-0.2-0.4-0.6-0.4-1.2
		v-0.1H219.4z M229.6,324.7c-0.3,0-0.5-0.1-0.6-0.2c-0.1-0.1-0.2-0.3-0.2-0.6v-6.3h2v-1h-2v-2.4h-0.6l-0.6,2.4h-1.2v1h1.1v6.1
		c0,0.7,0.1,1.3,0.4,1.6c0.3,0.3,0.7,0.5,1.3,0.5c0.4,0,0.7,0,1-0.1c0.3-0.1,0.6-0.2,0.8-0.2l-0.1-0.7L229.6,324.7L229.6,324.7z
		 M91.7,348c0,0.4,0,0.7-0.1,1c-0.1,0.2-0.1,0.4-0.2,0.6s-0.2,0.3-0.4,0.3c-0.1,0.1-0.3,0.1-0.5,0.1c-0.3,0-0.5,0-0.7-0.1
		c-0.2-0.1-0.4-0.1-0.7-0.2l-0.2,1.1c0.2,0.1,0.4,0.2,0.7,0.3c0.3,0.1,0.7,0.1,1.1,0.1c0.8,0,1.4-0.3,1.8-0.9
		c0.4-0.6,0.6-1.5,0.6-2.7v-8h-1.5L91.7,348L91.7,348z M96.7,348.8c-0.3,0-0.6,0.1-0.8,0.3c-0.2,0.2-0.3,0.5-0.3,0.8
		s0.1,0.6,0.3,0.8c0.2,0.2,0.5,0.3,0.8,0.3s0.6-0.1,0.8-0.3c0.2-0.2,0.3-0.5,0.3-0.8s-0.1-0.6-0.3-0.8
		C97.2,348.9,97,348.8,96.7,348.8z M106.9,340.6c-0.3-0.3-0.7-0.6-1.1-0.7c-0.5-0.2-1-0.3-1.6-0.3h-3.5v11.3h1.5v-4.2h2
		c0.6,0,1.2-0.1,1.6-0.3c0.5-0.2,0.8-0.4,1.1-0.8c0.3-0.3,0.5-0.7,0.7-1.1c0.1-0.4,0.2-0.9,0.2-1.4s-0.1-1-0.2-1.4
		C107.4,341.3,107.2,340.9,106.9,340.6z M106.2,343.2c0,0.9-0.2,1.5-0.5,1.9c-0.3,0.4-0.9,0.6-1.7,0.6h-1.9v-4.9h1.9
		c0.8,0,1.4,0.2,1.7,0.5c0.3,0.3,0.5,0.9,0.5,1.8V343.2z M109.4,348.8c-0.3,0-0.6,0.1-0.8,0.3c-0.2,0.2-0.3,0.5-0.3,0.8
		s0.1,0.6,0.3,0.8c0.2,0.2,0.5,0.3,0.8,0.3s0.6-0.1,0.8-0.3c0.2-0.2,0.3-0.5,0.3-0.8s-0.1-0.6-0.3-0.8
		C110,348.9,109.7,348.8,109.4,348.8z M125.9,350.9h1.4v-11.3h-2l-2.4,7.9l-0.5,2.8l-0.5-2.8l-2.3-7.9h-2v11.3h1.3v-6.3l-0.2-4.4
		l0.7,3.4l2.2,7.4h1.5l2.3-7.5l0.8-3.3l-0.3,4.4V350.9z M136.2,349.9c0.6-0.8,1-2,1-3.6c0-0.8-0.1-1.4-0.3-2
		c-0.2-0.6-0.4-1.1-0.7-1.5c-0.3-0.4-0.7-0.7-1.1-0.9c-0.4-0.2-0.9-0.3-1.4-0.3s-1,0.1-1.5,0.3c-0.4,0.2-0.8,0.5-1.1,0.9
		c-0.3,0.4-0.6,0.9-0.7,1.5c-0.2,0.6-0.3,1.3-0.3,2c0,1.5,0.3,2.7,1,3.5c0.6,0.8,1.5,1.2,2.6,1.2
		C134.7,351.1,135.5,350.7,136.2,349.9z M135.1,349.3c-0.2,0.3-0.4,0.5-0.7,0.6c-0.3,0.1-0.6,0.2-0.9,0.2c-0.3,0-0.6-0.1-0.9-0.2
		c-0.3-0.1-0.5-0.3-0.7-0.6s-0.3-0.7-0.4-1.1c-0.1-0.5-0.2-1-0.2-1.7v-0.3c0-0.7,0-1.2,0.1-1.7c0.1-0.4,0.2-0.8,0.4-1.1
		s0.4-0.5,0.7-0.6c0.3-0.1,0.6-0.2,0.9-0.2c0.3,0,0.7,0.1,0.9,0.2c0.3,0.1,0.5,0.3,0.7,0.6c0.2,0.3,0.3,0.6,0.4,1.1
		c0.1,0.5,0.1,1,0.1,1.7v0.2c0,0.7-0.1,1.2-0.2,1.7C135.5,348.7,135.3,349,135.1,349.3z M144.2,341.9c-0.1-0.1-0.3-0.1-0.5-0.2
		c-0.2-0.1-0.4-0.1-0.7-0.1c-0.2,0-0.5,0-0.7,0.1c-0.2,0.1-0.4,0.1-0.6,0.2l-0.9,1l-0.5-1.2h-0.8v9h1.3v-7.2
		c0.3-0.2,0.6-0.4,0.8-0.5c0.3-0.1,0.6-0.2,1-0.2c0.3,0,0.5,0,0.7,0.1c0.2,0,0.4,0.1,0.5,0.2L144.2,341.9z M150,341.8
		c-0.4-0.1-0.7-0.1-1.1-0.1c-0.4,0-0.8,0-1.1,0.1c-0.4,0.1-0.7,0.3-1,0.5s-0.6,0.5-0.8,0.9c-0.2,0.4-0.3,0.8-0.3,1.4
		c0,0.3,0,0.6,0.1,0.9s0.2,0.5,0.3,0.7l1,0.6l-0.9,0.5c-0.1,0.1-0.1,0.2-0.2,0.4c-0.1,0.2-0.1,0.4-0.1,0.7c0,0.5,0.1,0.8,0.3,1
		s0.5,0.4,0.8,0.5l-1,0.5c-0.1,0.1-0.2,0.3-0.3,0.5s-0.2,0.5-0.2,0.8c0,0.7,0.3,1.2,0.8,1.6c0.6,0.4,1.4,0.6,2.5,0.6
		c0.6,0,1.1-0.1,1.6-0.2c0.5-0.1,0.9-0.3,1.3-0.5c0.4-0.2,0.6-0.5,0.8-0.9c0.2-0.4,0.3-0.8,0.3-1.2c0-0.7-0.2-1.3-0.7-1.6
		c-0.5-0.4-1.1-0.6-2-0.6h-2c-0.8,0-1.2-0.3-1.2-0.9c0-0.2,0-0.4,0.1-0.5c0.1-0.2,0.2-0.3,0.3-0.4c0.2,0.1,0.5,0.2,0.7,0.2
		c0.3,0,0.5,0.1,0.8,0.1c0.4,0,0.8,0,1.2-0.1c0.4-0.1,0.7-0.3,1-0.5s0.5-0.5,0.7-0.9c0.2-0.4,0.3-0.8,0.3-1.4c0-0.2,0-0.4,0-0.5
		c0-0.1-0.1-0.3-0.1-0.4l-1-0.7h2v-1.4l-2,0.7C150.7,342.1,150.4,341.9,150,341.8z M147.5,350.1h2.7c0.5,0,0.9,0.1,1.1,0.3
		c0.2,0.2,0.3,0.5,0.3,0.8v0.1c0,0.4-0.2,0.8-0.7,1.2c-0.4,0.3-1.1,0.5-2,0.5c-0.7,0-1.3-0.1-1.7-0.3c-0.4-0.2-0.5-0.6-0.5-1
		c0-0.3,0.1-0.6,0.2-0.8C147,350.5,147.2,350.3,147.5,350.1z M150.8,344.7c0,0.6-0.1,1.1-0.4,1.4c-0.3,0.3-0.8,0.4-1.4,0.4
		s-1.1-0.1-1.4-0.4c-0.3-0.3-0.5-0.8-0.5-1.4v-0.2c0-0.6,0.2-1,0.5-1.3s0.8-0.5,1.4-0.5s1.1,0.2,1.4,0.5c0.3,0.3,0.4,0.8,0.4,1.3
		V344.7z M158.3,350.9l0.8-0.9l0.6,1c0.2,0.1,0.5,0.1,0.7,0.1s0.4,0,0.5-0.1c0.2-0.1,0.3-0.1,0.3-0.2v-0.7H161c-0.2,0-0.4,0-0.5-0.1
		c-0.1-0.1-0.1-0.3-0.1-0.5v-4.4c0-1.2-0.2-2.1-0.7-2.6c-0.4-0.5-1.2-0.8-2.2-0.8c-0.6,0-1.1,0.1-1.6,0.2c-0.5,0.1-0.9,0.3-1.3,0.5
		l0.2,1c0.5-0.2,0.9-0.3,1.3-0.4c0.4-0.1,0.9-0.2,1.3-0.2c0.3,0,0.6,0,0.8,0.1c0.2,0.1,0.4,0.2,0.5,0.4s0.2,0.3,0.2,0.6
		c0,0.2,0.1,0.5,0.1,0.7v1l-1.6,0.1c-0.6,0.1-1,0.2-1.4,0.3s-0.7,0.3-1,0.5s-0.5,0.5-0.6,0.8s-0.2,0.7-0.2,1.2s0.1,0.9,0.2,1.2
		c0.1,0.3,0.3,0.6,0.6,0.8c0.2,0.2,0.5,0.3,0.8,0.4c0.3,0.1,0.7,0.1,1,0.1s0.6,0,0.8-0.1C157.9,351,158.2,351,158.3,350.9z
		 M156,349.8c-0.3-0.2-0.4-0.6-0.4-1.2v-0.1c0-0.6,0.2-1.1,0.5-1.3c0.3-0.3,0.8-0.4,1.5-0.5l1.5-0.2v2.8c-0.2,0.2-0.4,0.4-0.7,0.6
		s-0.7,0.3-1.1,0.3C156.7,350.2,156.2,350,156,349.8z M168.1,343.1c0.3,0.2,0.4,0.6,0.4,1.2v6.6h1.3v-6.4c0-1-0.2-1.7-0.7-2.2
		c-0.4-0.4-1-0.7-1.8-0.7c-0.4,0-0.7,0-1,0.1c-0.3,0.1-0.5,0.2-0.7,0.3l-0.8,0.9l-0.5-1.1h-0.8v9h1.3v-7.3c0.4-0.2,0.7-0.4,1-0.6
		c0.3-0.1,0.7-0.2,1.2-0.2C167.5,342.8,167.8,342.9,168.1,343.1z M183.6,340.6c-0.3-0.3-0.7-0.6-1.1-0.7c-0.5-0.2-1-0.3-1.6-0.3
		h-3.5v11.3h1.5v-4.2h2c0.6,0,1.2-0.1,1.6-0.3c0.5-0.2,0.8-0.4,1.1-0.8c0.3-0.3,0.5-0.7,0.7-1.1c0.1-0.4,0.2-0.9,0.2-1.4
		s-0.1-1-0.2-1.4C184.1,341.3,183.9,340.9,183.6,340.6z M182.9,343.2c0,0.9-0.2,1.5-0.5,1.9c-0.3,0.4-0.9,0.6-1.7,0.6h-1.9v-4.9h1.9
		c0.8,0,1.4,0.2,1.7,0.5s0.5,0.9,0.5,1.8V343.2z M190.3,341.7c-0.2,0-0.5,0-0.7,0.1c-0.2,0.1-0.4,0.1-0.6,0.2l-0.9,1l-0.5-1.2h-0.8
		v9h1.3v-7.2c0.3-0.2,0.6-0.4,0.8-0.5c0.3-0.1,0.6-0.2,1-0.2c0.3,0,0.5,0,0.7,0.1c0.2,0,0.4,0.1,0.5,0.2l0.3-1.2
		c-0.1-0.1-0.3-0.1-0.5-0.2C190.8,341.7,190.6,341.7,190.3,341.7z M194.9,341.9h-1.3v9h1.3V341.9z M194.3,340.2
		c0.3,0,0.5-0.1,0.7-0.3c0.2-0.2,0.3-0.4,0.3-0.7s-0.1-0.5-0.3-0.7s-0.4-0.3-0.7-0.3c-0.2,0-0.5,0.1-0.6,0.3
		c-0.2,0.2-0.3,0.4-0.3,0.7c0,0.3,0.1,0.5,0.3,0.7C193.8,340.1,194,340.2,194.3,340.2z M201.1,347.8l-0.5,2.7l-0.5-2.7l-1.7-5.9H197
		l2.8,9h1.4l2.8-9h-1.3L201.1,347.8z M212.2,350.2c-0.2,0-0.4,0-0.5-0.1c-0.1-0.1-0.1-0.3-0.1-0.5v-4.4c0-1.2-0.2-2.1-0.7-2.6
		c-0.4-0.5-1.2-0.8-2.2-0.8c-0.6,0-1.1,0.1-1.6,0.2c-0.5,0.1-0.9,0.3-1.3,0.5l0.2,1c0.5-0.2,0.9-0.3,1.3-0.4
		c0.4-0.1,0.9-0.2,1.3-0.2c0.3,0,0.6,0,0.8,0.1c0.2,0.1,0.4,0.2,0.5,0.4s0.2,0.3,0.2,0.6c0,0.2,0.1,0.5,0.1,0.7v1l-1.6,0.1
		c-0.6,0.1-1,0.2-1.4,0.3s-0.7,0.3-1,0.5s-0.5,0.5-0.6,0.8s-0.2,0.7-0.2,1.2s0.1,0.9,0.2,1.2c0.1,0.3,0.3,0.6,0.6,0.8
		c0.2,0.2,0.5,0.3,0.8,0.4c0.3,0.1,0.7,0.1,1,0.1s0.6,0,0.8-0.1c0.2-0.1,0.5-0.1,0.6-0.2l0.8-0.9l0.6,1c0.2,0.1,0.5,0.1,0.7,0.1
		s0.4,0,0.5-0.1c0.2-0.1,0.3-0.1,0.3-0.2V350h-0.1V350.2z M210.3,349.3c-0.2,0.2-0.4,0.4-0.7,0.6s-0.7,0.3-1.1,0.3
		c-0.6,0-1-0.1-1.2-0.4c-0.3-0.2-0.4-0.6-0.4-1.2v-0.1c0-0.6,0.2-1.1,0.5-1.3c0.3-0.3,0.8-0.4,1.5-0.5l1.5-0.2v2.8H210.3z
		 M215.6,339.4l-0.6,2.4h-1.2v1h1.1v6.1c0,0.7,0.1,1.3,0.4,1.6c0.3,0.3,0.7,0.5,1.3,0.5c0.4,0,0.7,0,1-0.1c0.3-0.1,0.6-0.1,0.8-0.2
		l-0.1-0.7H217c-0.3,0-0.5-0.1-0.6-0.2c-0.1-0.1-0.2-0.3-0.2-0.6v-6.3h2v-1h-2v-2.4L215.6,339.4L215.6,339.4z M225.3,350.9
		c0.5-0.2,0.9-0.3,1.1-0.5l-0.2-1c-0.4,0.2-0.8,0.3-1.2,0.4c-0.4,0.1-0.8,0.2-1.2,0.2s-0.7-0.1-1-0.2c-0.3-0.1-0.5-0.3-0.7-0.6
		c-0.2-0.3-0.3-0.6-0.4-1c-0.1-0.4-0.2-0.9-0.2-1.5h5.3v-0.9c0-0.6-0.1-1.2-0.2-1.7c-0.1-0.5-0.3-1-0.6-1.3c-0.3-0.4-0.6-0.6-1-0.8
		c-0.4-0.2-0.9-0.3-1.4-0.3s-1,0.1-1.4,0.3s-0.8,0.5-1.1,0.8c-0.3,0.4-0.6,0.9-0.7,1.5c-0.2,0.6-0.3,1.3-0.3,2.1
		c0,1.6,0.3,2.8,0.9,3.6c0.6,0.8,1.5,1.2,2.7,1.2C224.3,351.1,224.9,351.1,225.3,350.9z M221.7,344.3c0.1-0.4,0.3-0.7,0.4-0.9
		c0.2-0.2,0.4-0.4,0.7-0.5c0.3-0.1,0.5-0.1,0.8-0.1c0.6,0,1.1,0.2,1.4,0.6c0.3,0.4,0.5,1.2,0.5,2.2v0.3h-4
		C221.5,345.2,221.6,344.7,221.7,344.3z M240.4,345.9c-0.2-0.2-0.5-0.4-0.7-0.5c-0.3-0.1-0.5-0.2-0.8-0.3c0.2-0.1,0.4-0.2,0.7-0.3
		c0.2-0.1,0.4-0.3,0.6-0.5c0.2-0.2,0.4-0.4,0.5-0.7c0.1-0.3,0.2-0.6,0.2-1c0-0.5-0.1-1-0.3-1.3c-0.2-0.4-0.4-0.7-0.7-0.9
		c-0.3-0.2-0.7-0.4-1.1-0.5c-0.4-0.1-0.9-0.2-1.4-0.2H234V351h3.6c0.5,0,1-0.1,1.4-0.2c0.4-0.1,0.8-0.3,1.2-0.6
		c0.3-0.3,0.6-0.6,0.8-1c0.2-0.4,0.3-0.9,0.3-1.4c0-0.4-0.1-0.8-0.2-1.1C240.8,346.3,240.6,346.1,240.4,345.9z M235.4,340.8h1.8
		c0.8,0,1.4,0.1,1.7,0.4s0.5,0.8,0.5,1.4v0.2c0,0.7-0.2,1.2-0.5,1.4c-0.3,0.3-0.8,0.4-1.6,0.4h-2v-3.8H235.4z M239.6,347.8
		c0,0.7-0.2,1.2-0.6,1.5c-0.4,0.3-0.9,0.4-1.7,0.4h-2v-4.1h2.1c0.8,0,1.3,0.1,1.7,0.4c0.3,0.3,0.5,0.8,0.5,1.5V347.8z M249.8,350.2
		c-0.2,0-0.4,0-0.5-0.1c-0.1-0.1-0.1-0.3-0.1-0.5v-4.4c0-1.2-0.2-2.1-0.7-2.6c-0.4-0.5-1.2-0.8-2.2-0.8c-0.6,0-1.1,0.1-1.6,0.2
		c-0.5,0.1-0.9,0.3-1.3,0.5l0.2,1c0.5-0.2,0.9-0.3,1.3-0.4c0.4-0.1,0.9-0.2,1.3-0.2c0.3,0,0.6,0,0.8,0.1c0.2,0.1,0.4,0.2,0.5,0.4
		s0.2,0.3,0.2,0.6c0,0.2,0.1,0.5,0.1,0.7v1l-1.6,0.1c-0.6,0.1-1,0.2-1.4,0.3s-0.7,0.3-1,0.5s-0.5,0.5-0.6,0.8s-0.2,0.7-0.2,1.2
		s0.1,0.9,0.2,1.2c0.1,0.3,0.3,0.6,0.6,0.8c0.2,0.2,0.5,0.3,0.8,0.4c0.3,0.1,0.7,0.1,1,0.1s0.6,0,0.8-0.1c0.2-0.1,0.5-0.1,0.6-0.2
		l0.8-0.9l0.6,1c0.2,0.1,0.5,0.1,0.7,0.1s0.4,0,0.5-0.1c0.2-0.1,0.3-0.1,0.3-0.2V350h-0.1V350.2z M247.9,349.3
		c-0.2,0.2-0.4,0.4-0.7,0.6s-0.7,0.3-1.1,0.3c-0.6,0-1-0.1-1.2-0.4c-0.3-0.2-0.4-0.6-0.4-1.2v-0.1c0-0.6,0.2-1.1,0.5-1.3
		c0.3-0.3,0.8-0.4,1.5-0.5l1.5-0.2v2.8H247.9z M256.2,341.7c-0.4,0-0.7,0-1,0.1c-0.3,0.1-0.5,0.2-0.7,0.3l-0.8,0.9l-0.5-1.1h-0.8v9
		h1.3v-7.3c0.4-0.2,0.7-0.4,1-0.6c0.3-0.1,0.7-0.2,1.2-0.2c0.4,0,0.8,0.1,1.1,0.3s0.4,0.6,0.4,1.2v6.6h1.3v-6.4c0-1-0.2-1.7-0.7-2.2
		C257.6,341.9,257,341.7,256.2,341.7z M265.9,347l-1.1-1.2l3.1-3.9h-1.4l-3.7,4.9l0.3-2.4v-5.9h-1.3v12.4h1.3v-3l1.1-1.5l2.5,4.6
		h1.5L265.9,347z M131.6,375.2c-0.3,0.1-0.7,0.2-1.1,0.2c-0.3,0-0.7-0.1-0.9-0.2c-0.3-0.1-0.5-0.3-0.7-0.6c-0.2-0.3-0.3-0.6-0.4-1.1
		c-0.1-0.5-0.1-1.1-0.1-1.8v-0.3c0-0.7,0-1.2,0.1-1.7c0.1-0.4,0.2-0.8,0.4-1c0.2-0.3,0.4-0.4,0.7-0.5c0.3-0.1,0.6-0.1,0.9-0.1
		c0.3,0,0.7,0,1,0.1c0.3,0.1,0.7,0.2,1.1,0.3l0.2-1c-0.3-0.1-0.7-0.3-1.1-0.4c-0.4-0.1-0.9-0.2-1.3-0.2c-1.1,0-2,0.4-2.6,1.1
		c-0.6,0.8-0.9,1.9-0.9,3.5c0,1.6,0.3,2.8,0.9,3.6s1.5,1.2,2.6,1.2c0.5,0,1-0.1,1.4-0.2c0.4-0.1,0.8-0.3,1.1-0.5l-0.3-1
		C132.3,375,131.9,375.1,131.6,375.2z M141.3,375.5c-0.2,0-0.4,0-0.5-0.1c-0.1-0.1-0.1-0.3-0.1-0.5v-4.4c0-1.2-0.2-2.1-0.7-2.6
		c-0.4-0.5-1.2-0.8-2.2-0.8c-0.6,0-1.1,0.1-1.6,0.2c-0.5,0.1-0.9,0.3-1.3,0.5l0.2,1c0.5-0.2,0.9-0.3,1.3-0.4
		c0.4-0.1,0.9-0.2,1.3-0.2c0.3,0,0.6,0,0.8,0.1c0.2,0.1,0.4,0.2,0.5,0.4s0.2,0.3,0.2,0.6c0,0.2,0.1,0.5,0.1,0.7v1l-1.6,0.1
		c-0.6,0.1-1,0.2-1.4,0.3s-0.7,0.3-1,0.5s-0.5,0.5-0.6,0.8s-0.2,0.7-0.2,1.2s0.1,0.9,0.2,1.2c0.1,0.3,0.3,0.6,0.6,0.8
		c0.2,0.2,0.5,0.3,0.8,0.4c0.3,0.1,0.7,0.1,1,0.1s0.6,0,0.8-0.1c0.2-0.1,0.5-0.1,0.6-0.2l0.8-0.9l0.6,1c0.2,0.1,0.5,0.1,0.7,0.1
		s0.4,0,0.5-0.1c0.2-0.1,0.3-0.1,0.3-0.2v-0.7h-0.1V375.5z M139.4,374.6c-0.2,0.2-0.4,0.4-0.7,0.6s-0.7,0.3-1.1,0.3
		c-0.6,0-1-0.1-1.2-0.4c-0.3-0.2-0.4-0.6-0.4-1.2v-0.1c0-0.6,0.2-1.1,0.5-1.3c0.3-0.3,0.8-0.4,1.5-0.5l1.5-0.2v2.8H139.4z
		 M147.7,367c-0.4,0-0.7,0-1,0.1c-0.3,0.1-0.5,0.2-0.7,0.3l-0.8,0.9l-0.5-1.1h-0.8v9h1.3v-7.3c0.4-0.2,0.7-0.4,1-0.6
		c0.3-0.1,0.7-0.2,1.2-0.2c0.4,0,0.8,0.1,1.1,0.3s0.4,0.6,0.4,1.2v6.6h1.3v-6.4c0-1-0.2-1.7-0.7-2.2
		C149.1,367.2,148.5,367,147.7,367z M162.4,367.8c-0.2-0.2-0.5-0.4-0.9-0.6s-0.8-0.3-1.3-0.3s-0.9,0.1-1.3,0.3
		c-0.4,0.2-0.7,0.5-1,0.8c-0.3,0.4-0.5,0.9-0.7,1.4c-0.2,0.6-0.2,1.3-0.2,2.1c0,1.6,0.3,2.8,0.8,3.6c0.5,0.8,1.3,1.2,2.4,1.2
		c0.3,0,0.5,0,0.7-0.1c0.2-0.1,0.4-0.1,0.5-0.2l1-1l0.5,1.1h0.8v-12.4h-1.3V367.8z M162.4,374.6c-0.3,0.3-0.6,0.5-0.9,0.6
		c-0.3,0.2-0.6,0.2-1,0.2c-0.3,0-0.6-0.1-0.9-0.2c-0.3-0.1-0.5-0.3-0.7-0.6c-0.2-0.3-0.3-0.6-0.4-1.1c-0.1-0.4-0.1-1-0.1-1.7v-0.5
		c0-0.7,0-1.2,0.1-1.7c0.1-0.4,0.2-0.8,0.4-1s0.4-0.4,0.6-0.5c0.3-0.1,0.5-0.1,0.9-0.1s0.8,0.1,1.1,0.3c0.3,0.2,0.6,0.3,0.8,0.5
		L162.4,374.6L162.4,374.6z M172.3,368.2c-0.3-0.4-0.7-0.7-1.1-0.9c-0.4-0.2-0.9-0.3-1.4-0.3s-1,0.1-1.5,0.3
		c-0.4,0.2-0.8,0.5-1.1,0.9c-0.3,0.4-0.6,0.9-0.7,1.5c-0.2,0.6-0.3,1.3-0.3,2c0,1.5,0.3,2.7,1,3.5c0.6,0.8,1.5,1.2,2.6,1.2
		s1.9-0.4,2.6-1.2c0.6-0.8,1-2,1-3.6c0-0.8-0.1-1.4-0.3-2C172.9,369.1,172.7,368.6,172.3,368.2z M171.9,371.9c0,0.7-0.1,1.2-0.2,1.7
		c-0.1,0.4-0.2,0.8-0.4,1.1c-0.2,0.3-0.4,0.5-0.7,0.6c-0.3,0.1-0.6,0.2-0.9,0.2c-0.3,0-0.6-0.1-0.9-0.2c-0.3-0.1-0.5-0.3-0.7-0.6
		s-0.3-0.7-0.4-1.1c-0.1-0.5-0.2-1-0.2-1.7v-0.3c0-0.7,0-1.2,0.1-1.7c0.1-0.4,0.2-0.8,0.4-1.1s0.4-0.5,0.7-0.6
		c0.3-0.1,0.6-0.2,0.9-0.2c0.3,0,0.7,0.1,0.9,0.2c0.3,0.1,0.5,0.3,0.7,0.6c0.2,0.3,0.3,0.6,0.4,1.1c0.1,0.5,0.1,1,0.1,1.7v0.3H171.9
		z M182.4,363.6c-0.6,0-1.1,0.2-1.4,0.5c-0.3,0.4-0.5,0.9-0.5,1.7v1.2h-1.1v1h1.1v8h1.3v-8h2v-1h-2v-1.6c0-0.3,0.1-0.5,0.2-0.6
		c0.1-0.1,0.3-0.2,0.6-0.2h1.4l0.1-0.7c-0.2-0.1-0.4-0.2-0.7-0.3C183.1,363.7,182.8,363.6,182.4,363.6z M191.2,368.2
		c-0.3-0.4-0.7-0.7-1.1-0.9c-0.4-0.2-0.9-0.3-1.4-0.3s-1,0.1-1.5,0.3c-0.4,0.2-0.8,0.5-1.1,0.9c-0.3,0.4-0.6,0.9-0.7,1.5
		c-0.2,0.6-0.3,1.3-0.3,2c0,1.5,0.3,2.7,1,3.5c0.6,0.8,1.5,1.2,2.6,1.2s1.9-0.4,2.6-1.2c0.6-0.8,1-2,1-3.6c0-0.8-0.1-1.4-0.3-2
		C191.8,369.1,191.6,368.6,191.2,368.2z M190.8,371.9c0,0.7-0.1,1.2-0.2,1.7c-0.1,0.4-0.2,0.8-0.4,1.1c-0.2,0.3-0.4,0.5-0.7,0.6
		c-0.3,0.1-0.6,0.2-0.9,0.2c-0.3,0-0.6-0.1-0.9-0.2c-0.3-0.1-0.5-0.3-0.7-0.6s-0.3-0.7-0.4-1.1c-0.1-0.5-0.2-1-0.2-1.7v-0.3
		c0-0.7,0-1.2,0.1-1.7c0.1-0.4,0.2-0.8,0.4-1.1s0.4-0.5,0.7-0.6c0.3-0.1,0.6-0.2,0.9-0.2c0.3,0,0.7,0.1,0.9,0.2
		c0.3,0.1,0.5,0.3,0.7,0.6c0.2,0.3,0.3,0.6,0.4,1.1c0.1,0.5,0.1,1,0.1,1.7v0.3H190.8z M198.2,367c-0.2,0-0.5,0-0.7,0.1
		c-0.2,0.1-0.4,0.1-0.6,0.2l-0.9,1l-0.5-1.2h-0.8v9h1.3V369c0.3-0.2,0.6-0.4,0.8-0.5c0.3-0.1,0.6-0.2,1-0.2c0.3,0,0.5,0,0.7,0.1
		c0.2,0,0.4,0.1,0.5,0.2l0.3-1.2c-0.1-0.1-0.3-0.1-0.5-0.2C198.7,367,198.5,367,198.2,367z M208.9,372.8l-0.5,2.5l-0.4-2.5l-1.8-5.6
		h-1.4l2.9,8.8l-0.9,3h1.3l3.8-11.9h-1.3L208.9,372.8z M219.4,368.2c-0.3-0.4-0.7-0.7-1.1-0.9c-0.4-0.2-0.9-0.3-1.4-0.3
		s-1,0.1-1.5,0.3c-0.4,0.2-0.8,0.5-1.1,0.9c-0.3,0.4-0.6,0.9-0.7,1.5c-0.2,0.6-0.3,1.3-0.3,2c0,1.5,0.3,2.7,1,3.5
		c0.6,0.8,1.5,1.2,2.6,1.2s1.9-0.4,2.6-1.2c0.6-0.8,1-2,1-3.6c0-0.8-0.1-1.4-0.3-2C220,369.1,219.7,368.6,219.4,368.2z M219,371.9
		c0,0.7-0.1,1.2-0.2,1.7c-0.1,0.4-0.2,0.8-0.4,1.1c-0.2,0.3-0.4,0.5-0.7,0.6c-0.3,0.1-0.6,0.2-0.9,0.2c-0.3,0-0.6-0.1-0.9-0.2
		c-0.3-0.1-0.5-0.3-0.7-0.6s-0.3-0.7-0.4-1.1c-0.1-0.5-0.2-1-0.2-1.7v-0.3c0-0.7,0-1.2,0.1-1.7c0.1-0.4,0.2-0.8,0.4-1.1
		s0.4-0.5,0.7-0.6c0.3-0.1,0.6-0.2,0.9-0.2c0.3,0,0.7,0.1,0.9,0.2c0.3,0.1,0.5,0.3,0.7,0.6c0.2,0.3,0.3,0.6,0.4,1.1
		c0.1,0.5,0.1,1,0.1,1.7v0.3H219z M227.7,374.6c-0.3,0.2-0.6,0.4-1,0.6c-0.3,0.1-0.7,0.2-1.2,0.2c-0.4,0-0.8-0.1-1-0.3
		c-0.3-0.2-0.4-0.7-0.4-1.3v-6.6h-1.3v6.4c0,1,0.2,1.7,0.7,2.2c0.4,0.4,1,0.7,1.7,0.7c0.4,0,0.7,0,1-0.1c0.3-0.1,0.5-0.2,0.7-0.3
		l0.8-0.9l0.5,1.1h0.8v-9h-1.3V374.6z M232.8,374.1c-0.3,0-0.6,0.1-0.8,0.3c-0.2,0.2-0.3,0.5-0.3,0.8s0.1,0.6,0.3,0.8
		c0.2,0.2,0.5,0.3,0.8,0.3s0.6-0.1,0.8-0.3s0.3-0.5,0.3-0.8s-0.1-0.6-0.3-0.8C233.4,374.2,233.2,374.1,232.8,374.1z"/>
</g>
</svg>
