<?xml version="1.0" encoding="utf-8"?>
<!-- Generator: Adobe Illustrator 19.2.1, SVG Export Plug-In . SVG Version: 6.00 Build 0)  -->
<svg version="1.1" id="Layer_1" xmlns="http://www.w3.org/2000/svg" xmlns:xlink="http://www.w3.org/1999/xlink" x="0px" y="0px"
	 width="265px" height="300px" viewBox="0 0 265 300" style="enable-background:new 0 0 265 300;" xml:space="preserve">
<style type="text/css">
	.st0{fill:#FFFFFF;}
	.st1{opacity:0.4;fill:#FFFFFF;enable-background:new    ;}
	.st2{opacity:0.3;fill:#FFFFFF;enable-background:new    ;}
	.st3{opacity:0.5;fill:#FFFFFF;enable-background:new    ;}
	.st4{opacity:0.8;fill:#FFFFFF;enable-background:new    ;}
	.st5{opacity:0.6;fill:#FFFFFF;enable-background:new    ;}
</style>
<g>
	<path class="st0" d="M41.5,227.1c-1.8,0.3-2.6,1.5-2.6,3.9c0,2.3,1.2,3.9,3,3.9c0.9,0,1.5-0.3,3.2-1v1.8c-1.9,0.9-3.1,1.2-4.6,1.2
		c-1.7,0-2.8-0.5-3.9-1.4c-1-1-1.5-2.3-1.5-3.7c0-3.2,2.4-5.5,5.9-5.5c2.3,0,4,1,4,2.6c0,1-0.8,1.7-1.8,1.7c-0.5,0-1-0.1-1.7-0.5
		L41.5,227.1"/>
	<path class="st0" d="M32.9,231.5c1.5-1.9,2.2-2.8,2.2-3.7s-0.8-1.8-1.8-1.8c-0.6,0-1.2,0.3-1.4,0.6v4l-2.6,3.5v-7.8h-2.4l-4,6.7
		v-6.7h-1.4l-3.6,0.9v0.9l1.9,0.3v8.2h2.6l3.9-6.3v6.3H29L32.9,231.5"/>
	<path class="st0" d="M10.1,235.2c0.3,0,0.4,0,0.5,0c2.1,0,3.2-1.3,3.2-3.9c0-2.2-0.9-3.2-2.6-3.2c-0.3,0-0.5,0-1.2,0.1L10.1,235.2
		 M10.1,239.6l1.7,0.4v0.9H5.1V240l1.5-0.4V228H5v-0.9l4.1-1.2h1v1.4c1.9-1.2,2.6-1.4,3.5-1.4c2.2,0,3.9,2.1,3.9,4.9
		c0,3.2-2.2,5.5-5.7,5.5c-0.4,0-1,0-1.8-0.1C10.1,236.3,10.1,239.6,10.1,239.6z"/>
	<rect x="56.4" y="212.6" class="st1" width="2.6" height="5"/>
	<rect x="49.4" y="201.9" class="st2" width="1.9" height="3.1"/>
	<rect x="39.3" y="200" class="st3" width="10" height="1.9"/>
	<polyline class="st4" points="39.3,212.6 39.3,201.9 49.4,201.9 49.4,205 39.3,205 39.3,212.6 	"/>
	<rect x="51.4" y="205" class="st1" width="5.1" height="7.6"/>
	<rect x="51.4" y="212.6" class="st5" width="5.1" height="5"/>
	<rect x="49.4" y="205" class="st4" width="1.9" height="7.6"/>
	<rect x="49.4" y="212.6" class="st4" width="1.9" height="5"/>
	<polyline class="st0" points="49.4,212.6 45.6,212.6 45.6,210 39.3,210 39.3,212.6 39.3,205 49.4,205 49.4,212.6 	"/>
	<rect x="45.6" y="212.6" class="st4" width="3.7" height="5"/>
	<rect x="39.3" y="210" class="st0" width="6.3" height="2.6"/>
	<rect x="39.3" y="212.6" class="st0" width="6.3" height="5"/>
	<rect x="29.3" y="217.6" class="st0" width="10" height="2.6"/>
</g>
<path id="See_how_we_helped_a_private_food_company_harvest_over_40M_in_a_copy" class="st0" d="M24.5,6.3c-0.7-0.1-1.3-0.2-2-0.2
	C20.9,6,19.3,6.5,18,7.5c-1.1,0.8-1.8,2.1-1.8,3.5c0,0.8,0.2,1.5,0.7,2.1c0.5,0.7,1.2,1.2,2,1.6c0.2,0.1,0.6,0.3,1,0.5
	c1.6,0.7,2.4,1.5,2.4,2.3c0,0.7-0.4,1.4-1,1.7c-0.7,0.5-1.6,0.7-2.5,0.7c-0.2,0-0.3,0-0.5,0c-0.2,0-0.4,0-0.6,0l-0.3-0.4v-2.9h-2
	l-0.9,4.1c0.8,0.3,1.6,0.5,2.4,0.7c0.7,0.1,1.4,0.2,2.2,0.2c1.8,0.1,3.5-0.5,5-1.5c1.2-0.8,2-2.2,2-3.7c0-0.3-0.1-0.7-0.2-1
	c-0.1-0.3-0.3-0.7-0.5-1c-0.6-0.6-1.3-1.1-2.1-1.4c-0.2-0.1-0.3-0.1-0.4-0.2l-0.2-0.1c-1.9-0.9-2.8-1.8-2.8-2.6
	c0-0.7,0.3-1.3,0.8-1.7c0.7-0.5,1.4-0.7,2.2-0.6c0.2,0,0.4,0,0.5,0c0.1,0,0.2,0,0.3,0L24,8.1l0.1,2.8H26L26.8,7
	C26.1,6.7,25.3,6.5,24.5,6.3z M32.1,12.4c0.4-0.6,1-0.9,1.6-1c0.3,0,0.6,0.1,0.8,0.3c0.2,0.2,0.3,0.5,0.3,0.8c0,0.7-0.4,1.3-1.1,1.7
	c-0.8,0.5-1.7,0.9-2.7,0.9C31.2,14.2,31.6,13.2,32.1,12.4L32.1,12.4z M31.2,16.3c1.7,0.1,3.3-0.2,4.8-0.9c1-0.5,1.7-1.5,1.7-2.6
	c0-0.7-0.3-1.4-0.8-1.9c-0.7-0.5-1.5-0.7-2.3-0.7c-0.9,0-1.8,0.1-2.6,0.4c-0.8,0.3-1.5,0.7-2.2,1.2c-0.8,0.6-1.4,1.4-1.9,2.3
	c-0.4,0.9-0.6,1.8-0.6,2.8c-0.1,1.2,0.4,2.4,1.2,3.4c0.8,0.9,2,1.3,3.2,1.3c0.9,0,1.7-0.2,2.5-0.5c1-0.4,2-0.9,2.9-1.5v-1.7
	c-0.6,0.5-1.3,0.8-1.9,1.1c-0.6,0.2-1.1,0.4-1.8,0.4c-0.7,0-1.4-0.2-1.9-0.7c-0.5-0.6-0.7-1.4-0.6-2.1v-0.1H31.2L31.2,16.3z
	 M43.5,12.4c0.4-0.6,1-0.9,1.6-1c0.3,0,0.6,0.1,0.8,0.3c0.2,0.2,0.3,0.5,0.3,0.8c0,0.7-0.4,1.3-1.1,1.7c-0.8,0.5-1.7,0.9-2.7,0.9
	C42.6,14.2,42.9,13.2,43.5,12.4z M42.6,16.3c1.7,0.1,3.3-0.2,4.8-0.9c1-0.5,1.7-1.5,1.7-2.6c0-0.7-0.3-1.4-0.8-1.9
	c-0.7-0.5-1.5-0.7-2.3-0.7c-0.9,0-1.8,0.1-2.6,0.4c-0.8,0.3-1.5,0.7-2.2,1.2c-0.8,0.6-1.4,1.4-1.9,2.3c-0.4,0.9-0.6,1.8-0.6,2.8
	c-0.1,1.2,0.4,2.4,1.2,3.4c0.8,0.9,2,1.3,3.2,1.3c0.9,0,1.7-0.2,2.5-0.5c1-0.4,2-0.9,2.9-1.5v-1.7c-0.6,0.5-1.3,0.8-1.9,1.1
	c-0.6,0.2-1.1,0.4-1.8,0.4c-0.7,0-1.4-0.2-1.9-0.7c-0.5-0.6-0.7-1.4-0.6-2.1v-0.1H42.6L42.6,16.3z M57.8,6l0,0.9l1.9,0.2l-2.9,14.1
	h3.7l1.4-7.6c0.5-0.3,1-0.6,1.5-0.9c0.3-0.2,0.6-0.2,1-0.3c0.3,0,0.6,0.1,0.8,0.3c0.2,0.2,0.3,0.6,0.3,0.9c0,0.2,0,0.4-0.1,0.6
	c0,0.2-0.1,0.5-0.2,0.9l-0.7,3.2c0,0,0,0.1,0,0.1c-0.1,0.4-0.1,0.7-0.2,1.1c0,0.5,0.2,1,0.5,1.3c0.4,0.3,1,0.5,1.5,0.5
	c0.6,0,1.2-0.1,1.8-0.2c0.8-0.2,1.6-0.4,2.4-0.7v-1.1c-0.3,0.1-0.6,0.2-0.8,0.2c-0.2,0-0.4,0.1-0.6,0.1c-0.3,0-0.6-0.1-0.9-0.3
	c-0.2-0.3-0.3-0.6-0.3-0.9c0-0.2,0-0.5,0.1-0.7c0-0.3,0.1-0.6,0.2-1l0.6-2.6c0.1-0.4,0.1-0.7,0.2-1c0-0.2,0.1-0.5,0.1-0.7
	c0-0.7-0.2-1.3-0.7-1.7c-0.5-0.5-1.1-0.7-1.8-0.7c-0.7,0-1.3,0.2-1.9,0.6c-0.9,0.5-1.8,1.1-2.6,1.7L63.6,5h-1.3L57.8,6z M79.1,12.2
	c0.3,0.7,0.5,1.5,0.4,2.2c0.1,1.4-0.2,2.8-0.8,4c-0.3,0.9-1.1,1.5-2,1.6c-0.5,0-1.1-0.2-1.3-0.7c-0.3-0.7-0.5-1.4-0.4-2.2
	c-0.1-1.4,0.2-2.8,0.8-4.1c0.3-0.9,1.1-1.5,2-1.6C78.3,11.5,78.9,11.8,79.1,12.2L79.1,12.2z M75.5,10.6c-1.7,0.6-3,1.8-3.8,3.4
	c-0.4,0.8-0.6,1.7-0.6,2.6c-0.1,1.3,0.4,2.7,1.4,3.6c1.1,0.9,2.4,1.4,3.8,1.3c1.9,0.1,3.7-0.6,5.1-1.9c1.3-1.2,2-3,2-4.8
	c0.1-1.3-0.4-2.6-1.4-3.5c-1.1-0.9-2.5-1.3-3.9-1.2C77.2,10.1,76.3,10.3,75.5,10.6z M84,11.1V12l2.2,0.3l0.4,7.9l-0.2,1h2.8l4.1-7.5
	l0.5,7.5h2.6c1.8-2,3.5-4.2,5-6.4c0.6-0.9,1-1.9,1.1-2.9c0-0.5-0.2-0.9-0.5-1.3c-0.4-0.3-0.9-0.5-1.4-0.5c-0.3,0-0.6,0.1-0.8,0.2
	c-0.3,0.1-0.6,0.3-0.8,0.5l0.6,4l-2.8,3.9l-0.4-8.3L93,10.7v0.6l-3.2,6L89.5,12c0-0.3,0-0.5-0.1-0.8s-0.1-0.7-0.2-1.1h-1.3L84,11.1z
	 M109.4,11.1V12l2.2,0.3l0.4,7.9l-0.2,1h2.8l4.1-7.5l0.5,7.5h2.6c1.8-2,3.5-4.2,5-6.4c0.6-0.9,1-1.9,1.1-2.9c0-0.5-0.2-0.9-0.5-1.3
	c-0.4-0.3-0.9-0.5-1.4-0.5c-0.3,0-0.6,0.1-0.8,0.2c-0.3,0.1-0.6,0.3-0.8,0.5l0.6,4l-2.8,3.9l-0.4-8.3l-3.3,0.3v0.6l-3.2,6l-0.2-5.3
	c0-0.3,0-0.5-0.1-0.8s-0.1-0.7-0.2-1.1h-1.3L109.4,11.1z M132.9,12.4c0.4-0.6,1-0.9,1.6-1c0.3,0,0.6,0.1,0.8,0.3
	c0.2,0.2,0.3,0.5,0.3,0.8c0,0.7-0.4,1.3-1.1,1.7c-0.8,0.5-1.7,0.9-2.7,0.9C132,14.2,132.4,13.2,132.9,12.4z M132,16.3
	c1.7,0.1,3.3-0.2,4.8-0.9c1-0.5,1.7-1.5,1.7-2.6c0-0.7-0.3-1.4-0.8-1.9c-0.7-0.5-1.5-0.7-2.3-0.7c-0.9,0-1.8,0.1-2.6,0.4
	c-0.8,0.3-1.5,0.7-2.2,1.2c-0.8,0.6-1.4,1.4-1.9,2.3c-0.4,0.9-0.6,1.8-0.6,2.8c-0.1,1.2,0.4,2.4,1.2,3.4c0.8,0.9,2,1.3,3.2,1.3
	c0.9,0,1.7-0.2,2.5-0.5c1-0.4,2-0.9,2.9-1.5v-1.7c-0.6,0.5-1.3,0.8-1.9,1.1c-0.6,0.2-1.1,0.4-1.8,0.4c-0.7,0-1.4-0.2-1.9-0.7
	c-0.5-0.6-0.7-1.4-0.6-2.1v-0.1L132,16.3L132,16.3z M147.2,6l0,0.9l1.9,0.2l-2.9,14.1h3.7l1.4-7.6c0.5-0.3,1-0.6,1.5-0.9
	c0.3-0.2,0.6-0.2,1-0.3c0.3,0,0.6,0.1,0.8,0.3c0.2,0.2,0.3,0.6,0.3,0.9c0,0.2,0,0.4-0.1,0.6c0,0.2-0.1,0.5-0.2,0.9l-0.7,3.2
	c0,0,0,0.1,0,0.1c-0.1,0.4-0.1,0.7-0.1,1.1c0,0.5,0.2,1,0.5,1.3c0.4,0.3,1,0.5,1.5,0.5c0.6,0,1.2-0.1,1.8-0.2
	c0.8-0.2,1.6-0.4,2.4-0.7v-1c-0.3,0.1-0.6,0.2-0.8,0.2c-0.2,0-0.4,0.1-0.6,0.1c-0.3,0-0.6-0.1-0.9-0.3c-0.2-0.3-0.3-0.6-0.3-0.9
	c0-0.2,0-0.5,0.1-0.7c0-0.3,0.1-0.6,0.2-1l0.6-2.6c0.1-0.4,0.1-0.7,0.2-1c0-0.2,0.1-0.5,0.1-0.7c0-0.7-0.2-1.3-0.7-1.7
	c-0.5-0.5-1.1-0.7-1.8-0.7c-0.7,0-1.3,0.2-1.9,0.6c-0.9,0.5-1.8,1.1-2.6,1.7l1.6-7.4h-1.3L147.2,6z M165.4,12.4c0.4-0.6,1-0.9,1.6-1
	c0.3,0,0.6,0.1,0.8,0.3c0.2,0.2,0.3,0.5,0.3,0.8c0,0.7-0.4,1.3-1.1,1.7c-0.8,0.5-1.7,0.9-2.7,0.9C164.5,14.2,164.8,13.2,165.4,12.4z
	 M164.5,16.3c1.7,0.1,3.3-0.2,4.8-0.9c1-0.5,1.7-1.5,1.7-2.6c0-0.7-0.3-1.4-0.8-1.9c-0.7-0.5-1.5-0.7-2.3-0.7
	c-0.9,0-1.8,0.1-2.6,0.4c-0.8,0.3-1.5,0.7-2.2,1.2c-0.8,0.6-1.4,1.4-1.9,2.3c-0.4,0.9-0.6,1.8-0.6,2.8c-0.1,1.2,0.4,2.4,1.2,3.4
	c0.8,0.9,2,1.3,3.2,1.3c0.9,0,1.7-0.2,2.5-0.5c1-0.4,2-0.9,2.9-1.5v-1.7c-0.6,0.5-1.3,0.8-1.9,1.1c-0.6,0.2-1.1,0.4-1.8,0.4
	c-0.7,0-1.4-0.2-1.9-0.7c-0.5-0.6-0.7-1.4-0.6-2.1v-0.1L164.5,16.3L164.5,16.3z M172.6,6v0.9l2,0.2l-2,10.1
	c-0.1,0.4-0.2,0.9-0.2,1.3c0,0.3-0.1,0.6-0.1,0.9c0,0.5,0.2,1.1,0.6,1.4c0.4,0.4,1,0.6,1.6,0.5c0.6,0,1.1-0.1,1.7-0.2
	c0.7-0.2,1.5-0.4,2.6-0.8v-1c-0.4,0.1-0.7,0.2-1,0.2c-0.3,0.1-0.5,0.1-0.8,0.1c-0.3,0-0.5-0.1-0.7-0.3c-0.2-0.2-0.3-0.5-0.2-0.8
	c0-0.2,0-0.5,0.1-0.7c0-0.3,0.1-0.7,0.2-1.3L178.6,5h-1.3L172.6,6z M184.4,21.1c0.3,0,0.5,0.1,0.8,0.1c1.9,0.1,3.7-0.7,5-2
	c1.3-1.4,2-3.2,2-5.1c0.1-1-0.3-2.1-0.9-2.9c-0.6-0.7-1.5-1.1-2.4-1.1c-0.6,0-1.3,0.2-1.9,0.4c-0.7,0.3-1.4,0.8-2,1.3l0.3-1.7h-1.4
	l-4.4,1v1l1.8,0.2l-2,11.8l-0.2,0.4l-1.5,0.4V26h7.2v-1l-2.1-0.5l0.6-3.6C183.7,21,184.1,21.1,184.4,21.1z M184.7,13
	c0.3-0.2,0.7-0.4,1.1-0.6c0.3-0.1,0.6-0.2,0.9-0.2c0.5,0,0.9,0.2,1.2,0.6c0.3,0.5,0.4,1,0.4,1.6c0.1,1.4-0.3,2.7-1,3.9
	c-0.5,0.9-1.5,1.5-2.6,1.5c-0.2,0-0.4,0-0.6-0.1c-0.2,0-0.4-0.1-0.6-0.2L184.7,13z M197.9,12.4c0.4-0.6,1-0.9,1.6-1
	c0.3,0,0.6,0.1,0.8,0.3c0.2,0.2,0.3,0.5,0.3,0.8c0,0.7-0.4,1.3-1.1,1.7c-0.8,0.5-1.7,0.9-2.7,0.9C197,14.2,197.3,13.2,197.9,12.4z
	 M197,16.3c1.7,0.1,3.3-0.2,4.8-0.9c1-0.5,1.7-1.5,1.7-2.6c0-0.7-0.3-1.4-0.8-1.9c-0.7-0.5-1.5-0.7-2.3-0.7c-0.9,0-1.8,0.1-2.6,0.4
	c-0.8,0.3-1.5,0.7-2.2,1.2c-0.8,0.6-1.4,1.4-1.9,2.3c-0.4,0.9-0.6,1.8-0.6,2.8c-0.1,1.2,0.4,2.4,1.2,3.4c0.8,0.9,2,1.3,3.2,1.3
	c0.9,0,1.7-0.2,2.5-0.5c1-0.4,2-0.9,2.9-1.5v-1.7c-0.6,0.5-1.3,0.8-1.9,1.1c-0.6,0.2-1.1,0.4-1.8,0.4c-0.7,0-1.4-0.2-1.9-0.7
	c-0.5-0.6-0.7-1.4-0.6-2.1v-0.1H197L197,16.3z M213,12.6l-1,5.9c-0.4,0.2-0.7,0.4-1.1,0.5c-0.3,0.1-0.6,0.2-0.9,0.2
	c-0.5,0-1-0.2-1.3-0.6c-0.3-0.5-0.5-1.1-0.4-1.7c0-0.9,0.2-1.9,0.5-2.7c0.3-0.8,0.7-1.6,1.3-2.2c0.2-0.2,0.5-0.4,0.7-0.5
	c0.3-0.1,0.6-0.2,0.9-0.2c0.1,0,0.2,0,0.2,0s0.1,0,0.1,0L213,12.6z M212,6.1V7l1.9,0.3l-0.6,3.2c-0.4-0.1-0.8-0.2-1.2-0.3
	c-0.4-0.1-0.7-0.1-1.1-0.1c-0.8,0-1.6,0.2-2.4,0.5c-0.7,0.3-1.4,0.7-2,1.3c-0.7,0.7-1.2,1.5-1.6,2.4c-0.4,0.9-0.6,1.9-0.6,2.9
	c0,1.1,0.3,2.2,1,3c0.6,0.8,1.5,1.2,2.5,1.2c0.6,0,1.2-0.1,1.7-0.4c0.8-0.4,1.5-0.8,2.2-1.3c0,0.5,0.3,1,0.6,1.3
	c0.4,0.3,1,0.5,1.5,0.4c0.6,0,1.2-0.1,1.8-0.3c0.8-0.2,1.5-0.4,2.2-0.8v-1.1c-0.4,0.1-0.7,0.2-0.9,0.2c-0.2,0-0.4,0.1-0.6,0.1
	c-0.3,0-0.6-0.1-0.8-0.3c-0.2-0.2-0.3-0.5-0.3-0.9c0-0.3,0-0.6,0.1-0.8c0-0.1,0-0.2,0-0.2L217.8,5h-1.3L212,6.1z M234.1,12.7l-1,5.8
	c-0.4,0.2-0.8,0.4-1.2,0.5c-0.3,0.1-0.5,0.1-0.8,0.2c-0.5,0-1-0.2-1.3-0.6c-0.3-0.6-0.5-1.2-0.4-1.8c0-1.3,0.3-2.7,1-3.8
	c0.5-0.9,1.4-1.5,2.5-1.5c0.1,0,0.1,0,0.2,0c0,0,0.1,0,0.1,0L234.1,12.7z M233.7,10.3c-0.5-0.1-0.9-0.1-1.4-0.1
	c-0.8,0-1.6,0.1-2.3,0.4c-0.7,0.2-1.3,0.6-1.9,1.1c-1.6,1.4-2.5,3.4-2.5,5.5c-0.1,1.1,0.3,2.2,0.9,3.1c0.6,0.7,1.5,1.2,2.5,1.1
	c0.7,0,1.4-0.1,2-0.4c0.7-0.3,1.4-0.8,2.1-1.3c0,0.5,0.2,0.9,0.5,1.3c0.4,0.3,1,0.5,1.5,0.4c0.7,0,1.3-0.1,2-0.2
	c0.7-0.2,1.5-0.4,2.2-0.7l0-1.1c-0.3,0.1-0.6,0.2-0.9,0.3c-0.2,0.1-0.5,0.1-0.7,0.1c-0.3,0-0.6-0.1-0.8-0.3
	c-0.2-0.3-0.3-0.6-0.3-0.9c0-0.2,0-0.4,0-0.6c0-0.2,0.1-0.4,0.1-0.6l1.5-7.1h-1.5l-1.3,0.6C234.9,10.5,234.3,10.4,233.7,10.3
	L233.7,10.3z M11.8,45.1c0.3,0,0.5,0.1,0.8,0.1c1.9,0.1,3.7-0.7,5-2c1.3-1.4,2-3.2,2-5.1c0.1-1-0.3-2.1-0.9-2.9
	c-0.6-0.7-1.5-1.1-2.4-1.1c-0.6,0-1.3,0.2-1.9,0.4c-0.7,0.3-1.4,0.8-2,1.3l0.4-1.7h-1.4l-4.4,1v1l1.8,0.2l-2,11.8l-0.2,0.4L5,48.9
	V50h7.2v-1l-2.1-0.5l0.6-3.6C11.1,45,11.5,45.1,11.8,45.1z M12.1,37c0.3-0.2,0.7-0.4,1.1-0.6c0.3-0.1,0.6-0.2,0.9-0.2
	c0.5,0,0.9,0.2,1.2,0.6c0.3,0.5,0.4,1,0.4,1.6c0.1,1.4-0.3,2.7-1,3.9c-0.5,0.9-1.5,1.5-2.6,1.5c-0.4,0-0.8-0.1-1.1-0.2L12.1,37z
	 M30.9,37.8c0.5-0.5,0.8-1.1,0.8-1.8c0-0.5-0.2-1.1-0.5-1.5c-0.3-0.4-0.8-0.6-1.3-0.6c-0.7,0-1.3,0.3-1.8,0.7
	c-0.9,0.7-1.7,1.5-2.4,2.4l0.6-3h-1.1l-4.5,1.1v1l1.9,0.2l-1.8,8.9h3.6l0.8-5c0.1-0.8,0.4-1.7,0.9-2.3c0.5-0.6,1.1-1.1,1.9-1.4
	l0.7,2.1C29.5,38.6,30.3,38.3,30.9,37.8z M32.3,35.1v1l1.9,0.2l-1.1,5.3c-0.1,0.4-0.2,0.8-0.2,1.1c0,0.2-0.1,0.5-0.1,0.7
	c0,0.5,0.2,1,0.5,1.4c0.5,0.3,1.1,0.5,1.6,0.5c0.6,0,1.2-0.1,1.9-0.2c0.8-0.2,1.7-0.4,2.5-0.7v-1.1c-0.4,0.1-0.8,0.2-1.1,0.2
	c-0.2,0-0.4,0.1-0.7,0.1c-0.3,0-0.5-0.1-0.7-0.3c-0.2-0.2-0.3-0.5-0.3-0.7c0-0.3,0-0.5,0.1-0.8c0-0.3,0.1-0.7,0.2-1l1.3-6.6h-1.4
	L32.3,35.1z M35.6,29.4c-0.4,0.4-0.7,0.9-0.7,1.5c0,0.4,0.2,0.9,0.5,1.2c0.4,0.3,0.8,0.5,1.3,0.5c0.6,0,1.2-0.2,1.7-0.6
	c0.4-0.4,0.7-0.9,0.6-1.5c0-0.5-0.1-0.9-0.5-1.2c-0.4-0.3-0.9-0.5-1.4-0.4C36.6,28.8,36,29,35.6,29.4L35.6,29.4z M49.3,39.6
	c1.2-1.7,1.8-3,1.8-3.8c0-0.4-0.1-0.9-0.5-1.2c-0.3-0.3-0.8-0.5-1.3-0.4c-0.3,0-0.6,0.1-0.9,0.2c-0.3,0.1-0.7,0.3-1,0.5l0.6,3.8
	c-0.5,0.7-1,1.4-1.5,2s-1,1.3-1.5,1.9l-0.6-6.4c0-0.4-0.1-0.8-0.2-1.2c-0.1-0.3-0.2-0.5-0.3-0.7h-1l-3.9,0.9V36l2,0.2l0.8,8l-0.2,1
	h2.7C46.2,43.5,47.9,41.6,49.3,39.6z M59.9,36.7l-1,5.8c-0.4,0.2-0.8,0.4-1.2,0.5c-0.3,0.1-0.5,0.1-0.8,0.2c-0.5,0-1-0.2-1.3-0.6
	c-0.3-0.6-0.5-1.2-0.4-1.8c0-1.3,0.3-2.7,1-3.8c0.5-0.9,1.4-1.5,2.5-1.5c0.1,0,0.1,0,0.2,0c0,0,0.1,0,0.1,0L59.9,36.7z M59.4,34.3
	c-0.5-0.1-0.9-0.1-1.4-0.1c-0.8,0-1.6,0.1-2.3,0.4c-0.7,0.2-1.3,0.6-1.9,1.1c-1.6,1.4-2.5,3.4-2.5,5.5c-0.1,1.1,0.3,2.2,0.9,3.1
	c0.6,0.8,1.5,1.2,2.5,1.1c0.7,0,1.4-0.1,2-0.4c0.7-0.3,1.4-0.8,2.1-1.3c0,0.5,0.2,0.9,0.5,1.3c0.4,0.3,1,0.5,1.5,0.4
	c0.7,0,1.3-0.1,2-0.2c0.7-0.2,1.5-0.4,2.2-0.7l0-1.1c-0.3,0.1-0.6,0.2-0.9,0.3c-0.2,0.1-0.5,0.1-0.7,0.1c-0.3,0-0.6-0.1-0.8-0.3
	c-0.2-0.3-0.3-0.6-0.3-0.9c0-0.2,0-0.4,0-0.6c0-0.2,0.1-0.4,0.1-0.6l1.4-7.1h-1.5l-1.3,0.6C60.6,34.5,60,34.4,59.4,34.3L59.4,34.3z
	 M68,34.1l-2.3,1.2v0.9h1.6l-1.1,5.7c-0.1,0.3-0.1,0.6-0.1,0.8c0,0.2,0,0.4,0,0.6c0,0.6,0.2,1.2,0.6,1.6c0.5,0.4,1.2,0.6,1.8,0.6
	c0.6,0,1.1-0.1,1.7-0.2c0.7-0.1,1.6-0.4,2.7-0.7v-1.2c-0.5,0.2-0.9,0.3-1.2,0.3c-0.3,0.1-0.5,0.1-0.8,0.1c-0.3,0-0.6-0.1-0.9-0.3
	c-0.2-0.2-0.3-0.5-0.3-0.8c0-0.2,0-0.4,0-0.7c0-0.2,0.1-0.5,0.1-0.8l0.9-4.9h3.3v-1.6h-3l0.6-3.1h-1.9L68,34.1z M78.7,36.4
	c0.4-0.6,1-0.9,1.6-1c0.3,0,0.6,0.1,0.8,0.3c0.2,0.2,0.3,0.5,0.3,0.8c0,0.7-0.4,1.3-1.1,1.7c-0.8,0.5-1.7,0.9-2.7,0.9
	C77.8,38.2,78.1,37.2,78.7,36.4z M77.8,40.3c1.7,0.1,3.3-0.2,4.8-0.9c1-0.5,1.7-1.5,1.7-2.6c0-0.7-0.3-1.4-0.8-1.9
	c-0.7-0.5-1.5-0.7-2.3-0.7c-0.9,0-1.8,0.1-2.6,0.4c-0.8,0.3-1.5,0.7-2.2,1.2c-0.8,0.6-1.4,1.4-1.9,2.3c-0.4,0.9-0.6,1.8-0.6,2.8
	c-0.1,1.2,0.4,2.4,1.2,3.4c0.8,0.9,2,1.3,3.2,1.3c0.9,0,1.7-0.2,2.5-0.5c1-0.4,2-0.9,2.9-1.5v-1.7c-0.6,0.5-1.3,0.8-1.9,1.1
	c-0.6,0.2-1.1,0.4-1.8,0.4c-0.7,0-1.4-0.2-1.9-0.7c-0.5-0.6-0.7-1.4-0.6-2.1v-0.1L77.8,40.3L77.8,40.3z M102.5,31.8
	c0.3-0.3,0.5-0.7,0.5-1.1c0-0.5-0.3-1-0.8-1.3c-0.6-0.4-1.3-0.5-2-0.5c-1.4,0-2.8,0.5-3.8,1.5c-1.1,1-1.8,2.4-2.1,3.9l-1.8,0.8v1.2
	l1.5-0.2L93,43.4l0,0.2c-0.2,1.6-0.5,3.2-1.1,4.7l-2.5-1.9c-0.4,0.1-0.8,0.4-1.1,0.7c-0.2,0.3-0.4,0.7-0.4,1.1c0,0.5,0.2,1,0.6,1.3
	c0.4,0.4,0.9,0.5,1.5,0.5c0.7,0,1.4-0.2,2-0.5c0.7-0.4,1.4-0.9,1.9-1.6c0.8-0.8,1.4-1.8,1.9-2.8c0.5-1.2,0.8-2.4,1-3.6l0.8-5.2h3.3
	v-1.6h-3.1c0.1-0.8,0.3-1.5,0.6-2.2c0.2-0.8,0.5-1.5,0.9-2.3l2,2.4C101.6,32.4,102.1,32.2,102.5,31.8z M108.2,36.3
	c0.3,0.7,0.5,1.5,0.4,2.2c0.1,1.4-0.2,2.8-0.8,4c-0.3,0.9-1.1,1.5-2,1.6c-0.5,0-1.1-0.2-1.3-0.7c-0.3-0.7-0.5-1.4-0.4-2.2
	c-0.1-1.4,0.2-2.8,0.8-4.1c0.3-0.9,1.1-1.5,2-1.6C107.4,35.5,107.9,35.8,108.2,36.3L108.2,36.3z M104.6,34.6c-1.7,0.6-3,1.8-3.8,3.4
	c-0.4,0.8-0.6,1.7-0.6,2.6c-0.1,1.3,0.4,2.7,1.4,3.6c1.1,0.9,2.4,1.4,3.8,1.3c1.9,0.1,3.7-0.6,5.1-1.9c1.3-1.2,2-3,2-4.8
	c0.1-1.3-0.4-2.6-1.4-3.5c-1.1-0.9-2.5-1.3-3.9-1.2C106.3,34.1,105.4,34.3,104.6,34.6L104.6,34.6z M121.5,36.3
	c0.3,0.7,0.5,1.5,0.4,2.2c0.1,1.4-0.2,2.8-0.8,4c-0.3,0.9-1.1,1.5-2,1.6c-0.5,0-1.1-0.2-1.3-0.7c-0.3-0.7-0.5-1.4-0.4-2.2
	c-0.1-1.4,0.2-2.8,0.8-4.1c0.3-0.9,1.1-1.5,2-1.6C120.8,35.5,121.3,35.8,121.5,36.3L121.5,36.3z M117.9,34.6c-1.7,0.6-3,1.8-3.8,3.4
	c-0.4,0.8-0.6,1.7-0.6,2.6c-0.1,1.3,0.4,2.7,1.4,3.6c1.1,0.9,2.4,1.4,3.8,1.3c1.9,0.1,3.7-0.6,5.1-1.9c1.3-1.2,2-3,2-4.8
	c0.1-1.3-0.4-2.6-1.4-3.5c-1.1-0.9-2.5-1.3-3.9-1.2C119.6,34.1,118.8,34.3,117.9,34.6L117.9,34.6z M135.5,36.6l-1,5.8
	c-0.3,0.2-0.7,0.4-1.1,0.5c-0.3,0.1-0.6,0.2-0.9,0.2c-0.5,0-1-0.2-1.3-0.6c-0.3-0.5-0.5-1.1-0.4-1.7c0-0.9,0.2-1.9,0.5-2.7
	c0.3-0.8,0.7-1.6,1.3-2.2c0.2-0.2,0.5-0.4,0.7-0.5c0.3-0.1,0.6-0.2,0.9-0.2c0.1,0,0.2,0,0.2,0s0.1,0,0.1,0L135.5,36.6z M134.5,30.1
	V31l1.9,0.3l-0.6,3.2c-0.4-0.1-0.8-0.2-1.2-0.3c-0.4-0.1-0.7-0.1-1.1-0.1c-0.8,0-1.6,0.2-2.4,0.5c-0.7,0.3-1.4,0.7-2,1.3
	c-0.7,0.7-1.2,1.5-1.6,2.4c-0.4,0.9-0.6,1.9-0.6,2.9c0,1.1,0.3,2.2,1,3c0.6,0.8,1.5,1.2,2.5,1.2c0.6,0,1.2-0.1,1.7-0.4
	c0.8-0.4,1.5-0.8,2.2-1.3c0,0.5,0.3,1,0.6,1.3c0.4,0.3,1,0.5,1.5,0.4c0.6,0,1.2-0.1,1.8-0.3c0.8-0.2,1.5-0.4,2.2-0.8v-1.1
	c-0.4,0.1-0.7,0.2-0.9,0.2c-0.2,0-0.4,0.1-0.6,0.1c-0.3,0-0.6-0.1-0.8-0.3c-0.2-0.2-0.3-0.5-0.3-0.9c0-0.3,0-0.6,0.1-0.8
	c0-0.1,0-0.2,0-0.2l2.2-12.4H139L134.5,30.1z M156.6,42.5c-0.3,0.2-0.6,0.3-0.9,0.4c-0.3,0.1-0.6,0.2-0.9,0.3
	c-0.2,0.1-0.5,0.1-0.7,0.1c-0.6,0-1.3-0.2-1.7-0.8c-0.4-0.6-0.6-1.3-0.6-2.1c0-1,0.2-2,0.6-2.9c0.3-0.8,0.9-1.5,1.6-2l1.6,2.8
	c0.7,0,1.3-0.2,1.8-0.7c0.4-0.4,0.7-0.9,0.7-1.5c0-0.6-0.3-1.2-0.8-1.5c-0.7-0.4-1.5-0.6-2.2-0.5c-1,0-2,0.2-2.9,0.6
	c-0.9,0.4-1.7,0.9-2.4,1.6c-0.6,0.6-1,1.3-1.3,2.1c-0.3,0.8-0.4,1.6-0.4,2.5c-0.1,1.2,0.4,2.4,1.1,3.3c0.8,0.8,1.9,1.3,3.1,1.2
	c0.9,0,1.8-0.2,2.6-0.5c1-0.4,1.9-0.9,2.7-1.5v-1.6C157.2,42.1,156.9,42.3,156.6,42.5L156.6,42.5z M166.8,36.2
	c0.3,0.7,0.5,1.5,0.4,2.2c0.1,1.4-0.2,2.8-0.8,4c-0.3,0.9-1.1,1.5-2,1.6c-0.5,0-1.1-0.2-1.3-0.7c-0.3-0.7-0.5-1.4-0.4-2.2
	c-0.1-1.4,0.2-2.8,0.8-4.1c0.3-0.9,1.1-1.5,2-1.6C166,35.5,166.6,35.8,166.8,36.2L166.8,36.2z M163.2,34.6c-1.7,0.6-3,1.8-3.8,3.4
	c-0.4,0.8-0.6,1.7-0.6,2.6c-0.1,1.3,0.4,2.7,1.4,3.6c1.1,0.9,2.4,1.4,3.8,1.3c1.9,0.1,3.7-0.6,5.1-1.9c1.3-1.2,2-3,2-4.8
	c0.1-1.3-0.4-2.6-1.4-3.5c-1.1-0.9-2.5-1.3-3.9-1.2C164.9,34.1,164,34.3,163.2,34.6L163.2,34.6z M172.3,35.2v1l1.8,0.2l-1.7,8.8h3.6
	l1.3-7.8c0.4-0.3,0.8-0.5,1.3-0.7c0.3-0.1,0.7-0.2,1.1-0.2c0.3,0,0.6,0.1,0.9,0.3c0.2,0.2,0.3,0.5,0.3,0.8c0,0.1,0,0.2,0,0.3
	c0,0.1-0.1,0.3-0.1,0.6l-1.3,6.7h3.6l1.3-7.7c0.4-0.3,0.8-0.5,1.3-0.7c0.3-0.2,0.7-0.2,1.1-0.3c0.6-0.1,1.1,0.3,1.2,0.9
	c0,0.1,0,0.2,0,0.3c0,0.1,0,0.3,0,0.4c0,0.2-0.1,0.4-0.1,0.6l-0.9,3.6c0,0.2-0.1,0.4-0.1,0.6c0,0.2,0,0.4,0,0.6c0,0.5,0.2,1,0.5,1.4
	c0.4,0.4,0.9,0.5,1.5,0.5c0.6,0,1.3-0.1,1.9-0.3c0.8-0.2,1.7-0.5,2.5-0.8v-1.1c-0.4,0.1-0.7,0.2-0.9,0.2c-0.2,0-0.4,0.1-0.6,0.1
	c-0.3,0-0.6-0.1-0.8-0.3c-0.2-0.2-0.3-0.5-0.3-0.8c0-0.3,0-0.6,0.1-0.9c0.1-0.4,0.1-0.8,0.3-1.4l0.6-2.6c0.1-0.2,0.1-0.4,0.1-0.6
	c0-0.2,0-0.3,0-0.5c0-0.7-0.2-1.3-0.7-1.8c-0.5-0.5-1.1-0.7-1.8-0.7c-0.7,0-1.5,0.2-2.1,0.6c-0.9,0.5-1.7,1-2.4,1.7
	c0-0.6-0.2-1.2-0.7-1.7c-0.5-0.4-1.1-0.6-1.8-0.6c-0.7,0-1.5,0.2-2.1,0.6c-0.9,0.5-1.7,1-2.4,1.7l0.5-2.3h-1.2L172.3,35.2z
	 M198.5,45.1c0.3,0,0.5,0.1,0.8,0.1c1.9,0.1,3.7-0.7,5-2c1.3-1.4,2-3.2,2-5.1c0.1-1-0.3-2.1-0.9-2.9c-0.6-0.7-1.5-1.1-2.4-1.1
	c-0.6,0-1.3,0.2-1.9,0.4c-0.7,0.3-1.4,0.8-2,1.3l0.4-1.7h-1.4l-4.4,1v1l1.8,0.2l-2,11.8l-0.2,0.4l-1.5,0.4V50h7.2v-1l-2.1-0.5
	l0.6-3.6C197.9,45,198.2,45.1,198.5,45.1L198.5,45.1z M198.9,37c0.3-0.2,0.7-0.4,1.1-0.6c0.3-0.1,0.6-0.2,0.9-0.2
	c0.5,0,0.9,0.2,1.2,0.6c0.3,0.5,0.4,1,0.4,1.6c0.1,1.4-0.3,2.7-1,3.9c-0.5,0.9-1.5,1.5-2.6,1.5c-0.4,0-0.8-0.1-1.1-0.2L198.9,37z
	 M215.9,36.7l-1,5.8c-0.4,0.2-0.8,0.4-1.2,0.5c-0.3,0.1-0.5,0.1-0.8,0.2c-0.5,0-1-0.2-1.3-0.6c-0.3-0.6-0.5-1.2-0.4-1.8
	c0-1.3,0.3-2.7,1-3.8c0.5-0.9,1.4-1.5,2.5-1.5c0.1,0,0.1,0,0.2,0c0,0,0.1,0,0.1,0L215.9,36.7z M215.5,34.3c-0.5-0.1-0.9-0.1-1.4-0.1
	c-0.8,0-1.6,0.1-2.3,0.4c-0.7,0.2-1.3,0.6-1.9,1.1c-1.6,1.4-2.5,3.4-2.5,5.5c-0.1,1.1,0.3,2.2,0.9,3.1c0.6,0.8,1.5,1.2,2.5,1.1
	c0.7,0,1.4-0.1,2-0.4c0.7-0.3,1.4-0.8,2.1-1.3c0,0.5,0.2,0.9,0.5,1.3c0.4,0.3,1,0.5,1.5,0.4c0.7,0,1.3-0.1,2-0.2
	c0.7-0.2,1.5-0.4,2.2-0.7l0-1.1c-0.3,0.1-0.6,0.2-0.9,0.3c-0.2,0.1-0.5,0.1-0.7,0.1c-0.3,0-0.6-0.1-0.8-0.3
	c-0.2-0.3-0.3-0.6-0.3-0.9c0-0.2,0-0.4,0-0.6c0-0.2,0.1-0.4,0.1-0.6l1.4-7.1h-1.5l-1.3,0.6C216.7,34.5,216.1,34.4,215.5,34.3
	L215.5,34.3z M221.7,35.3v0.9l1.9,0.2l-1.8,8.8h3.8l1.3-7.6c0.5-0.3,1-0.6,1.5-0.9c0.3-0.1,0.6-0.2,0.9-0.2c0.3,0,0.6,0.1,0.8,0.3
	c0.2,0.2,0.3,0.6,0.3,0.9c0,0.2,0,0.4-0.1,0.6c0,0.3-0.1,0.5-0.1,0.8l-0.7,3.2c0,0,0,0.1,0,0.1c-0.1,0.4-0.1,0.7-0.2,1.1
	c0,0.5,0.2,1,0.5,1.3c0.4,0.3,1,0.5,1.5,0.5c0.6,0,1.2-0.1,1.8-0.2c0.8-0.2,1.6-0.4,2.4-0.7v-1c-0.3,0.1-0.6,0.2-0.8,0.2
	c-0.2,0-0.4,0.1-0.6,0.1c-0.3,0-0.6-0.1-0.9-0.3c-0.2-0.3-0.3-0.6-0.3-0.9c0-0.2,0-0.5,0.1-0.7c0-0.3,0.1-0.6,0.2-1l0.6-2.6
	c0.1-0.3,0.1-0.6,0.2-0.9c0-0.2,0.1-0.5,0.1-0.7c0-0.6-0.2-1.3-0.7-1.7c-0.5-0.5-1.1-0.7-1.8-0.7c-0.7,0-1.4,0.2-2,0.6
	c-0.9,0.5-1.8,1.1-2.6,1.7l0.5-2.3h-1.2L221.7,35.3z M235.2,35v1l2.1,0.2l1.6,8.3h1.7c-0.4,0.8-1,1.6-1.6,2.3
	c-0.3,0.4-0.8,0.7-1.3,0.9l-1.7-1.5c-0.4,0.1-0.8,0.4-1.1,0.7c-0.3,0.4-0.4,0.8-0.4,1.3c0,0.5,0.2,1,0.5,1.3
	c0.4,0.4,0.9,0.5,1.4,0.5c1,0,1.9-0.4,2.6-1.1c1-0.9,1.9-2,2.6-3.2c0.9-1.5,1.6-3,2.3-4.6c0.7-1.7,1.6-3.3,2.6-4.9l1.6-0.8v-0.8
	l-1.8-0.6h-0.9c-0.9,1.9-1.9,4.4-3.1,7.2l-0.4,0.8l-0.8-6c-0.1-0.4-0.1-0.8-0.3-1.2c-0.1-0.3-0.3-0.6-0.5-0.9h-1.3L235.2,35z
	 M10.2,54l0,0.9l1.9,0.2L9.2,69.2h3.7l1.4-7.6c0.5-0.3,1-0.6,1.5-0.9c0.3-0.2,0.6-0.2,1-0.3c0.3,0,0.6,0.1,0.8,0.3
	c0.2,0.2,0.3,0.5,0.3,0.9c0,0.2,0,0.4-0.1,0.6c0,0.2-0.1,0.5-0.2,0.9l-0.7,3.2c0,0,0,0.1,0,0.1c-0.1,0.4-0.1,0.7-0.2,1.1
	c0,0.5,0.2,1,0.5,1.3c0.4,0.3,1,0.5,1.5,0.5c0.6,0,1.2-0.1,1.8-0.2c0.8-0.2,1.6-0.4,2.4-0.7v-1c-0.3,0.1-0.6,0.2-0.8,0.2
	c-0.2,0-0.4,0.1-0.6,0.1c-0.3,0-0.6-0.1-0.9-0.3c-0.2-0.3-0.3-0.6-0.3-0.9c0-0.2,0-0.5,0.1-0.7c0-0.3,0.1-0.6,0.2-1l0.6-2.6
	c0.1-0.4,0.1-0.7,0.2-1c0-0.2,0.1-0.5,0.1-0.7c0-0.6-0.2-1.3-0.7-1.7c-0.5-0.5-1.1-0.7-1.8-0.7c-0.7,0-1.3,0.2-1.9,0.6
	c-0.9,0.5-1.8,1.1-2.6,1.7l1.6-7.4h-1.3L10.2,54z M32.3,60.7l-1,5.8c-0.4,0.2-0.8,0.4-1.2,0.5c-0.3,0.1-0.5,0.1-0.8,0.2
	c-0.5,0-1-0.2-1.3-0.6c-0.3-0.6-0.5-1.2-0.4-1.8c0-1.3,0.3-2.7,1-3.8c0.5-0.9,1.4-1.5,2.5-1.5c0.1,0,0.1,0,0.2,0c0,0,0.1,0,0.1,0
	L32.3,60.7z M31.9,58.3c-0.5-0.1-0.9-0.1-1.4-0.1c-0.8,0-1.6,0.1-2.3,0.4c-0.7,0.2-1.4,0.6-1.9,1.1c-1.6,1.4-2.5,3.4-2.5,5.5
	c-0.1,1.1,0.3,2.2,0.9,3.1c0.6,0.8,1.5,1.2,2.5,1.1c0.7,0,1.4-0.1,2-0.4c0.7-0.3,1.4-0.8,2.1-1.3c0,0.5,0.2,0.9,0.5,1.3
	c0.4,0.3,1,0.5,1.5,0.4c0.7,0,1.3-0.1,2-0.2c0.7-0.2,1.5-0.4,2.2-0.7l0-1.1c-0.3,0.1-0.6,0.2-0.9,0.3c-0.2,0.1-0.5,0.1-0.7,0.1
	c-0.3,0-0.6-0.1-0.8-0.3c-0.2-0.3-0.3-0.6-0.3-0.9c0-0.2,0-0.4,0-0.6c0-0.2,0.1-0.4,0.1-0.6l1.5-7.1h-1.5l-1.3,0.6
	C33,58.5,32.4,58.4,31.9,58.3L31.9,58.3z M48.3,61.8c0.5-0.5,0.8-1.1,0.8-1.8c0-0.5-0.2-1.1-0.5-1.5c-0.3-0.4-0.8-0.6-1.3-0.6
	c-0.7,0-1.3,0.3-1.8,0.7c-0.9,0.7-1.7,1.5-2.4,2.4l0.6-3h-1.1L38,59.2v1l1.9,0.2l-1.8,8.9h3.6l0.8-5c0.1-0.8,0.4-1.7,0.9-2.3
	c0.5-0.6,1.1-1.1,1.9-1.4l0.7,2.1C46.9,62.6,47.7,62.3,48.3,61.8L48.3,61.8z M59.5,63.6c1.2-1.7,1.8-3,1.8-3.9
	c0-0.4-0.1-0.9-0.5-1.2c-0.3-0.3-0.8-0.5-1.3-0.4c-0.3,0-0.6,0.1-0.9,0.2c-0.3,0.1-0.7,0.3-1,0.5l0.6,3.8c-0.5,0.7-1,1.4-1.5,2
	s-1,1.3-1.5,1.9l-0.6-6.4c0-0.4-0.1-0.8-0.2-1.2c-0.1-0.3-0.2-0.5-0.3-0.7h-1l-3.9,0.9V60l2,0.2l0.8,8l-0.2,1h2.8
	C56.4,67.5,58,65.6,59.5,63.6L59.5,63.6z M66.2,60.4c0.4-0.6,1-0.9,1.6-1c0.3,0,0.6,0.1,0.8,0.3c0.2,0.2,0.3,0.5,0.3,0.8
	c0,0.7-0.4,1.3-1.1,1.7c-0.8,0.5-1.7,0.9-2.7,0.9C65.3,62.2,65.6,61.2,66.2,60.4L66.2,60.4z M65.3,64.3c1.7,0.1,3.3-0.2,4.8-0.9
	c1-0.5,1.7-1.5,1.7-2.6c0-0.7-0.3-1.4-0.8-1.9c-0.7-0.5-1.5-0.7-2.3-0.7c-0.9,0-1.8,0.1-2.6,0.4c-0.8,0.3-1.5,0.7-2.2,1.2
	c-0.8,0.6-1.4,1.4-1.9,2.3c-0.4,0.9-0.6,1.8-0.6,2.8c-0.1,1.2,0.4,2.4,1.2,3.4c0.8,0.9,2,1.3,3.2,1.3c0.9,0,1.7-0.2,2.5-0.5
	c1-0.4,2-0.9,2.9-1.5v-1.7c-0.6,0.5-1.3,0.8-1.9,1.1c-0.6,0.2-1.1,0.4-1.8,0.4c-0.7,0-1.4-0.2-1.9-0.7c-0.5-0.6-0.7-1.4-0.6-2.1
	v-0.2L65.3,64.3L65.3,64.3z M81.8,61.5c0.4-0.3,0.6-0.8,0.6-1.3c0-0.7-0.4-1.3-0.9-1.5c-0.8-0.4-1.7-0.6-2.7-0.5
	c-1.3-0.1-2.7,0.3-3.8,1c-0.9,0.6-1.5,1.6-1.5,2.7c0,0.6,0.2,1.2,0.6,1.7c0.7,0.6,1.5,1.1,2.4,1.4l0.2,0.1c1.1,0.5,1.7,1,1.7,1.6
	c0,0.4-0.2,0.8-0.5,1.1c-0.4,0.3-0.8,0.5-1.3,0.4c-0.2,0-0.5,0-0.7-0.1c-0.2,0-0.4-0.1-0.7-0.2l0.4-2c-0.3-0.2-0.5-0.3-0.8-0.4
	c-0.2-0.1-0.5-0.1-0.8-0.1c-0.5,0-0.9,0.1-1.3,0.4c-0.3,0.3-0.5,0.7-0.5,1.2c0,0.8,0.5,1.5,1.2,1.8c0.9,0.5,2,0.8,3.1,0.7
	c1.3,0,2.7-0.4,3.8-1.1c0.9-0.6,1.5-1.6,1.5-2.7c0-0.6-0.2-1.2-0.6-1.6c-0.6-0.6-1.4-1.1-2.2-1.5l-0.6-0.3c-1.1-0.5-1.7-1.1-1.7-1.6
	c0-0.4,0.1-0.7,0.4-0.9c0.3-0.2,0.7-0.4,1.1-0.3c0.2,0,0.3,0,0.3,0c0.1,0,0.1,0,0.2,0l1.2,2.5C80.8,62,81.3,61.8,81.8,61.5
	L81.8,61.5z M86,58.1l-2.3,1.2v0.9h1.6l-1.1,5.7c-0.1,0.3-0.1,0.6-0.1,0.8c0,0.2,0,0.4,0,0.6c0,0.6,0.2,1.2,0.6,1.6
	c0.5,0.4,1.2,0.6,1.8,0.6c0.6,0,1.1-0.1,1.7-0.2c0.7-0.1,1.6-0.4,2.7-0.7v-1.2c-0.5,0.2-0.9,0.3-1.2,0.3c-0.3,0.1-0.5,0.1-0.8,0.1
	c-0.3,0-0.6-0.1-0.9-0.3c-0.2-0.2-0.3-0.5-0.3-0.8c0-0.2,0-0.4,0-0.7c0-0.2,0.1-0.5,0.1-0.8l0.9-4.9h3.3v-1.6h-3l0.6-3.1h-1.9
	L86,58.1z M107,60.2c0.3,0.7,0.5,1.5,0.4,2.2c0.1,1.4-0.2,2.8-0.8,4c-0.3,0.9-1.1,1.5-2,1.6c-0.5,0-1.1-0.2-1.3-0.7
	c-0.3-0.7-0.5-1.4-0.4-2.2c-0.1-1.4,0.2-2.8,0.8-4.1c0.3-0.9,1.1-1.5,2-1.6C106.2,59.5,106.7,59.8,107,60.2z M103.4,58.6
	c-1.7,0.6-3,1.8-3.8,3.4c-0.4,0.8-0.6,1.7-0.6,2.6c-0.1,1.3,0.4,2.7,1.4,3.6c1.1,0.9,2.4,1.4,3.8,1.3c1.9,0.1,3.7-0.6,5.1-1.9
	c1.3-1.2,2-3,2-4.8c0.1-1.3-0.4-2.6-1.4-3.5c-1.1-0.9-2.5-1.3-3.9-1.2C105,58.1,104.2,58.3,103.4,58.6L103.4,58.6z M122,63.6
	c1.2-1.7,1.8-3,1.8-3.8c0-0.4-0.1-0.9-0.5-1.2c-0.3-0.3-0.8-0.5-1.3-0.4c-0.3,0-0.6,0.1-0.9,0.2c-0.3,0.1-0.7,0.3-1,0.5l0.6,3.8
	c-0.5,0.7-1,1.4-1.5,2c-0.5,0.7-1,1.3-1.5,1.9l-0.6-6.4c0-0.4-0.1-0.8-0.2-1.2c-0.1-0.3-0.2-0.5-0.3-0.7h-1l-3.9,0.9V60l2,0.2l0.8,8
	l-0.2,1h2.8C118.9,67.5,120.5,65.6,122,63.6L122,63.6z M128.7,60.4c0.4-0.6,1-0.9,1.6-1c0.3,0,0.6,0.1,0.8,0.3
	c0.2,0.2,0.3,0.5,0.3,0.8c0,0.7-0.4,1.3-1.1,1.7c-0.8,0.5-1.7,0.9-2.7,0.9C127.8,62.2,128.1,61.2,128.7,60.4L128.7,60.4z
	 M127.8,64.3c1.7,0.1,3.3-0.2,4.8-0.9c1-0.5,1.7-1.5,1.7-2.6c0-0.7-0.3-1.4-0.8-1.9c-0.7-0.5-1.5-0.7-2.3-0.7
	c-0.9,0-1.8,0.1-2.6,0.4c-0.8,0.3-1.5,0.7-2.2,1.2c-0.8,0.6-1.4,1.4-1.9,2.3c-0.4,0.9-0.6,1.8-0.6,2.8c-0.1,1.2,0.4,2.4,1.2,3.4
	c0.8,0.9,2,1.3,3.2,1.3c0.9,0,1.7-0.2,2.5-0.5c1-0.4,2-0.9,2.9-1.5v-1.7c-0.6,0.5-1.3,0.8-1.9,1.1c-0.6,0.2-1.1,0.4-1.8,0.4
	c-0.7,0-1.4-0.2-1.9-0.7c-0.5-0.6-0.7-1.4-0.6-2.1v-0.1H127.8z M145.6,61.8c0.5-0.5,0.8-1.1,0.8-1.8c0-0.5-0.2-1.1-0.5-1.5
	c-0.3-0.4-0.8-0.6-1.3-0.6c-0.7,0-1.3,0.3-1.8,0.7c-0.9,0.7-1.7,1.5-2.4,2.4l0.6-3h-1.1l-4.5,1.1v1l1.9,0.2l-1.8,8.9h3.6l0.8-5
	c0.1-0.8,0.4-1.7,0.9-2.3c0.5-0.6,1.1-1.1,1.9-1.4l0.7,2.1C144.3,62.6,145.1,62.3,145.6,61.8L145.6,61.8z M161.5,64.3
	c0.3,0.3,0.4,0.7,0.4,1.2c0,0.6-0.3,1.2-0.7,1.6c-0.5,0.4-1.1,0.7-1.8,0.7l0.9-4.2C160.8,63.6,161.2,63.9,161.5,64.3L161.5,64.3z
	 M158.8,59.1c-0.2-0.3-0.4-0.7-0.4-1.1c0-0.6,0.2-1.1,0.6-1.5c0.4-0.4,1-0.6,1.6-0.6l-0.8,4C159.4,59.7,159,59.5,158.8,59.1
	L158.8,59.1z M160.9,54.4c-1.5,0-3,0.5-4.1,1.5c-1,0.8-1.6,2-1.6,3.3c0,0.9,0.3,1.8,0.9,2.4c0.8,0.8,1.8,1.3,2.9,1.6l-0.9,4.5
	c-0.4,0-0.7-0.1-1.1-0.2c-0.3-0.1-0.6-0.2-0.9-0.3v-2.8h-1.9l-0.8,3.9c0.8,0.2,1.6,0.4,2.3,0.5c0.6,0.1,1.3,0.2,2,0.2l-0.5,2.4h1.4
	l0.4-2.4c1.6,0,3.1-0.6,4.3-1.6c1.1-0.8,1.7-2.1,1.7-3.5c0-0.9-0.3-1.7-1-2.4c-0.9-0.8-1.9-1.3-3.1-1.6l0.8-4.3
	c0.2,0,0.4,0.1,0.7,0.1c0.2,0,0.5,0.1,0.8,0.2l-0.1,2.8h1.9l0.8-3.9c-0.6-0.2-1.2-0.4-1.9-0.5c-0.6-0.1-1.2-0.2-1.8-0.2l0.3-1.7
	h-1.4L160.9,54.4z M173.9,63.5h-4.4l5.6-5.8L173.9,63.5z M166.9,63.5l-0.4,2.1h6.9l-0.8,4.2h3.4l0.8-4.2h2.6l0.4-2.1h-2.6l1.8-9.2
	H176L166.9,63.5z M189.7,56.3c0.3,0.6,0.4,1.2,0.4,1.9c0,1-0.1,1.9-0.3,2.9c-0.2,1.2-0.4,2.3-0.8,3.4c-0.2,0.9-0.6,1.8-1.2,2.6
	c-0.3,0.5-0.9,0.8-1.5,0.8c-0.5,0-0.9-0.2-1.1-0.6c-0.3-0.5-0.4-1.1-0.4-1.6c0-1.4,0.1-2.8,0.4-4.1c0.2-1.3,0.6-2.6,1.1-3.8
	c0.2-0.6,0.6-1.1,1-1.6c0.3-0.3,0.8-0.5,1.3-0.5C189.1,55.7,189.5,55.9,189.7,56.3L189.7,56.3z M188.9,68.9c0.9-0.4,1.6-1,2.3-1.7
	c0.9-1,1.5-2.1,1.9-3.3c0.5-1.4,0.7-2.8,0.7-4.2c0.1-1.5-0.4-2.9-1.3-4.1c-0.9-1-2.2-1.6-3.6-1.5c-1,0-1.9,0.2-2.8,0.6
	c-0.9,0.4-1.7,1-2.3,1.7c-0.8,1-1.4,2.1-1.9,3.2c-0.5,1.2-0.7,2.5-0.7,3.9c-0.1,1.6,0.4,3.1,1.3,4.4c0.9,1.1,2.3,1.6,3.7,1.6
	C187.1,69.5,188,69.3,188.9,68.9L188.9,68.9z M196.1,55.7l1.6,0.1l0.1,0.4l-2.4,11.1l-0.3,0.4l-1.5,0.2v1.3h5.4v-1.3l-1.4-0.1
	l-0.2-0.3l2.4-11.4l1.9,13.1h2.2l6.8-13.3l-2,11.5l-0.4,0.3l-1.4,0.1v1.3h6.9v-1.3l-1.4-0.1l-0.2-0.3l2-11.3l0.3-0.3l1.5-0.1v-1.3
	h-6.7v0.5l-4.9,9.5l-1.3-9.3v-0.7h-7L196.1,55.7L196.1,55.7z M222.9,59.1v1l1.9,0.2l-1.1,5.3c-0.1,0.4-0.2,0.8-0.2,1.1
	c0,0.2-0.1,0.5-0.1,0.7c0,0.5,0.2,1.1,0.5,1.4c0.5,0.3,1.1,0.5,1.6,0.5c0.6,0,1.2-0.1,1.9-0.2c0.8-0.2,1.7-0.4,2.5-0.7v-1.1
	c-0.4,0.1-0.8,0.2-1.1,0.2c-0.2,0-0.4,0.1-0.7,0.1c-0.3,0-0.5-0.1-0.7-0.3c-0.2-0.2-0.3-0.5-0.3-0.7c0-0.3,0-0.5,0.1-0.8
	c0-0.3,0.1-0.7,0.2-1l1.3-6.6h-1.4L222.9,59.1z M226.2,53.4c-0.4,0.4-0.7,0.9-0.6,1.5c0,0.4,0.2,0.9,0.5,1.2
	c0.4,0.3,0.8,0.5,1.3,0.5c0.6,0,1.2-0.2,1.7-0.6c0.4-0.4,0.7-0.9,0.6-1.5c0-0.5-0.1-0.9-0.5-1.2c-0.4-0.3-0.9-0.5-1.4-0.4
	C227.2,52.8,226.6,53,226.2,53.4L226.2,53.4z M230.7,59.3v0.9l1.9,0.2l-1.8,8.8h3.8l1.3-7.6c0.5-0.3,1-0.6,1.5-0.9
	c0.3-0.1,0.6-0.2,0.9-0.2c0.3,0,0.6,0.1,0.8,0.3c0.2,0.2,0.3,0.6,0.3,0.9c0,0.2,0,0.4-0.1,0.6c0,0.3-0.1,0.5-0.2,0.8l-0.7,3.2
	c0,0,0,0.1,0,0.1c-0.1,0.4-0.1,0.7-0.1,1.1c0,0.5,0.2,1,0.5,1.3c0.4,0.3,1,0.5,1.5,0.5c0.6,0,1.2-0.1,1.8-0.2
	c0.8-0.2,1.6-0.4,2.4-0.7v-1c-0.3,0.1-0.6,0.2-0.8,0.2c-0.2,0-0.4,0.1-0.6,0.1c-0.3,0-0.6-0.1-0.9-0.3c-0.2-0.3-0.3-0.6-0.3-0.9
	c0-0.2,0-0.5,0.1-0.7c0-0.3,0.1-0.6,0.2-1l0.6-2.6c0.1-0.3,0.1-0.6,0.2-0.9c0-0.2,0.1-0.5,0.1-0.7c0-0.6-0.2-1.3-0.7-1.7
	c-0.5-0.5-1.1-0.7-1.8-0.7c-0.7,0-1.4,0.2-2,0.6c-0.9,0.5-1.8,1.1-2.6,1.7l0.5-2.3h-1.2L230.7,59.3z M47.9,84.7l-1,5.8
	c-0.4,0.2-0.8,0.4-1.2,0.5c-0.3,0.1-0.5,0.1-0.8,0.2c-0.5,0-1-0.2-1.3-0.6c-0.3-0.6-0.5-1.2-0.4-1.8c0-1.3,0.3-2.7,1-3.8
	c0.5-0.9,1.4-1.5,2.5-1.5c0.1,0,0.1,0,0.2,0c0,0,0.1,0,0.1,0L47.9,84.7z M47.5,82.3c-0.5-0.1-0.9-0.1-1.4-0.1
	c-0.8,0-1.6,0.1-2.3,0.4c-0.7,0.2-1.4,0.6-1.9,1.1c-1.6,1.4-2.5,3.4-2.5,5.5c-0.1,1.1,0.3,2.2,0.9,3.1c0.6,0.8,1.5,1.2,2.5,1.1
	c0.7,0,1.4-0.1,2-0.4c0.7-0.3,1.4-0.8,2.1-1.3c0,0.5,0.2,0.9,0.5,1.3c0.4,0.3,1,0.5,1.5,0.4c0.7,0,1.3-0.1,2-0.2
	c0.7-0.2,1.5-0.4,2.2-0.7l0-1.1c-0.3,0.1-0.6,0.2-0.9,0.3c-0.2,0.1-0.5,0.1-0.7,0.1c-0.3,0-0.6-0.1-0.8-0.3
	c-0.2-0.3-0.3-0.6-0.3-0.9c0-0.2,0-0.4,0-0.6c0-0.2,0.1-0.4,0.1-0.6l1.5-7.1h-1.5l-1.3,0.6C48.7,82.5,48.1,82.4,47.5,82.3L47.5,82.3
	z M53.7,83.3v0.9l1.9,0.2l-1.8,8.8h3.8l1.3-7.6c0.5-0.3,1-0.6,1.5-0.9c0.3-0.1,0.6-0.2,0.9-0.2c0.3,0,0.6,0.1,0.8,0.3
	c0.2,0.2,0.3,0.6,0.3,0.9c0,0.2,0,0.4-0.1,0.6c0,0.3-0.1,0.5-0.2,0.8l-0.7,3.2c0,0,0,0.1,0,0.1c-0.1,0.4-0.1,0.7-0.2,1.1
	c0,0.5,0.2,1,0.5,1.3c0.4,0.3,1,0.5,1.5,0.5c0.6,0,1.2-0.1,1.8-0.2c0.8-0.2,1.6-0.4,2.4-0.7v-1.1c-0.3,0.1-0.6,0.2-0.8,0.2
	c-0.2,0-0.4,0.1-0.6,0.1c-0.3,0-0.6-0.1-0.9-0.3c-0.2-0.3-0.3-0.6-0.3-0.9c0-0.2,0-0.5,0.1-0.7c0-0.3,0.1-0.6,0.2-1l0.6-2.6
	c0.1-0.3,0.1-0.6,0.2-0.9c0-0.2,0.1-0.5,0.1-0.7c0-0.6-0.2-1.3-0.7-1.7c-0.5-0.5-1.1-0.7-1.8-0.7c-0.7,0-1.4,0.2-2,0.6
	c-0.9,0.5-1.8,1.1-2.6,1.7l0.5-2.3h-1.2L53.7,83.3z M68.2,83.3v0.9l1.9,0.2l-1.8,8.8h3.8l1.3-7.6c0.5-0.3,1-0.6,1.5-0.9
	c0.3-0.1,0.6-0.2,0.9-0.2c0.3,0,0.6,0.1,0.8,0.3c0.2,0.2,0.3,0.6,0.3,0.9c0,0.2,0,0.4-0.1,0.6c0,0.3-0.1,0.5-0.2,0.8L76,90.4
	c0,0,0,0.1,0,0.1c-0.1,0.4-0.1,0.7-0.2,1.1c0,0.5,0.2,1,0.5,1.3c0.4,0.3,1,0.5,1.5,0.5c0.6,0,1.2-0.1,1.8-0.2
	c0.8-0.2,1.6-0.4,2.4-0.7v-1.1c-0.3,0.1-0.6,0.2-0.8,0.2c-0.2,0-0.4,0.1-0.6,0.1c-0.3,0-0.6-0.1-0.9-0.3c-0.2-0.3-0.3-0.6-0.3-0.9
	c0-0.2,0-0.5,0.1-0.7c0-0.3,0.1-0.6,0.2-1l0.6-2.6c0.1-0.3,0.1-0.6,0.2-0.9c0-0.2,0.1-0.5,0.1-0.7c0-0.6-0.2-1.3-0.7-1.7
	c-0.5-0.5-1.1-0.7-1.8-0.7c-0.7,0-1.4,0.2-2,0.6c-0.9,0.5-1.8,1.1-2.6,1.7l0.5-2.3h-1.2L68.2,83.3z M82.6,83.3v0.8l1.8,0.2L83.4,90
	c0,0.1,0,0.2-0.1,0.4c0,0.2-0.1,0.5-0.1,0.7c0,0.6,0.2,1.3,0.6,1.8c0.4,0.4,1.1,0.7,1.7,0.7c0.6,0,1.2-0.2,1.8-0.4
	c1-0.4,1.9-1,2.8-1.5c0,0.5,0.2,1.1,0.5,1.5c0.4,0.3,0.9,0.5,1.4,0.5c0.6,0,1.2-0.1,1.8-0.3c0.8-0.2,1.7-0.5,2.5-0.8v-1
	c-0.3,0.1-0.5,0.2-0.8,0.3c-0.2,0-0.4,0.1-0.6,0.1c-0.3,0-0.6-0.1-0.9-0.3c-0.2-0.2-0.3-0.5-0.3-0.9c0-0.6,0.1-1.2,0.3-1.8v0
	l1.2-6.7h-1.1l-2.6,0.6l-1.3,7.5c-0.5,0.2-0.9,0.4-1.4,0.6C88.6,90.9,88.3,91,88,91c-0.3,0-0.6-0.1-0.9-0.3
	c-0.2-0.3-0.3-0.6-0.3-0.9c0-0.1,0-0.3,0-0.4c0-0.2,0.1-0.3,0.1-0.6l1.3-6.7h-1.4L82.6,83.3z M105.6,84.7l-1,5.8
	c-0.4,0.2-0.8,0.4-1.2,0.5c-0.3,0.1-0.5,0.1-0.8,0.2c-0.5,0-1-0.2-1.3-0.6c-0.3-0.6-0.5-1.2-0.4-1.8c0-1.3,0.3-2.7,1-3.8
	c0.5-0.9,1.4-1.5,2.5-1.5c0.1,0,0.1,0,0.2,0c0,0,0.1,0,0.1,0L105.6,84.7z M105.2,82.3c-0.5-0.1-0.9-0.1-1.4-0.1
	c-0.8,0-1.6,0.1-2.3,0.4c-0.7,0.2-1.3,0.6-1.9,1.1C97.9,85,97,87,97.1,89.1c-0.1,1.1,0.3,2.2,0.9,3.1c0.6,0.8,1.5,1.2,2.5,1.1
	c0.7,0,1.4-0.1,2-0.4c0.7-0.3,1.4-0.8,2.1-1.3c0,0.5,0.2,0.9,0.5,1.3c0.4,0.3,1,0.5,1.5,0.4c0.7,0,1.3-0.1,2-0.2
	c0.7-0.2,1.5-0.4,2.2-0.7l0-1.1c-0.3,0.1-0.6,0.2-0.9,0.3c-0.2,0.1-0.5,0.1-0.7,0.1c-0.3,0-0.6-0.1-0.8-0.3
	c-0.2-0.3-0.3-0.6-0.3-0.9c0-0.2,0-0.4,0-0.6c0-0.2,0.1-0.4,0.1-0.6l1.5-7.1h-1.5l-1.3,0.6C106.4,82.5,105.8,82.4,105.2,82.3
	L105.2,82.3z M112,78v0.9l2,0.2l-2,10.1c-0.1,0.4-0.2,0.9-0.2,1.3c0,0.3-0.1,0.6-0.1,0.9c0,0.5,0.2,1.1,0.6,1.4
	c0.4,0.4,1,0.6,1.6,0.5c0.6,0,1.1-0.1,1.7-0.2c0.7-0.2,1.5-0.4,2.6-0.8v-1.1c-0.4,0.1-0.7,0.2-1,0.2c-0.3,0.1-0.5,0.1-0.8,0.1
	c-0.3,0-0.5-0.1-0.7-0.3c-0.2-0.2-0.3-0.5-0.2-0.8c0-0.2,0-0.5,0.1-0.7c0-0.3,0.1-0.7,0.2-1.3l2.2-11.7h-1.3L112,78z M134.4,85.5
	c0.4-0.3,0.6-0.8,0.6-1.3c0-0.7-0.4-1.3-0.9-1.5c-0.8-0.4-1.7-0.6-2.7-0.5c-1.3-0.1-2.7,0.3-3.8,1c-0.9,0.6-1.5,1.6-1.5,2.7
	c0,0.6,0.2,1.2,0.6,1.7c0.7,0.6,1.5,1.1,2.4,1.4l0.2,0.1c1.1,0.5,1.7,1,1.7,1.6c0,0.4-0.2,0.8-0.5,1.1c-0.4,0.3-0.8,0.5-1.3,0.4
	c-0.2,0-0.5,0-0.7-0.1c-0.2,0-0.4-0.1-0.7-0.2l0.4-2c-0.3-0.2-0.5-0.3-0.8-0.4c-0.2-0.1-0.5-0.1-0.8-0.1c-0.5,0-0.9,0.1-1.3,0.4
	c-0.3,0.3-0.5,0.7-0.5,1.2c0,0.8,0.5,1.5,1.2,1.8c0.9,0.5,2,0.8,3.1,0.7c1.3,0,2.7-0.4,3.8-1.1c0.9-0.6,1.5-1.6,1.5-2.7
	c0-0.6-0.2-1.2-0.6-1.6c-0.6-0.6-1.4-1.1-2.2-1.5l-0.6-0.3c-1.1-0.5-1.7-1.1-1.7-1.6c0-0.4,0.1-0.7,0.4-0.9c0.3-0.2,0.7-0.4,1.1-0.3
	c0.1,0,0.3,0,0.3,0c0.1,0,0.1,0,0.2,0l1.2,2.5C133.4,86,134,85.8,134.4,85.5L134.4,85.5z M144.6,84.7l-1,5.8
	c-0.4,0.2-0.8,0.4-1.2,0.5c-0.3,0.1-0.5,0.1-0.8,0.2c-0.5,0-1-0.2-1.3-0.6c-0.3-0.6-0.5-1.2-0.4-1.8c0-1.3,0.3-2.7,1-3.8
	c0.5-0.9,1.4-1.5,2.5-1.5c0.1,0,0.1,0,0.2,0c0,0,0.1,0,0.1,0L144.6,84.7z M144.2,82.3c-0.5-0.1-0.9-0.1-1.4-0.1
	c-0.8,0-1.6,0.1-2.3,0.4c-0.7,0.2-1.3,0.6-1.9,1.1c-1.6,1.4-2.5,3.4-2.5,5.5c-0.1,1.1,0.3,2.2,0.9,3.1c0.6,0.8,1.5,1.2,2.5,1.1
	c0.7,0,1.4-0.1,2-0.4c0.7-0.3,1.4-0.8,2.1-1.3c0,0.5,0.2,0.9,0.5,1.3c0.4,0.3,1,0.5,1.5,0.4c0.7,0,1.3-0.1,2-0.2
	c0.7-0.2,1.5-0.4,2.2-0.7l0-1.1c-0.3,0.1-0.6,0.2-0.9,0.3c-0.2,0.1-0.5,0.1-0.7,0.1c-0.3,0-0.6-0.1-0.8-0.3
	c-0.2-0.3-0.3-0.6-0.3-0.9c0-0.2,0-0.4,0-0.6c0-0.2,0.1-0.4,0.1-0.6l1.4-7.1h-1.5l-1.3,0.6C145.4,82.5,144.8,82.4,144.2,82.3
	L144.2,82.3z M159.7,87.6c1.2-1.7,1.8-3,1.8-3.8c0-0.4-0.1-0.9-0.5-1.2c-0.3-0.3-0.8-0.5-1.3-0.4c-0.3,0-0.6,0.1-0.9,0.2
	c-0.3,0.1-0.7,0.3-1,0.5l0.6,3.8c-0.5,0.7-1,1.4-1.5,2c-0.5,0.7-1,1.3-1.5,1.9l-0.6-6.4c0-0.4-0.1-0.8-0.2-1.2
	c-0.1-0.3-0.2-0.5-0.3-0.7h-1l-3.9,0.9V84l2,0.2l0.8,8l-0.2,1h2.8C156.7,91.5,158.3,89.6,159.7,87.6L159.7,87.6z M162.4,83v1
	l1.9,0.2l-1.1,5.3c-0.1,0.4-0.2,0.8-0.2,1.1c0,0.2-0.1,0.5-0.1,0.7c0,0.5,0.2,1.1,0.5,1.4c0.5,0.3,1.1,0.5,1.6,0.5
	c0.6,0,1.2-0.1,1.9-0.2c0.8-0.2,1.7-0.4,2.5-0.7v-1.1c-0.4,0.1-0.8,0.2-1.1,0.2c-0.2,0-0.4,0.1-0.7,0.1c-0.3,0-0.5-0.1-0.7-0.3
	c-0.2-0.2-0.3-0.5-0.3-0.7c0-0.3,0-0.5,0.1-0.8c0-0.3,0.1-0.7,0.2-1l1.3-6.6h-1.4L162.4,83z M165.7,77.4c-0.4,0.4-0.7,0.9-0.6,1.5
	c0,0.4,0.2,0.9,0.5,1.2c0.4,0.3,0.8,0.5,1.3,0.5c0.6,0,1.2-0.2,1.7-0.6c0.4-0.4,0.7-0.9,0.6-1.5c0-0.5-0.1-0.9-0.5-1.2
	c-0.4-0.3-0.9-0.5-1.4-0.4C166.7,76.8,166.1,77,165.7,77.4L165.7,77.4z M170.2,83.3v0.9l1.9,0.2l-1.8,8.8h3.8l1.3-7.6
	c0.5-0.3,1-0.6,1.5-0.9c0.3-0.1,0.6-0.2,0.9-0.2c0.3,0,0.6,0.1,0.8,0.3c0.2,0.2,0.3,0.6,0.3,0.9c0,0.2,0,0.4-0.1,0.6
	c0,0.3-0.1,0.5-0.1,0.8l-0.7,3.2c0,0,0,0.1,0,0.1c-0.1,0.4-0.1,0.7-0.2,1.1c0,0.5,0.2,1,0.5,1.3c0.4,0.3,1,0.5,1.5,0.5
	c0.6,0,1.2-0.1,1.8-0.2c0.8-0.2,1.6-0.4,2.4-0.7v-1c-0.3,0.1-0.6,0.2-0.8,0.2c-0.2,0-0.4,0.1-0.6,0.1c-0.3,0-0.6-0.1-0.9-0.3
	c-0.2-0.3-0.3-0.6-0.3-0.9c0-0.2,0-0.5,0.1-0.7c0-0.3,0.1-0.6,0.2-1l0.6-2.6c0.1-0.3,0.1-0.6,0.2-0.9c0-0.2,0.1-0.5,0.1-0.7
	c0-0.6-0.2-1.3-0.7-1.7c-0.5-0.5-1.1-0.7-1.8-0.7c-0.7,0-1.4,0.2-2,0.6c-0.9,0.5-1.8,1.1-2.6,1.7l0.5-2.3h-1.2L170.2,83.3z
	 M190.2,93.8c0.4,0.2,0.8,0.4,1.1,0.7c0.2,0.2,0.3,0.4,0.3,0.7c0,0.4-0.3,0.9-0.6,1.1c-0.5,0.3-1,0.5-1.6,0.4c-0.7,0-1.4-0.2-2-0.7
	c-0.5-0.4-0.8-1-0.8-1.6c0-0.3,0.1-0.6,0.2-0.9c0.2-0.3,0.4-0.6,0.7-0.9L190.2,93.8z M191.3,87.2c-0.2,0.6-0.8,1-1.4,1.1
	c-0.3,0-0.6-0.1-0.8-0.4c-0.2-0.3-0.3-0.6-0.3-1c0-0.9,0.2-1.8,0.6-2.6c0.2-0.6,0.8-1,1.4-1.1c0.3,0,0.6,0.1,0.8,0.3
	c0.2,0.3,0.3,0.6,0.3,0.9C191.9,85.5,191.7,86.4,191.3,87.2L191.3,87.2z M192.7,82.3c-0.6-0.1-1.2-0.2-1.8-0.2
	c-1.4-0.1-2.9,0.3-4.1,1.2c-1,0.7-1.6,1.8-1.6,3c0,0.8,0.3,1.6,0.8,2.1c0.6,0.6,1.5,1,2.3,1.1c-0.3,0.3-0.5,0.6-0.7,1
	c-0.2,0.4-0.3,0.8-0.3,1.2c-1,0.4-2,0.9-2.8,1.6c-0.5,0.5-0.9,1.1-0.9,1.8c0,0.9,0.5,1.8,1.4,2.2c1.2,0.6,2.6,0.8,3.9,0.8
	c1,0,1.9-0.1,2.8-0.4c0.8-0.2,1.6-0.6,2.4-1.1c0.4-0.2,0.6-0.6,0.8-0.9c0.2-0.4,0.3-0.7,0.3-1.2c0-0.5-0.2-1-0.5-1.3
	c-0.5-0.5-1.2-0.9-1.9-1.2l-3.4-1.6l0.3-0.6c1.4,0,2.8-0.5,4-1.3c0.9-0.7,1.5-1.8,1.5-3c0-0.2,0-0.4,0-0.5c0-0.2,0-0.3-0.1-0.5
	l2.3,0v-1.4h-3.1C193.9,82.6,193.3,82.4,192.7,82.3L192.7,82.3z M206.3,85.5c0.4-0.3,0.6-0.8,0.6-1.3c0-0.7-0.4-1.3-0.9-1.5
	c-0.8-0.4-1.7-0.6-2.7-0.5c-1.3-0.1-2.7,0.3-3.8,1c-0.9,0.6-1.5,1.6-1.5,2.7c0,0.6,0.2,1.2,0.6,1.7c0.7,0.6,1.5,1.1,2.4,1.4l0.2,0.1
	c1.1,0.5,1.7,1,1.7,1.6c0,0.4-0.2,0.8-0.5,1.1c-0.4,0.3-0.8,0.5-1.3,0.4c-0.2,0-0.5,0-0.7-0.1c-0.2,0-0.4-0.1-0.7-0.2l0.4-2
	c-0.3-0.2-0.5-0.3-0.8-0.4c-0.2-0.1-0.5-0.1-0.8-0.1c-0.5,0-0.9,0.1-1.3,0.4c-0.3,0.3-0.5,0.7-0.5,1.2c0,0.8,0.5,1.5,1.2,1.8
	c0.9,0.5,2,0.8,3.1,0.7c1.3,0,2.7-0.4,3.8-1.1c0.9-0.6,1.5-1.6,1.5-2.7c0-0.6-0.2-1.2-0.6-1.6c-0.6-0.6-1.4-1.1-2.2-1.5l-0.6-0.3
	c-1.1-0.5-1.7-1.1-1.7-1.6c0-0.4,0.1-0.7,0.4-0.9c0.3-0.2,0.7-0.4,1.1-0.3c0.2,0,0.3,0,0.3,0c0.1,0,0.1,0,0.2,0l1.2,2.5
	C205.3,86,205.9,85.8,206.3,85.5L206.3,85.5z M208.8,89.8c-0.4,0.4-0.6,0.9-0.6,1.5c0,0.6,0.2,1.1,0.6,1.5c0.4,0.4,0.9,0.6,1.5,0.6
	c0.6,0,1.1-0.2,1.5-0.6c0.4-0.4,0.6-0.9,0.6-1.5c0-0.6-0.2-1.1-0.6-1.5C211,88.9,209.6,88.9,208.8,89.8
	C208.8,89.8,208.8,89.8,208.8,89.8L208.8,89.8z"/>
</svg>
