<?xml version="1.0" encoding="utf-8"?>
<!-- Generator: Adobe Illustrator 16.0.0, SVG Export Plug-In . SVG Version: 6.00 Build 0)  -->
<!DOCTYPE svg PUBLIC "-//W3C//DTD SVG 1.1//EN" "http://www.w3.org/Graphics/SVG/1.1/DTD/svg11.dtd">
<svg version="1.1" id="Layer_1" xmlns="http://www.w3.org/2000/svg" xmlns:xlink="http://www.w3.org/1999/xlink" x="0px" y="0px"
	 width="135.5px" height="40.15px" viewBox="0 0 135.5 40.15" enable-background="new 0 0 135.5 40.15" xml:space="preserve">
<g>
	<g>
		<path fill-rule="evenodd" clip-rule="evenodd" fill="#433630" d="M29.7,37.95l0.1-0.35v-0.45l-0.2-0.05
			c-0.167,0-0.3,0.05-0.4,0.15c-0.1,0.066-0.15,0.183-0.15,0.35s0.033,0.283,0.1,0.35c0.066,0.101,0.15,0.15,0.25,0.15L29.7,37.95z
			 M27.1,35.5l0.45-0.301c0.067-0.066,0.233-0.1,0.5-0.1v0.75l-0.2-0.05l-0.25,0.05l-0.25,0.1c-0.1,0.101-0.15,0.184-0.15,0.25
			l-0.1,0.351v2.1h-0.7V35.1h0.7V35.5z M24.55,34.35v1.5h1.25v0.7h-1.25v2.1h-0.7V33.7h2.1v0.65H24.55z M20.85,27.9l-0.1,0.3v1.351
			l0.1,0.3C20.917,29.95,21,30,21.1,30c0.1,0,0.2-0.051,0.3-0.15l0.05-0.35V28.2l-0.05-0.3c-0.067-0.066-0.167-0.1-0.3-0.1
			L20.85,27.9z M22.85,25.7h0.75v3.95l0.05,0.3l0.3,0.101V30.7l-0.45-0.05c-0.133,0-0.25-0.05-0.35-0.149
			c-0.067-0.034-0.133-0.134-0.2-0.301l-0.1-0.5V25.7z M26.55,30.65v-0.7h0.75v0.7H26.55z M25.8,27.1h0.7l-1,4.2L25.35,31.7
			l-0.25,0.25l-0.25,0.101L24.5,32.1h-0.2v-0.65h0.2l0.15-0.05l0.15-0.1l0.1-0.3l0.1-0.5l-0.95-3.4h0.75l0.5,2.25L25.8,27.1z
			 M38.4,33.7h0.7v4.95h-0.7V33.7z M30.4,35.7l0.1,0.5v2.45h-0.7V38.3h-0.05c-0.034,0.133-0.117,0.233-0.25,0.3l-0.4,0.1l-0.25-0.05
			l-0.25-0.1l-0.2-0.3l-0.1-0.5l0.05-0.5l0.2-0.4l0.35-0.2c0.2-0.066,0.383-0.1,0.55-0.1h0.15l0.2,0.05v-0.4l-0.1-0.3l-0.25-0.1
			c-0.133,0-0.233,0.033-0.3,0.1L29,36.15h-0.65c0-0.333,0.1-0.583,0.3-0.75L29,35.15l0.45-0.05l0.4,0.05l0.35,0.2L30.4,35.7z
			 M31.9,35.1v0.35l0.25-0.25c0.066-0.066,0.2-0.1,0.4-0.1h0.3l0.2,0.15l0.2,0.3l0.05,0.399v2.7h-0.7V36.2l-0.1-0.3l-0.25-0.1
			c-0.133,0-0.233,0.033-0.3,0.1l-0.05,0.4v2.35h-0.75V35.1H31.9z M34.05,33.7h0.7v2.95l0.85-1.55h0.75l-0.85,1.45l1,2.1h-0.75
			l-0.65-1.5l-0.35,0.5v1h-0.7V33.7z M32.55,29.95l0.3,0.15l0.3-0.15l0.1-0.35v-0.45l-0.2-0.05c-0.167,0-0.3,0.05-0.4,0.15
			c-0.1,0.066-0.15,0.183-0.15,0.35L32.55,29.95z M32.65,25.85v0.7H32v-0.7H32.65z M30.45,25.7h0.7V29.5l-0.1,0.449l-0.2,0.4
			l-0.4,0.25c-0.1,0.066-0.267,0.1-0.5,0.1s-0.433-0.05-0.6-0.149L29,30.25l0.55-0.45l0.2,0.149L29.95,30l0.3-0.101l0.15-0.2
			l0.05-0.3V25.7z M33.3,27.15l0.35,0.2l0.2,0.35l0.1,0.5v2.45h-0.7V30.3H33.2l-0.25,0.3l-0.4,0.1l-0.3-0.05L32,30.55l-0.15-0.3
			l-0.1-0.5l0.05-0.5l0.2-0.4c0.033-0.066,0.15-0.134,0.35-0.2c0.2-0.066,0.383-0.1,0.55-0.1h0.15l0.2,0.05v-0.4l-0.1-0.3
			c-0.067-0.066-0.167-0.1-0.3-0.1c-0.1,0-0.183,0.033-0.25,0.1l-0.15,0.25h-0.7c0.066-0.366,0.183-0.616,0.35-0.75l0.35-0.25
			l0.4-0.05L33.3,27.15z M33.15,25.85h0.6v0.7h-0.6V25.85z M38.8,28.6v-0.4l-0.05-0.3c-0.067-0.066-0.167-0.1-0.3-0.1
			c-0.1,0-0.183,0.033-0.25,0.1l-0.1,0.3v0.4H38.8z M36.05,28.25l-0.1-0.351c-0.133-0.066-0.233-0.1-0.3-0.1l-0.25,0.1l-0.1,0.351
			v1.3l0.1,0.3c0.066,0.1,0.15,0.15,0.25,0.15c0.066,0,0.167-0.034,0.3-0.101l0.1-0.3V28.25z M35.6,27.1l0.3,0.2l0.15,0.149V27.1
			h0.7v4l-0.05,0.35L36.5,31.8l-0.35,0.25l-0.5,0.1l-0.3-0.05L35,31.9l-0.25-0.3l-0.15-0.5h0.7c0.033,0.033,0.083,0.1,0.15,0.2
			c0.067,0.1,0.15,0.149,0.25,0.149c0.133,0,0.217-0.05,0.25-0.149l0.1-0.25v-0.7H36l-0.25,0.25c-0.1,0.066-0.233,0.1-0.4,0.1
			c-0.3,0-0.5-0.116-0.6-0.35l-0.1-0.25l-0.05-0.5v-1.35l0.1-0.851l0.25-0.25l0.4-0.05H35.6z M39.25,27.4l0.2,0.351l0.1,0.449v0.95
			H38.1v0.5l0.1,0.25L38.45,30c0.133,0,0.233-0.034,0.3-0.101l0.05-0.25h0.75l-0.1,0.4l-0.2,0.35l-0.35,0.25l-0.45,0.05
			c-0.2,0-0.383-0.05-0.55-0.149c-0.1-0.033-0.217-0.15-0.35-0.351l-0.1-0.3L37.4,29.5v-1.2l0.05-0.4l0.1-0.3
			c0.133-0.2,0.25-0.333,0.35-0.4c0.1-0.066,0.283-0.1,0.55-0.1l0.45,0.05L39.25,27.4z M9.95,38.65V35.1h0.7v3.55H9.95z M8.1,33.65
			c0.233,0,0.4,0.033,0.5,0.101L8.95,34c0.067,0.066,0.15,0.183,0.25,0.35l0.1,0.4v0.35H8.6v-0.15c0-0.166-0.05-0.3-0.15-0.399
			c-0.033-0.134-0.15-0.2-0.35-0.2L7.85,34.4L7.7,34.55l-0.1,0.2v0.5L7.65,35.4l0.15,0.15l1.15,0.55l0.2,0.3l0.1,0.351l0.05,0.5
			l-0.05,0.6l-0.2,0.45l-0.4,0.3l-0.6,0.1c-0.2,0-0.35-0.033-0.45-0.1l-0.4-0.25L6.95,38l-0.1-0.45v-0.3h0.7v0.25
			c0,0.133,0.05,0.25,0.15,0.35C7.767,37.95,7.883,38,8.05,38l0.3-0.051L8.5,37.8l0.1-0.55l-0.1-0.5L8.4,36.6l-0.75-0.3
			c-0.3-0.167-0.5-0.334-0.6-0.5C6.95,35.6,6.9,35.333,6.9,35l0.05-0.551L7.2,34.05c0.1-0.167,0.217-0.267,0.35-0.3L8.1,33.65z
			 M2.6,35.1h0.75l0.5,2.25l0.5-2.25H5.1l-1.05,4.2L3.9,39.7l-0.25,0.25L3.4,40.05L3.05,40.1h-0.2v-0.65h0.2L3.2,39.4l0.15-0.1
			l0.1-0.3l0.1-0.5L2.6,35.1z M1.2,35.8l-0.25,0.1c-0.066,0.033-0.1,0.134-0.1,0.3v1.351c0,0.166,0.034,0.267,0.1,0.3
			C1.017,37.95,1.1,38,1.2,38c0.133,0,0.217-0.051,0.25-0.15l0.1-0.35V36.2l-0.1-0.3C1.383,35.833,1.3,35.8,1.2,35.8z M0.1,33.7
			h0.75v1.75l0.3-0.3L1.5,35.1l0.4,0.05l0.25,0.25l0.1,0.3v2.4l-0.1,0.25C2.017,38.583,1.8,38.7,1.5,38.7l-0.4-0.1l-0.25-0.25v0.3
			H0.1V33.7z M2.85,28.6h0.7v-0.4c0-0.166-0.033-0.267-0.1-0.3c-0.033-0.066-0.117-0.1-0.25-0.1s-0.217,0.033-0.25,0.1l-0.1,0.3
			V28.6z M0.1,27.1h0.75v0.4l0.4-0.301c0.1-0.066,0.283-0.1,0.55-0.1v0.75L1.55,27.8L1.3,27.85l-0.2,0.1
			c-0.066,0.034-0.133,0.117-0.2,0.25L0.85,28.55v2.1H0.1V27.1z M2.65,27.2c0.1-0.066,0.283-0.1,0.55-0.1l0.45,0.05L4,27.4
			l0.2,0.351L4.25,28.2v0.95h-1.4v0.5l0.1,0.25L3.2,30c0.133,0,0.233-0.034,0.3-0.101l0.05-0.25h0.7l-0.05,0.4L4,30.4l-0.35,0.25
			L3.2,30.7c-0.2,0-0.383-0.05-0.55-0.149C2.483,30.484,2.367,30.367,2.3,30.2l-0.15-0.3v-2l0.15-0.3
			C2.333,27.466,2.45,27.333,2.65,27.2z M8.95,28.25L8.9,27.9c-0.133-0.066-0.233-0.1-0.3-0.1l-0.25,0.1l-0.1,0.351v1.35l0.1,0.3
			L8.6,30c0.167,0,0.267-0.051,0.3-0.15l0.05-0.3V28.25z M5.15,27.35l0.35-0.2l0.4-0.05l0.4,0.05l0.3,0.2l0.25,0.35l0.05,0.4H6.25
			c0-0.1-0.05-0.184-0.15-0.25l-0.25-0.1l-0.25,0.1L5.5,28.1l0.05,0.2L5.8,28.45l0.45,0.2c0.267,0.101,0.45,0.233,0.55,0.4
			c0.1,0.2,0.15,0.399,0.15,0.6l-0.1,0.4l-0.2,0.35L6.3,30.65L5.9,30.7l-0.4-0.05l-0.35-0.2L4.9,30.1l-0.1-0.45h0.7l0.1,0.25
			C5.667,30,5.75,30.05,5.85,30.05l0.3-0.101c0.066-0.066,0.1-0.166,0.1-0.3L6.2,29.4l-0.3-0.2l-0.35-0.1
			c-0.267-0.134-0.433-0.267-0.5-0.4c-0.133-0.133-0.2-0.333-0.2-0.6c0-0.2,0.034-0.333,0.1-0.4L5.15,27.35z M9.55,27.4l0.1,0.3
			l0.05,0.5v1.351L9.65,30.1l-0.1,0.3l-0.2,0.2c-0.066,0.066-0.2,0.1-0.4,0.1c-0.2,0-0.333-0.033-0.4-0.1l-0.3-0.25v1.75h-0.7v-5
			h0.7v0.35l0.3-0.25c0.033-0.066,0.167-0.1,0.4-0.1C9.25,27.1,9.45,27.2,9.55,27.4z M17.75,36.2v0.4h0.7v-0.4l-0.1-0.3
			c-0.033-0.066-0.117-0.1-0.25-0.1s-0.216,0.033-0.25,0.1L17.75,36.2z M19.45,35.1h0.75l0.5,2.25l0.5-2.25h0.7l-1,4.2L20.75,39.7
			l-0.25,0.25l-0.3,0.101l-0.3,0.05h-0.2v-0.65h0.2l0.15-0.05l0.15-0.1l0.1-0.3l0.1-0.5L19.45,35.1z M17.05,35.9l0.1-0.3
			c0.133-0.2,0.267-0.333,0.4-0.4c0.1-0.066,0.283-0.1,0.55-0.1l0.45,0.05l0.35,0.25l0.2,0.351l0.05,0.449v0.95h-1.4v0.5l0.1,0.25
			L18.1,38c0.1,0,0.184-0.034,0.25-0.101l0.1-0.25h0.7l-0.05,0.4l-0.25,0.35l-0.3,0.25L18.1,38.7c-0.2,0-0.383-0.05-0.55-0.149
			c-0.133-0.033-0.267-0.15-0.4-0.351l-0.1-0.3V35.9z M10.65,33.7v0.7h-0.7v-0.7H10.65z M14.95,35.1v0.35l0.3-0.25
			c0.066-0.066,0.2-0.1,0.4-0.1h0.25l0.25,0.15l0.15,0.3l0.05,0.399v2.7h-0.7V36.2l-0.1-0.3l-0.25-0.1c-0.067,0-0.167,0.033-0.3,0.1
			l-0.05,0.4v2.35h-0.7V35.1H14.95z M12.15,35.9l-0.05,0.3V37.5l0.05,0.35c0.066,0.1,0.167,0.15,0.3,0.15s0.217-0.051,0.25-0.15
			l0.1-0.3V36.2l-0.1-0.3l-0.25-0.1C12.316,35.8,12.216,35.833,12.15,35.9z M12.8,33.7h0.7v4.95h-0.7v-0.3l-0.15,0.15l-0.3,0.199
			H12.1c-0.3,0-0.5-0.116-0.6-0.35l-0.1-0.25l-0.05-0.5v-1.35L11.4,35.7l0.1-0.3l0.2-0.25l0.4-0.05l0.4,0.05l0.3,0.3V33.7z
			 M11.75,28.2l-0.1-0.3c-0.033-0.066-0.117-0.1-0.25-0.1s-0.217,0.033-0.25,0.1c-0.067,0.066-0.1,0.167-0.1,0.3v1.4l0.1,0.3
			L11.4,30l0.25-0.101l0.1-0.3V28.2z M10.45,27.6l0.4-0.4c0.1-0.066,0.284-0.1,0.55-0.1s0.45,0.033,0.55,0.1
			c0.133,0.067,0.267,0.2,0.4,0.4l0.1,0.3v2l-0.1,0.3c-0.133,0.2-0.267,0.317-0.4,0.351c-0.133,0.1-0.316,0.149-0.55,0.149
			c-0.2,0-0.383-0.05-0.55-0.149c-0.133-0.033-0.267-0.15-0.4-0.351l-0.1-0.3v-2L10.45,27.6z M20.05,30.65V25.7h0.7v1.75l0.3-0.3
			l0.4-0.05l0.4,0.05l0.2,0.25l0.1,0.3l0.05,0.551v1.35l-0.05,0.5l-0.1,0.25c-0.1,0.233-0.3,0.35-0.6,0.35
			c-0.2,0-0.333-0.033-0.4-0.1l-0.3-0.25v0.3H20.05z M15.25,27.95v2.7h-0.7V28.2l-0.1-0.3l-0.25-0.1c-0.1,0-0.183,0.033-0.25,0.1
			c-0.066,0.066-0.1,0.2-0.1,0.4v2.35h-0.7V27.1h0.7v0.35l0.3-0.25c0.066-0.066,0.2-0.1,0.4-0.1h0.25l0.25,0.15l0.15,0.3
			L15.25,27.95z M16,27.7l0.2-0.35l0.35-0.2l0.4-0.05l0.4,0.05l0.35,0.2l0.2,0.35l0.05,0.4H17.3l-0.1-0.25l-0.25-0.1
			c-0.066,0-0.167,0.033-0.3,0.1L16.6,28.1l0.05,0.2l0.65,0.35c0.267,0.101,0.45,0.233,0.55,0.4c0.1,0.2,0.15,0.399,0.15,0.6
			l-0.1,0.4l-0.2,0.35l-0.35,0.25l-0.4,0.05l-0.4-0.05l-0.35-0.2l-0.25-0.35l-0.1-0.45h0.7l0.1,0.25
			c0.066,0.101,0.167,0.15,0.3,0.15l0.25-0.101l0.15-0.3l-0.1-0.25l-0.3-0.2l-0.3-0.1c-0.233-0.1-0.417-0.233-0.55-0.4
			c-0.133-0.133-0.2-0.333-0.2-0.6L16,27.7z M18.6,27.1h0.7v3.55h-0.7V27.1z M19.3,26.4h-0.7v-0.7h0.7V26.4z M13.6,17.7h0.7v4.95
			h-0.7v-4.2l-0.75,0.5V18.2L13.6,17.7z M11.05,18.35l-0.25,0.1l-0.1,0.25v2.95l0.1,0.25L11.05,22L11.3,21.9l0.1-0.25V18.7
			l-0.1-0.25L11.05,18.35z M15.55,17.7h2.05v0.65h-1.4v1.35l0.25-0.15l0.35-0.1c0.233,0,0.433,0.083,0.6,0.25
			c0.133,0.133,0.2,0.35,0.2,0.65v1.3c0,0.2-0.033,0.351-0.1,0.45c-0.1,0.167-0.167,0.267-0.2,0.3l-0.35,0.25l-0.4,0.05l-0.4-0.05
			L15.8,22.4l-0.25-0.3l-0.05-0.45v-0.2h0.7v0.15l0.1,0.3L16.55,22L16.8,21.9l0.1-0.3v-1.15l-0.1-0.25l-0.25-0.1l-0.15,0.05
			l-0.1,0.05L16.25,20.3l-0.05,0.05h-0.65V17.7z M10,21.65V18.7c0-0.2,0.033-0.35,0.1-0.45c0.1-0.167,0.167-0.267,0.2-0.3
			c0.133-0.133,0.25-0.217,0.35-0.25l0.4-0.05l0.4,0.05c0.1,0.033,0.217,0.117,0.35,0.25l0.25,0.3l0.05,0.45v2.95l-0.05,0.45
			l-0.25,0.3c-0.133,0.134-0.25,0.217-0.35,0.25l-0.4,0.05l-0.4-0.05c-0.1-0.033-0.217-0.116-0.35-0.25
			c-0.033-0.033-0.1-0.133-0.2-0.3C10.033,22,10,21.85,10,21.65z M3.8,19.2l0.15,0.45H3.5L3.4,19.4l-0.2-0.15
			C3.1,19.184,3.033,19.133,3,19.1l-0.3-0.05l-0.4,0.1C2.167,19.184,2.066,19.267,2,19.4l-0.2,0.35l-0.1,0.4l0.1,0.45L2,20.95
			l0.3,0.25L2.7,21.3c0.233,0,0.417-0.066,0.55-0.2c0.1-0.066,0.183-0.217,0.25-0.45h0.45L3.8,21.1
			c-0.133,0.167-0.233,0.283-0.3,0.35l-0.35,0.2L2.7,21.75L2.1,21.65c-0.2-0.1-0.35-0.217-0.45-0.35
			c-0.167-0.167-0.267-0.334-0.3-0.5C1.25,20.6,1.2,20.4,1.2,20.2l0.1-0.649l0.3-0.5l0.45-0.35l0.65-0.1l0.45,0.05l0.4,0.2L3.8,19.2
			z M3.4,18.25L2.65,18.1c-0.267,0-0.533,0.05-0.8,0.15L1.2,18.7c-0.2,0.2-0.35,0.417-0.45,0.65C0.65,19.617,0.6,19.9,0.6,20.2
			C0.6,20.5,0.65,20.767,0.75,21C0.85,21.234,1,21.45,1.2,21.65l0.65,0.45c0.267,0.1,0.534,0.15,0.8,0.15L3.4,22.1l0.65-0.45
			C4.25,21.45,4.4,21.234,4.5,21c0.1-0.233,0.15-0.5,0.15-0.801c0-0.3-0.05-0.583-0.15-0.85c-0.1-0.233-0.25-0.45-0.45-0.65
			L3.4,18.25z M0.85,18.4c0.2-0.267,0.467-0.45,0.8-0.55c0.267-0.133,0.6-0.2,1-0.2c0.367,0,0.683,0.067,0.95,0.2
			c0.333,0.1,0.6,0.283,0.8,0.55c0.267,0.2,0.45,0.467,0.55,0.8c0.133,0.267,0.2,0.6,0.2,1c0,0.367-0.067,0.684-0.2,0.95
			c-0.1,0.334-0.283,0.601-0.55,0.8C4.2,22.216,3.933,22.4,3.6,22.5C3.333,22.633,3.017,22.7,2.65,22.7c-0.4,0-0.733-0.066-1-0.199
			c-0.333-0.101-0.6-0.284-0.8-0.551c-0.167-0.133-0.35-0.399-0.55-0.8c-0.133-0.267-0.2-0.583-0.2-0.95c0-0.399,0.067-0.733,0.2-1
			C0.5,18.8,0.683,18.533,0.85,18.4z M7.35,18.3l0.2-0.35l0.35-0.2c0.1-0.066,0.233-0.1,0.4-0.1l0.5,0.1
			c0.1,0.033,0.217,0.117,0.35,0.25c0.033,0.1,0.083,0.233,0.15,0.4l0.1,0.5l-0.05,0.3v0.25l-0.1,0.2l-0.1,0.3l-1.05,2h1.3v0.7H7.25
			V22l1.3-2.45l0.1-0.3V18.7L8.6,18.55L8.5,18.4l-0.2-0.05l-0.25,0.1l-0.1,0.25v0.4h-0.7v-0.35L7.35,18.3z M4,3.3
			c0-0.5-0.1-0.883-0.3-1.15c-0.2-0.267-0.566-0.4-1.1-0.4H1.8v9.05h0.8c0.5,0,0.85-0.133,1.05-0.4C3.883,10.1,4,9.717,4,9.25V3.3z
			 M0,0.1h2.65c1,0,1.767,0.283,2.3,0.85c0.533,0.533,0.8,1.316,0.8,2.35v5.75c0,1.133-0.284,1.983-0.85,2.55
			c-0.567,0.567-1.367,0.85-2.4,0.85H0V0.1z M13.75,3.7c0,0.667-0.117,1.283-0.35,1.85c-0.233,0.533-0.633,0.95-1.2,1.25l1.9,5.65
			h-1.85l-1.65-5.3H9.55v5.3h-1.8V0.1h2.85C12.7,0.1,13.75,1.3,13.75,3.7z M11.25,1.9c-0.2-0.1-0.467-0.15-0.8-0.15h-0.9V5.6h1
			l0.75-0.1l0.4-0.4l0.2-0.6l0.05-0.8L11.9,2.85l-0.2-0.6C11.566,2.05,11.417,1.934,11.25,1.9z M15.55,0.1h1.75v12.35h-1.75V0.1z
			 M38.2,20.2l-0.1-0.3c-0.033-0.066-0.117-0.1-0.25-0.1s-0.216,0.033-0.25,0.1l-0.1,0.3v0.4h0.7V20.2z M39.55,19.1h0.75v3.55h-0.75
			V19.1z M38.3,19.15l0.3,0.25l0.25,0.35l0.05,0.45v0.95h-1.4v0.5l0.1,0.25L37.85,22c0.1,0,0.184-0.034,0.25-0.101l0.1-0.25h0.7
			l-0.05,0.4L38.6,22.4l-0.3,0.25l-0.45,0.05c-0.2,0-0.383-0.05-0.55-0.149c-0.133-0.033-0.267-0.15-0.4-0.351l-0.1-0.3v-2l0.1-0.3
			c0.133-0.2,0.267-0.333,0.4-0.4c0.1-0.067,0.283-0.1,0.55-0.1L38.3,19.15z M31.9,19.8l-0.25,0.05l-0.2,0.1l-0.2,0.25L31.2,20.55
			v2.1h-0.75V19.1h0.75v0.4c0.167-0.167,0.3-0.267,0.4-0.3c0.1-0.067,0.284-0.1,0.55-0.1v0.75L31.9,19.8z M34.35,19.2l0.25,0.25
			l0.3-0.25c0.066-0.067,0.217-0.1,0.45-0.1h0.25l0.25,0.15l0.2,0.3l0.05,0.4v2.7h-0.7V20.2l-0.1-0.3l-0.25-0.1
			c-0.133,0-0.233,0.033-0.3,0.1l-0.05,0.4v2.35H34V20.2l-0.1-0.3l-0.25-0.1c-0.133,0-0.233,0.033-0.3,0.1
			c-0.066,0.133-0.1,0.267-0.1,0.4v2.35h-0.7V19.1h0.7v0.35h0.05l0.25-0.25c0.067-0.067,0.2-0.1,0.4-0.1
			C34.15,19.1,34.283,19.133,34.35,19.2z M40.3,18.4h-0.75v-0.7h0.75V18.4z M25.95,19.8c-0.1,0-0.183,0.033-0.25,0.1
			c-0.066,0.067-0.1,0.184-0.1,0.351v1.3l0.05,0.3c0.066,0.1,0.167,0.15,0.3,0.15L26.2,21.9l0.1-0.3v-1.35L26.2,19.9L25.95,19.8z
			 M28.75,19.8c-0.133,0-0.217,0.033-0.25,0.1l-0.1,0.3v0.4h0.7v-0.4L29,19.9C28.966,19.833,28.883,19.8,28.75,19.8z M29.2,19.15
			l0.3,0.25l0.25,0.35l0.05,0.45v0.95h-1.4v0.5l0.1,0.25L28.75,22c0.1,0,0.183-0.034,0.25-0.101l0.1-0.25h0.7l-0.05,0.4L29.5,22.4
			l-0.3,0.25l-0.45,0.05c-0.2,0-0.383-0.05-0.55-0.149c-0.133-0.033-0.267-0.15-0.4-0.351l-0.1-0.3v-2l0.1-0.3
			c0.133-0.2,0.267-0.333,0.4-0.4c0.1-0.067,0.283-0.1,0.55-0.1L29.2,19.15z M23.3,21.1c-0.167,0-0.3,0.05-0.4,0.15
			c-0.1,0.066-0.15,0.183-0.15,0.35l0.1,0.35C22.917,22.05,23,22.1,23.1,22.1c0.167,0,0.267-0.05,0.3-0.15l0.1-0.35v-0.45L23.3,21.1
			z M23.4,19.9c-0.067-0.066-0.15-0.1-0.25-0.1c-0.133,0-0.217,0.033-0.25,0.1c-0.1,0.067-0.15,0.15-0.15,0.25h-0.7
			c0-0.3,0.1-0.55,0.3-0.75c0.133-0.133,0.25-0.216,0.35-0.25l0.45-0.05l0.4,0.05l0.35,0.2l0.25,0.35l0.05,0.5v2.45h-0.7V22.3
			l-0.3,0.3l-0.4,0.1l-0.25-0.05l-0.25-0.1l-0.2-0.3l-0.05-0.5l0.05-0.5c0-0.167,0.05-0.301,0.15-0.4l0.35-0.2l0.55-0.1h0.15
			l0.2,0.05v-0.4C23.5,20.067,23.466,19.967,23.4,19.9z M25,19.4l0.25-0.25c0.033-0.033,0.167-0.05,0.4-0.05h0.2l0.2,0.1l0.25,0.25
			V19.1H27v4l-0.05,0.35l-0.2,0.351l-0.3,0.25l-0.5,0.1L25.6,24.1l-0.3-0.2L25,23.6l-0.1-0.5h0.7l0.1,0.2
			c0.067,0.1,0.15,0.149,0.25,0.149c0.133,0,0.217-0.05,0.25-0.149c0.067-0.033,0.1-0.117,0.1-0.25v-0.7L26,22.6
			c-0.067,0.066-0.2,0.1-0.4,0.1c-0.3,0-0.5-0.116-0.6-0.35l-0.1-0.25v-2.4L25,19.4z M24.05,18.55H23.4v-0.7h0.65V18.55z M20.7,17.7
			h0.7v3.8l-0.05,0.449l-0.25,0.4l-0.4,0.25c-0.1,0.066-0.267,0.1-0.5,0.1c-0.2,0-0.383-0.05-0.55-0.149l-0.4-0.3l0.6-0.45L20,21.95
			L20.25,22l0.1-0.051l0.2-0.05l0.1-0.2l0.05-0.3V17.7z M22.25,18.55v-0.7h0.65v0.7H22.25z M21,0.1l2.7,7.45V0.1h1.8v12.35h-1.7
			L21.1,5v7.45h-1.8V0.1H21z M31.8,0.1h1.8l-2.4,4.95l2.85,7.4h-1.9l-2-5.5l-0.95,1.8v3.7h-1.75V0.1h1.75v5.65h0.05L31.8,0.1z
			 M79.95,38.65h-0.7v-0.7h0.7V38.65z M69.2,39.2v-1.25h0.699v0.7L69.2,39.2z M68.5,37.95v0.7h-0.75v-0.7H68.5z M65.8,35.9
			c-0.067,0.033-0.1,0.134-0.1,0.3v1.4c0,0.167,0.033,0.267,0.1,0.3L66.05,38L66.3,37.9l0.1-0.3v-1.4l-0.1-0.3
			c-0.033-0.066-0.117-0.1-0.25-0.1S65.833,35.833,65.8,35.9z M64.95,36.3L65,35.9l0.1-0.3l0.35-0.4c0.1-0.066,0.3-0.1,0.6-0.1
			c0.267,0,0.45,0.033,0.55,0.1c0.2,0.134,0.317,0.267,0.35,0.4l0.1,0.3l0.05,0.4v1.2L67.05,37.9l-0.1,0.3
			c-0.066,0.167-0.183,0.284-0.35,0.351c-0.133,0.1-0.316,0.149-0.55,0.149s-0.434-0.05-0.6-0.149c-0.1-0.033-0.217-0.15-0.35-0.351
			L65,37.9L64.95,37.5V36.3z M63.65,33.75L64,33.95l0.25,0.4l0.1,0.5v0.25h-0.7v-0.25c0-0.134-0.05-0.25-0.15-0.35
			c-0.034-0.101-0.134-0.15-0.3-0.15s-0.283,0.05-0.35,0.15l-0.1,0.449V37.5l0.1,0.35c0.067,0.1,0.184,0.15,0.35,0.15l0.3-0.101
			l0.1-0.149l0.05-0.25v-0.25h0.7v0.3L64.25,38c-0.067,0.166-0.15,0.283-0.25,0.35l-0.35,0.25c-0.1,0.066-0.25,0.1-0.45,0.1
			l-0.4-0.05l-0.35-0.2c-0.167-0.1-0.267-0.216-0.3-0.35l-0.1-0.55V34.8c0-0.233,0.033-0.384,0.1-0.45l0.2-0.4l0.4-0.199
			c0.066-0.067,0.216-0.101,0.45-0.101C63.4,33.65,63.55,33.683,63.65,33.75z M61.3,26.7h1.1c0.667,0,1,0.284,1,0.851l-0.05,0.35
			l-0.15,0.25l-0.25,0.15l-0.3,0.05l0.85,1.3h-0.55l-0.85-1.3h-0.35v1.3H61.3V26.7z M62.95,27.5c0-0.101-0.05-0.2-0.15-0.301
			l-0.4-0.1h-0.65v0.85h0.5c0.167,0,0.35-0.033,0.55-0.1C62.9,27.817,62.95,27.7,62.95,27.5z M66.95,25.7h0.7v4.25h1.45v0.7h-2.15
			V25.7z M70.35,26.4h-0.7v-0.7h0.7V26.4z M69.649,27.1h0.7v3.55h-0.7V27.1z M78.05,35.15l0.35,0.25l0.2,0.351L78.7,36.2h-0.75
			l-0.051-0.3c-0.066-0.066-0.166-0.1-0.3-0.1c-0.1,0-0.184,0.033-0.25,0.1l-0.1,0.3v1.45l0.1,0.25L77.6,38
			c0.134,0,0.233-0.034,0.3-0.101l0.051-0.25h0.75l-0.101,0.4l-0.2,0.35l-0.35,0.25L77.6,38.7c-0.2,0-0.383-0.05-0.55-0.149
			c-0.1-0.033-0.217-0.15-0.35-0.351L76.6,37.9L76.55,37.5v-1.2l0.05-0.4l0.101-0.3l0.35-0.4c0.1-0.066,0.283-0.1,0.55-0.1
			L78.05,35.15z M75.55,35.25l0.2,0.3l0.05,0.399v2.7h-0.7V36.2L75,35.9l-0.25-0.1c-0.134,0-0.233,0.033-0.3,0.1
			c-0.067,0.134-0.101,0.267-0.101,0.4v2.35h-0.7V35.1h0.7v0.35h0.05l0.25-0.25c0.067-0.066,0.2-0.1,0.4-0.1h0.25L75.55,35.25z
			 M72.149,33.7h0.7v4.95h-0.7V33.7z M72.5,28.25c0-0.167-0.033-0.284-0.101-0.351l-0.25-0.1l-0.25,0.1l-0.1,0.351v1.3l0.05,0.3
			c0.066,0.1,0.167,0.15,0.3,0.15l0.25-0.101l0.101-0.3V28.25z M72.25,27.2l0.25,0.25V27.1h0.7v5h-0.7v-1.75l-0.3,0.25
			c-0.067,0.066-0.184,0.1-0.351,0.1c-0.2,0-0.333-0.033-0.399-0.1l-0.25-0.2L71.1,30.1v-2.4l0.101-0.3
			c0.166-0.2,0.383-0.3,0.649-0.3h0.2L72.25,27.2z M76.1,27.1v3.55h-0.75V30.3c-0.033,0.133-0.116,0.233-0.25,0.3L74.7,30.7
			l-0.301-0.05c-0.066,0-0.133-0.05-0.199-0.149L74,30.25l-0.05-0.4V27.1h0.699v2.45l0.101,0.35L75,30c0.166,0,0.267-0.051,0.3-0.15
			l0.05-0.35v-2.4H76.1z M77.45,28.6h0.699v-0.4c0-0.166-0.033-0.267-0.1-0.3c-0.033-0.066-0.116-0.1-0.25-0.1
			s-0.217,0.033-0.25,0.1l-0.1,0.3V28.6z M78.6,27.4l0.2,0.351l0.1,0.449v0.95H77.45v0.5l0.1,0.25L77.8,30
			c0.134,0,0.233-0.034,0.3-0.101l0.05-0.25h0.75l-0.1,0.4l-0.2,0.35l-0.35,0.25L77.8,30.7c-0.2,0-0.384-0.05-0.55-0.149
			c-0.167-0.066-0.283-0.184-0.351-0.351l-0.1-0.3L76.75,29.5v-1.2l0.05-0.4l0.1-0.3c0.034-0.134,0.15-0.267,0.351-0.4
			c0.1-0.066,0.283-0.1,0.55-0.1l0.45,0.05L78.6,27.4z M47.8,35.9l-0.1,0.3v1.4l0.1,0.3L48.05,38L48.3,37.9l0.1-0.3v-1.4l-0.1-0.3
			c-0.033-0.066-0.117-0.1-0.25-0.1S47.833,35.833,47.8,35.9z M47.5,35.2c0.1-0.066,0.283-0.1,0.55-0.1s0.45,0.033,0.55,0.1
			c0.133,0.067,0.267,0.2,0.4,0.4l0.1,0.3v2L49,38.2c-0.134,0.2-0.267,0.317-0.4,0.351c-0.133,0.1-0.316,0.149-0.55,0.149
			c-0.2,0-0.383-0.05-0.55-0.149c-0.133-0.033-0.267-0.15-0.4-0.351L47,37.9v-2l0.1-0.3C47.233,35.4,47.367,35.267,47.5,35.2z
			 M44.9,35.45l0.25-0.25c0.066-0.066,0.217-0.1,0.45-0.1c0.3,0,0.5,0.1,0.6,0.3l0.1,0.3v2.4l-0.1,0.3l-0.25,0.2
			c-0.033,0.066-0.167,0.1-0.4,0.1c-0.167,0-0.283-0.033-0.35-0.1l-0.3-0.25v1.75h-0.7v-5h0.7V35.45z M45,35.9l-0.1,0.351v1.35
			l0.1,0.3L45.25,38c0.167,0,0.267-0.051,0.3-0.15l0.05-0.3v-1.3c0-0.167-0.033-0.284-0.1-0.351c-0.067-0.066-0.15-0.1-0.25-0.1
			L45,35.9z M42.25,35.2c0.066-0.066,0.216-0.1,0.45-0.1h0.25l0.25,0.15l0.2,0.3l0.05,0.399v2.7h-0.7V36.2l-0.1-0.3l-0.25-0.1
			c-0.133,0-0.233,0.033-0.3,0.1l-0.05,0.4v2.35H41.3V36.2l-0.05-0.3c-0.133-0.066-0.233-0.1-0.3-0.1l-0.25,0.1
			c-0.066,0.134-0.1,0.267-0.1,0.4v2.35h-0.7V35.1h0.7v0.35h0.05l0.25-0.25c0.066-0.066,0.2-0.1,0.4-0.1s0.333,0.033,0.4,0.1
			l0.25,0.25L42.25,35.2z M40.9,27.1v0.4l0.45-0.301c0.1-0.066,0.267-0.1,0.5-0.1v0.75l-0.2-0.05l-0.25,0.05l-0.25,0.1L41,28.2
			l-0.1,0.351v2.1h-0.7V27.1H40.9z M47.3,27.9c-0.067,0.066-0.1,0.167-0.1,0.3v0.4h0.7v-0.4l-0.05-0.3
			c-0.066-0.066-0.167-0.1-0.3-0.1C47.45,27.8,47.367,27.833,47.3,27.9z M45.6,27.25l0.15,0.3l0.1,0.399v2.7h-0.7V28.2l-0.1-0.3
			l-0.25-0.1c-0.133,0-0.233,0.033-0.3,0.1c-0.067,0.134-0.1,0.267-0.1,0.4v2.35h-0.7V28.2c0-0.133-0.033-0.233-0.1-0.3l-0.25-0.1
			c-0.1,0-0.183,0.033-0.25,0.1c-0.066,0.134-0.1,0.267-0.1,0.4v2.35h-0.7V27.1H43v0.35l0.3-0.25c0.067-0.066,0.2-0.1,0.4-0.1
			c0.167,0,0.283,0.033,0.35,0.1c0.067,0.034,0.167,0.117,0.3,0.25l0.25-0.25c0.1-0.066,0.25-0.1,0.45-0.1h0.3L45.6,27.25z
			 M49.3,27.1H50v3.55h-0.7V27.1z M49.3,25.7H50v0.7h-0.7V25.7z M48.35,27.4l0.2,0.351l0.1,0.449v0.95H47.2v0.5l0.1,0.25L47.55,30
			c0.133,0,0.233-0.034,0.3-0.101l0.05-0.25h0.75l-0.1,0.4l-0.2,0.35L48,30.65l-0.45,0.05c-0.2,0-0.383-0.05-0.55-0.149
			c-0.1-0.033-0.217-0.15-0.35-0.351l-0.1-0.3L46.5,29.5v-1.2l0.05-0.4l0.1-0.3c0.133-0.2,0.25-0.333,0.35-0.4
			c0.1-0.066,0.283-0.1,0.55-0.1L48,27.15L48.35,27.4z M59.15,36.25c0-0.167-0.034-0.284-0.1-0.351l-0.25-0.1l-0.25,0.1l-0.1,0.351
			v1.3l0.05,0.3c0.066,0.1,0.167,0.15,0.3,0.15l0.25-0.101l0.1-0.3V36.25z M57.85,35.4l0.25-0.25l0.4-0.05h0.2l0.2,0.1l0.15,0.101
			l0.1,0.149V35.1h0.7v4l-0.05,0.35L59.6,39.8l-0.3,0.25l-0.5,0.1l-0.35-0.05l-0.3-0.2c-0.133-0.066-0.217-0.166-0.25-0.3
			c-0.1-0.134-0.15-0.3-0.15-0.5h0.7l0.1,0.2c0.066,0.1,0.167,0.149,0.3,0.149s0.217-0.05,0.25-0.149l0.05-0.25v-0.7l-0.3,0.25
			c-0.066,0.066-0.183,0.1-0.35,0.1c-0.3,0-0.517-0.116-0.65-0.35l-0.1-0.25v-2.4L57.85,35.4z M53.45,35.1h0.7v3.55h-0.7V35.1z
			 M55.6,35.1v0.35l0.25-0.25c0.1-0.066,0.233-0.1,0.4-0.1h0.3l0.25,0.15l0.15,0.3L57,35.95v2.7h-0.7V36.2l-0.1-0.3l-0.25-0.1
			c-0.133,0-0.233,0.033-0.3,0.1l-0.05,0.4v2.35h-0.75V35.1H55.6z M50.9,35.2c0.1-0.066,0.283-0.1,0.55-0.1v0.75L51.2,35.8L51,35.85
			l-0.25,0.1l-0.2,0.25L50.5,36.55v2.1h-0.7V35.1h0.7v0.4L50.9,35.2z M52.6,35.1H53v0.6h-0.4v2.15l0.1,0.1L52.8,38H53v0.649h-0.25
			L52.3,38.6l-0.25-0.2l-0.15-0.3l-0.05-0.25V35.7H51.5v-0.6h0.35v-1.05h0.75V35.1z M53.45,33.7h0.7v0.7h-0.7V33.7z M50.75,27.7
			l0.2-0.35l0.35-0.2l0.4-0.05l0.4,0.05l0.3,0.2l0.25,0.35l0.05,0.4h-0.65c0-0.1-0.05-0.184-0.15-0.25l-0.2-0.1
			c-0.066,0-0.167,0.033-0.3,0.1l-0.05,0.25v0.2l0.7,0.35c0.267,0.101,0.45,0.233,0.55,0.4c0.1,0.2,0.15,0.399,0.15,0.6l-0.1,0.4
			l-0.2,0.35l-0.35,0.25l-0.4,0.05l-0.4-0.05l-0.35-0.2L50.7,30.1l-0.1-0.45h0.7l0.1,0.25c0.066,0.101,0.167,0.15,0.3,0.15
			l0.25-0.101c0.067-0.066,0.1-0.166,0.1-0.3L52,29.4l-0.3-0.2l-0.35-0.1c-0.267-0.134-0.433-0.267-0.5-0.4
			c-0.133-0.133-0.2-0.333-0.2-0.6L50.75,27.7z M54.05,26.05v1.05h0.45v0.6h-0.45v1.95l0.05,0.2l0.05,0.1L54.3,30h0.2v0.649h-0.3
			l-0.4-0.05l-0.25-0.2c-0.1-0.1-0.15-0.2-0.15-0.3l-0.05-0.25V27.7H53v-0.6h0.35v-1.05H54.05z M60.2,28.2
			c0,0.301,0.05,0.567,0.15,0.801c0.2,0.333,0.35,0.55,0.45,0.649l0.65,0.45c0.267,0.1,0.533,0.15,0.8,0.15
			c0.3,0,0.566-0.051,0.8-0.15l0.6-0.45c0.2-0.2,0.35-0.416,0.45-0.649c0.1-0.233,0.15-0.5,0.15-0.801c0-0.3-0.05-0.583-0.15-0.85
			c-0.1-0.233-0.25-0.45-0.45-0.65l-0.6-0.449c-0.233-0.101-0.5-0.15-0.8-0.15c-0.267,0-0.534,0.05-0.8,0.15L60.8,26.7
			c-0.1,0.101-0.25,0.317-0.45,0.65C60.25,27.617,60.2,27.9,60.2,28.2z M56.25,28.2c0-0.166-0.034-0.267-0.1-0.3
			c-0.034-0.066-0.117-0.1-0.25-0.1c-0.1,0-0.184,0.033-0.25,0.1l-0.1,0.3v0.4h0.7V28.2z M55.9,27.1l0.45,0.05
			c0.1,0.033,0.217,0.117,0.35,0.25l0.2,0.351L57,28.2v0.95h-1.45v0.5l0.1,0.25L55.9,30c0.133,0,0.233-0.034,0.3-0.101l0.05-0.25H57
			l-0.1,0.4l-0.2,0.35l-0.35,0.25L55.9,30.7c-0.2,0-0.383-0.05-0.55-0.149c-0.167-0.066-0.283-0.184-0.35-0.351l-0.1-0.3L54.85,29.5
			v-1.2l0.05-0.4l0.1-0.3c0.033-0.134,0.15-0.267,0.35-0.4C55.45,27.133,55.633,27.1,55.9,27.1z M59.9,27.2
			c0.2-0.399,0.383-0.666,0.55-0.8c0.3-0.267,0.567-0.45,0.8-0.55c0.267-0.134,0.6-0.2,1-0.2c0.366,0,0.7,0.066,1,0.2
			c0.267,0.1,0.533,0.283,0.8,0.55c0.233,0.233,0.4,0.5,0.5,0.8c0.133,0.267,0.2,0.601,0.2,1c0,0.367-0.067,0.684-0.2,0.95
			c-0.1,0.3-0.267,0.566-0.5,0.8c-0.267,0.301-0.533,0.483-0.8,0.551c-0.3,0.133-0.634,0.199-1,0.199c-0.4,0-0.733-0.066-1-0.199
			c-0.233-0.067-0.5-0.25-0.8-0.551c-0.167-0.133-0.35-0.399-0.55-0.8c-0.133-0.267-0.2-0.583-0.2-0.95
			C59.7,27.8,59.767,27.466,59.9,27.2z M58.35,27.1v0.4L58.8,27.2c0.1-0.066,0.267-0.1,0.5-0.1v0.75l-0.2-0.05l-0.25,0.05l-0.25,0.1
			l-0.15,0.25l-0.1,0.351v2.1h-0.7V27.1H58.35z M59.1,20.45l-0.25-0.1l-0.25,0.1l-0.1,0.25v0.95l0.1,0.25L58.85,22L59.1,21.9
			l0.1-0.25V20.7L59.1,20.45z M52,19.1l0.4,0.05l0.35,0.2l0.2,0.35l0.1,0.4h-0.7l-0.1-0.25L52,19.75l-0.25,0.1
			c-0.067,0.067-0.1,0.15-0.1,0.25l0.05,0.2l0.65,0.35c0.233,0.066,0.417,0.2,0.55,0.4c0.1,0.2,0.15,0.399,0.15,0.6L53,22.05
			l-0.25,0.35l-0.35,0.25L52,22.7l-0.4-0.05l-0.35-0.2l-0.2-0.35c-0.067-0.1-0.1-0.25-0.1-0.45h0.65l0.1,0.25
			c0.067,0.101,0.167,0.15,0.3,0.15l0.25-0.101l0.15-0.3l-0.1-0.25l-0.25-0.2l-0.35-0.1c-0.233-0.1-0.417-0.233-0.55-0.4
			c-0.133-0.199-0.2-0.399-0.2-0.6l0.1-0.4l0.25-0.35l0.3-0.2L52,19.1z M58.85,17.7h0.8l-0.8,2.1l0.1-0.05h0.2l0.35,0.05l0.25,0.25
			l0.1,0.149l0.05,0.2v1.5l-0.05,0.15l-0.1,0.2L59.4,22.6l-0.55,0.1l-0.5-0.1l-0.4-0.35l-0.1-0.2L57.8,21.9v-1.35l0.05-0.2l0.1-0.15
			L58.85,17.7z M57.2,17.7v0.65h-1.45v1.35L56,19.55l0.35-0.1c0.233,0,0.434,0.083,0.6,0.25c0.167,0.167,0.25,0.383,0.25,0.65v1.3
			l-0.1,0.45l-0.25,0.3c-0.133,0.134-0.25,0.217-0.35,0.25l-0.4,0.05l-0.4-0.05l-0.35-0.25c-0.033-0.033-0.1-0.133-0.2-0.3
			l-0.1-0.45v-0.2h0.7v0.15c0,0.134,0.033,0.233,0.1,0.3C55.983,21.966,56.083,22,56.15,22L56.4,21.9l0.05-0.3v-1.15
			c0-0.133-0.033-0.216-0.1-0.25l-0.2-0.1l-0.2,0.05l-0.1,0.05L55.8,20.3l-0.05,0.05h-0.6V17.7H57.2z M50,18.9v-1.2h0.7v0.7L50,18.9
			z M46.2,19.8c-0.133,0-0.217,0.033-0.25,0.1c-0.066,0.034-0.1,0.133-0.1,0.3v0.4h0.7v-0.4l-0.1-0.3
			C46.417,19.833,46.333,19.8,46.2,19.8z M49.6,19.1v0.75l-0.25-0.05l-0.25,0.05l-0.2,0.1l-0.2,0.25l-0.05,0.351v2.1H47.9V19.1h0.75
			v0.4c0.167-0.167,0.3-0.267,0.4-0.3C49.15,19.133,49.333,19.1,49.6,19.1z M41.95,19.1l0.45,0.05l0.3,0.2l0.2,0.35l0.1,0.4h-0.7
			l-0.1-0.25l-0.25-0.1l-0.25,0.1l-0.1,0.25l0.05,0.2l0.65,0.35c0.233,0.066,0.417,0.2,0.55,0.4c0.1,0.2,0.15,0.399,0.15,0.6
			l-0.05,0.4L42.7,22.4l-0.3,0.25l-0.45,0.05l-0.4-0.05l-0.35-0.2L41,22.1l-0.1-0.45h0.65l0.1,0.25c0.066,0.101,0.167,0.15,0.3,0.15
			l0.25-0.101l0.15-0.3l-0.1-0.25L42,21.2l-0.35-0.1c-0.233-0.1-0.417-0.233-0.55-0.4c-0.133-0.199-0.2-0.399-0.2-0.6l0.1-0.4
			l0.25-0.35l0.3-0.2L41.95,19.1z M45.15,19.9l0.1-0.3c0.133-0.2,0.25-0.333,0.35-0.4c0.133-0.067,0.333-0.1,0.6-0.1l0.45,0.05
			l0.3,0.25l0.25,0.35l0.05,0.45v0.95h-1.4v0.5c0,0.134,0.034,0.217,0.1,0.25L46.2,22l0.25-0.101l0.1-0.25h0.7l-0.05,0.4l-0.25,0.35
			l-0.3,0.25L46.2,22.7c-0.2,0-0.4-0.05-0.6-0.149c-0.1-0.033-0.216-0.15-0.35-0.351l-0.1-0.3L45.1,21.5v-1.2L45.15,19.9z
			 M43.6,18.05h0.75v1.05h0.4v0.6h-0.4v2.15l0.1,0.1L44.55,22h0.2v0.649H44.5l-0.45-0.05l-0.25-0.2l-0.15-0.3l-0.05-0.25V19.7h-0.35
			v-0.6h0.35V18.05z M44.7,3.7c0,0.767-0.117,1.383-0.35,1.85c-0.2,0.533-0.583,0.95-1.15,1.25l1.9,5.65h-1.9l-1.65-5.3H40.5v5.3
			h-1.75V0.1h2.85C43.667,0.1,44.7,1.3,44.7,3.7z M42.9,2.85c-0.067-0.3-0.15-0.5-0.25-0.6c-0.133-0.2-0.283-0.316-0.45-0.35
			c-0.2-0.1-0.45-0.15-0.75-0.15H40.5V5.6h1l0.75-0.1c0.2-0.1,0.35-0.233,0.45-0.4l0.2-0.6l0.05-0.8L42.9,2.85z M51.75,0.1v1.65
			h-3.5V5.4h3.05v1.65h-3.05v3.6h3.5v1.8H46.5V0.1H51.75z M58.75,1.75c0.133,0.3,0.2,0.65,0.2,1.05v0.85H57.2v-0.4
			c0-0.4-0.1-0.75-0.3-1.05c-0.2-0.3-0.517-0.45-0.95-0.45c-0.233,0-0.433,0.05-0.6,0.15L55,2.25l-0.2,0.5l-0.05,0.6l0.05,0.6
			l0.1,0.45l0.3,0.3L55.75,5l1.35,0.55c0.467,0.167,0.784,0.333,0.95,0.5c0.267,0.2,0.467,0.45,0.6,0.75l0.25,0.9l0.05,1.2
			c0,0.534-0.05,1.017-0.15,1.45c-0.1,0.5-0.267,0.883-0.5,1.15c-0.267,0.367-0.583,0.617-0.95,0.75c-0.4,0.2-0.883,0.3-1.45,0.3
			c-0.367,0-0.767-0.083-1.2-0.25c-0.3-0.133-0.617-0.333-0.95-0.6c-0.233-0.233-0.434-0.533-0.6-0.9
			c-0.167-0.434-0.25-0.833-0.25-1.2V8.95h1.75V9.5c0,0.367,0.1,0.667,0.3,0.9c0.2,0.267,0.517,0.4,0.95,0.4
			c0.333,0,0.566-0.05,0.7-0.15c0.167-0.066,0.3-0.183,0.4-0.35c0.1-0.133,0.15-0.333,0.15-0.6l0.05-0.75l-0.05-0.8
			c0-0.233-0.05-0.4-0.15-0.5c-0.034-0.133-0.134-0.25-0.3-0.35l-0.5-0.25l-1.3-0.5c-0.733-0.3-1.233-0.717-1.5-1.25
			C53.133,4.867,53,4.217,53,3.35c0-0.5,0.066-0.933,0.2-1.3c0.1-0.333,0.283-0.7,0.55-1.1c0.2-0.267,0.517-0.5,0.95-0.7
			C55,0.083,55.433,0,56,0c0.5,0,0.917,0.083,1.25,0.25c0.366,0.167,0.667,0.367,0.9,0.6L58.75,1.75z M76.5,21.1
			c-0.167,0-0.3,0.05-0.4,0.15c-0.133,0.066-0.2,0.183-0.2,0.35L76,21.95l0.3,0.15l0.3-0.15L76.7,21.6v-0.45L76.5,21.1z M79.5,19.8
			l-0.25,0.05L79,19.95l-0.15,0.25l-0.1,0.351v2.1h-0.7V19.1h0.7v0.4l0.45-0.3c0.1-0.067,0.267-0.1,0.5-0.1v0.75L79.5,19.8z
			 M72.25,19.1l0.399,0.05l0.301,0.2l0.199,0.35l0.101,0.4H72.6c-0.066-0.167-0.116-0.25-0.149-0.25l-0.25-0.1l-0.25,0.1L71.85,20.1
			l0.05,0.2l0.25,0.149l0.45,0.2c0.267,0.101,0.45,0.233,0.55,0.4c0.101,0.2,0.15,0.399,0.15,0.6l-0.1,0.4L73,22.4l-0.351,0.25
			L72.2,22.7l-0.4-0.05l-0.3-0.2l-0.25-0.35l-0.101-0.45h0.7l0.101,0.25C72.017,22,72.1,22.05,72.2,22.05l0.3-0.101l0.1-0.3
			l-0.05-0.25l-0.3-0.2l-0.351-0.1c-0.267-0.134-0.433-0.267-0.5-0.4c-0.133-0.133-0.199-0.333-0.199-0.6c0-0.2,0.033-0.333,0.1-0.4
			l0.2-0.35l0.35-0.2L72.25,19.1z M75.25,21.25l0.2-0.4c0.033-0.066,0.149-0.134,0.35-0.2s0.384-0.1,0.55-0.1h0.15l0.2,0.05v-0.4
			L76.6,19.9c-0.066-0.066-0.166-0.1-0.3-0.1c-0.1,0-0.184,0.033-0.25,0.1l-0.15,0.25H75.2c0.066-0.367,0.183-0.617,0.35-0.75
			l0.35-0.25l0.4-0.05l0.45,0.05l0.35,0.2l0.2,0.35l0.1,0.5v2.45H76.7V22.3h-0.051l-0.25,0.3L76,22.7l-0.3-0.05l-0.25-0.1l-0.15-0.3
			l-0.1-0.5L75.25,21.25z M68.35,19.1v0.4l0.4-0.3c0.1-0.067,0.283-0.1,0.55-0.1v0.75l-0.25-0.05l-0.2,0.05l-0.25,0.1
			c-0.066,0.033-0.133,0.117-0.2,0.25l-0.05,0.351v2.1h-0.7V19.1H68.35z M65.65,21.25c-0.1,0.066-0.15,0.183-0.15,0.35l0.1,0.35
			c0.067,0.101,0.15,0.15,0.25,0.15c0.167,0,0.267-0.05,0.3-0.15l0.1-0.35v-0.45l-0.2-0.05C65.883,21.1,65.75,21.15,65.65,21.25z
			 M63.45,21.55v-1.3c0-0.167-0.033-0.284-0.1-0.351c-0.066-0.066-0.15-0.1-0.25-0.1l-0.25,0.1l-0.1,0.351v1.35l0.1,0.3L63.1,22
			c0.167,0,0.267-0.051,0.3-0.15L63.45,21.55z M63.45,19.1c0.3,0,0.5,0.1,0.6,0.3l0.1,0.3v2.4l-0.1,0.3l-0.25,0.2
			c-0.033,0.066-0.167,0.1-0.4,0.1c-0.167,0-0.284-0.033-0.35-0.1l-0.3-0.25v1.75h-0.7v-5h0.7v0.35L63,19.2
			C63.066,19.133,63.216,19.1,63.45,19.1z M65.1,19.4c0.133-0.133,0.25-0.216,0.35-0.25l0.45-0.05l0.4,0.05l0.35,0.2l0.25,0.35
			l0.05,0.5v2.45h-0.7V22.3l-0.3,0.3l-0.4,0.1l-0.25-0.05l-0.25-0.1l-0.2-0.3l-0.05-0.5l0.05-0.5c0-0.167,0.05-0.301,0.15-0.4
			l0.35-0.2l0.55-0.1h0.15l0.2,0.05v-0.4l-0.1-0.3c-0.067-0.066-0.15-0.1-0.25-0.1c-0.133,0-0.217,0.033-0.25,0.1
			c-0.1,0.067-0.15,0.15-0.15,0.25h-0.7C64.8,19.817,64.9,19.567,65.1,19.4z M69.7,18.05h0.75v1.05h0.399v0.6H70.45v2.15l0.1,0.1
			l0.1,0.051h0.2v0.649H70.6l-0.45-0.05l-0.25-0.2l-0.149-0.3l-0.05-0.25V19.7H69.35v-0.6H69.7V18.05z M64.1,1.9
			c-0.133-0.1-0.4-0.15-0.8-0.15h-0.9v4.2h0.85c0.366,0,0.65-0.05,0.85-0.15c0.233-0.1,0.367-0.25,0.4-0.45
			C64.566,5.217,64.633,5,64.7,4.7V3.05l-0.15-0.7L64.1,1.9z M66.2,2.1c0.133,0.6,0.2,1.183,0.2,1.75l-0.1,1.4
			c-0.133,0.467-0.267,0.833-0.4,1.1c-0.233,0.367-0.567,0.683-1,0.95c-0.4,0.2-0.934,0.3-1.6,0.3h-0.9v4.85h-1.75V0.1h2.65
			c0.533,0,0.95,0.067,1.25,0.2c0.367,0.1,0.717,0.316,1.05,0.65C65.9,1.317,66.1,1.7,66.2,2.1z M71.75,2.05
			c-0.233-0.2-0.517-0.3-0.851-0.3c-0.3,0-0.583,0.1-0.85,0.3C69.816,2.283,69.7,2.6,69.7,3v6.55c0,0.367,0.116,0.667,0.35,0.9
			c0.3,0.233,0.583,0.35,0.85,0.35s0.551-0.117,0.851-0.35c0.233-0.2,0.35-0.5,0.35-0.9V3C72.1,2.567,71.983,2.25,71.75,2.05z
			 M70.899,0c0.4,0,0.75,0.067,1.051,0.2c0.333,0.066,0.666,0.25,1,0.55c0.3,0.3,0.517,0.617,0.649,0.95
			C73.767,2,73.85,2.434,73.85,3v6.55c0,0.566-0.083,1-0.25,1.3c-0.133,0.333-0.35,0.65-0.649,0.95c-0.334,0.3-0.667,0.483-1,0.55
			c-0.301,0.133-0.65,0.2-1.051,0.2c-0.399,0-0.75-0.067-1.05-0.2c-0.366-0.1-0.684-0.283-0.95-0.55
			c-0.333-0.267-0.566-0.583-0.699-0.95c-0.167-0.4-0.25-0.833-0.25-1.3V3c0-0.467,0.083-0.9,0.25-1.3
			c0.133-0.367,0.366-0.684,0.699-0.95c0.267-0.267,0.584-0.45,0.95-0.55C70.149,0.067,70.5,0,70.899,0z M113.85,37.95v0.7
			l-0.7,0.55v-1.25H113.85z M107.5,33.7h0.7v3.95l0.1,0.3l0.25,0.101V38.7l-0.45-0.05c-0.133,0-0.233-0.05-0.3-0.149
			c-0.134-0.067-0.217-0.167-0.25-0.301l-0.05-0.5V33.7z M108.95,33.7h0.699v3.95l0.051,0.3l0.3,0.101V38.7l-0.45-0.05
			c-0.134,0-0.25-0.05-0.35-0.149L109,38.2l-0.05-0.5V33.7z M106.149,36.6v-0.4c0-0.133-0.033-0.233-0.1-0.3
			c-0.033-0.066-0.116-0.1-0.25-0.1s-0.217,0.033-0.25,0.1l-0.1,0.3v0.4H106.149z M105.25,35.2c0.1-0.066,0.283-0.1,0.55-0.1
			l0.45,0.05c0.1,0.033,0.217,0.117,0.35,0.25l0.2,0.351l0.05,0.449v0.95h-1.399v0.5l0.1,0.25L105.8,38
			c0.167,0,0.25-0.034,0.25-0.101l0.1-0.25h0.7l-0.05,0.4l-0.2,0.35l-0.35,0.25l-0.45,0.05c-0.2,0-0.384-0.05-0.55-0.149
			c-0.134-0.033-0.267-0.15-0.4-0.351l-0.1-0.3v-2l0.1-0.3L105.25,35.2z M101.95,33.7h0.699v1.75l0.301-0.25
			c0.066-0.066,0.199-0.1,0.399-0.1h0.25l0.25,0.15l0.15,0.3l0.1,0.399v2.7h-0.75V36.2c0-0.133-0.033-0.233-0.1-0.3L103,35.8
			l-0.25,0.1c-0.066,0.134-0.101,0.267-0.101,0.4v2.35h-0.699V33.7z M102.649,30.65v-0.7h0.7v0.7H102.649z M104.75,25.65h0.55
			l-0.95,5.05h-0.55L104.75,25.65z M109.25,27.9l-0.101,0.3v1.4l0.101,0.3L109.5,30l0.25-0.101l0.1-0.3v-1.4l-0.1-0.3
			c-0.033-0.066-0.117-0.1-0.25-0.1C109.366,27.8,109.283,27.833,109.25,27.9z M107.45,25.7h0.8l-1.05,4.95H106.6l-1.05-4.95h0.75
			l0.6,3.45L107.45,25.7z M108.95,27.2c0.1-0.066,0.283-0.1,0.55-0.1s0.45,0.033,0.55,0.1l0.4,0.4l0.1,0.3v2l-0.1,0.3
			c-0.134,0.2-0.267,0.317-0.4,0.351c-0.134,0.1-0.316,0.149-0.55,0.149c-0.2,0-0.384-0.05-0.55-0.149
			c-0.134-0.033-0.267-0.15-0.4-0.351l-0.1-0.3v-2l0.1-0.3C108.684,27.4,108.816,27.267,108.95,27.2z M120.35,35.65l0.601-1.95h0.75
			l-1,2.851v2.1H120v-2.1l-1-2.851h0.75L120.35,35.65z M116.75,33.7l1.05,3v-3h0.75v4.95h-0.7l-1.1-3v3h-0.7V33.7H116.75z
			 M111.75,36.6v-0.4l-0.05-0.3c-0.067-0.066-0.167-0.1-0.301-0.1c-0.1,0-0.183,0.033-0.25,0.1l-0.1,0.3v0.4H111.75z M112.2,35.4
			l0.199,0.351L112.5,36.2v0.95h-1.45v0.5l0.1,0.25l0.25,0.101c0.134,0,0.233-0.034,0.301-0.101l0.05-0.25h0.75l-0.101,0.4
			L112.2,38.4l-0.351,0.25l-0.45,0.05c-0.199,0-0.383-0.05-0.55-0.149c-0.166-0.066-0.283-0.184-0.35-0.351l-0.101-0.3l-0.05-0.399
			v-1.2l0.05-0.4l0.101-0.3c0.033-0.134,0.149-0.267,0.35-0.4c0.101-0.066,0.283-0.1,0.55-0.1l0.45,0.05
			C111.95,35.183,112.066,35.267,112.2,35.4z M113.399,29.95v0.7h-0.75v-0.7H113.399z M112.25,30.7l-0.45-0.05
			c-0.134,0-0.25-0.05-0.35-0.149c-0.067-0.034-0.134-0.134-0.2-0.301l-0.05-0.5v-4h0.699v3.95l0.051,0.3l0.3,0.101V30.7z
			 M115.6,25.7h0.75v4.95h-0.75V25.7z M119.149,27.45l0.301-0.25c0.066-0.066,0.216-0.1,0.449-0.1h0.25l0.25,0.15l0.2,0.3
			l0.05,0.399v2.7h-0.699V28.2c0-0.133-0.034-0.233-0.101-0.3l-0.25-0.1c-0.1,0-0.184,0.033-0.25,0.1
			c-0.066,0.134-0.1,0.267-0.1,0.4v2.35h-0.7V28.2l-0.1-0.3l-0.25-0.1c-0.134,0-0.233,0.033-0.301,0.1l-0.05,0.4v2.35h-0.75V27.1
			h0.75v0.35l0.25-0.25c0.066-0.066,0.2-0.1,0.4-0.1s0.333,0.033,0.399,0.1L119.149,27.45z M89.45,35.1H90l0.35,2.2h0.05l0.4-2.2
			h0.75l-0.85,3.55H90.1l-0.399-2.1l-0.4,2.1h-0.65L87.8,35.1h0.8l0.4,2.2h0.05L89.45,35.1z M86.05,36.2v0.4h0.7v-0.4l-0.101-0.3
			c-0.066-0.066-0.149-0.1-0.25-0.1c-0.133,0-0.216,0.033-0.25,0.1C86.083,35.933,86.05,36.034,86.05,36.2z M85.3,36.3l0.05-0.4
			l0.101-0.3l0.35-0.4c0.1-0.066,0.3-0.1,0.6-0.1l0.45,0.05l0.3,0.25l0.2,0.351L87.45,36.2v0.95h-1.4v0.5
			c0,0.134,0.033,0.217,0.1,0.25C86.217,37.966,86.3,38,86.399,38l0.25-0.101l0.101-0.25h0.7l-0.101,0.4l-0.2,0.35l-0.35,0.25
			l-0.4,0.05c-0.233,0-0.433-0.05-0.6-0.149c-0.1-0.033-0.217-0.15-0.35-0.351l-0.101-0.3L85.3,37.5V36.3z M83.899,36.7v-3h0.75
			v4.95H83.95l-1.101-3v3h-0.7V33.7h0.7L83.899,36.7z M81.7,27.1v3.55h-0.75V30.3l-0.25,0.3l-0.4,0.1L80,30.65
			c-0.066,0-0.15-0.05-0.25-0.149l-0.15-0.25l-0.05-0.4V27.1h0.7v2.45l0.1,0.35L80.6,30c0.167,0,0.267-0.051,0.3-0.15l0.051-0.35
			v-2.4H81.7z M83.55,27.2c0.1-0.066,0.267-0.1,0.5-0.1v0.75l-0.2-0.05l-0.25,0.05l-0.25,0.1L83.2,28.2L83.1,28.55v2.1h-0.7V27.1
			h0.7v0.4L83.55,27.2z M87.75,26l0.1,0.149l0.101,0.2l0.05,0.3v0.8l-0.05,0.301L87.8,27.9l-0.25,0.2c0.066,0.033,0.15,0.1,0.25,0.2
			c0.033,0.033,0.083,0.1,0.15,0.2L88,28.8v0.85l-0.101,0.45l-0.1,0.15c-0.033,0.1-0.15,0.216-0.35,0.35l-0.5,0.1L86.6,30.65
			l-0.35-0.2c-0.134-0.066-0.217-0.166-0.25-0.3c-0.066-0.1-0.101-0.267-0.101-0.5V29.25h0.7v0.35c0,0.134,0.033,0.233,0.101,0.3
			L86.95,30L87.2,29.9l0.1-0.3v-0.7l-0.05-0.25L87.2,28.5L86.7,28.4v-0.6c0.233,0,0.383-0.033,0.449-0.101
			c0.101-0.033,0.15-0.149,0.15-0.35V26.7l-0.1-0.25l-0.25-0.1c-0.067,0-0.167,0.033-0.301,0.1L86.6,26.7v0.4h-0.7v-0.4L85.95,26.3
			l0.25-0.351l0.35-0.199c0.066-0.067,0.2-0.101,0.4-0.101l0.5,0.101L87.75,26z M90.75,26.35h-1.4v1.35l0.25-0.149l0.351-0.101
			c0.199,0,0.383,0.084,0.55,0.25c0.166,0.167,0.25,0.384,0.25,0.65v1.3l-0.101,0.45l-0.199,0.3L90.1,30.65L89.7,30.7l-0.4-0.05
			c-0.1-0.033-0.217-0.116-0.35-0.25l-0.25-0.3L88.6,29.65v-0.2h0.75v0.15c0,0.167,0.033,0.267,0.101,0.3L89.7,30l0.25-0.101
			l0.1-0.3v-1.15l-0.1-0.25l-0.25-0.1l-0.15,0.05l-0.1,0.05L89.35,28.3v0.05H88.7V25.7h2.05V26.35z M100.399,35.1l0.45,0.05
			c0.101,0.033,0.217,0.117,0.351,0.25l0.199,0.351l0.051,0.449h-0.7l-0.101-0.3c-0.033-0.066-0.116-0.1-0.25-0.1
			c-0.133,0-0.216,0.033-0.25,0.1l-0.1,0.3v1.45l0.1,0.25l0.25,0.101c0.167,0,0.25-0.034,0.25-0.101l0.101-0.25h0.7l-0.051,0.4
			L101.2,38.4l-0.351,0.25l-0.45,0.05c-0.199,0-0.383-0.05-0.55-0.149c-0.133-0.033-0.267-0.15-0.399-0.351l-0.101-0.3v-2l0.101-0.3
			l0.399-0.4C99.95,35.133,100.133,35.1,100.399,35.1z M97.3,35.9l-0.1,0.3v1.4l0.1,0.3L97.55,38L97.8,37.9
			c0.066-0.033,0.1-0.133,0.1-0.3v-1.4c0-0.166-0.033-0.267-0.1-0.3c-0.033-0.066-0.116-0.1-0.25-0.1S97.333,35.833,97.3,35.9z
			 M97.55,35.1c0.3,0,0.5,0.033,0.6,0.1l0.351,0.4l0.1,0.3l0.05,0.4v1.2L98.6,37.9l-0.1,0.3c-0.134,0.2-0.25,0.317-0.351,0.351
			c-0.133,0.1-0.333,0.149-0.6,0.149c-0.2,0-0.384-0.05-0.55-0.149c-0.167-0.066-0.283-0.184-0.351-0.351l-0.1-0.3L96.5,37.5v-1.2
			l0.05-0.4l0.1-0.3c0.034-0.134,0.15-0.267,0.351-0.4C97.1,35.133,97.283,35.1,97.55,35.1z M94.649,36.55H94.2v2.1h-0.7V33.7h1.149
			c0.834,0,1.25,0.483,1.25,1.45c0,0.3-0.05,0.55-0.149,0.75c-0.101,0.167-0.25,0.334-0.45,0.5l0.75,2.25H95.3L94.649,36.55z
			 M95.2,35.15l-0.051-0.35l-0.1-0.25l-0.15-0.15l-0.35-0.05H94.2v1.55H94.6l0.3-0.05l0.2-0.15L95.2,35.15z M93.1,30.1v-0.35
			l-0.05-0.15l-0.1-0.05L92.8,29.6l-0.05,0.15v0.35l0.05,0.15l0.15,0.05l0.1-0.05L93.1,30.1z M92.5,29.3
			c0.1-0.101,0.25-0.15,0.45-0.15c0.166,0,0.3,0.05,0.399,0.15c0.134,0.133,0.2,0.267,0.2,0.399v0.5c0,0.101-0.066,0.217-0.2,0.351
			c-0.1,0.1-0.233,0.149-0.399,0.149c-0.2,0-0.351-0.05-0.45-0.149c-0.101-0.101-0.15-0.217-0.15-0.351v-0.5
			C92.35,29.534,92.399,29.4,92.5,29.3z M91.95,26.25l-0.051-0.15l-0.1-0.05l-0.15,0.05l-0.05,0.15v0.35l0.05,0.15l0.15,0.05
			l0.1-0.05l0.051-0.15V26.25z M91.35,25.8c0.101-0.101,0.25-0.15,0.45-0.15c0.167,0,0.3,0.05,0.4,0.15
			c0.133,0.1,0.199,0.233,0.199,0.399v0.45c0,0.167-0.066,0.3-0.199,0.4c-0.101,0.1-0.233,0.149-0.4,0.149
			c-0.2,0-0.35-0.05-0.45-0.149c-0.1-0.101-0.149-0.233-0.149-0.4V26.2C91.2,26.034,91.25,25.9,91.35,25.8z M93,25.7h0.45l-1.7,4.95
			h-0.5L93,25.7z M98.7,30.5c-0.067-0.034-0.134-0.134-0.2-0.301l-0.101-0.5v-4h0.75v3.95l0.051,0.3l0.3,0.101V30.7l-0.45-0.05
			C98.916,30.65,98.8,30.6,98.7,30.5z M96.25,28.9h0.7L96.6,27.1L96.25,28.9z M96.3,25.7h0.6L98,30.65h-0.7l-0.2-1.05h-1l-0.2,1.05
			H95.2L96.3,25.7z M100.45,27.2c0.1-0.066,0.283-0.1,0.55-0.1l0.45,0.05c0.1,0.033,0.216,0.117,0.35,0.25l0.2,0.351l0.05,0.449
			h-0.7l-0.1-0.3c-0.033-0.066-0.117-0.1-0.25-0.1c-0.134,0-0.217,0.033-0.25,0.1l-0.101,0.3v1.45l0.101,0.25L101,30
			c0.166,0,0.25-0.034,0.25-0.101l0.1-0.25h0.7l-0.05,0.4l-0.2,0.35l-0.35,0.25L101,30.7c-0.2,0-0.384-0.05-0.55-0.149
			c-0.134-0.033-0.267-0.15-0.4-0.351l-0.1-0.3v-2l0.1-0.3L100.45,27.2z M81.899,0.1v12.35H80.2L77.5,5v7.45h-1.8V0.1h1.699
			l2.7,7.45V0.1H81.899z M100.149,19.25l0.15,0.3l0.1,0.4v2.7h-0.75V20.2l-0.05-0.3c-0.133-0.066-0.233-0.1-0.3-0.1l-0.25,0.1
			c-0.066,0.133-0.1,0.267-0.1,0.4v2.35h-0.7V19.1h0.7v0.35H99l0.25-0.25c0.066-0.067,0.2-0.1,0.399-0.1h0.25L100.149,19.25z
			 M95.6,19.6l0.351-0.4c0.1-0.067,0.283-0.1,0.55-0.1l0.45,0.05l0.35,0.25l0.2,0.35l0.1,0.45v0.95h-1.45v0.5l0.101,0.25L96.5,22
			c0.133,0,0.233-0.034,0.3-0.101l0.05-0.25h0.75l-0.1,0.4l-0.2,0.35l-0.35,0.25L96.5,22.7c-0.2,0-0.384-0.05-0.55-0.149
			C95.85,22.517,95.733,22.4,95.6,22.2l-0.1-0.3L95.45,21.5v-1.2l0.05-0.4L95.6,19.6z M96.149,20.2v0.4h0.7v-0.4l-0.05-0.3
			c-0.066-0.066-0.167-0.1-0.3-0.1c-0.101,0-0.184,0.033-0.25,0.1L96.149,20.2z M92.5,18.05h0.75v1.05h0.399v0.6H93.25v2.15l0.1,0.1
			L93.45,22h0.199v0.649h-0.3L92.95,22.6l-0.25-0.2l-0.15-0.3l-0.05-0.25V19.7h-0.351v-0.6H92.5V18.05z M88.2,19.8
			c-0.134,0-0.233,0.033-0.301,0.1l-0.05,0.3v0.4h0.7v-0.4l-0.1-0.3C88.383,19.833,88.3,19.8,88.2,19.8z M88.6,19.15
			c0.101,0.034,0.217,0.117,0.351,0.25l0.199,0.35l0.101,0.45v0.95h-1.4v0.5l0.05,0.25C88.033,21.966,88.133,22,88.2,22l0.25-0.101
			l0.1-0.25h0.7l-0.101,0.4L88.95,22.4L88.6,22.65L88.2,22.7c-0.233,0-0.434-0.05-0.601-0.149c-0.1-0.033-0.217-0.15-0.35-0.351
			l-0.101-0.3L87.1,21.5v-1.2l0.05-0.4l0.101-0.3l0.35-0.4c0.101-0.067,0.3-0.1,0.601-0.1L88.6,19.15z M90.6,19.85
			c-0.066,0.067-0.1,0.15-0.1,0.25l0.05,0.2l0.65,0.35c0.233,0.066,0.416,0.2,0.55,0.4c0.1,0.2,0.149,0.399,0.149,0.6l-0.05,0.4
			L91.6,22.4l-0.35,0.25l-0.4,0.05l-0.399-0.05l-0.351-0.2l-0.2-0.35c-0.066-0.1-0.1-0.25-0.1-0.45h0.65l0.1,0.25
			c0.066,0.101,0.167,0.15,0.3,0.15l0.25-0.101l0.15-0.3l-0.101-0.25l-0.25-0.2l-0.35-0.1c-0.233-0.1-0.417-0.233-0.55-0.4
			c-0.134-0.199-0.2-0.399-0.2-0.6l0.1-0.4l0.25-0.35l0.301-0.2l0.399-0.05l0.4,0.05l0.35,0.2l0.2,0.35l0.1,0.4H91.2L91.1,19.85
			l-0.25-0.1L90.6,19.85z M81.6,19.15l0.351,0.25l0.199,0.35L82.2,20.2v0.95h-1.4v0.5l0.1,0.25L81.149,22
			c0.101,0,0.184-0.034,0.25-0.101l0.101-0.25h0.7l-0.051,0.4l-0.25,0.35l-0.3,0.25l-0.45,0.05c-0.199,0-0.383-0.05-0.55-0.149
			c-0.133-0.033-0.267-0.15-0.399-0.351L80.1,21.9v-2l0.101-0.3c0.133-0.2,0.267-0.333,0.399-0.4c0.101-0.067,0.283-0.1,0.55-0.1
			L81.6,19.15z M81.399,19.9c-0.033-0.066-0.116-0.1-0.25-0.1c-0.133,0-0.216,0.033-0.25,0.1c-0.066,0.067-0.1,0.167-0.1,0.3v0.4
			h0.7v-0.4L81.399,19.9z M85.05,20.2v1.351c0,0.166,0.033,0.267,0.1,0.3c0.067,0.1,0.15,0.15,0.25,0.15
			c0.134,0,0.217-0.051,0.25-0.15l0.101-0.35V20.2l-0.101-0.3l-0.25-0.1l-0.25,0.1C85.083,19.934,85.05,20.033,85.05,20.2z
			 M84.3,17.7h0.75v1.75c0.033-0.1,0.134-0.2,0.3-0.3L85.7,19.1l0.399,0.05l0.25,0.25l0.101,0.3v1.9l-0.051,0.5l-0.05,0.25
			C86.217,22.583,86,22.7,85.7,22.7l-0.4-0.1l-0.25-0.25v0.3H84.3V17.7z M89.35,1.75c0.134,0.3,0.2,0.65,0.2,1.05v0.85H87.8v-0.4
			c0-0.4-0.1-0.75-0.3-1.05c-0.2-0.3-0.517-0.45-0.95-0.45c-0.233,0-0.434,0.05-0.6,0.15c-0.2,0.133-0.334,0.25-0.4,0.35l-0.15,0.5
			l-0.05,1.2L85.5,4.4c0.066,0.167,0.166,0.267,0.3,0.3L86.35,5L87.7,5.55c0.399,0.167,0.716,0.333,0.949,0.5
			C88.916,6.283,89.1,6.533,89.2,6.8c0.166,0.267,0.267,0.566,0.3,0.9l0.05,1.2c0,0.534-0.05,1.017-0.15,1.45
			c-0.1,0.4-0.267,0.783-0.5,1.15c-0.267,0.367-0.583,0.617-0.949,0.75c-0.4,0.2-0.884,0.3-1.45,0.3c-0.367,0-0.767-0.083-1.2-0.25
			c-0.4-0.167-0.717-0.367-0.95-0.6c-0.3-0.3-0.517-0.6-0.649-0.9c-0.134-0.367-0.2-0.767-0.2-1.2V8.95h1.75V9.5
			c0,0.367,0.1,0.667,0.3,0.9c0.2,0.267,0.517,0.4,0.95,0.4c0.333,0,0.566-0.05,0.7-0.15c0.199-0.133,0.333-0.25,0.399-0.35
			c0.101-0.3,0.15-0.5,0.15-0.6l0.05-0.75l-0.05-0.8c0-0.233-0.05-0.4-0.15-0.5c0-0.033-0.1-0.15-0.3-0.35l-1.8-0.75
			c-0.767-0.3-1.283-0.717-1.55-1.25c-0.267-0.534-0.4-1.184-0.4-1.95c0-0.333,0.066-0.767,0.2-1.3l0.55-1.1
			c0.167-0.2,0.483-0.434,0.95-0.7C85.583,0.083,86.033,0,86.6,0c0.5,0,0.9,0.083,1.2,0.25c0.366,0.133,0.684,0.333,0.95,0.6
			L89.35,1.75z M99.1,7.8c0-0.2-0.066-0.4-0.2-0.6C98.767,7,98.616,6.883,98.45,6.85c-0.2-0.1-0.467-0.15-0.801-0.15h-0.75v3.95
			h0.75c0.367,0,0.65-0.05,0.851-0.15s0.35-0.233,0.45-0.4l0.199-0.7L99.1,7.8z M91.25,0.1h1.8v12.35h-1.8V0.1z M97.6,1.75h-0.7v3.4
			h0.75c0.601,0,1-0.15,1.2-0.45c0.2-0.3,0.3-0.733,0.3-1.3c0-0.533-0.1-0.95-0.3-1.25C98.583,1.883,98.166,1.75,97.6,1.75z
			 M99.149,0.35c0.367,0.133,0.684,0.367,0.95,0.7c0.3,0.333,0.483,0.667,0.55,1c0.134,0.3,0.2,0.683,0.2,1.15v0.45l-0.1,0.85
			c-0.033,0.2-0.117,0.4-0.25,0.6l-0.351,0.5L99.6,5.95c0.434,0.2,0.75,0.5,0.95,0.9c0.2,0.367,0.3,0.883,0.3,1.55v0.7
			c0,1.033-0.267,1.85-0.8,2.45c-0.533,0.6-1.384,0.9-2.55,0.9h-2.4V0.1H97.7C98.233,0.1,98.717,0.184,99.149,0.35z M111.2,20.2
			V21.5l0.1,0.35c0.066,0.1,0.15,0.15,0.25,0.15c0.134,0,0.217-0.051,0.25-0.15c0.066-0.033,0.1-0.134,0.1-0.3V20.2
			c0-0.167-0.033-0.266-0.1-0.3l-0.25-0.1c-0.1,0-0.184,0.033-0.25,0.1L111.2,20.2z M109.1,20.6v-0.4c0-0.167-0.033-0.266-0.1-0.3
			c-0.033-0.066-0.117-0.1-0.25-0.1c-0.134,0-0.217,0.033-0.25,0.1l-0.101,0.3v0.4H109.1z M109.2,19.15l0.35,0.25l0.2,0.35l0.1,0.45
			v0.95h-1.45v0.5l0.101,0.25L108.75,22c0.133,0,0.233-0.034,0.3-0.101l0.05-0.25h0.75l-0.1,0.4l-0.2,0.35l-0.35,0.25l-0.45,0.05
			c-0.2,0-0.384-0.05-0.55-0.149c-0.167-0.066-0.284-0.184-0.351-0.351l-0.1-0.3L107.7,21.5v-1.2l0.05-0.4l0.1-0.3
			c0.033-0.133,0.15-0.267,0.351-0.4c0.1-0.067,0.283-0.1,0.55-0.1L109.2,19.15z M110.85,19.15l0.4-0.05l0.35,0.05l0.3,0.3V17.7
			h0.75v4.95h-0.75v-0.3l-0.1,0.15l-0.15,0.1l-0.199,0.1h-0.2c-0.3,0-0.517-0.116-0.65-0.35l-0.1-0.25v-2.4l0.1-0.3L110.85,19.15z
			 M101.85,23.05c0,0.3-0.116,0.566-0.35,0.8c-0.233,0.167-0.517,0.25-0.851,0.25v-0.65l0.25-0.05L101,23.3l0.1-0.2v-4h0.75V23.05z
			 M104.899,19.1h0.75l0.5,2.25l0.5-2.25h0.75l-1.05,4.2L106.2,23.7l-0.25,0.25l-0.25,0.101l-0.351,0.05H105.2v-0.65h0.149
			l0.15-0.05l0.149-0.1l0.25-0.8L104.899,19.1z M103.899,21.6v-1.4c0-0.167-0.033-0.266-0.1-0.3c-0.033-0.066-0.116-0.1-0.25-0.1
			s-0.217,0.033-0.25,0.1l-0.1,0.3v1.4l0.1,0.3L103.55,22l0.25-0.101C103.866,21.867,103.899,21.767,103.899,21.6z M104.149,19.2
			l0.351,0.4l0.1,0.3v2l-0.1,0.3c-0.134,0.2-0.25,0.317-0.351,0.351c-0.199,0.1-0.399,0.149-0.6,0.149s-0.384-0.05-0.55-0.149
			c-0.167-0.066-0.283-0.184-0.351-0.351l-0.149-0.3v-2l0.149-0.3c0.034-0.133,0.15-0.267,0.351-0.4c0.1-0.067,0.283-0.1,0.55-0.1
			S104.017,19.133,104.149,19.2z M101.85,17.7v0.7h-0.75v-0.7H101.85z M102.85,0.1h1.75v10.55h3.5v1.8h-5.25V0.1z M112,0.1h1.85
			l-2.399,7.1v5.25h-1.801V7.2l-2.399-7.1h1.85l1.45,4.9L112,0.1z M125.6,28.2c0-0.166-0.033-0.267-0.1-0.3
			c-0.033-0.066-0.117-0.1-0.25-0.1c-0.134,0-0.217,0.033-0.25,0.1l-0.101,0.3v1.4L125,29.9L125.25,30l0.25-0.101
			c0.066-0.033,0.1-0.133,0.1-0.3V28.2z M122.2,27.9L122.1,28.25v1.35l0.101,0.3L122.45,30c0.166,0,0.267-0.051,0.3-0.15l0.05-0.3
			v-1.3l-0.05-0.351c-0.066-0.066-0.167-0.1-0.3-0.1L122.2,27.9z M123.399,27.4l0.101,0.3l0.05,0.5v1.351l-0.05,0.55l-0.101,0.3
			l-0.199,0.2c-0.067,0.066-0.2,0.1-0.4,0.1s-0.333-0.033-0.4-0.1l-0.25-0.25h-0.05v1.75h-0.7v-5h0.7v0.35l0.3-0.25
			c0.067-0.066,0.2-0.1,0.4-0.1C123.1,27.1,123.3,27.2,123.399,27.4z M124.35,27.6c0.033-0.134,0.15-0.267,0.351-0.4
			c0.1-0.066,0.283-0.1,0.55-0.1s0.467,0.033,0.6,0.1l0.351,0.4l0.1,0.3l0.05,0.4v1.2L126.3,29.9l-0.1,0.3
			c-0.134,0.2-0.25,0.317-0.351,0.351c-0.2,0.1-0.399,0.149-0.6,0.149s-0.384-0.05-0.55-0.149c-0.167-0.066-0.284-0.184-0.351-0.351
			l-0.1-0.3L124.2,29.5v-1.2l0.05-0.4L124.35,27.6z M127.7,27.5l0.449-0.301c0.067-0.066,0.233-0.1,0.5-0.1v0.75l-0.199-0.05
			l-0.25,0.05l-0.25,0.1c-0.101,0.101-0.15,0.184-0.15,0.25l-0.1,0.351v2.1H127V27.1h0.7V27.5z M129.8,26.05v1.05h0.45v0.6h-0.45
			v2.15l0.1,0.1L130.05,30h0.2v0.649h-0.3l-0.4-0.05l-0.3-0.2l-0.101-0.3l-0.05-0.25V27.7H128.7v-0.6h0.399v-1.05H129.8z M132,28.2
			l-0.101-0.3c-0.033-0.066-0.116-0.1-0.25-0.1c-0.133,0-0.216,0.033-0.25,0.1l-0.1,0.3v0.4h0.7V28.2z M134.149,27.9l-0.05,0.3V29.5
			c0,0.166,0.033,0.283,0.101,0.35c0.066,0.1,0.149,0.15,0.25,0.15c0.133,0,0.216-0.051,0.25-0.15c0.066-0.066,0.1-0.167,0.1-0.3
			V28.2c0-0.133-0.033-0.233-0.1-0.3l-0.25-0.1C134.316,27.8,134.217,27.833,134.149,27.9z M132.45,27.4l0.199,0.351L132.7,28.2
			v0.95h-1.4v0.5l0.1,0.25l0.25,0.101c0.101,0,0.184-0.034,0.25-0.101L132,29.65h0.7l-0.051,0.4l-0.199,0.35l-0.351,0.25l-0.45,0.05
			c-0.199,0-0.383-0.05-0.55-0.149c-0.133-0.033-0.267-0.15-0.399-0.351l-0.101-0.3v-2l0.101-0.3c0.133-0.2,0.267-0.333,0.399-0.4
			c0.101-0.066,0.283-0.1,0.55-0.1l0.45,0.05C132.2,27.183,132.316,27.267,132.45,27.4z M134.8,25.7h0.7v4.95h-0.7v-0.3l-0.25,0.25
			l-0.2,0.1h-0.25c-0.3,0-0.5-0.116-0.6-0.35l-0.101-0.25v-2.4l0.101-0.3l0.2-0.25l0.449-0.05l0.351,0.05l0.3,0.3V25.7z"/>
	</g>
</g>
</svg>
