<svg xmlns="http://www.w3.org/2000/svg" width="131" height="9" viewBox="0 0 131 9"><style type="text/css">.st0{fill:#FFFFFF;}</style><path class="st0" d="M4.201 7.559c-1.589 0-2.516-1.143-2.516-3.081v-.097c0-1.926.987-3.105 2.504-3.105 1.24 0 1.878.59 2.058 1.733h1.625c-.193-2.022-1.721-3.009-3.695-3.009-2.396 0-4.177 1.805-4.177 4.393v.097c0 2.648 1.505 4.369 4.201 4.369 2.046 0 3.515-1.047 3.767-3.117h-1.564c-.169 1.215-1.012 1.817-2.203 1.817zm10.28-7.547c-2.552 0-4.357 1.866-4.357 4.381v.097c0 2.48 1.721 4.369 4.357 4.369 2.612 0 4.333-1.89 4.333-4.405v-.097c0-2.527-1.77-4.345-4.333-4.345zm2.672 4.454c0 1.866-1.023 3.106-2.648 3.106-1.565 0-2.708-1.216-2.708-3.093v-.098c0-1.854.999-3.093 2.684-3.093s2.672 1.312 2.672 3.081v.097zm8.811 1.54l-2.263-5.874h-2.143v8.606h1.444v-6.5l2.612 6.5h.518l2.564-6.5v6.5h1.601v-8.606h-2.118l-2.215 5.874zm9.112-1.047h3.033v-1.204h-3.033v-2.359h3.78v-1.264h-5.38v8.606h5.585v-1.263h-3.984v-2.516zm10.75 3.78h1.613v-8.607h-1.613v8.607zm10.387-2.384l-3.623-6.223h-1.914v8.606h1.456v-6.595l3.876 6.596h1.661v-8.607h-1.456v6.223zm10.918-6.223l-2.877 8.606h1.505l.674-2.13h3.286l.686 2.13h1.661l-2.841-8.606h-2.094zm-.325 5.309l1.276-3.996 1.264 3.996h-2.54zm13.313.914l-3.623-6.223h-1.914v8.606h1.456v-6.595l3.876 6.596h1.661v-8.607h-1.456v6.223zm7.246-6.223h-2.612v8.606h2.588c3.021 0 4.478-1.781 4.478-4.285v-.108c0-2.503-1.456-4.213-4.454-4.213zm2.781 4.334c0 1.902-.927 3.009-2.853 3.009h-.939v-6.079h.927c2.022 0 2.865 1.119 2.865 2.973v.097zm11.495-.843c-1.493-.217-1.781-.566-1.781-1.264 0-.662.506-1.131 1.481-1.131.987 0 1.505.385 1.661 1.288h1.468c-.169-1.649-1.276-2.492-3.13-2.492-1.794 0-2.997 1.059-2.997 2.468 0 1.613.975 2.239 3.033 2.516 1.396.229 1.793.53 1.793 1.324s-.674 1.324-1.625 1.324c-1.456 0-1.806-.722-1.914-1.589h-1.541c.12 1.625 1.107 2.792 3.455 2.792 1.902 0 3.166-1.168 3.166-2.66.001-1.721-1.046-2.299-3.069-2.576zm7.74-3.491l-2.877 8.606h1.505l.674-2.13h3.286l.686 2.13h1.661l-2.841-8.606h-2.094zm-.325 5.309l1.276-3.996 1.264 3.996h-2.54zm10.136 1.673l-2.239-6.981h-1.673l2.901 8.606h1.854l2.913-8.606h-1.505l-2.251 6.981zm7.824.361v-2.516h3.033v-1.204h-3.033v-2.359h3.78v-1.264h-5.38v8.606h5.584v-1.263h-3.984z"/></svg>