<?xml version="1.0" encoding="utf-8"?>
<!-- Generator: Adobe Illustrator 19.1.0, SVG Export Plug-In . SVG Version: 6.00 Build 0)  -->
<svg version="1.1" id="Layer_1" xmlns="http://www.w3.org/2000/svg" xmlns:xlink="http://www.w3.org/1999/xlink" x="0px" y="0px"
	 width="17px" height="20px" viewBox="-219 503.1 17 20" style="enable-background:new -219 503.1 17 20;" xml:space="preserve">
<style type="text/css">
	.st0{fill:#98AEFF;}
</style>
<path class="st0" d="M-202.1,516.9c0,0.6-0.2,1.1-0.5,1.5c-0.3,0.4-0.8,0.6-1.3,0.6c-0.7,0-1.5-0.3-2.2-1c-0.7-0.6-1.8-1.6-3.2-2.9
	c0.2,1.6,0.4,2.8,0.5,3.5c0.2,0.7,0.2,1.4,0.2,2c0,0.7-0.2,1.3-0.6,1.7c-0.4,0.4-0.9,0.6-1.4,0.6c-0.6,0-1-0.2-1.4-0.6
	c-0.3-0.4-0.5-1-0.5-1.7c0-0.6,0.1-1.3,0.2-2c0.1-0.7,0.3-1.9,0.5-3.4c-1.5,1.2-2.5,2.1-3.3,2.7c-0.7,0.7-1.4,1-2.1,1
	c-0.6,0-1-0.2-1.4-0.6c-0.3-0.4-0.5-0.9-0.5-1.5c0-0.9,0.5-1.6,1.5-2c1-0.4,2.7-1,5.2-1.8c-1.2-0.4-2.2-0.8-3.1-1.1
	c-0.8-0.3-1.5-0.6-2.1-0.8c-0.5-0.3-0.9-0.5-1.2-0.8c-0.2-0.3-0.3-0.7-0.3-1.1c0-0.6,0.2-1.1,0.5-1.5c0.3-0.4,0.8-0.6,1.4-0.6
	c0.7,0,1.4,0.3,2.1,0.9c0.7,0.6,1.8,1.5,3.3,2.7c-0.2-1.5-0.4-2.6-0.5-3.4c-0.1-0.7-0.2-1.4-0.2-1.9c0-1.5,0.6-2.3,1.9-2.3
	c0.6,0,1,0.2,1.4,0.6c0.4,0.4,0.6,1,0.6,1.7c0,0.6-0.1,1.3-0.2,2c-0.2,0.7-0.3,1.9-0.5,3.4c1.5-1.2,2.5-2.2,3.2-2.8
	c0.7-0.6,1.4-0.9,2.2-0.9c0.5,0,0.9,0.2,1.3,0.6c0.3,0.4,0.5,0.9,0.5,1.5c0,0.9-0.5,1.5-1.5,1.9c-1,0.4-2.7,1.1-5.1,1.9
	c2.4,0.8,4,1.4,5,1.8C-202.6,515.3-202.1,516-202.1,516.9L-202.1,516.9z"/>
</svg>
