<?xml version="1.0" encoding="utf-8"?>
<!-- Generator: Adobe Illustrator 19.1.0, SVG Export Plug-In . SVG Version: 6.00 Build 0)  -->
<svg version="1.1" id="Layer_1" xmlns="http://www.w3.org/2000/svg" xmlns:xlink="http://www.w3.org/1999/xlink" x="0px" y="0px"
	 width="300px" height="250px" viewBox="-361 388 300 250" style="enable-background:new -361 388 300 250;" xml:space="preserve">
<style type="text/css">
	.st0{fill:#98AEFF;}
</style>
<path class="st0" d="M-173.4,485.7h-1.5c0.1-0.9,0.1-1.8,0.1-2.7c0-15.9-12.8-28.8-28.6-28.8c-14.2,0-25.9,10.4-28.2,24
	c-3.6-1.7-7.7-2.7-12-2.7c-15.4,0-27.9,12.6-27.9,28.1c0,12.6,8.3,23.3,19.6,26.8c2.5,0.9,5.2,1.5,8,1.5h70.4
	c12.7,0,22.9-10.3,22.9-23.1C-150.5,496-160.8,485.7-173.4,485.7L-173.4,485.7z"/>
</svg>
