<svg id="svg_art" xmlns="http://www.w3.org/2000/svg" width="300" height="250" viewBox="0 0 300 250"><style>.lineBlue{ fill:none; stroke:#1D84FA; stroke-width:3; stroke-miterlimit:10; } .lineRed{ fill:none; stroke:#FF43C5; stroke-width:3; stroke-miterlimit:10; }</style><g id="blueGroup"><path class="lineBlue" d="M154.49 86.544h-7.053l-5.643-2.07-7.147 2.256-6.864-.375-1.41 5.36h-1.883c3.668-7.052 8.317-21.836 10.016-29.482 2.44-10.984.564-15.94.564-15.94l-2.082-5.015-.2-.48c-.158-.44-.24-.906-.24-1.385 0-1.13.457-2.172 1.236-3.027l.003-.003c.093-.124 3.15-4.097 5.234-9.56 0 0 2.68 6.115 5.802 9.563.78.855 1.236 1.9 1.236 3.027 0 .48-.082.945-.24 1.385-.237.392-.45.796-.65 1.213-6.175 13.092 6.408 38.513 6.408 38.513l1.882-.093 1.032 6.114zM197.47 114.662c-.518 4.75-.893 4.985-4.56 9.64l-3.246-3.62-9.31-1.034-11.57 1.035-7.476 4.043c-1.653-1.196-2.81-2.53-3.59-3.93-4.06-7.29 2.165-16.406 2.828-17.34.017-.017.034-.037.045-.062.01-.01.012-.017.012-.017.564-1.13 2.446-3.668 5.268-5.925 7.71-6.16 6.816-17.32 6.816-17.32s-.798-.612-.798-1.667c0-.748.4-1.715 1.763-2.847 3.294 2.728 1.248 4.25 1.248 4.25 1.033 10.156 6.49 14.013 8.84 15.61 15.236 8.088 13.733 19.184 13.733 19.184z"/><path class="lineBlue" d="M220.648 191.105l-18.88-.655-.89-.41c-.635-2.256 1.48-4.107 1.48-4.107l-2.96-2.946-1.553-22.007s.14-6.207 1.552-7.618c0 0 0-9.36-3.104-10.18h-2.54s-4.513-14.225-.845-18.88c3.668-4.656 4.043-4.89 4.562-9.642 1.597 3.293 5.265 7.15 7.9 9.31 15.046 10.536 2.54 19.847 2.54 19.847.94 2.35-1.13 2.82-1.13 2.82 3.29 5.173-1.224 8.558-1.224 8.558l1.41 7.053 1.412 1.6 1.975-.282.846 4.89 1.692 2.82-1.033 1.41 1.314 14.39 4.14 1.222v1.318c1.53 1.102 2.705 1.407 3.334 1.49zM83.58 123.3l-1.834-1.835s-4.602-4.98 2.116-13.12c3.25-3.935 8.887-6.065 10.72-17.633 0 0-1.974-.564.706-3.527 0 0 .248-.268.423-.265.165 0 .424.282.424.282 2.68 2.962.705 3.527.705 3.527 1.833 11.567 7.47 13.697 10.72 17.633 6.718 8.14 2.116 13.12 2.116 13.12l-1.834 1.833-2.446-1.6-8.464-1.033-10.343 1.315M120.4 165.213s-1.13 1.72-1.13 4.232l-9.452 26.52V212H74.693s.494-53.206 0-54.052c-.494-.846-1.13-1.34-1.13-1.34l2.117-1.2c.282-4.02 1.975-8.268 1.975-8.268.705-1.975 2.54-1.27 2.54-1.27s.752.674.94 3.214c0 0 5.55-12.806 15.14-1.605 0 0 6.772-10.432 14.2.665 0 0 .05-1.622.754-2.257 0 0 1.833-.705 2.538 1.27 1.552 5.36 3.104 3.81 3.104 3.81-3.527-4.515-.705-10.158-.705-10.158s-.987 6.63 4.232 10.016c0-.002 5.078 5.5 0 14.387z"/><path class="lineBlue" d="M110.476 148.144c-7.43-11.096-14.2-.666-14.2-.666-9.593-11.2-15.142 1.605-15.142 1.605-.186-2.54-.94-3.214-.94-3.214v-2.258s1.693-.705 1.693-2.54 1.41 1.835 3.245-.986v-10.298l-2.54-4.514 4-3.276 10.342-1.315 8.464 1.033 2.446 1.6.987 1.975-2.538 4.515v10.298c1.834 2.82 3.245-.846 3.245.987 0 1.834 1.693 2.54 1.693 2.54v2.256c-.706.635-.754 2.258-.754 2.258zM119.27 131.64c-.564-1.27-3.104-4.233-3.104-4.233l1.27-.987v-2.398h1.975c.633-6.67 1.615-12.747 2.44-17.165 0 0 0-.003.004-.01.832-4.46 1.507-7.23 1.507-7.23.36-1.703.162-2.95-.273-3.86-.934-1.954-2.97-2.346-2.97-2.346l4.372-1.692h1.88l1.412-5.36 6.864.374 7.147-2.257 5.643 2.07h7.053l1.88 1.034-.092 3.385 4.325 2.728c-1.04.285-1.68 1.213-2.054 2.065-.37.838-.486 1.603-.486 1.603s.883 3.203 1.64 4.98c.338.802.65 1.313.843 1.118-.663.934-6.887 10.05-2.827 17.34l-14.327-1.806-11.243 1.453c-.375-2.192-.466-3.97-.466-3.97 2.046-1.834-.846-3.033-.846-3.033s-2.892 1.2-.846 3.033c0 0-.102 1.966-.525 4.317-.375 2.054-.993 4.4-2.014 5.98-.776.988-3.538 3.375-5.925 5.29-1.77 1.417-3.744 3.674-4.73 5.96.58-1.924 1.344-3.984 1.344-3.984l-.846-1.552 1.974-.847zM162.155 182.988l6.63-2.398 16.224-1.13 11.566 1.13 2.822 2.398M161.896 147.574l-.02.08M160.592 103.394l-.045.062"/><path class="lineBlue" d="M123.086 95.756l5.918-2.347h6.677l6.68-2.258 5.547 2.302h6.584l4.06 2.302M121.85 106.856s2.264-7.9 6.684-2.162c0 0 5.83-11.607 14.107-2.09 0 0 7.525-9.384 14.484 1.902 0 0 1.68-3.205 2.58-2.167M161.873 147.664c-.742 3.06-1.34 5.276-1.34 5.276s1.622 6.49 1.622 12.696v15.8l-15.377-1.41c0-11.315-.19-11.814-2.915-14.672-7.065-7.41-2.587-14.53-2.587-14.53 5.22-3.386 4.232-10.016 4.232-10.016.048-3.067-2.864-6.746-5.36-8.746-2.388-1.916-5.15-4.303-5.926-5.29-1.08-1.67-1.71-4.198-2.074-6.328l11.243-1.453 14.328 1.807c.78 1.4 1.935 2.734 3.59 3.93 0 0 3.667 1.693 3.385 7.76-.17 3.644-1.636 10.29-2.782 15.02-.005.025-.01.048-.016.068l-.02.08v.01zM117.437 126.42l7.053-4.986 4.977-.644M85.132 133.755l2.868-1.88 8.652-1.13 7.148 1.13 2.492 2.538M75.68 155.41l5.22-2.61 14.812-1.553 16.505 1.41 4.373 3.81v2.54s-3.104 1.974-3.245 4.23c-.14 2.258 0 22.697 0 22.697M148.396 191.22l3.744 8.555 9.734 2.257v2.54s-1.552-.142-1.975 1.128c-.424 1.27 0 6.3 0 6.3M120.54 212s.987-3.62-2.116-5.313l-.987-2.116 1.626-.986-4.307-3.81 14.248-4.513"/><path class="lineBlue" d="M161.913 147.506c.274-1.002 2.012-6.31 7.014-1.52 0 0 5.078-9.41 13.825-1.37 0 0 5.643-8.268 12.273 1.37 0 0-.14-2.264 1.27-2.803M160.532 152.94l8.254-3.245 13.966-1.41 11.99 1.693 4.656 3.385M206.45 212v-11.802l.99-1.975-3.41-1.79-2.234-1.172.564-4.536-.592-.274M172.312 212v-16.738l1.552-1.694"/><path class="lineBlue" d="M207.44 198.223l-8.042-2.398-11.004-.564-16.082 1.482M173.864 193.568l-25.47-2.347-8.67-19.8-10.72 23.842-9.734-25.816c0-2.51 1.13-4.232 1.13-4.232 5.077-8.887 0-14.39 0-14.39-5.22-3.385-4.233-10.015-4.233-10.015.023-.59.293-1.66.63-2.777 0-.003 0-.006.002-.01.984-2.286 2.96-4.543 4.728-5.96 2.387-1.916 5.15-4.303 5.925-5.29 1.02-1.58 1.64-3.927 2.014-5.98.423-2.35.525-4.318.525-4.318-2.046-1.834.846-3.033.846-3.033s2.892 1.2.846 3.033c0 0 .09 1.777.466 3.97.364 2.13.993 4.658 2.074 6.328.776.987 3.538 3.374 5.925 5.29 2.496 2 5.408 5.68 5.36 8.746 0 0 .987 6.63-4.232 10.015 0 0-4.478 7.12 2.587 14.53 2.725 2.858 2.915 3.357 2.915 14.67l15.377 1.412v1.552l-3.668 2.945 4.513 3.826 10.86 3.808zM116.167 140.808c-.014-.892.223-1.837.63-2.776M226.436 197.142l-22.406-.708M220.648 191.105h.014l.508.017"/><path class="lineBlue" d="M109.82 212h116.616v-14.858l-5.266-6.02"/></g><g id="redGroup"><path class="lineRed" d="M154.49 86.544h-7.053l-5.643-2.07-7.147 2.256-6.864-.375-1.41 5.36h-1.883c3.668-7.052 8.317-21.836 10.016-29.482 2.44-10.984.564-15.94.564-15.94l-2.082-5.015-.2-.48c-.158-.44-.24-.906-.24-1.385 0-1.13.457-2.172 1.236-3.027l.003-.003c.093-.124 3.15-4.097 5.234-9.56 0 0 2.68 6.115 5.802 9.563.78.855 1.236 1.9 1.236 3.027 0 .48-.082.945-.24 1.385-.237.392-.45.796-.65 1.213-6.175 13.092 6.408 38.513 6.408 38.513l1.882-.093 1.032 6.114zM197.47 114.662c-.518 4.75-.893 4.985-4.56 9.64l-3.246-3.62-9.31-1.034-11.57 1.035-7.476 4.043c-1.653-1.196-2.81-2.53-3.59-3.93-4.06-7.29 2.165-16.406 2.828-17.34.017-.017.034-.037.045-.062.01-.01.012-.017.012-.017.564-1.13 2.446-3.668 5.268-5.925 7.71-6.16 6.816-17.32 6.816-17.32s-.798-.612-.798-1.667c0-.748.4-1.715 1.763-2.847 3.294 2.728 1.248 4.25 1.248 4.25 1.033 10.156 6.49 14.013 8.84 15.61 15.236 8.088 13.733 19.184 13.733 19.184z"/><path class="lineRed" d="M220.648 191.105l-18.88-.655-.89-.41c-.635-2.256 1.48-4.107 1.48-4.107l-2.96-2.946-1.553-22.007s.14-6.207 1.552-7.618c0 0 0-9.36-3.104-10.18h-2.54s-4.513-14.225-.845-18.88c3.668-4.656 4.043-4.89 4.562-9.642 1.597 3.293 5.265 7.15 7.9 9.31 15.046 10.536 2.54 19.847 2.54 19.847.94 2.35-1.13 2.82-1.13 2.82 3.29 5.173-1.224 8.558-1.224 8.558l1.41 7.053 1.412 1.6 1.975-.282.846 4.89 1.692 2.82-1.033 1.41 1.314 14.39 4.14 1.222v1.318c1.53 1.102 2.705 1.407 3.334 1.49zM83.58 123.3l-1.834-1.835s-4.602-4.98 2.116-13.12c3.25-3.935 8.887-6.065 10.72-17.633 0 0-1.974-.564.706-3.527 0 0 .248-.268.423-.265.165 0 .424.282.424.282 2.68 2.962.705 3.527.705 3.527 1.833 11.567 7.47 13.697 10.72 17.633 6.718 8.14 2.116 13.12 2.116 13.12l-1.834 1.833-2.446-1.6-8.464-1.033-10.343 1.315M120.4 165.213s-1.13 1.72-1.13 4.232l-9.452 26.52V212H74.693s.494-53.206 0-54.052c-.494-.846-1.13-1.34-1.13-1.34l2.117-1.2c.282-4.02 1.975-8.268 1.975-8.268.705-1.975 2.54-1.27 2.54-1.27s.752.674.94 3.214c0 0 5.55-12.806 15.14-1.605 0 0 6.772-10.432 14.2.665 0 0 .05-1.622.754-2.257 0 0 1.833-.705 2.538 1.27 1.552 5.36 3.104 3.81 3.104 3.81-3.527-4.515-.705-10.158-.705-10.158s-.987 6.63 4.232 10.016c0-.002 5.078 5.5 0 14.387z"/><path class="lineRed" d="M110.476 148.144c-7.43-11.096-14.2-.666-14.2-.666-9.593-11.2-15.142 1.605-15.142 1.605-.186-2.54-.94-3.214-.94-3.214v-2.258s1.693-.705 1.693-2.54 1.41 1.835 3.245-.986v-10.298l-2.54-4.514 4-3.276 10.342-1.315 8.464 1.033 2.446 1.6.987 1.975-2.538 4.515v10.298c1.834 2.82 3.245-.846 3.245.987 0 1.834 1.693 2.54 1.693 2.54v2.256c-.706.635-.754 2.258-.754 2.258zM119.27 131.64c-.564-1.27-3.104-4.233-3.104-4.233l1.27-.987v-2.398h1.975c.633-6.67 1.615-12.747 2.44-17.165 0 0 0-.003.004-.01.832-4.46 1.507-7.23 1.507-7.23.36-1.703.162-2.95-.273-3.86-.934-1.954-2.97-2.346-2.97-2.346l4.372-1.692h1.88l1.412-5.36 6.864.374 7.147-2.257 5.643 2.07h7.053l1.88 1.034-.092 3.385 4.325 2.728c-1.04.285-1.68 1.213-2.054 2.065-.37.838-.486 1.603-.486 1.603s.883 3.203 1.64 4.98c.338.802.65 1.313.843 1.118-.663.934-6.887 10.05-2.827 17.34l-14.327-1.806-11.243 1.453c-.375-2.192-.466-3.97-.466-3.97 2.046-1.834-.846-3.033-.846-3.033s-2.892 1.2-.846 3.033c0 0-.102 1.966-.525 4.317-.375 2.054-.993 4.4-2.014 5.98-.776.988-3.538 3.375-5.925 5.29-1.77 1.417-3.744 3.674-4.73 5.96.58-1.924 1.344-3.984 1.344-3.984l-.846-1.552 1.974-.847zM162.155 182.988l6.63-2.398 16.224-1.13 11.566 1.13 2.822 2.398M161.896 147.574l-.02.08M160.592 103.394l-.045.062"/><path class="lineRed" d="M123.086 95.756l5.918-2.347h6.677l6.68-2.258 5.547 2.302h6.584l4.06 2.302M121.85 106.856s2.264-7.9 6.684-2.162c0 0 5.83-11.607 14.107-2.09 0 0 7.525-9.384 14.484 1.902 0 0 1.68-3.205 2.58-2.167M161.873 147.664c-.742 3.06-1.34 5.276-1.34 5.276s1.622 6.49 1.622 12.696v15.8l-15.377-1.41c0-11.315-.19-11.814-2.915-14.672-7.065-7.41-2.587-14.53-2.587-14.53 5.22-3.386 4.232-10.016 4.232-10.016.048-3.067-2.864-6.746-5.36-8.746-2.388-1.916-5.15-4.303-5.926-5.29-1.08-1.67-1.71-4.198-2.074-6.328l11.243-1.453 14.328 1.807c.78 1.4 1.935 2.734 3.59 3.93 0 0 3.667 1.693 3.385 7.76-.17 3.644-1.636 10.29-2.782 15.02-.005.025-.01.048-.016.068l-.02.08v.01zM117.437 126.42l7.053-4.986 4.977-.644M85.132 133.755l2.868-1.88 8.652-1.13 7.148 1.13 2.492 2.538M75.68 155.41l5.22-2.61 14.812-1.553 16.505 1.41 4.373 3.81v2.54s-3.104 1.974-3.245 4.23c-.14 2.258 0 22.697 0 22.697M148.396 191.22l3.744 8.555 9.734 2.257v2.54s-1.552-.142-1.975 1.128c-.424 1.27 0 6.3 0 6.3M120.54 212s.987-3.62-2.116-5.313l-.987-2.116 1.626-.986-4.307-3.81 14.248-4.513"/><path class="lineRed" d="M161.913 147.506c.274-1.002 2.012-6.31 7.014-1.52 0 0 5.078-9.41 13.825-1.37 0 0 5.643-8.268 12.273 1.37 0 0-.14-2.264 1.27-2.803M160.532 152.94l8.254-3.245 13.966-1.41 11.99 1.693 4.656 3.385M206.45 212v-11.802l.99-1.975-3.41-1.79-2.234-1.172.564-4.536-.592-.274M172.312 212v-16.738l1.552-1.694"/><path class="lineRed" d="M207.44 198.223l-8.042-2.398-11.004-.564-16.082 1.482M173.864 193.568l-25.47-2.347-8.67-19.8-10.72 23.842-9.734-25.816c0-2.51 1.13-4.232 1.13-4.232 5.077-8.887 0-14.39 0-14.39-5.22-3.385-4.233-10.015-4.233-10.015.023-.59.293-1.66.63-2.777 0-.003 0-.006.002-.01.984-2.286 2.96-4.543 4.728-5.96 2.387-1.916 5.15-4.303 5.925-5.29 1.02-1.58 1.64-3.927 2.014-5.98.423-2.35.525-4.318.525-4.318-2.046-1.834.846-3.033.846-3.033s2.892 1.2.846 3.033c0 0 .09 1.777.466 3.97.364 2.13.993 4.658 2.074 6.328.776.987 3.538 3.374 5.925 5.29 2.496 2 5.408 5.68 5.36 8.746 0 0 .987 6.63-4.232 10.015 0 0-4.478 7.12 2.587 14.53 2.725 2.858 2.915 3.357 2.915 14.67l15.377 1.412v1.552l-3.668 2.945 4.513 3.826 10.86 3.808zM116.167 140.808c-.014-.892.223-1.837.63-2.776M226.436 197.142l-22.406-.708M220.648 191.105h.014l.508.017"/><path class="lineRed" d="M109.82 212h116.616v-14.858l-5.266-6.02"/></g></svg>