<svg xmlns="http://www.w3.org/2000/svg" width="300" height="250" viewBox="0 0 300 250"><path fill="#060000" d="M153.064 108.61h-24.572V87.042h73.517V59.066H99.512v76.32h53.55c9.388 0 26.173 3.2 25.97 18.785 0 15.987-17.975 18.787-25.574 18.787-11.588 0-25.966-4.795-25.966-17.388v-4.604H96.717v4.603c.1 33.16 24.78 44.952 57.147 44.952 25.58 0 55.937-11.987 55.937-46.35.204-36.156-26.77-45.562-56.736-45.562z"/><path class="line0_red" fill="none" stroke="#FF43C5" stroke-miterlimit="10" d="M316.756 59.066h-331.99"/><path class="line0_blue" fill="none" stroke="#1D84FA" stroke-miterlimit="10" d="M316.756 59.066h-331.99"/><path class="line0_black" fill="none" stroke="#000" stroke-miterlimit="10" d="M316.756 59.066h-331.99"/><path class="line1_red" fill="none" stroke="#FF43C5" stroke-miterlimit="10" d="M-25.12 161.548H209.3c-4.037 28.722-31.78 38.974-55.436 38.974-32.368 0-57.046-11.792-57.147-44.953v-4.604h235.616"/><path class="line1_blue" fill="none" stroke="#1D84FA" stroke-miterlimit="10" d="M-25.12 161.548H209.3c-4.037 28.722-31.78 38.974-55.436 38.974-32.368 0-57.046-11.792-57.147-44.953v-4.604h235.616"/><path class="line1_black" fill="none" stroke="#000" stroke-miterlimit="10" d="M-25.12 161.548H209.3c-4.037 28.722-31.78 38.974-55.436 38.974-32.368 0-57.046-11.792-57.147-44.953v-4.604h235.616"/><path class="line2_red" fill="none" stroke="#FF43C5" stroke-miterlimit="10" d="M99.513-18.333v153.72h53.552c9.387 0 26.17 3.2 25.97 18.784 0 15.987-17.976 18.787-25.575 18.787-11.587 0-25.965-4.795-25.965-17.388V-16.248"/><path class="line2_blue" fill="none" stroke="#1D84FA" stroke-miterlimit="10" d="M99.513-18.333v153.72h53.552c9.387 0 26.17 3.2 25.97 18.784 0 15.987-17.976 18.787-25.575 18.787-11.587 0-25.965-4.795-25.965-17.388V-16.248"/><path class="line2_black" fill="none" stroke="#000" stroke-miterlimit="10" d="M99.513-18.333v153.72h53.552c9.387 0 26.17 3.2 25.97 18.784 0 15.987-17.976 18.787-25.575 18.787-11.587 0-25.965-4.795-25.965-17.388V-16.248"/><path class="line3_red" fill="none" stroke="#FF43C5" stroke-miterlimit="10" d="M202.01-13.954V87.042h-73.517v21.568h24.572c29.967 0 56.94 9.406 56.737 45.562v116.795"/><path class="line3_blue" fill="none" stroke="#1D84FA" stroke-miterlimit="10" d="M202.01-13.954V87.042h-73.517v21.568h24.572c29.967 0 56.94 9.406 56.737 45.562v116.795"/><path class="line3_black" fill="none" stroke="#000" stroke-miterlimit="10" d="M202.01-13.954V87.042h-73.517v21.568h24.572c29.967 0 56.94 9.406 56.737 45.562v116.795"/></svg>