<?xml version="1.0" encoding="utf-8"?>
<!-- Generator: Adobe Illustrator 19.2.0, SVG Export Plug-In . SVG Version: 6.00 Build 0)  -->
<!DOCTYPE svg PUBLIC "-//W3C//DTD SVG 1.1//EN" "http://www.w3.org/Graphics/SVG/1.1/DTD/svg11.dtd">
<svg version="1.1" id="Layer_1" xmlns="http://www.w3.org/2000/svg" xmlns:xlink="http://www.w3.org/1999/xlink" x="0px" y="0px"
	 width="893.7px" height="678.3px" viewBox="0 0 893.7 678.3" style="enable-background:new 0 0 893.7 678.3;" xml:space="preserve"
	>
<style type="text/css">
	.st0{fill:#AD1B02;}
	.st1{fill:#D6561B;}
	.st2{fill:#C02515;}
	.st3{fill:#AB1D11;}
	.st4{fill:#BF4417;}
	.st5{fill:#E1732B;}
	.st6{fill:#EE9C34;}
	.st7{fill:#E68B2A;}
	.st8{fill:#F2BB8B;}
	.st9{fill:#F2BD3A;}
	.st10{fill:#CF3A1D;}
	.st11{fill:#D94F25;}
	.st12{fill:#E46BA2;}
</style>
<g>
	<path d="M605.1,448c-28.8,4.6-43.5,25.9-43.5,63.3c0,37.6,19.6,62.8,49.6,62.8c14,0,26.7-4.6,53.4-17.7v30.4
		c-32,14.7-50.9,19.2-76.7,19.2c-27.9,0-47.6-7.4-63.7-23.8c-16.5-16.5-24.7-38.2-24.7-62.4c0-53.8,39.9-90.3,98.1-90.3
		c38.7,0,65.3,17.7,65.3,43.6c0,16.7-12.4,28.2-30.7,28.2c-9.4,0-17.2-2.5-27.1-8.2V448z"/>
	<path d="M463.2,519.8c25.8-32.5,34.9-45.6,34.9-61.6c0-15.9-12.6-28.7-29.5-28.7c-10.4,0-19.7,4.9-24.3,10v66.2l-42.3,56.3V433.7
		h-40.2l-66.8,110.7V433.7H272l-60.6,14.8V464l33.1,3.4v135.8h42.7l64.1-105.3v105.3h46.8L463.2,519.8z"/>
	<path d="M83.8,582.2c4.6,0.2,6.5,0.2,9.4,0.2c34.4,0,52.9-21.5,52.9-62.6c0-34.8-15.1-53.4-43-53.4c-4.6,0-9.5,0.6-19.3,1.8V582.2z
		 M83.8,656.4l27.7,6.2l0,15.7H2.8v-15.7l24.8-6.2V466.5H0v-16.3L66.5,430h17.3v22.7c31.2-18.5,41.9-21.8,57.8-21.8
		c36.9,0,64.1,34,64.1,81.2c0,54.5-36.3,91.1-93.6,91.1c-6.5,0-17.3-0.4-28.4-1.7V656.4z"/>
	<rect x="402.2" y="291.3" class="st0" width="166.4" height="41.6"/>
	<rect x="568.6" y="83.2" class="st1" width="166" height="124.9"/>
	<rect x="568.6" y="208.1" class="st2" width="166" height="83.2"/>
	<rect x="568.6" y="208" class="st3" width="103.8" height="83.2"/>
	<rect x="568.6" y="166.4" class="st4" width="103.8" height="41.7"/>
	<rect x="568.6" y="32.5" class="st5" width="166" height="50.7"/>
	<rect x="568.6" class="st6" width="166" height="32.5"/>
	<rect x="734.6" y="83.2" class="st7" width="32.7" height="124.9"/>
	<rect x="734.6" y="32.5" class="st8" width="32.7" height="50.7"/>
	<rect x="767.3" y="83.2" class="st9" width="84.2" height="124.9"/>
	<rect x="734.6" y="208" class="st10" width="32.7" height="83.2"/>
	<rect x="767.3" y="208" class="st11" width="84.2" height="83.2"/>
	<rect x="851.5" y="208.1" class="st12" width="42.2" height="83.2"/>
</g>
</svg>
