<?xml version="1.0" encoding="utf-8"?>
<!-- Generator: Adobe Illustrator 19.2.1, SVG Export Plug-In . SVG Version: 6.00 Build 0)  -->
<svg version="1.1" id="Layer_1" xmlns="http://www.w3.org/2000/svg" xmlns:xlink="http://www.w3.org/1999/xlink" x="0px" y="0px"
	 viewBox="0 0 300 250" style="enable-background:new 0 0 300 250;" xml:space="preserve">
<style type="text/css">
	.st0{fill:none;stroke:#A52831;stroke-width:2;stroke-miterlimit:10;}
</style>
<path class="st0" d="M0,0l254,254 M6,0l254,254 M12,0l254,254 M18,0l254,254 M24,0l254,254 M30,0l254,254 M36,0l254,254 M42,0
	l254,254 M48,0l254,254 M54,0l254,254 M60,0l254,254 M66,0l254,254 M72,0l254,254 M78,0l254,254 M84,0l254,254 M90,0l254,254 M90,0
	l254,254 M96,0l254,254 M102,0l254,254 M108,0l254,254 M114,0l254,254 M120,0l254,254 M126,0l254,254 M132,0l254,254 M138,0l254,254
	 M144,0l254,254 M150,0l254,254 M156,0l254,254 M162,0l254,254 M168,0l254,254 M174,0l254,254 M180,0l254,254 M180,0l254,254 M186,0
	l254,254 M192,0l254,254 M198,0l254,254 M204,0l254,254 M210,0l254,254 M216,0l254,254 M222,0l254,254 M228,0l254,254 M234,0
	l254,254 M240,0l254,254 M246,0l254,254 M252,0l254,254 M258,0l254,254 M264,0l254,254 M270,0l254,254 M270,0l254,254 M276,0
	l254,254 M282,0l254,254 M288,0l254,254 M294,0l254,254 M300,0l254,254 M306,0l254,254 M312,0l254,254 M318,0l254,254 M324,0
	l254,254 M330,0l254,254 M336,0l254,254 M342,0l254,254 M348,0l254,254 M354,0l254,254 M-246,0L8,254 M-240,0L14,254 M-234,0L20,254
	 M-228,0L26,254 M-222,0L32,254 M-216,0L38,254 M-210,0L44,254 M-204,0L50,254 M-198,0L56,254 M-192,0L62,254 M-186,0L68,254
	 M-180,0L74,254 M-180,0L74,254 M-174,0L80,254 M-168,0L86,254 M-162,0L92,254 M-156,0L98,254 M-150,0l254,254 M-144,0l254,254
	 M-138,0l254,254 M-132,0l254,254 M-126,0l254,254 M-120,0l254,254 M-114,0l254,254 M-108,0l254,254 M-102,0l254,254 M-96,0l254,254
	 M-90,0l254,254 M-90,0l254,254 M-84,0l254,254 M-78,0l254,254 M-72,0l254,254 M-66,0l254,254 M-60,0l254,254 M-54,0l254,254 M-48,0
	l254,254 M-42,0l254,254 M-36,0l254,254 M-30,0l254,254 M-24,0l254,254 M-18,0l254,254 M-12,0l254,254 M-6,0l254,254 M360,0l254,254
	"/>
</svg>
