<svg xmlns="http://www.w3.org/2000/svg" width="300" height="250" viewBox="0 0 300 250"><style type="text/css">.st0{fill:none;stroke:#F4F4F4;stroke-width:2;stroke-miterlimit:10;}</style><path class="st0" d="M0 0l254 254M6 0l254 254M12 0l254 254M18 0l254 254M24 0l254 254M30 0l254 254M36 0l254 254M42 0l254 254M48 0l254 254M54 0l254 254M60 0l254 254M66 0l254 254M72 0l254 254M78 0l254 254M84 0l254 254M90 0l254 254M90 0l254 254M96 0l254 254M102 0l254 254M108 0l254 254M114 0l254 254M120 0l254 254M126 0l254 254M132 0l254 254M138 0l254 254M144 0l254 254M150 0l254 254M156 0l254 254M162 0l254 254M168 0l254 254M174 0l254 254M180 0l254 254M180 0l254 254M186 0l254 254M192 0l254 254M198 0l254 254M204 0l254 254M210 0l254 254M216 0l254 254M222 0l254 254M228 0l254 254M234 0l254 254M240 0l254 254M246 0l254 254M252 0l254 254M258 0l254 254M264 0l254 254M270 0l254 254M270 0l254 254M276 0l254 254M282 0l254 254M288 0l254 254M294 0l254 254M300 0l254 254M306 0l254 254M312 0l254 254M318 0l254 254M324 0l254 254M330 0l254 254M336 0l254 254M342 0l254 254M348 0l254 254M354 0l254 254M-246 0l254 254M-240 0l254 254M-234 0l254 254M-228 0l254 254M-222 0l254 254M-216 0l254 254M-210 0l254 254M-204 0l254 254M-198 0l254 254M-192 0l254 254M-186 0l254 254M-180 0l254 254M-180 0l254 254M-174 0l254 254M-168 0l254 254M-162 0l254 254M-156 0l254 254M-150 0l254 254M-144 0l254 254M-138 0l254 254M-132 0l254 254M-126 0l254 254M-120 0l254 254M-114 0l254 254M-108 0l254 254M-102 0l254 254M-96 0l254 254M-90 0l254 254M-90 0l254 254M-84 0l254 254M-78 0l254 254M-72 0l254 254M-66 0l254 254M-60 0l254 254M-54 0l254 254M-48 0l254 254M-42 0l254 254M-36 0l254 254M-30 0l254 254M-24 0l254 254M-18 0l254 254M-12 0l254 254M-6 0l254 254M360 0l254 254"/></svg>