<?xml version="1.0" encoding="utf-8"?>
<!-- Generator: Adobe Illustrator 16.0.4, SVG Export Plug-In . SVG Version: 6.00 Build 0)  -->
<!DOCTYPE svg PUBLIC "-//W3C//DTD SVG 1.1//EN" "http://www.w3.org/Graphics/SVG/1.1/DTD/svg11.dtd">
<svg version="1.1" id="Layer_1" xmlns="http://www.w3.org/2000/svg" xmlns:xlink="http://www.w3.org/1999/xlink" x="0px" y="0px"
	 width="87.218px" height="12.928px" viewBox="0 0 87.218 12.928" enable-background="new 0 0 87.218 12.928" xml:space="preserve">
<g>
	<polygon fill-rule="evenodd" clip-rule="evenodd" fill="#004990" points="87.218,8.429 83.318,12.928 80.518,12.928 83.768,9.229 
		73.218,9.229 73.218,7.679 83.768,7.679 80.518,3.929 83.318,3.929 	"/>
	<g>
		<path fill="#004990" d="M2.176,0.17h3.96c2.312,0,4.437,1.87,3.944,4.776C9.706,7.224,7.734,9.043,5.014,9.043H3.009l-0.612,3.536
			H0L2.176,0.17z M4.198,2.346L3.399,6.867h1.734c1.428,0,2.397-1.02,2.618-2.261c0.221-1.241-0.629-2.261-1.972-2.261H4.198z"/>
		<path fill="#004990" d="M10.25,7.819c0.374-2.142,2.193-3.909,4.488-3.909c1.173,0,2.023,0.476,2.516,1.207l0.187-1.037h2.363
			l-1.071,5.729c-0.102,0.527,0,0.782,0.663,0.782h0.17l-0.357,1.989h-1.088c-0.765,0-1.258-0.34-1.496-0.867
			c-0.595,0.629-1.428,1.037-2.567,1.037C11.168,12.749,9.809,10.437,10.25,7.819z M16.761,8.482
			c0.238-1.326-0.646-2.448-1.853-2.448c-1.326,0-2.244,1.003-2.414,2.074c-0.204,1.258,0.561,2.482,1.938,2.482
			C15.758,10.59,16.557,9.587,16.761,8.482z"/>
		<path fill="#004990" d="M20.196,10.148L21.25,4.08h2.363l-1.02,5.813c-0.085,0.493,0.051,0.612,0.493,0.612h0.255l-0.374,2.074
			h-1.224C20.196,12.579,19.924,11.729,20.196,10.148z M21.811,0.901h2.363l-0.408,2.329h-2.363L21.811,0.901z"/>
		<path fill="#004990" d="M24.972,6.952c0.136-0.663,0-0.816-0.544-0.816h-0.289l0.374-2.057h1.037c0.901,0,1.461,0.272,1.683,0.867
			c0.629-0.663,1.411-1.037,2.396-1.037c2.074,0,3.298,1.513,2.788,3.893l-0.459,2.159c-0.102,0.493,0.068,0.629,0.51,0.629h0.289
			l-0.374,1.989h-1.037c-1.819,0-2.159-0.918-1.87-2.431l0.527-2.431c0.238-1.19-0.272-1.751-1.122-1.751
			c-0.884,0-1.479,0.629-1.717,2.023l-0.901,4.589h-2.38L24.972,6.952z"/>
		<path fill="#004990" d="M33.761,4.08h1.428l0.357-1.989l2.584-1.275c0,0-0.272,1.547-0.578,3.264h1.598L38.776,6.17h-1.598
			c-0.255,1.428-0.459,2.618-0.476,2.703c-0.255,1.326-0.153,1.53,1.326,1.53l-0.374,2.176h-0.34c-2.754,0-3.451-0.918-2.958-3.688
			l0.476-2.72h-1.445L33.761,4.08z"/>
		<path fill="#004990" d="M44.199,5.779C44.759,2.499,47.582,0,50.999,0c3.824,0,6.357,3.264,5.728,6.969
			c-0.561,3.281-3.28,5.779-6.799,5.779C46.103,12.749,43.57,9.485,44.199,5.779z M54.364,6.748
			c0.408-2.312-1.088-4.419-3.569-4.419c-2.21,0-3.859,1.598-4.232,3.672c-0.408,2.312,1.088,4.419,3.569,4.419
			C52.341,10.42,53.99,8.822,54.364,6.748z"/>
		<path fill="#004990" d="M58.019,6.952c0.137-0.663,0-0.816-0.544-0.816h-0.288L57.56,4.08h1.037c0.901,0,1.462,0.272,1.683,0.867
			c0.63-0.663,1.411-1.037,2.397-1.037c2.073,0,3.298,1.513,2.787,3.893l-0.459,2.159c-0.102,0.493,0.068,0.629,0.511,0.629h0.288
			l-0.373,1.989h-1.037c-1.819,0-2.159-0.918-1.87-2.431l0.527-2.431c0.237-1.19-0.272-1.751-1.122-1.751
			c-0.884,0-1.479,0.629-1.717,2.023l-0.901,4.589h-2.38L58.019,6.952z"/>
	</g>
</g>
</svg>
