<svg id="Layer_1" xmlns="http://www.w3.org/2000/svg" xmlns:xlink="http://www.w3.org/1999/xlink" width="1200" height="1200" viewBox="0 0 1200 1200"><style>.st0{clip-path:url(#SVGID_2_);} .st1{fill:#D3DF7D;}</style><defs><circle id="SVGID_1_" cx="600" cy="600" r="600"/></defs><clipPath id="SVGID_2_"><use xlink:href="#SVGID_1_" overflow="visible"/></clipPath><g class="st0"><path class="st1" d="M629.9-53.5L600 600 530.9-50.5zM486.1 1289L600 600l-15.2 698.2zM624.9 1287.1L600 600l123.5 676.4zM826.8 1261.5L600 600l318 622.8zM1040.8 1194.9L600 600l516.3 530.7zM1202.4 1045.9L600 600l656 362.6zM1259.3 837.9L600 600l686.3 142.5zM1258.6 633.9L600 600l656.2-65.2zM1147.4 249.7L600 600l487.8-429.5zM1226.5 418.9L600 600l591.8-274zM1015.6 101.2L600 600 934.8 43.8zM835.1-6.7L600 600 740.2-35.3zM-66.1 791.8L600 600-31.9 884.8zM-85.9 582.1L600 600l-681.3 81.1zM-39.7 376.5L600 600-65.5 472.2zM313.3 1236.8L600 600l-193.7 671zM148 1124l452-524-372.6 583.2zM14.7 961.1L600 600 72.7 1041.5zM67.9 195.2L600 600 13.9 278.3zM226.4 56.3L600 600 149.2 118.3z"/><path class="st1" d="M226.4 56.3L600 600 149.2 118.3zM420.2-28.4L600 600 327.2 6z"/><path class="st1" d="M420.2-28.4L600 600 327.2 6z"/></g></svg>