<svg xmlns="http://www.w3.org/2000/svg" xmlns:xlink="http://www.w3.org/1999/xlink" width="600" height="600" viewBox="44 -44 600 600" enable-background="new 44 -44 600 600"><style type="text/css">.st0{fill:#FFFFFF;} .st1{fill:#706F73;} .st2{fill:#ED3024;} .st3{fill:#19B0BE;} .st4{fill:#AFD6A5;} .st5{fill:#D0D2D3;} .st6{fill:#2D5971;} .st7{fill:#5AB2C5;} .st8{fill:#E9D6B8;} .st9{fill:#B1D2CD;} .st10{fill:#9ACBC8;} .st11{fill:#69CADF;} .st12{fill:#EFEDDA;} .st13{fill:#D85B46;} .st14{fill:#ED6A54;} .st15{fill:#EAE9EA;} .st16{fill:#D6D6D7;} .st17{fill:#E1C49B;} .st18{fill:#E6E7E8;} .st19{fill:#7F7F7F;} .st20{fill:#D885B7;} .st21{fill:#D076AF;} .st22{fill:#C76BA9;} .st23{fill:#B861A5;} .st24{fill:#B3519E;} .st25{fill:#A6479A;} .st26{fill:#E58086;} .st27{fill:#EA6784;} .st28{fill:#E55780;} .st29{fill:#DF4984;} .st30{fill:#DF266F;} .st31{fill:#C91C6D;} .st32{fill:#8A8A8B;} .st33{fill:#F49280;} .st34{fill:#F27264;} .st35{fill:#F05F52;} .st36{fill:#EC4641;} .st37{fill:#EB2624;} .st38{fill:#E61E25;} .st39{fill:#979797;} .st40{fill:#F3AE80;} .st41{fill:#F69363;} .st42{fill:#F38252;} .st43{fill:#EC6F41;} .st44{fill:#EB5424;} .st45{fill:#E64425;} .st46{fill:#F3C27F;} .st47{fill:#F8AF62;} .st48{fill:#F2A052;} .st49{fill:#ED8E43;} .st50{fill:#EC7923;} .st51{fill:#E56B24;} .st52{fill:#F3D380;} .st53{fill:#F9C762;} .st54{fill:#F3BB52;} .st55{fill:#ECAC41;} .st56{fill:#EC9D21;} .st57{fill:#E89224;} .st58{fill:#F3DD80;} .st59{fill:#FAD563;} .st60{fill:#F5CB51;} .st61{fill:#ECBB41;} .st62{fill:#ECB01F;} .st63{fill:#E7A623;} .st64{fill:#A6A8AB;} .st65{fill:#7EB9C5;} .st66{fill:#6DA0AA;} .st67{fill:#0F3754;} .st68{fill:#69382B;} .st69{fill:#824837;} .st70{fill:#AB5876;} .st71{fill:#9B4C76;} .st72{fill:#7CC185;} .st73{fill:#EFC968;} .st74{fill:#F3DA7F;} .st75{fill:#F2F9FA;} .st76{fill:#CCEAF2;} .st77{fill:#D1EBF9;} .st78{fill:#1395A4;} .st79{fill:#BBBDBF;} .st80{fill:#F1F1F2;} .st81{fill:#B1D2A4;} .st82{fill:#9EC3A4;} .st83{fill:#0F0F19;} .st84{fill:#58595B;} .st85{fill:#CDD3CF;} .st86{fill:#F3E8D6;} .st87{fill:#BCA686;} .st88{fill:#CFB38D;} .st89{fill:#E9D1B0;} .st90{clip-path:url(#SVGID_2_);fill:#71C0D8;} .st91{clip-path:url(#SVGID_2_);fill:#80D1EA;} .st92{clip-path:url(#SVGID_2_);fill:#D1EBF9;} .st93{clip-path:url(#SVGID_2_);fill:#5590A9;} .st94{clip-path:url(#SVGID_2_);fill:#8ED6F1;} .st95{clip-path:url(#SVGID_2_);fill:#FFFFFF;} .st96{clip-path:url(#SVGID_2_);fill:#7CC488;} .st97{clip-path:url(#SVGID_2_);fill:#EAE9EA;} .st98{clip-path:url(#SVGID_2_);fill:#A3D293;} .st99{clip-path:url(#SVGID_2_);fill:#B2D9A8;} .st100{clip-path:url(#SVGID_2_);fill:#808184;} .st101{clip-path:url(#SVGID_2_);fill:#4B8095;} .st102{clip-path:url(#SVGID_2_);fill:#66A473;} .st103{opacity:0.8;} .st104{clip-path:url(#SVGID_4_);fill:#231F20;} .st105{clip-path:url(#SVGID_6_);fill:#231F20;} .st106{fill:#808184;} .st107{fill:#71C0D8;}</style><path class="st0" d="M51-32.9h-4.9v-3.8h4.4c.1 0 .2-.1.2-.2v-1.3c0-.1-.1-.2-.2-.2h-4.4v-3.6h4.9c.1 0 .2-.1.2-.2v-1.4c0-.1-.1-.3-.2-.3h-7v13h7c.1 0 .2-.1.2-.2v-1.4c0-.3 0-.4-.2-.4zm12.3-8c-1.2 0-2.2.5-3 1.7-.3-.8-1-1.7-2.3-1.7-1.4 0-2.3.8-2.8 1.6v-1.2c0-.2-.1-.2-.2-.2h-1.5c-.2 0-.2.1-.2.2v9.2c0 .2.1.2.2.2h1.5c.1 0 .2-.1.2-.2v-6.3c.2-.7.9-1.6 2-1.6.9 0 1.3.6 1.3 1.7v6.2c0 .2.1.2.2.2h1.6c.1 0 .2-.1.2-.2v-6.3c.3-.8.9-1.6 2-1.6 1 0 1.3.7 1.3 1.7v6.2c0 .2.1.2.2.2h1.6c.1 0 .2-.1.2-.2v-6.7c.1-1.6-.9-2.9-2.5-2.9zm9.9 0c-1.4 0-2.5.9-3 1.6v-1.2c0-.1-.1-.2-.2-.2h-1.5c-.1 0-.2.1-.2.2v12.9c0 .2.1.2.2.2h1.5c.1 0 .2-.1.2-.2v-4.6c.4.6 1.2 1.3 2.6 1.3 1.9 0 3.7-1.3 3.7-3.8v-2.4c0-2.4-1.3-3.8-3.3-3.8zm1.3 6c0 1.8-.9 2.4-2.1 2.4-1.4 0-2.2-1-2.2-2.2v-2.1c0-1.5 1.1-2.4 2.3-2.4 1.3 0 2 .9 2 2.5v1.8zm7.9-6c-2.6 0-4.1 1.4-4.1 3.8v2.6c0 2.3 1.5 3.7 4.1 3.7 2.6 0 4.1-1.4 4.1-3.8v-2.6c0-2.3-1.4-3.7-4.1-3.7zm2.1 6.2c0 1.6-.9 2.2-2.1 2.2s-2.1-.6-2.1-2.2v-2.3c0-1.6.9-2.2 2.1-2.2 1.2 0 2.1.6 2.1 2.2v2.3zm15.5-6h-1.4c-.1 0-.2.1-.2.2l-1 4.3c-.3 1.2-.5 2.3-.6 3.5-.1-1.2-.4-2.3-.6-3.4l-1-4.3c0-.1-.1-.2-.3-.2h-1.5c-.1 0-.2.1-.3.2l-1 4.3c-.3 1.2-.5 2.3-.6 3.5-.1-1.2-.3-2.3-.6-3.5l-1-4.3c0-.2-.1-.2-.3-.2h-1.6c-.2 0-.2.1-.2.3l2.5 9.2c0 .2.1.2.3.2h1.7c.2 0 .2-.1.3-.2l.8-3.3c.3-1.3.5-2.4.6-3.5.1 1.1.3 2.1.6 3.4l.8 3.3c0 .1.1.2.3.2h1.7c.2 0 .2-.1.3-.2l2.5-9.2c0-.2-.1-.3-.2-.3zm5.2-.2c-2.3 0-3.9 1.5-3.9 3.9v2.4c0 2.3 1.4 3.8 4 3.8 1.7 0 3-.7 3.7-2.1.1-.2 0-.4-.1-.5l-1.1-.5c-.2-.1-.3 0-.4.1-.3.6-.9 1.2-2.1 1.2-1.4 0-2-.8-2-2.1v-.5h5.4c.3 0 .5-.1.5-.4v-1.2c-.1-2.8-1.6-4.1-4-4.1zm1.9 4.3h-3.9v-.5c0-1.2.6-2.1 1.9-2.1 1.5 0 1.9 1 1.9 2v.6zm8.9-4.3c-1.4 0-2.4.9-3 2v-1.6c0-.1-.1-.2-.2-.2h-1.5c-.1 0-.2.1-.2.2v9.2c0 .2.1.2.2.2h1.6c.1 0 .2-.1.2-.2v-5.8c.2-.8 1-1.8 2.2-1.9h.5c.2 0 .2-.1.3-.2l.2-1.5c0-.1 0-.2-.3-.2zm10.1.2c-.1 0-.2.1-.2.2l-2.2 7-2.2-7.1c-.1-.1-.1-.2-.2-.2h-1.9c-.2 0-.2.1-.1.2l3.3 9.3c-.5 1.3-1.2 1.9-2.2 2.4-.2.1-.2.3 0 .4l.8 1.1c.1.1.2.2.5 0 1.1-.7 2.2-1.7 2.9-3.8l3.4-9.4c.1-.1 0-.2-.1-.2h-1.8zm6.7-.2c-2.6 0-4.1 1.4-4.1 3.8v2.6c0 2.3 1.5 3.7 4.1 3.7 2.6 0 4.1-1.4 4.1-3.8v-2.6c0-2.3-1.5-3.7-4.1-3.7zm2.1 6.2c0 1.6-.9 2.2-2.1 2.2s-2.1-.6-2.1-2.2v-2.3c0-1.6.9-2.2 2.1-2.2 1.2 0 2.1.6 2.1 2.2v2.3zm11.7-6h-1.6c-.1 0-.2.1-.2.2v6.6c-.6.9-1.6 1.4-2.4 1.4-.9 0-1.4-.5-1.4-1.7v-6.3c0-.1-.1-.2-.2-.2h-1.6c-.2 0-.2.1-.2.2v6.7c0 1.8 1 2.9 2.9 2.9 1.4 0 2.4-.7 3.1-1.3v.9c0 .1.1.2.2.2h1.5c.1 0 .2-.1.2-.2v-9.2c0-.2-.1-.2-.3-.2zm7.6-.2c-1.4 0-2.4.9-3 2v-1.6c0-.1-.1-.2-.2-.2h-1.5c-.1 0-.2.1-.2.2v9.2c0 .2.1.2.2.2h1.6c.1 0 .2-.1.2-.2v-5.8c.2-.8 1-1.8 2.2-1.9h.5c.2 0 .2-.1.3-.2l.2-1.5c0-.1 0-.2-.3-.2zm8.9 8.2h-.6c-1.1 0-1.4-.3-1.4-1.4v-4.6h1.8c.1 0 .2-.1.2-.2v-1.2c0-.1-.1-.2-.2-.2h-1.8v-2.2c0-.1-.1-.2-.2-.2h-1.6c-.1 0-.2.1-.2.2v2.2h-1.2c-.1 0-.2.1-.2.2v1.2c0 .1.1.2.2.2h1.2v4.9c0 2.2 1.3 2.8 3.1 2.8h.9c.2 0 .3-.1.3-.2v-1.2c-.1-.2-.2-.3-.3-.3zm5.7-8.2c-2.3 0-3.9 1.5-3.9 3.9v2.4c0 2.3 1.4 3.8 4 3.8 1.7 0 3-.7 3.7-2.1.1-.2 0-.4-.1-.5l-1.1-.5c-.2-.1-.3 0-.4.1-.3.6-.9 1.2-2.1 1.2-1.4 0-2-.8-2-2.1v-.5h5.4c.3 0 .5-.1.5-.4v-1.2c-.1-2.8-1.6-4.1-4-4.1zm2 4.3h-3.9v-.5c0-1.2.6-2.1 1.9-2.1 1.5 0 1.9 1 1.9 2v.6zm7.5-4.3c-1.9 0-2.9.8-3.6 2.2-.1.2 0 .3.2.3l1.1.5c.1.1.3.1.4-.1.2-.8.8-1.3 1.7-1.3 1.2 0 1.7.6 1.7 2v.5c-4.3-.3-5.6.9-5.6 2.9v.1c0 1.6 1.2 2.8 2.9 2.8 1.4 0 2.2-.6 2.8-1.4v.9c0 .2.1.2.2.2h1.5c.1 0 .2 0 .2-.2v-6c0-2.1-1.4-3.4-3.5-3.4zm1.5 7.3c-.5.7-1.3 1.1-2.2 1.1-.9 0-1.4-.6-1.4-1.3v-.1c0-1.1.8-1.6 3.6-1.5v1.8zm14.5-7.3c-1.2 0-2.2.5-3 1.7-.3-.8-1-1.7-2.3-1.7-1.4 0-2.3.8-2.8 1.6v-1.2c0-.2-.1-.2-.2-.2h-1.5c-.2 0-.2.1-.2.2v9.2c0 .2.1.2.2.2h1.5c.1 0 .2-.1.2-.2v-6.3c.2-.7.9-1.6 2-1.6.9 0 1.3.6 1.3 1.7v6.2c0 .2.1.2.2.2h1.6c.1 0 .2-.1.2-.2v-6.3c.3-.8.9-1.6 2-1.6 1 0 1.3.7 1.3 1.7v6.2c0 .2.1.2.2.2h1.6c.1 0 .2-.1.2-.2v-6.7c.1-1.6-.9-2.9-2.5-2.9zm6.4 7.3h-1.4c-.2 0-.3.1-.3.3v1.9c0 .2.1.3.3.3h1.4c.2 0 .3-.1.3-.3v-1.9c0-.1-.1-.3-.3-.3zm-140.9 100.8c.1 0 .2-.1.2-.1l2.5-10.6c0-.1 0-.2-.1-.2h-.7c-.1 0-.1 0-.2.1l-1.1 5.2-1 4.6c-.3-1.5-.6-3.1-1-4.6l-1.2-5.2c0-.1-.1-.1-.2-.1h-.7c-.1 0-.2 0-.2.1l-1.2 5.3c-.3 1.5-.7 3.1-.9 4.6-.2-1.5-.6-3.1-1-4.6l-1.2-5.2c0-.1-.1-.1-.2-.1h-.7c-.1 0-.1 0-.1.2l2.5 10.4c0 .1.1.2.2.2h.8c.1 0 .2-.1.2-.2l1.3-5.7.8-3.7.8 3.7 1.3 5.7c0 .1.1.1.2.1h.9zm9.7-5.2c0-1.9-1.1-3.1-3.2-3.1-2 0-3.2 1.2-3.2 3.1v2.3c0 1.9 1.2 3 3.2 3s3.2-1.2 3.2-3.1v-2.2zm-1 2.1c0 1.7-.9 2.4-2.3 2.4s-2.2-.7-2.2-2.3v-2.1c0-1.6.9-2.4 2.2-2.4 1.4 0 2.3.8 2.3 2.4v2zm3.7 3.1c.1 0 .2 0 .2-.1v-5.3c.2-.8 1.1-1.7 2.1-1.9h.3c.1 0 .1 0 .2-.2l.1-.6c0-.1 0-.2-.2-.2-1 0-2.1.9-2.6 1.9v-1.6c0-.1-.1-.1-.2-.1h-.6c-.1 0-.2 0-.2.1v7.9c0 .1.1.1.2.1h.7zm9.4 0c.1 0 .2-.1.1-.2l-2.9-4.7 2.7-3c.1-.1 0-.2-.1-.2h-.7c-.1 0-.2 0-.3.1l-3.2 3.6v-6.6c0-.1-.1-.2-.2-.2h-.6c-.1 0-.2.1-.2.2v10.8c0 .1.1.2.2.2h.6c.1 0 .2-.1.2-.2v-3.1l.9-1 2.5 4.2c.1.1.1.1.3.1h.7zm9-6.3c.1 0 .2-.1.1-.3-.3-1-1.1-1.8-2.5-1.8-1.5 0-2.5.9-2.5 2.1 0 2.8 4.2 1.9 4.2 4.1 0 .8-.7 1.4-1.7 1.4-1.1 0-1.7-.6-1.9-1.4 0-.1-.1-.2-.2-.1l-.5.2c-.1 0-.2.1-.1.3.3 1.2 1.4 1.9 2.7 1.9 1.6 0 2.6-1 2.6-2.2 0-3-4.2-2.1-4.2-4.1 0-.8.6-1.3 1.6-1.3s1.5.4 1.7 1.2c0 .1.1.1.2.1l.5-.1zm6.7 1.8h-4.2v-.7c0-1.5.9-2.2 2.1-2.2 1.4 0 2.1.8 2.1 2.3v.6zm.3 2.5c-.1-.1-.2-.1-.3.1-.3.7-.9 1.2-2.1 1.2-1.5 0-2.2-.9-2.2-2.3v-.7h4.8c.2 0 .4-.1.4-.3v-1c0-2.1-1.2-3.2-3.1-3.2-1.7 0-3 1.2-3 3v2.3c0 1.9 1.1 3.1 3.1 3.1 1.5 0 2.4-.6 2.8-1.6.1-.1 0-.2-.1-.3l-.3-.3zm6.8.3c-.6.6-1.3 1-2.3 1s-1.7-.7-1.7-1.6v-.1c0-1.3 1.1-1.8 3.9-1.7v2.4zm.8 1.7c.1 0 .2 0 .2-.1v-5.1c0-1.9-.9-3-2.7-3-1.4 0-2.2.7-2.7 1.8-.1.1 0 .2.1.3l.4.2c.1.1.2.1.3-.1.3-.8.8-1.3 1.8-1.3 1.2 0 1.8.7 1.8 2.2v.6c-3.6-.2-4.9.5-4.9 2.4v-.1c0 1.5 1.1 2.4 2.4 2.4 1.2 0 2-.6 2.5-1.1v.8c0 .1.1.1.2.1h.6zm11.9 0c.1 0 .2 0 .2-.1v-5.8c0-1.4-.8-2.3-2.1-2.3-.9 0-1.8.5-2.4 1.5-.2-.7-.9-1.5-2-1.5-1 0-1.9.7-2.3 1.4v-1.2c0-.1-.1-.1-.2-.1h-.6c-.1 0-.2 0-.2.1v7.9c0 .1.1.1.2.1h.6c.1 0 .2 0 .2-.1v-5.7c.4-.9 1.1-1.6 2.1-1.6s1.4.6 1.4 1.7v5.6c0 .1.1.1.2.1h.6c.1 0 .2 0 .2-.1v-5.7c.4-1 1.2-1.6 2.1-1.6.9 0 1.4.6 1.4 1.8v5.5c0 .1.1.1.2.1h.4zm3 0c.1 0 .2-.1.2-.2v-10.8c0-.2-.1-.2-.2-.2h-.6c-.1 0-.2.1-.2.2v10.8c0 .1.1.2.2.2h.6zm7.4-4.5h-4.2v-.7c0-1.5.9-2.2 2.1-2.2 1.4 0 2.1.8 2.1 2.3v.6zm.2 2.5c-.1-.1-.2-.1-.3.1-.3.7-.9 1.2-2.1 1.2-1.5 0-2.2-.9-2.2-2.3v-.7h4.8c.2 0 .4-.1.4-.3v-1c0-2.1-1.2-3.2-3.1-3.2-1.7 0-3 1.2-3 3v2.3c0 1.9 1.1 3.1 3.1 3.1 1.5 0 2.4-.6 2.8-1.6.1-.1 0-.2-.1-.3l-.3-.3zm7.1-4.3c.1 0 .2-.1.1-.3-.3-1-1.1-1.8-2.5-1.8-1.5 0-2.5.9-2.5 2.1 0 2.8 4.2 1.9 4.2 4.1 0 .8-.7 1.4-1.7 1.4-1.1 0-1.7-.6-1.9-1.4 0-.1-.1-.2-.2-.1l-.5.2c-.1 0-.2.1-.1.3.3 1.2 1.4 1.9 2.7 1.9 1.6 0 2.6-1 2.6-2.2 0-3-4.2-2.1-4.2-4.1 0-.8.6-1.3 1.6-1.3s1.5.4 1.7 1.2c0 .1.1.1.2.1l.5-.1zm6.4 0c.1 0 .2-.1.1-.3-.3-1-1.1-1.8-2.5-1.8-1.5 0-2.5.9-2.5 2.1 0 2.8 4.2 1.9 4.2 4.1 0 .8-.7 1.4-1.7 1.4-1.1 0-1.7-.6-1.9-1.4 0-.1-.1-.2-.2-.1l-.5.2c-.1 0-.2.1-.1.3.3 1.2 1.4 1.9 2.7 1.9 1.6 0 2.6-1 2.6-2.2 0-3-4.2-2.1-4.2-4.1 0-.8.6-1.3 1.6-1.3s1.5.4 1.7 1.2c0 .1.1.1.2.1l.5-.1zm2.6 6.3c.1 0 .2-.1.2-.2v-10.8c0-.2-.1-.2-.2-.2h-.6c-.1 0-.2.1-.2.2v10.8c0 .1.1.2.2.2h.6zm2.5 3.1c.1.1.1.1.3.1.7-.4 1.6-1.3 2.1-2.7l3-8.4c0-.1 0-.2-.1-.2h-.7c-.1 0-.1 0-.2.1l-2.2 6.8-2.3-6.8c0-.1-.1-.1-.2-.1h-.7c-.1 0-.1.1-.1.2l2.8 7.9c-.4 1.3-1 2.1-1.9 2.5-.1.1-.1.2 0 .2l.2.4zm16-3.1c.1 0 .1 0 .2-.1l2.1-7.8c0-.1 0-.2-.1-.2h-.7c-.1 0-.1 0-.2.1l-1 4-.7 3-.6-3-1-4.1c0-.1-.1-.1-.2-.1h-.6c-.1 0-.2 0-.2.1l-1 4c-.3 1-.5 2.1-.7 3l-.6-3-1-4.1c0-.1-.1-.1-.2-.1h-.8c-.1 0-.2.1-.1.2l2 7.8c0 .1.1.1.2.1h.7c.1 0 .2 0 .2-.1l1.1-4 .6-2.7c.1.8.4 1.9.6 2.7l1 4.1c0 .1.1.1.2.1h.8zm4.4 0c.1 0 .2 0 .2-.2v-7.7c0-.1-.1-.2-.2-.2h-.5c-.1 0-.2 0-.2.2v7.7c0 .1.1.2.2.2h.5zm0-9.4c.1 0 .2 0 .2-.2v-1.4c0-.1-.1-.2-.2-.2h-.5c-.1 0-.2.1-.2.2v1.4c0 .1.1.2.2.2h.5zm5.5 9.4c.2 0 .2-.1.2-.2v-.4c0-.1-.1-.2-.2-.2h-.5c-.9 0-1.3-.2-1.3-1.3v-5h1.7c.1 0 .1-.1.1-.2v-.4c0-.1 0-.2-.1-.2h-1.7v-1.9c0-.1-.1-.1-.2-.1h-.6c-.1 0-.2 0-.2.1v1.9h-1.1c-.1 0-.1.1-.1.2v.4c0 .1 0 .2.1.2h1.1v4.9c0 1.9.8 2.3 2.2 2.3h.6zm7.7 0c.1 0 .2 0 .2-.1v-5.5c0-1.6-.7-2.6-2.3-2.6-1.1 0-2 .6-2.6 1.4v-4.2c0-.1-.1-.1-.2-.1h-.6c-.1 0-.2 0-.2.1v10.9c0 .1.1.1.2.1h.6c.1 0 .2 0 .2-.1v-5.7c.5-.9 1.4-1.7 2.4-1.7 1.1 0 1.6.6 1.6 2.1v5.2c0 .1.1.1.2.1h.5zm9.8-1.7c-.6.6-1.3 1-2.3 1-1 0-1.7-.7-1.7-1.6v-.1c0-1.3 1.1-1.8 3.9-1.7v2.4zm.7 1.7c.1 0 .2 0 .2-.1v-5.1c0-1.9-.9-3-2.7-3-1.4 0-2.2.7-2.7 1.8-.1.1 0 .2.1.3l.4.2c.1.1.2.1.3-.1.3-.8.8-1.3 1.8-1.3 1.2 0 1.8.7 1.8 2.2v.6c-3.6-.2-4.9.5-4.9 2.4v-.1c0 1.5 1.1 2.4 2.4 2.4 1.2 0 2-.6 2.5-1.1v.8c0 .1.1.1.2.1h.6zm3.1 0c.1 0 .2-.1.2-.2v-10.8c0-.2-.1-.2-.2-.2h-.6c-.1 0-.2.1-.2.2v10.8c0 .1.1.2.2.2h.6zm3.2 0c.1 0 .2-.1.2-.2v-10.8c0-.2-.1-.2-.2-.2h-.6c-.1 0-.2.1-.2.2v10.8c0 .1.1.2.2.2h.6zm5.6 3.1c.1.1.1.1.3.1.7-.4 1.6-1.3 2.1-2.7l3-8.4c0-.1 0-.2-.1-.2h-.7c-.1 0-.1 0-.2.1l-2.2 6.8-2.3-6.8c0-.1-.1-.1-.2-.1h-.7c-.1 0-.1.1-.1.2l2.8 7.9c-.4 1.3-1 2.1-1.9 2.5-.1.1-.1.2 0 .2l.2.4zm12.3-8.3c0-1.9-1.1-3.1-3.2-3.1-2 0-3.2 1.2-3.2 3.1v2.3c0 1.9 1.2 3 3.2 3s3.2-1.2 3.2-3.1v-2.2zm-.9 2.1c0 1.7-.9 2.4-2.3 2.4s-2.2-.7-2.2-2.3v-2.1c0-1.6.9-2.4 2.2-2.4 1.4 0 2.3.8 2.3 2.4v2zm8.5 3.1c.1 0 .2 0 .2-.1v-7.9c0-.1-.1-.1-.2-.1h-.6c-.1 0-.2 0-.2.1v6c-.7.9-1.7 1.4-2.6 1.4-.9 0-1.4-.6-1.4-1.7v-5.7c0-.1-.1-.1-.2-.1h-.6c-.1 0-.2 0-.2.1v5.8c0 1.5.8 2.4 2.2 2.4 1.3 0 2.2-.7 2.8-1.4v1.1c0 .1.1.1.2.1h.6zm3.2 0c.1 0 .2 0 .2-.1v-5.3c.2-.8 1.1-1.7 2.1-1.9h.3c.1 0 .1 0 .2-.2l.1-.6c0-.1 0-.2-.2-.2-1 0-2.1.9-2.6 1.9v-1.6c0-.1-.1-.1-.2-.1h-.6c-.1 0-.2 0-.2.1v7.9c0 .1.1.1.2.1h.7zm-177.4 17.9c.2 0 .2-.1.2-.2v-.4c0-.1-.1-.2-.2-.2h-.5c-.9 0-1.3-.2-1.3-1.3v-5h1.7c.1 0 .1-.1.1-.2v-.4c0-.1 0-.2-.1-.2h-1.7v-1.9c0-.1-.1-.1-.2-.1h-.6c-.1 0-.2 0-.2.1v1.9h-1.1c-.1 0-.1.1-.1.2v.4c0 .1 0 .2.1.2h1.1v4.9c0 1.9.8 2.3 2.2 2.3h.6zm6.7-4.5h-4.2v-.8c0-1.5.9-2.2 2.1-2.2 1.4 0 2.1.8 2.1 2.3v.7zm.2 2.5c-.1-.1-.2-.1-.3.1-.3.7-.9 1.2-2.1 1.2-1.5 0-2.2-.9-2.2-2.3v-.7h4.8c.2 0 .4-.1.4-.3v-1c0-2.1-1.2-3.2-3.1-3.2-1.7 0-3 1.2-3 3v2.3c0 1.9 1.1 3.1 3.1 3.1 1.5 0 2.4-.6 2.8-1.6.1-.1 0-.2-.1-.3l-.3-.3zm6.9.3c-.6.6-1.3 1-2.3 1-1 0-1.7-.7-1.7-1.6v-.1c0-1.3 1.1-1.8 3.9-1.7v2.4zm.7 1.7c.1 0 .2 0 .2-.1v-5.1c0-1.9-.9-3-2.7-3-1.4 0-2.2.7-2.7 1.8-.1.1 0 .2.1.3l.4.2c.1.1.2.1.3-.1.3-.8.8-1.3 1.8-1.3 1.2 0 1.8.7 1.8 2.2v.6c-3.6-.2-4.9.5-4.9 2.4v.1c0 1.5 1.1 2.4 2.4 2.4 1.2 0 2-.6 2.5-1.1v.6c0 .1.1.1.2.1h.6zm11.9 0c.1 0 .2 0 .2-.1v-5.8c0-1.4-.8-2.3-2.1-2.3-.9 0-1.8.5-2.4 1.5-.2-.7-.9-1.5-2-1.5-1 0-1.9.7-2.3 1.4v-1.2c0-.1-.1-.1-.2-.1h-.6c-.1 0-.2 0-.2.1v7.9c0 .1.1.1.2.1h.6c.1 0 .2 0 .2-.1v-5.7c.4-.9 1.1-1.6 2.1-1.6s1.4.6 1.4 1.7v5.6c0 .1.1.1.2.1h.5c.1 0 .2 0 .2-.1v-5.7c.4-1 1.2-1.6 2.1-1.6.9 0 1.4.6 1.4 1.8v5.5c0 .1.1.1.2.1h.5zm15 0c.1 0 .2 0 .2-.1v-5.8c0-1.4-.8-2.3-2.1-2.3-.9 0-1.8.5-2.4 1.5-.2-.7-.9-1.5-2-1.5-1 0-1.9.7-2.3 1.4v-1.2c0-.1-.1-.1-.2-.1h-.6c-.1 0-.2 0-.2.1v7.9c0 .1.1.1.2.1h.6c.1 0 .2 0 .2-.1v-5.7c.4-.9 1.1-1.6 2.1-1.6s1.4.6 1.4 1.7v5.6c0 .1.1.1.2.1h.5c.1 0 .2 0 .2-.1v-5.7c.4-1 1.2-1.6 2.1-1.6.9 0 1.4.6 1.4 1.8v5.5c0 .1.1.1.2.1h.5zm7.2-4.5h-4.2v-.8c0-1.5.9-2.2 2.1-2.2 1.4 0 2.1.8 2.1 2.3v.7zm.3 2.5c-.1-.1-.2-.1-.3.1-.3.7-.9 1.2-2.1 1.2-1.5 0-2.2-.9-2.2-2.3v-.7h4.8c.2 0 .4-.1.4-.3v-1c0-2.1-1.2-3.2-3.1-3.2-1.7 0-3 1.2-3 3v2.3c0 1.9 1.1 3.1 3.1 3.1 1.5 0 2.4-.6 2.8-1.6.1-.1 0-.2-.1-.3l-.3-.3zm12 2c.1 0 .2 0 .2-.1v-5.8c0-1.4-.8-2.3-2.1-2.3-.9 0-1.8.5-2.4 1.5-.2-.7-.9-1.5-2-1.5-1 0-1.9.7-2.3 1.4v-1.2c0-.1-.1-.1-.2-.1h-.6c-.1 0-.2 0-.2.1v7.9c0 .1.1.1.2.1h.6c.1 0 .2 0 .2-.1v-5.7c.4-.9 1.1-1.6 2.1-1.6s1.4.6 1.4 1.7v5.6c0 .1.1.1.2.1h.6c.1 0 .2 0 .2-.1v-5.7c.4-1 1.2-1.6 2.1-1.6.9 0 1.4.6 1.4 1.8v5.5c0 .1.1.1.2.1h.4zm7.6-3.2c0 1.8-.9 2.5-2.1 2.5-1.3 0-2.2-.8-2.2-2v-2.2c0-1.4 1.1-2.5 2.4-2.5 1.4 0 1.9.9 1.9 2.4v1.8zm.9-1.9c0-2.1-1-3.1-2.7-3.1-1.3 0-2.2.9-2.5 1.5v-4.4c0-.1-.1-.1-.2-.1h-.6c-.1 0-.2 0-.2.1v11c0 .1.1.1.2.1h.6c.1 0 .2 0 .2-.1v-1c.3.5 1 1.2 2.3 1.2 1.6 0 2.9-1.2 2.9-3.2v-2zm6.8.6h-4.2v-.8c0-1.5.9-2.2 2.1-2.2 1.4 0 2.1.8 2.1 2.3v.7zm.3 2.5c-.1-.1-.2-.1-.3.1-.3.7-.9 1.2-2.1 1.2-1.5 0-2.2-.9-2.2-2.3v-.7h4.8c.2 0 .4-.1.4-.3v-1c0-2.1-1.2-3.2-3.1-3.2-1.7 0-3 1.2-3 3v2.3c0 1.9 1.1 3.1 3.1 3.1 1.5 0 2.4-.6 2.8-1.6.1-.1 0-.2-.1-.3l-.3-.3zm3.2 2c.1 0 .2 0 .2-.1v-5.3c.2-.8 1.1-1.7 2.1-1.9h.3c.1 0 .1 0 .2-.2l.1-.6c0-.1 0-.2-.2-.2-1 0-2.1.9-2.6 1.9v-1.6c0-.1-.1-.1-.2-.1h-.6c-.1 0-.2 0-.2.1v7.9c0 .1.1.1.2.1h.7zm8.7-6.3c.1 0 .2-.1.1-.3-.3-1-1.1-1.8-2.5-1.8-1.5 0-2.5.9-2.5 2.1 0 2.8 4.2 1.9 4.2 4.1 0 .8-.7 1.4-1.7 1.4-1.1 0-1.7-.6-1.9-1.4 0-.1-.1-.2-.2-.1l-.5.2c-.1 0-.2.1-.1.3.3 1.2 1.4 1.9 2.7 1.9 1.6 0 2.6-1 2.6-2.2 0-3-4.2-2.1-4.2-4.1 0-.8.6-1.3 1.6-1.3s1.5.4 1.7 1.2c0 .1.1.1.2.1l.5-.1zm2.3 6.3c.1 0 .2 0 .2-.2v-1.5c0-.2-.1-.2-.2-.2h-.6c-.1 0-.2.1-.2.2v1.5c0 .1.1.2.2.2h.6zm12.1 0c.1 0 .1 0 .1-.2l-3.3-10.6c0-.1-.1-.2-.2-.2h-.7c-.1 0-.2.1-.2.2l-3.4 10.6c0 .1 0 .2.1.2h.7c.1 0 .1 0 .2-.1l1-3.2h3.8l1 3.2c0 .1.1.1.2.1h.7zm-2.2-4.2h-3.3l1.7-5.4 1.6 5.4zm16.3 4.2c.1 0 .2 0 .2-.1v-5.8c0-1.4-.8-2.3-2.1-2.3-.9 0-1.8.5-2.4 1.5-.2-.7-.9-1.5-2-1.5-1 0-1.9.7-2.3 1.4v-1.2c0-.1-.1-.1-.2-.1h-.6c-.1 0-.2 0-.2.1v7.9c0 .1.1.1.2.1h.6c.1 0 .2 0 .2-.1v-5.7c.4-.9 1.1-1.6 2.1-1.6s1.4.6 1.4 1.7v5.6c0 .1.1.1.2.1h.6c.1 0 .2 0 .2-.1v-5.7c.4-1 1.2-1.6 2.1-1.6.9 0 1.4.6 1.4 1.8v5.5c0 .1.1.1.2.1h.4zm8 0c.1 0 .2 0 .2-.1v-7.9c0-.1-.1-.1-.2-.1h-.6c-.1 0-.2 0-.2.1v6c-.7.9-1.7 1.4-2.6 1.4-.9 0-1.4-.6-1.4-1.7v-5.7c0-.1-.1-.1-.2-.1h-.6c-.1 0-.2 0-.2.1v5.8c0 1.5.8 2.4 2.2 2.4 1.3 0 2.2-.7 2.8-1.4v1.1c0 .1.1.1.2.1h.6zm3.2 0c.1 0 .2-.1.2-.2v-10.8c0-.2-.1-.2-.2-.2h-.6c-.1 0-.2.1-.2.2v10.8c0 .1.1.2.2.2h.6zm5.5 0c.2 0 .2-.1.2-.2v-.4c0-.1-.1-.2-.2-.2h-.5c-.9 0-1.3-.2-1.3-1.3v-5h1.7c.1 0 .1-.1.1-.2v-.4c0-.1 0-.2-.1-.2h-1.7v-1.9c0-.1-.1-.1-.2-.1h-.6c-.1 0-.2 0-.2.1v1.9h-1.1c-.1 0-.1.1-.1.2v.4c0 .1 0 .2.1.2h1.1v4.9c0 1.9.8 2.3 2.2 2.3h.6zm2.7 0c.1 0 .2 0 .2-.2v-7.7c0-.1-.1-.2-.2-.2h-.5c-.1 0-.2 0-.2.2v7.7c0 .1.1.2.2.2h.5zm0-9.4c.1 0 .2 0 .2-.2v-1.4c0-.1-.1-.2-.2-.2h-.5c-.1 0-.2.1-.2.2v1.4c0 .1.1.2.2.2h.5zm6.8 5.3c.1 0 .1-.1.1-.2v-.5c0-.1 0-.2-.1-.2h-4.4c-.1 0-.1.1-.1.2v.5c0 .1 0 .2.1.2h4.4zm7.4.9c0 1.8-.9 2.5-2.1 2.5-1.3 0-2.2-.8-2.2-2v-2.2c0-1.4 1.1-2.5 2.4-2.5 1.4 0 1.9.9 1.9 2.4v1.8zm-4.5 6.3c.1 0 .2 0 .2-.1v-4c.3.5 1 1.2 2.3 1.2 1.6 0 2.9-1.2 2.9-3.2v-2c0-2.1-1-3.1-2.7-3.1-1.3 0-2.2.9-2.5 1.5v-1.3c0-.1-.1-.1-.2-.1h-.6c-.1 0-.2 0-.2.1v11c0 .1.1.1.2.1h.6zm12.2-7.6h-4.2v-.8c0-1.5.9-2.2 2.1-2.2 1.4 0 2.1.8 2.1 2.3v.7zm.3 2.5c-.1-.1-.2-.1-.3.1-.3.7-.9 1.2-2.1 1.2-1.5 0-2.2-.9-2.2-2.3v-.7h4.8c.2 0 .4-.1.4-.3v-1c0-2.1-1.2-3.2-3.1-3.2-1.7 0-3 1.2-3 3v2.3c0 1.9 1.1 3.1 3.1 3.1 1.5 0 2.4-.6 2.8-1.6.1-.1 0-.2-.1-.3l-.3-.3zm3.2 2c.1 0 .2 0 .2-.1v-5.3c.2-.8 1.1-1.7 2.1-1.9h.3c.1 0 .1 0 .2-.2l.1-.6c0-.1 0-.2-.2-.2-1 0-2.1.9-2.6 1.9v-1.6c0-.1-.1-.1-.2-.1h-.6c-.1 0-.2 0-.2.1v7.9c0 .1.1.1.2.1h.7zm8.6-6.3c.1 0 .2-.1.1-.3-.3-1-1.1-1.8-2.5-1.8-1.5 0-2.5.9-2.5 2.1 0 2.8 4.2 1.9 4.2 4.1 0 .8-.7 1.4-1.7 1.4-1.1 0-1.7-.6-1.9-1.4 0-.1-.1-.2-.2-.1l-.5.2c-.1 0-.2.1-.1.3.3 1.2 1.4 1.9 2.7 1.9 1.6 0 2.6-1 2.6-2.2 0-3-4.2-2.1-4.2-4.1 0-.8.6-1.3 1.6-1.3s1.5.4 1.7 1.2c0 .1.1.1.2.1l.5-.1zm7.9 1.1c0-1.9-1.1-3.1-3.2-3.1-2 0-3.2 1.2-3.2 3.1v2.3c0 1.9 1.2 3 3.2 3s3.2-1.2 3.2-3.1v-2.2zm-.9 2.1c0 1.7-.9 2.4-2.3 2.4s-2.2-.7-2.2-2.3v-2.1c0-1.6.9-2.4 2.2-2.4 1.4 0 2.3.8 2.3 2.4v2zm8.5 3.1c.1 0 .2 0 .2-.1v-5.5c0-1.6-.7-2.6-2.3-2.6-1.1 0-2 .6-2.7 1.4v-1.2c0-.1-.1-.1-.2-.1h-.6c-.1 0-.2 0-.2.1v7.9c0 .1.1.1.2.1h.6c.1 0 .2 0 .2-.1v-5.7c.4-.9 1.4-1.7 2.4-1.7 1.3 0 1.6.9 1.6 2.1v5.3c0 .1.1.1.2.1h.6zm-143.6 14.7c0 1.8-.9 2.5-2.1 2.5-1.3 0-2.2-.8-2.2-2v-2.2c0-1.4 1.1-2.5 2.4-2.5 1.4 0 1.9.9 1.9 2.4v1.8zm-4.5 6.3c.1 0 .2 0 .2-.1v-4c.3.5 1 1.2 2.3 1.2 1.6 0 2.9-1.2 2.9-3.2v-2c0-2.1-1-3.1-2.7-3.1-1.3 0-2.2.9-2.5 1.5v-1.4c0-.1-.1-.1-.2-.1h-.6c-.1 0-.2 0-.2.1v11c0 .1.1.1.2.1h.6zm8.1-3.1c.1 0 .2-.1.2-.2v-10.8c0-.2-.1-.2-.2-.2h-.6c-.1 0-.2.1-.2.2v10.8c0 .1.1.2.2.2h.6zm6.8-1.7c-.6.6-1.3 1-2.3 1-1 0-1.7-.7-1.7-1.6v-.1c0-1.3 1.1-1.8 3.9-1.7v2.4zm.8 1.7c.1 0 .2 0 .2-.1v-5.1c0-1.9-.9-3-2.7-3-1.4 0-2.2.7-2.7 1.8-.1.1 0 .2.1.3l.4.2c.1.1.2.1.3-.1.3-.8.8-1.3 1.8-1.3 1.2 0 1.8.7 1.8 2.2v.6c-3.6-.2-4.9.5-4.9 2.4v.1c0 1.5 1.1 2.4 2.4 2.4 1.2 0 2-.6 2.5-1.1v.8c0 .1.1.1.2.1h.6zm8 0c.1 0 .2 0 .2-.1v-5.5c0-1.6-.7-2.6-2.3-2.6-1.1 0-2 .6-2.7 1.4v-1.2c0-.1-.1-.1-.2-.1h-.6c-.1 0-.2 0-.2.1v7.9c0 .1.1.1.2.1h.6c.1 0 .2 0 .2-.1v-5.7c.4-.9 1.4-1.7 2.4-1.7 1.3 0 1.6.9 1.6 2.1v5.2c0 .1.1.1.2.1h.6zm15 0c.1 0 .2 0 .2-.1v-5.9c0-1.4-.8-2.3-2.1-2.3-.9 0-1.8.5-2.4 1.5-.2-.7-.9-1.5-2-1.5-1 0-1.9.7-2.3 1.4v-1.1c0-.1-.1-.1-.2-.1h-.6c-.1 0-.2 0-.2.1v7.9c0 .1.1.1.2.1h.6c.1 0 .2 0 .2-.1v-5.7c.4-.9 1.1-1.6 2.1-1.6s1.4.6 1.4 1.7v5.6c0 .1.1.1.2.1h.6c.1 0 .2 0 .2-.1v-5.7c.4-1 1.2-1.6 2.1-1.6.9 0 1.4.6 1.4 1.8v5.5c0 .1.1.1.2.1h.4zm6.7-1.7c-.6.6-1.3 1-2.3 1-1 0-1.7-.7-1.7-1.6v-.1c0-1.3 1.1-1.8 3.9-1.7v2.4zm.8 1.7c.1 0 .2 0 .2-.1v-5.1c0-1.9-.9-3-2.7-3-1.4 0-2.2.7-2.7 1.8-.1.1 0 .2.1.3l.4.2c.1.1.2.1.3-.1.3-.8.8-1.3 1.8-1.3 1.2 0 1.8.7 1.8 2.2v.6c-3.6-.2-4.9.5-4.9 2.4v.1c0 1.5 1.1 2.4 2.4 2.4 1.2 0 2-.6 2.5-1.1v.8c0 .1.1.1.2.1h.6zm7.6 0c.1 0 .2-.1.1-.2l-2.9-4.7 2.7-3c.1-.1 0-.2-.1-.2h-.7c-.1 0-.2 0-.3.1l-3.2 3.6v-6.6c0-.1-.1-.2-.2-.2h-.6c-.1 0-.2.1-.2.2v10.8c0 .1.1.2.2.2h.6c.1 0 .2-.1.2-.2v-3.1l.9-1 2.5 4.2c.1.1.1.1.3.1h.7zm6.2-4.5h-4.2v-.8c0-1.5.9-2.2 2.1-2.2 1.4 0 2.1.8 2.1 2.3v.7zm.3 2.5c-.1-.1-.2-.1-.3.1-.3.7-.9 1.2-2.1 1.2-1.5 0-2.2-.9-2.2-2.3v-.7h4.8c.2 0 .4-.1.4-.3v-1c0-2.1-1.2-3.2-3.1-3.2-1.7 0-3 1.2-3 3v2.3c0 1.9 1.1 3.1 3.1 3.1 1.5 0 2.4-.6 2.8-1.6.1-.1 0-.2-.1-.3l-.3-.3zm7-4.3c.1 0 .2-.1.1-.3-.3-1-1.1-1.8-2.5-1.8-1.5 0-2.5.9-2.5 2.1 0 2.8 4.2 1.9 4.2 4.1 0 .8-.7 1.4-1.7 1.4-1.1 0-1.7-.6-1.9-1.4 0-.1-.1-.2-.2-.1l-.5.3c-.1 0-.2.1-.1.3.3 1.2 1.4 1.9 2.7 1.9 1.6 0 2.6-1 2.6-2.2 0-3-4.2-2.1-4.2-4.1 0-.8.6-1.3 1.6-1.3s1.5.4 1.7 1.2c0 .1.1.1.2.1l.5-.2zm5.7 6.3c.1 0 .2 0 .2-.2v-7.7c0-.1-.1-.2-.2-.2h-.5c-.1 0-.2 0-.2.2v7.7c0 .1.1.2.2.2h.5zm0-9.4c.1 0 .2 0 .2-.2v-1.4c0-.1-.1-.2-.2-.2h-.5c-.1 0-.2.1-.2.2v1.4c0 .1.1.2.2.2h.5zm5.5 9.4c.2 0 .2-.1.2-.2v-.4c0-.1-.1-.2-.2-.2h-.5c-.9 0-1.3-.2-1.3-1.3v-5h1.7c.1 0 .1-.1.1-.2v-.4c0-.1 0-.2-.1-.2h-1.7v-1.9c0-.1-.1-.1-.2-.1h-.6c-.1 0-.2 0-.2.1v1.9h-1.1c-.1 0-.1.1-.1.2v.4c0 .1 0 .2.1.2h1.1v4.9c0 1.9.8 2.3 2.2 2.3h.6zm9.9-4.5h-4.2v-.8c0-1.5.9-2.2 2.1-2.2 1.4 0 2.1.8 2.1 2.3v.7zm.3 2.5c-.1-.1-.2-.1-.3.1-.3.7-.9 1.2-2.1 1.2-1.5 0-2.2-.9-2.2-2.3v-.7h4.8c.2 0 .4-.1.4-.3v-1c0-2.1-1.2-3.2-3.1-3.2-1.7 0-3 1.2-3 3v2.3c0 1.9 1.1 3.1 3.1 3.1 1.5 0 2.4-.6 2.8-1.6.1-.1 0-.2-.1-.3l-.3-.3zm6.8.3c-.6.6-1.3 1-2.3 1-1 0-1.7-.7-1.7-1.6v-.1c0-1.3 1.1-1.8 3.9-1.7v2.4zm.8 1.7c.1 0 .2 0 .2-.1v-5.1c0-1.9-.9-3-2.7-3-1.4 0-2.2.7-2.7 1.8-.1.1 0 .2.1.3l.4.2c.1.1.2.1.3-.1.3-.8.8-1.3 1.8-1.3 1.2 0 1.8.7 1.8 2.2v.6c-3.6-.2-4.9.5-4.9 2.4v.1c0 1.5 1.1 2.4 2.4 2.4 1.2 0 2-.6 2.5-1.1v.8c0 .1.1.1.2.1h.6zm6.9-6.3c.1 0 .2-.1.1-.3-.3-1-1.1-1.8-2.5-1.8-1.5 0-2.5.9-2.5 2.1 0 2.8 4.2 1.9 4.2 4.1 0 .8-.7 1.4-1.7 1.4-1.1 0-1.7-.6-1.9-1.4 0-.1-.1-.2-.2-.1l-.5.2c-.1 0-.2.1-.1.3.3 1.2 1.4 1.9 2.7 1.9 1.6 0 2.6-1 2.6-2.2 0-3-4.2-2.1-4.2-4.1 0-.8.6-1.3 1.6-1.3s1.5.4 1.7 1.2c0 .1.1.1.2.1l.5-.1zm2 9.4c.1.1.1.1.3.1.7-.4 1.6-1.3 2.1-2.7l3-8.4c0-.1 0-.2-.1-.2h-.7c-.1 0-.1 0-.2.1l-2.2 6.8-2.3-6.8c0-.1-.1-.1-.2-.1h-.7c-.1 0-.1.1-.1.2l2.8 7.9c-.4 1.3-1 2.1-1.9 2.5-.1.1-.1.2 0 .2l.2.4zm6.1-3.1c.1 0 .2 0 .2-.2v-1.5c0-.2-.1-.2-.2-.2h-.6c-.1 0-.2.1-.2.2v1.5c0 .1.1.2.2.2h.6zm-146.3 57.7h-3c-.1 0-.2.1-.2.2v.9c0 .1 0 .2.2.2h1.7v.7c0 1.5-.9 2-1.9 2-1.1 0-2-.5-2-2v-3.1c0-1.4.7-2 2-2 1 0 1.5.5 1.8 1.3.1.2.2.2.3.2l1-.3c.1-.1.2-.1.2-.4-.4-1.2-1.3-2.2-3.3-2.2-2.1 0-3.5 1.2-3.5 3.2v3.5c0 2 1.2 3.2 3.5 3.2 2.1 0 3.5-1.3 3.5-3.2v-1.9c-.1-.2-.2-.3-.3-.3zm4.5-2.2c-1.7 0-2.9 1.1-2.9 2.9v1.8c0 1.7 1 2.8 2.9 2.8 1.3 0 2.2-.5 2.7-1.5.1-.2 0-.3-.1-.3l-.8-.4c-.2-.1-.2 0-.3.1-.2.5-.7.9-1.5.9-1 0-1.4-.6-1.4-1.5v-.4h3.9c.2 0 .3-.1.3-.3v-.9c0-2.2-1.1-3.2-2.8-3.2zm1.4 3.2h-2.8v-.4c0-.9.4-1.6 1.4-1.6 1.1 0 1.4.7 1.4 1.5v.5zm6.3 2.9h-.4c-.8 0-1-.2-1-1v-3.4h1.3c.1 0 .2-.1.2-.2v-.9c0-.1 0-.2-.1-.2h-1.3v-1.6c0-.1-.1-.2-.2-.2h-1.1c-.1 0-.2.1-.2.2v1.6h-.9c-.1 0-.2.1-.2.2v.9c0 .1.1.2.2.2h.9v3.6c0 1.6 1 2.1 2.2 2.1h.6c.2 0 .2-.1.2-.2v-.9c-.1-.1-.1-.2-.2-.2zm7.3-4.2c-1.4-.7-2.1-.9-2.1-1.7 0-.7.5-1.2 1.4-1.2.8 0 1.4.4 1.7 1.1 0 .1.1.2.3.1l.9-.3c.1-.1.2-.2.1-.3-.3-1-1.2-2-3-2-1.6 0-2.9 1-2.9 2.5s1 2.2 2.6 3c1.3.6 1.8.9 1.8 1.8s-.8 1.3-1.5 1.3c-1 0-1.6-.5-1.8-1.2-.1-.2-.2-.2-.3-.2l-.9.3c-.1 0-.2.1-.1.3.3 1.1 1.2 2.1 3.1 2.1 1.9 0 3.1-1.1 3.1-2.7s-.9-2.3-2.4-2.9zm7.1 4.2h-.4c-.8 0-1-.2-1-1v-3.4h1.3c.1 0 .2-.1.2-.2v-.9c0-.1 0-.2-.1-.2h-1.3v-1.6c0-.1-.1-.2-.2-.2h-1.1c-.1 0-.2.1-.2.2v1.6h-.9c-.1 0-.2.1-.2.2v.9c0 .1.1.2.2.2h.9v3.6c0 1.6 1 2.1 2.2 2.1h.6c.2 0 .2-.1.2-.2v-.9c0-.1-.1-.2-.2-.2zm4.3-6.1c-1.4 0-2.1.6-2.6 1.6-.1.1 0 .2.1.2l.8.4c.1.1.2.1.3-.1.2-.6.6-.9 1.3-.9.9 0 1.3.5 1.3 1.5v.4c-3.1-.2-4.1.7-4.1 2.2v.1c0 1.2.8 2.1 2.1 2.1 1 0 1.6-.5 2-1v.7c0 .1.1.2.2.2h1c.1 0 .2 0 .2-.2v-4.5c0-1.7-1-2.7-2.6-2.7zm1.1 5.4c-.4.5-1 .8-1.6.8-.6 0-1-.4-1-1v-.1c0-.8.6-1.2 2.6-1.1v1.4zm7-5.4c-1 0-1.8.7-2.2 1.5v-1.2c0-.1-.1-.2-.2-.2h-1.1c-.1 0-.2.1-.2.2v6.8c0 .1.1.2.2.2h1.2c.1 0 .2-.1.2-.2v-4.3c.2-.6.7-1.4 1.6-1.4h.3c.1 0 .2-.1.2-.2l.2-1.1s0-.1-.2-.1zm4.7 6.1h-.4c-.8 0-1-.2-1-1v-3.4h1.3c.1 0 .2-.1.2-.2v-.9c0-.1 0-.2-.1-.2h-1.3v-1.6c0-.1-.1-.2-.2-.2h-1.1c-.1 0-.2.1-.2.2v1.6h-.9c-.1 0-.2.1-.2.2v.9c0 .1.1.2.2.2h.9v3.6c0 1.6 1 2.1 2.2 2.1h.6c.2 0 .2-.1.2-.2v-.9c-.1-.1-.1-.2-.2-.2zm4.3-6.1c-1.7 0-2.9 1.1-2.9 2.9v1.8c0 1.7 1 2.8 2.9 2.8 1.3 0 2.2-.5 2.7-1.5.1-.2 0-.3-.1-.3l-.8-.4c-.2-.1-.2 0-.3.1-.2.5-.7.9-1.5.9-1 0-1.4-.6-1.4-1.5v-.4h3.9c.2 0 .3-.1.3-.3v-.9c0-2.2-1-3.2-2.8-3.2zm1.4 3.2h-2.8v-.4c0-.9.4-1.6 1.4-1.6 1.1 0 1.4.7 1.4 1.5v.5zm8.7-5.7h-1.1c-.1 0-.2.1-.2.2v3.1c-.4-.5-1.1-.8-2-.8-1.6 0-2.6 1.1-2.6 2.8v1.8c0 1.8 1.1 2.8 2.6 2.8 1 0 1.7-.5 2-1v.6c0 .1.1.2.2.2h1.1c.1 0 .2-.1.2-.2v-9.5h-.2zm-1.3 7c0 1-.5 1.8-1.6 1.8-.9 0-1.5-.5-1.5-1.7v-1.3c0-1.4.6-1.9 1.5-1.9.8 0 1.6.6 1.6 1.6v1.5z"/><path class="st1" d="M122.5 266.4c-.2 0-.9-.1-1.1-.2-1.1-.2-2-.4-2-1.5 0-.9 1-1.3 2.1-1.3 1.8 0 3.3.8 3.5.9l1-2.6c-.4-.2-2-1-4.4-1-2.3 0-5.1 1.2-5.1 4.2 0 2.7 1.9 3.5 3.7 3.8l1.3.2c1.2.2 1.9.7 1.9 1.5 0 1-1 1.5-2.4 1.5-2.3 0-3.7-.7-4.1-.9l-1.1 2.5c.3.2 1.9 1.1 5 1.1 3 0 5.4-1.5 5.4-4.3.2-2.6-1.6-3.6-3.7-3.9m9.2-10.4l-2.9 1.6v3.3h-1.5v2.7h1.5v5.9c0 2.5 1 4.8 4.7 4.8h1.1v-2.7h-.4c-1.8 0-2.5-1-2.5-2.4v-5.5h3.3v-2.7h-3.3v-5m22.3 7.4c1.1 0 2.3.5 2.6 1.7l2.6-1c-.7-2.6-3.1-3.5-5.2-3.5-3.8 0-5.3 2.3-5.3 4.6v4.7c0 2.3 1.5 4.6 5.3 4.6 2.1 0 4.5-1 5.2-3.5l-2.6-1c-.3 1.2-1.5 1.7-2.6 1.7-1.9 0-2.5-1.1-2.5-2.3v-3.8c0-1.1.5-2.2 2.5-2.2m12.2 3.5l5.3-6h-3.5l-4.6 5.3v-10.2h-2.8v18.3h2.8v-4.2l.9-1.1 4.1 5.3h3.5l-5.7-7.4"/><path class="st2" d="M143 263.8h-3c-.5 0-.9.4-.9.9v3.2h-2.9v-3.2c0-2.1 1.7-3.8 3.8-3.8h3v2.9m-2.5 7.6h3c.5 0 .9-.4.9-.9v-3.2h2.9v3.2c0 2.1-1.7 3.8-3.8 3.8h-3v-2.9m-48.3-10.5h3.3v2.7h-3.3v5.5c0 1.4.8 2.4 2.5 2.4h.4v2.7h-1.1c-3.7 0-4.7-2.3-4.7-4.8v-5.9h-4.8v5.5c0 1.4.8 2.4 2.5 2.4h.4v2.7h-1.1c-3.7 0-4.7-2.3-4.7-4.8v-5.9h-1.4v-2.7h1.4v-3.3l2.9-1.6v4.9h4.8v-3.3l2.9-1.6v5.1m-30.8-.2c-.9 0-1.8.2-2.6.5v-5.2h-2.9v18.3h2.9v-10.5c.6-.4 1.4-.6 2.2-.6 1.8 0 2.6 1 2.6 2.5v8.6h2.8v-9c0-2.7-1.9-4.6-5-4.6m14.4 11c-.5.3-1.2.5-1.9.5-2.1 0-2.9-1.1-2.9-2.6v-8.6h-2.9v8.7c0 3.4 1.9 5 5.4 5 1.7 0 3.5-.4 5.1-1.1v-12.5h-2.9v10.6m-25.1-5.3c-.2 0-.9-.1-1.1-.2-1.1-.2-2-.4-2-1.5 0-.9 1-1.3 2.1-1.3 1.8 0 3.3.8 3.5.9l1-2.6c-.4-.2-1.9-1-4.4-1-2.3 0-5.1 1.2-5.1 4.2 0 2.7 1.9 3.5 3.7 3.8l1.3.2c1.2.2 1.9.7 1.9 1.5 0 1-1 1.5-2.4 1.5-2.3 0-3.7-.7-4.1-.9l-1.1 2.5c.3.2 1.9 1.1 5 1.1 3 0 5.4-1.5 5.4-4.3.1-2.6-1.6-3.6-3.7-3.9m56.6-1.1c0-2.5-1.9-4.6-5.2-4.6-3.8 0-5.3 2.4-5.3 4.6v4.5c0 3.1 2 4.9 5.3 4.9 2.9 0 4.4-1.7 4.9-2.7l-2.4-1.4c-.2.6-1.2 1.4-2.5 1.4-1.8 0-2.4-1-2.4-2.2v-.7h7.7v-3.8m-2.9 1.3h-4.8v-1c0-1.1.5-2.3 2.4-2.3 1.8 0 2.4 1.1 2.4 2.2v1.1zm4.7-1.3v9.1h2.8v-8.8c0-.8.4-2.1 2.5-2.1.3 0 1.1.1 1.3.1v-2.8c-.3-.1-.8-.1-1.5-.1-3.5 0-5.1 2.2-5.1 4.6"/><path class="st1" d="M174.6 263c-.8 0-1.4-.6-1.4-1.4 0-.8.6-1.4 1.4-1.4.8 0 1.4.6 1.4 1.4 0 .8-.6 1.4-1.4 1.4m0-2.4c-.6 0-1 .5-1 1.1 0 .6.4 1 1 1s1-.5 1-1c0-.6-.4-1.1-1-1.1zm.2 1.8l-.2-.5h-.2v.5h-.3v-1.4h.5c.4 0 .5.2.5.4s-.1.4-.3.4l.3.5h-.3zm.1-1c0-.1-.1-.2-.2-.2h-.2v.5h.2c.1-.1.2-.1.2-.3z"/><path class="st3" d="M145.993 452.329l-2.386 41.533-18.271-1.05 2.386-41.533z"/><path class="st4" d="M144.2 453.1l-12.3 17c-.8 1.2-.9 3.1-.3 4.4l10.2 18.3c.3.6.8.9 1.3 1h.4l2.4-41.4c-.5-.2-1.2 0-1.7.7"/><path class="st0" d="M177.101 433.093l-10.698 36.568-51.637-15.107 10.698-36.568z"/><path class="st5" d="M114.5 454.6l10.8-36.8 52 15.2-10.8 36.8-52-15.2zm11-36.5l-10.6 36.2 51.4 15 10.6-36.2-51.4-15z"/><path class="st6" d="M169.247 442.288l-2.668 9.118-.384-.112 2.668-9.118zm-1.638-.489l-2.669 9.117-.192-.056 2.669-9.117zm-1.699-.439l-2.668 9.118-.192-.056 2.668-9.118zm-7.996-9.037l-3.764 12.86-.384-.112 3.764-12.86zm-2.248-.588l-7.975 27.258-.192-.056 7.975-27.258zm-2.223-.67l-7.975 27.258-.192-.056 7.975-27.258zm-2.249-.561l-7.975 27.258-.192-.056 7.975-27.258zm-2.14-.679l-7.978 27.258-.192-.056 7.978-27.258zm-2.209-.621l-7.975 27.258-.192-.056 7.975-27.258zm-2.127-.641l-7.975 27.258-.192-.056 7.975-27.258zm-2.222-.664l-7.975 27.258-.192-.056 7.975-27.258zm-2.222-.671l-7.975 27.258-.192-.056 7.975-27.258zm-2.152-.596l-5.646 19.292-.192-.056 5.646-19.292z"/><path class="st7" d="M167.6 440.1c-1.1-.3-1.7-1.4-1.4-2.5.3-1.1 1.4-1.7 2.5-1.4 1.1.3 1.7 1.4 1.4 2.5-.3 1.1-1.4 1.7-2.5 1.4m-42.4 9.9l.1-.3c.4-1.1.4-1.1.3-1.2-.1-.1-.1-.2-.2-.5s-.1-.4 0-.5c.1-.1.2 0 .2 0 .2.1.3.1.5-.4s.3-1.5.3-2.2c-.2.1-.3.1-.4 0-.1-.1-.1-.3 0-.7.1-.1.2-.4.4-.4.1 0 .2.3.2.6.4-.3.8-.8 1-1.5.2-.7.2-1.2.1-1.6-.3.1-.6 0-.8-.1-.2-.1-.3-.3-.3-.4 0-.1.1-.2.3-.3.2-.1.5 0 .6.2.1.1.2.2.2.4.1 0 .2-.1.3-.2h.1v.1c-.1.1-.3.2-.4.2.1.5.1 1.1-.1 1.8s-.7 1.3-1.1 1.6l-.1.1c0 .8-.1 1.9-.3 2.4-.2.7-.6.5-.8.5v.3c.1.3.1.4.2.4.1.2.1.2-.3 1.4l-.1.2c.2.1.2.2.1.1m1.1-5.8s-.1.1-.1.2c-.1.3-.1.4-.1.4s.1 0 .3-.1c0-.2 0-.4-.1-.5m1.3-3.1l-.1-.1c-.1-.1-.3-.2-.4-.1-.1 0-.2.1-.2.1 0 .1.1.2.2.2.2.1.4.1.7.1l-.2-.2"/><path class="st8" d="M137.8 451.6l-10.3-3.9-.3.7 6.8 2.6c.8.3 1.2 1.2.9 2-.3.8-1.2 1.2-2 .9l-6.8-2.6-.3.6 3.5 1.3c.8.3 1.2 1.2.9 2-.3.8-1.2 1.2-2 .9l-10.7-4.1-2.6-1c-1.2-.5-2.1-1.5-2.5-2.7l-8.1-3.1 3.6-9.3 7.5 2.9c.4-.6 1-1.1 1.6-1.4h-.1l6.7-3 3.6 1.4 2.7 1v.1l-.3.7c-.5 1.2-1.8 1.8-3 1.3l-2.9-1.1-.9.4 3.6 1.4c.1 0 .1 0 .2.1l10.5 4c.8.3 1.2 1.2.9 2-.3.8-1.2 1.2-2 .9l-6.9-2.6c0 .2-.1.5-.2.7l10.3 3.9c.8.3 1.2 1.2.9 2-.6.9-1.5 1.3-2.3 1"/><path class="st9" d="M106 449.2l-62-20.7 6.1-16 62 20.8z"/><path class="st10" d="M47.8 420l61 20.3 2.5-6.5-61-20.3z"/><path class="st7" d="M92.1 447.8l13.5 22.8c.3-.2.4-.6.2-.9l-13.1-22.2-.6.3z"/><path class="st11" d="M93.9 446.7l-1.3.8 13.1 22.2c.2.3.7.4 1 .2.3-.2.5-.6.3-.9l-13.1-22.3z"/><path class="st7" d="M107.1 468.9c.2.3.6.4.9.2l-13.5-22.8-.6.3 13.2 22.3z"/><path class="st12" d="M107.9 469.1c-.3.1-.7 0-.9-.2.1.3 0 .7-.3.9-.3.2-.8.1-1-.2.1.3 0 .7-.2.9l2.1.8.3-2.2z"/><path class="st11" d="M106.6 471l1 .4.2-1.1-.6.3c-.3.1-.4.2-.6.4"/><path class="st13" d="M92.582 447.403l-.516.306-.408-.688.516-.306z"/><path class="st14" d="M93.9 446.693l-1.291.764-.407-.688 1.291-.764z"/><path class="st13" d="M94.43 446.31l-.517.305-.407-.689.517-.305z"/><path class="st4" d="M238.038 399.006l-8.04 7.653-12.204-12.82 8.04-7.653z"/><path class="st0" d="M232.685 401.707l-.218.207-5.576-5.875.218-.207zm.525-4.443l-.218.206-5.575-5.876.218-.206zm-1.622 5.423l-.145.137-5.566-5.885.145-.137zm-1.083 1.003l-.145.137-5.565-5.886.145-.137z"/><path class="st7" d="M226.6 390.7c-.5.5-1.3.5-1.8 0s-.5-1.3 0-1.8 1.3-.5 1.8 0 .5 1.3 0 1.8"/><path class="st15" d="M86.7 462.5v-.1l-.1.1h.1"/><path class="st16" d="M86 468.3h.1c0-.1 0-.1-.1-.2v.2"/><path class="st17" d="M147.639 398.781l11.974-3.59 5.055 16.859-11.974 3.59z"/><path class="st9" d="M162.7 400l-12.5-44-15.1 4.5 12.6 44.1z"/><path class="st10" d="M142.1 358.9l12.3 43.1-6.2 1.9-12.3-43.1z"/><path class="st18" d="M173.8 424.5l-20.8-18.2c-.2-.2-.6-.2-.8.1l-2.9 3.4c-.2.2-.2.6.1.8l20.8 18.2c.2.2.6.2.8-.1l2.9-3.4c.2-.2.2-.5-.1-.8m-22-15.1c-.1-.1-.2-.3 0-.5.1-.1.3-.2.5 0 .1.1.2.3 0 .5s-.4.2-.5 0"/><path class="st19" d="M152.4 408.7c-.3-.2-.6-.2-.9.1-.2.3-.2.6.1.9.3.2.6.2.9-.1.2-.3.2-.6-.1-.9m-.6.7c-.1-.1-.2-.3 0-.5.1-.1.3-.2.5 0 .1.1.2.3 0 .5s-.4.2-.5 0"/><path class="st0" d="M173.6 424.9l-20.6-18.6c-.2-.2-.6-.2-.8 0l-3 3.3c-.2.2-.2.6 0 .8l20.5 18.6c.2.2.6.2.8 0l3-3.3c.3-.2.3-.6.1-.8m-21.8-15.5c-.1-.1-.1-.3 0-.5.1-.1.3-.1.5 0 .1.1.1.3 0 .5-.2.1-.4.1-.5 0"/><path class="st20" d="M169.845 429.125l-3.114-2.818 3.757-4.152 3.114 2.818z"/><path class="st21" d="M166.652 426.307l-3.113-2.819 3.759-4.151 3.113 2.819z"/><path class="st22" d="M163.528 423.435l-3.113-2.819 3.759-4.151 3.113 2.819z"/><path class="st23" d="M160.482 420.627l-3.114-2.819 3.758-4.152 3.114 2.819z"/><path class="st24" d="M157.349 417.782l-3.114-2.818 3.757-4.152 3.114 2.818z"/><path class="st25" d="M154.149 414.953l-3.114-2.819 3.758-4.152 3.114 2.819z"/><path class="st19" d="M152.4 408.7c-.2-.2-.6-.2-.9 0-.2.2-.2.6 0 .9.2.2.6.2.9 0 .3-.3.2-.7 0-.9m-.6.7c-.1-.1-.1-.3 0-.5.1-.1.3-.1.5 0 .1.1.1.3 0 .5-.2.1-.4.1-.5 0"/><path class="st0" d="M171.9 427l-18.6-20.5c-.2-.2-.6-.3-.8 0l-3.3 3c-.2.2-.3.6 0 .8l18.6 20.5c.2.2.6.3.8 0l3.3-3c.2-.2.3-.6 0-.8m-20.1-17.5c-.1-.1-.1-.3 0-.5.1-.1.3-.1.5 0 .1.1.1.3 0 .5-.2.1-.4.1-.5 0"/><path class="st26" d="M167.729 430.819l-2.825-3.108 4.144-3.767 2.825 3.108z"/><path class="st27" d="M164.955 427.723l-2.824-3.109 4.145-3.765 2.824 3.109z"/><path class="st28" d="M162.152 424.576l-2.824-3.109 4.146-3.765 2.824 3.109z"/><path class="st29" d="M159.371 421.493l-2.824-3.108 4.145-3.766 2.824 3.108z"/><path class="st30" d="M156.506 418.316l-2.824-3.108 4.145-3.766 2.824 3.108z"/><path class="st31" d="M153.613 415.233l-2.824-3.108 4.145-3.766 2.824 3.108z"/><path class="st32" d="M152.5 408.8c-.2-.2-.6-.3-.9 0-.2.2-.3.6 0 .9.2.2.6.3.9 0 .2-.2.2-.6 0-.9m-.7.7c-.1-.1-.1-.3 0-.5.1-.1.3-.1.5 0 .1.1.1.3 0 .5-.2.1-.4.1-.5 0"/><path class="st0" d="M166.7 431.5l-12.7-24.6c-.1-.3-.5-.4-.8-.3l-4 2c-.3.2-.4.5-.3.8l12.7 24.6c.2.3.5.4.8.3l4-2c.3-.1.4-.5.3-.8m-15-22.1c-.1-.2 0-.4.1-.4.2-.1.4 0 .5.1.1.2 0 .4-.1.4-.2.1-.4 0-.5-.1"/><path class="st33" d="M161.691 434.163l-1.924-3.733 4.978-2.565 1.924 3.733z"/><path class="st34" d="M159.726 430.433l-1.922-3.734 4.979-2.563 1.922 3.734z"/><path class="st35" d="M157.841 426.691l-1.924-3.733 4.978-2.565 1.924 3.733z"/><path class="st36" d="M155.88 422.966l-1.923-3.734 4.978-2.564 1.923 3.734z"/><path class="st37" d="M153.955 419.169l-1.923-3.734 4.978-2.564 1.923 3.734z"/><path class="st38" d="M152.01 415.476l-1.923-3.734 4.978-2.564 1.923 3.734z"/><path class="st39" d="M152.5 409c-.2-.3-.5-.4-.8-.3-.3.2-.4.5-.3.8.2.3.5.4.8.3.4-.2.5-.5.3-.8m-.8.4c-.1-.2 0-.4.1-.4.2-.1.4 0 .5.1.1.2 0 .4-.1.4-.2.1-.4 0-.5-.1"/><path class="st0" d="M160.4 434.6l-5.9-27.1c-.1-.3-.4-.5-.7-.5l-4.4.9c-.3.1-.5.4-.5.7l5.9 27.1c.1.3.4.5.7.5l4.4-.9c.4-.1.6-.4.5-.7m-8.7-25.3c0-.2.1-.4.3-.4.2 0 .4.1.4.3 0 .2-.1.4-.3.4-.2 0-.4-.1-.4-.3"/><path class="st40" d="M154.87 435.838l-.892-4.104 5.472-1.189.892 4.104z"/><path class="st41" d="M154.005 431.699l-.89-4.105 5.473-1.187.89 4.105z"/><path class="st42" d="M153.104 427.578l-.891-4.104 5.472-1.188.891 4.104z"/><path class="st43" d="M152.234 423.478l-.891-4.104 5.472-1.188.891 4.104z"/><path class="st44" d="M151.277 419.344l-.913-4.202 5.472-1.189.913 4.202z"/><path class="st45" d="M150.39 415.216l-.892-4.104 5.472-1.189.892 4.104z"/><path class="st39" d="M152.6 409.1c-.1-.3-.4-.5-.7-.5-.3.1-.5.4-.5.7.1.3.4.5.7.5.4-.1.6-.4.5-.7m-.9.2c0-.2.1-.4.3-.4.2 0 .4.1.4.3 0 .2-.1.4-.3.4-.2 0-.4-.1-.4-.3"/><path class="st0" d="M153.6 435.9l1.3-27.7c0-.3-.2-.6-.6-.6l-4.5-.2c-.3 0-.6.2-.6.6l-1.3 27.7c0 .3.2.6.6.6l4.5.2c.3-.1.5-.3.6-.6m-1.9-26.7c0-.2.2-.3.3-.3.2 0 .3.2.3.3 0 .2-.2.3-.4.3-.1 0-.2-.1-.2-.3"/><path class="st46" d="M147.976 435.676l.201-4.195 5.594.268-.201 4.195z"/><path class="st47" d="M148.094 431.459l.201-4.195 5.594.268-.201 4.195z"/><path class="st48" d="M148.31 427.248l.201-4.195 5.594.268-.201 4.195z"/><path class="st49" d="M148.523 423.038l.201-4.195 5.594.268-.201 4.195z"/><path class="st50" d="M148.7 418.842l.201-4.195 5.593.269-.201 4.195z"/><path class="st51" d="M148.955 414.617l.201-4.195 5.594.268-.201 4.195z"/><path class="st39" d="M152.6 409.2c0-.3-.2-.6-.6-.6-.3 0-.6.2-.6.6 0 .3.2.6.6.6.3 0 .6-.2.6-.6m-.9 0c0-.2.2-.3.3-.3.2 0 .3.2.3.3 0 .2-.2.3-.4.3-.1 0-.2-.1-.2-.3"/><path class="st0" d="M146.6 435.3l8.4-26.4c.1-.3-.1-.6-.4-.7l-4.2-1.4c-.3-.1-.6.1-.7.4l-8.4 26.4c-.1.3.1.6.4.7l4.2 1.4c.3.1.6 0 .7-.4m5.1-26.2c.1-.2.2-.3.4-.2.2.1.3.2.2.4-.1.2-.2.3-.4.2-.2 0-.3-.2-.2-.4"/><path class="st52" d="M141.183 433.703l1.281-4 5.333 1.709-1.281 4z"/><path class="st53" d="M142.505 429.684l1.281-4 5.333 1.707-1.281 4z"/><path class="st54" d="M143.812 425.676l1.281-4 5.333 1.707-1.281 4z"/><path class="st55" d="M145.119 421.653l1.281-4 5.333 1.707-1.281 4z"/><path class="st56" d="M146.344 417.583l1.281-4 5.333 1.708-1.281 4z"/><path class="st57" d="M147.653 413.575l1.28-4 5.334 1.706-1.28 4z"/><path class="st39" d="M152.6 409.4c.1-.3-.1-.7-.4-.8-.3-.1-.7.1-.8.4-.1.3.1.7.4.8.3.1.7-.1.8-.4m-.9-.3c.1-.2.2-.3.4-.2.2.1.3.2.2.4-.1.2-.2.3-.4.2-.2 0-.3-.2-.2-.4"/><path class="st0" d="M140 433.1l15-23.3c.2-.3.1-.6-.2-.8l-3.8-2.4c-.3-.2-.6-.1-.8.2l-15 23.3c-.2.3-.1.6.2.8l3.8 2.4c.3.1.7 0 .8-.2m11.7-24.1c.1-.2.3-.2.5-.1s.2.3.1.5-.3.2-.5.1c-.1-.1-.2-.3-.1-.5"/><path class="st58" d="M135.232 430.098l2.272-3.532 4.71 3.03-2.272 3.532z"/><path class="st59" d="M137.466 426.521l2.271-3.533 4.71 3.028-2.271 3.533z"/><path class="st60" d="M139.813 422.966l2.272-3.532 4.71 3.03-2.272 3.532z"/><path class="st61" d="M142.073 419.378l2.272-3.533 4.71 3.029-2.272 3.533z"/><path class="st62" d="M144.402 415.857l2.272-3.533 4.71 3.029-2.272 3.533z"/><path class="st63" d="M146.656 412.284l2.273-3.532 4.71 3.03-2.273 3.532z"/><path class="st64" d="M152.5 409.5c.2-.3.1-.7-.2-.8-.3-.2-.7-.1-.8.2-.2.3-.1.7.2.8.3.2.6.1.8-.2m-.8-.5c.1-.2.3-.2.5-.1s.2.3.1.5-.3.2-.5.1c-.1-.1-.2-.3-.1-.5"/><path class="st8" d="M165.9 415.6l-.3 2.5-.3 2.6-.3 2.3v.1l-6.5 1.8v-.1l-.3-1.1c-.5-1.8.5-3.7 2.3-4.2l.7-.2.1-3.3c-2.5-.9-4.7-3.3-5.7-6.6-.8-2.5-.6-5 .2-7l5.7-1.7 4.4 14.9z"/><path class="st5" d="M206.4 407.1l-3.8 15h-.1c-1.4-.3-2.2-1.7-1.8-3.1l3.2-12.6 2.5.7z"/><path class="st65" d="M209.3 399.9l-.7-.2c-1.5-.4-3.1.5-3.5 2.1l-.8 3.1c-.4 1.5.5 3.1 2.1 3.5l.7.2c1.5.4 3.1-.5 3.5-2.1l.8-3.1c.4-1.6-.6-3.1-2.1-3.5m-.3 6.2c-.2.7-.9 1.1-1.5.9l-.7-.2c-.7-.2-1.1-.9-.9-1.5l.8-3.1c.2-.7.9-1.1 1.5-.9l.7.2c.7.2 1.1.9.9 1.5l-.8 3.1z"/><path class="st66" d="M204.3 404.8l-1.3 5.1c-.2.9.3 1.8 1.2 2 .9.2 1.8-.3 2-1.2l.8-3.3-2.7-2.6z"/><path class="st67" d="M205.3 410.5c-.1.4-.5.7-.9.6-.4-.1-.7-.5-.6-.9.1-.4.5-.7.9-.6.5.1.7.5.6.9"/><path class="st18" d="M203.8 411l6.1 10.2h.1c1.2-.7 1.6-2.3.9-3.5l-4.8-8-2.3 1.3z"/><path class="st65" d="M197.1 401.7l.7-.4c1.4-.8 3.1-.4 4 1l1.6 2.7c.8 1.4.4 3.1-1 4l-.7.4c-1.4.8-3.1.4-4-1l-1.6-2.7c-.9-1.4-.4-3.2 1-4m2 5.8c.4.6 1.1.8 1.7.4l.7-.4c.6-.4.8-1.1.4-1.7l-1.6-2.7c-.4-.6-1.1-.8-1.7-.4l-.7.4c-.6.4-.8 1.1-.4 1.7l1.6 2.7zm4.2-2.5l2.7 4.6c.5.8.2 1.8-.6 2.2-.8.5-1.8.2-2.2-.6l-1.8-3 1.9-3.2z"/><path class="st5" d="M203.9 410.8c.2.4.7.5 1.1.3.4-.2.5-.7.3-1.1-.2-.4-.7-.5-1.1-.3-.4.2-.5.7-.3 1.1"/><path class="st0" d="M490.745 27.068l-30.862 21.304-30.109-43.619 30.862-21.304z"/><path class="st6" d="M460.6-16.8l30.3 43.8-.1.1-30.9 21.4-.1-.1-30.2-43.7.1-.1 30.9-21.4zm30 43.8l-30-43.5-30.7 21.2 30 43.5 30.7-21.2z"/><path class="st7" d="M490.781 27.05l-30.862 21.304-10.226-14.814 30.862-21.304z"/><path class="st6" d="M480.5 12l10.4 15-.1.1-30.9 21.4-10.4-15 .1-.1 30.9-21.4zm10.1 15l-10.1-14.7-30.7 21.2 10.1 14.7 30.7-21.2zm-30.58 21.356l-.174-.099 20.538-36.175.174.099zm30.684-21.286l-41.097 6.465-.031-.198 41.097-6.465zm-40.33-14.07l-.227-.329 16.878-11.636.227.329zm3.066-4.924l-.114-.165 12.507-8.638.114.165zm18.86.124l1.1 1.6-12 8.3-1.1-1.6 12-8.3zm.5 1.5l-.6-.9-11.4 7.8.6.9 11.4-7.8zm-2.4-4.3l1.1 1.6-20.5 14.1-1.1-1.6 20.5-14.1zm.5 1.5l-.6-.9-19.8 13.6.6.9 19.8-13.6z"/><path class="st7" d="M479.1 51c-.1-.5.2-1.1.8-1.2l2.3-.5c.5-.1 1.1.2 1.2.8l.1.5c.1.5-.2 1-.8 1.2l-2.3.5c-.5.1-1.1-.2-1.2-.8l-.1-.5zm3.1-.4c-1-4.9 2.2-9.6 7.1-10.6 4.9-1 9.6 2.2 10.6 7.1 1 4.9-2.2 9.6-7.1 10.6-4.9 1-9.7-2.2-10.6-7.1"/><path class="st0" d="M482.9 50.5c-.9-4.5 2-8.9 6.5-9.8s8.9 2 9.8 6.5c.9 4.5-2 8.9-6.5 9.8s-8.9-2-9.8-6.5"/><path class="st68" d="M483.8 50.3c-.8-4 1.8-7.9 5.8-8.6 4-.8 7.9 1.8 8.6 5.8.8 4-1.8 7.9-5.8 8.6-3.9.8-7.8-1.8-8.6-5.8"/><path class="st6" d="M489.5 41.6c4-.8 8 1.8 8.8 5.8.8 4-1.8 8-5.8 8.8-4 .8-8-1.8-8.8-5.8-.8-4.1 1.8-8 5.8-8.8m2.9 14.4c3.9-.8 6.5-4.6 5.7-8.5-.8-3.9-4.6-6.5-8.5-5.7-3.9.8-6.5 4.6-5.7 8.5.8 3.9 4.6 6.5 8.5 5.7"/><path class="st69" d="M494.2 55.5c3-1.4 4.7-4.7 4-8.1-.7-3.4-3.6-5.7-6.8-5.9-3 1.4-4.7 4.7-4 8.1.6 3.4 3.5 5.7 6.8 5.9"/><path class="st17" d="M442.4 14.2c-1.2-1-3-.8-4 .5l-7.4 7.5 4.7-.3 7.5-7-.1-.1-.7-.6zm-6.9.6c-1.3-.8-3.1-.4-3.9 1l-5.9 6.7 5-.1 5.6-7.1s-.1 0-.1-.1l-.7-.4z"/><path class="st8" d="M446.7 15.8c-.8-1.5-2.7-2-4.1-1.2l-6.8 3.5 5.4 1.8 6-3.1s0-.1-.1-.1l-.4-.9zm-5.3 4.1l-4.8 2h-.2l-6.5.1-3.9.7-13.6-7.5c-.3-.1-.5-.2-.8-.4l-.2-.2c-.2-.2-7.4-4.6-7.4-4.6l2.9-9.3 11 7.2 13-2.5 9.3 5.8h.1l-.5.8c-.8 1.3-2.5 1.8-3.8 1.1l-2-1.1c-1.7-1.1-3.9-.6-5 1.1-.5.8-.6 1.7-.5 2.5l.4.7 1.2 1.5 7-.4 2.1-.7 2.2 3.2z"/><path class="st70" d="M353.5-44l-9.5 14.3 65.3 48.3 9.5-14.3-65.3-48.3z"/><path class="st71" d="M353-43.7l-4 6.1 65 48.1 4-6.1-64.8-48s-.1 0-.2-.1"/><path class="st72" d="M415.9 27.1l33.2-15.7c-.2-.3-.7-.4-1.1-.3l-32.4 15.3.3.7z"/><path class="st4" d="M414.9 24.9l.7 1.5 32.4-15.2c.4-.3.7-.8.5-1.1-.2-.4-.7-.5-1.2-.4l-32.4 15.2z"/><path class="st72" d="M447.3 9.7c.4-.2.6-.7.5-1l-33.2 15.7.3.6 32.4-15.3z"/><path class="st12" d="M447.8 8.6c.1.4-.1.8-.5 1 .5-.2 1 0 1.2.4.2.4 0 .9-.5 1.1.4-.2.9 0 1.1.3l1.5-2.4-2.8-.4z"/><path class="st4" d="M449.9 10.2l.7-1.2-1.4-.2c0 .3.1.5.2.7.2.3.4.5.5.7"/><path class="st73" d="M415.57 26.492l.298.633-.995.469-.298-.633z"/><path class="st74" d="M414.879 24.975l.725 1.538-.995.469-.725-1.538z"/><path class="st73" d="M414.594 24.335l.298.633-.995.469-.298-.633z"/><path class="st75" d="M421.28 408.462l1.901 18.201-24.268 2.535-1.901-18.201z"/><path class="st74" d="M419.941 410.107l1.6 15.317-21.384 2.234-1.6-15.317z"/><path class="st73" d="M400.2 427.6l19.8-17.6 1.6 15.4z"/><path class="st0" d="M452.225 465.476l17.554-35.053 49.539 24.808-17.554 35.053z"/><path class="st6" d="M501.7 490.4l-49.7-24.9v-.1l17.6-35.1h.1l49.6 24.8v.1l-17.6 35.2zm-49.4-25l49.3 24.7 17.4-34.8-49.3-24.7-17.4 34.8zm27.552 1.358l.358.179-2.819 5.634-.358-.179zm3.194-.941l.179.089-3.849 7.691-.179-.089zm2.124.971l.179.089-3.839 7.695-.179-.089zm2.085 1.123l.179.089-3.831 7.7-.179-.089zm-6.948-23.489l.357.179-2.826 5.63-.357-.179zm3.259-1.044l.179.089-3.841 7.694-.179-.089zm2.075 1.124l.179.089-3.83 7.7-.179-.089zm2.128.976l.179.089-3.839 7.695-.179-.089zm2.186 1.153l.179.089-3.849 7.691-.179-.089zm2.049 1.104l.179.089-3.842 7.694-.179-.089zm2.127.968l.179.088-3.794 7.718-.179-.088zm-9.789 9.036l.358.179-2.819 5.634-.358-.179zm3.193-1.021l.179.089-3.823 7.704-.179-.089z"/><path class="st7" d="M459.059 463.452l3.985-7.958 16.006 8.014-3.985 7.958z"/><path class="st6" d="M475.2 471.5c0 .1-.1.1 0 0h-.1l-16-8-.1-.1v-.1l4-8c0-.1.1-.1.1 0l16 8 .1.1v.1l-4 8m-16-8.1l15.9 7.9 3.9-7.8-15.9-7.9-3.9 7.8z"/><path class="st76" d="M471.68 458.426l3.985-7.958 7.958 3.985-3.985 7.958z"/><path class="st6" d="M479.7 462.5h-.1l-8-4c-.1 0-.1-.1 0-.1l4-8c0-.1.1-.1.1 0l8 4 .1.1v.1l-4.1 7.9m-7.9-4.1l7.8 3.9 3.9-7.8-7.8-3.9-3.9 7.8z"/><path class="st75" d="M468.072 445.4l3.985-7.957 7.957 3.985-3.985 7.957z"/><path class="st6" d="M476.1 449.4h-.1l-8-4-.1-.1v-.1l4-8 .1-.1h.1l8 4c.1 0 .1.1 0 .1l-4 8.2m-7.9-4.1l7.8 3.9 3.9-7.8-7.8-3.9-3.9 7.8zm30.133 19.413l.358.178-2.809 5.639-.358-.178zm3.2-1.021l.179.089-3.822 7.704-.179-.089zm2.126 1.111l.179.089-3.819 7.706-.179-.089zm2.123 1.008l.179.089-3.83 7.7-.179-.089zm-39.536-17.158l.358.179-2.819 5.634-.358-.179zm3.178-.942l.179.089-3.83 7.7-.179-.089zm2.138 1.007l.179.089-3.849 7.691-.179-.089zm2.058 1.104l.179.089-3.849 7.691-.179-.089zm24.433 26.053l.357.18-2.833 5.627-.357-.18zm3.195-.986l.179.089-3.839 7.695-.179-.089zm3.717-18.161l.358.179-2.815 5.636-.358-.179zm3.168-.936l.179.089-3.83 7.7-.179-.089zm2.107.98l.179.089-3.83 7.7-.179-.089z"/><path class="st76" d="M485.242 476.608l3.985-7.957 7.957 3.985-3.985 7.957z"/><path class="st6" d="M493.4 480.7h-.1l-8-4-.1-.1v-.1l4-8c0-.1.1-.1.1 0l8 4 .1.1v.1l-4 8m-8-4.2l7.8 3.9 3.9-7.8-7.8-3.9-3.9 7.8z"/><path class="st0" d="M485.847 465.551l3.985-7.957 7.957 3.985-3.985 7.957z"/><path class="st6" d="M493.9 469.6h-.1l-8-4-.1-.1v-.1l4-8 .1-.1h.1l8 4c.1 0 .1.1 0 .1l-4 8.2m-7.9-4.1l7.8 3.9 3.9-7.8-7.8-3.9-3.9 7.8z"/><path class="st7" d="M492.448 457.53l3.985-7.957 7.957 3.985-3.985 7.957z"/><path class="st6" d="M500.5 461.6h-.1l-8-4-.1-.1v-.1l4-8c0-.1.1-.1.1 0l8 4 .1.1v.1l-4 8m-7.9-4.1l7.8 3.9 3.9-7.8-7.8-3.9-3.9 7.8z"/><path class="st77" d="M386.884 424.91l3.547 17.952-23.936 4.729-3.547-17.952z"/><path class="st3" d="M385.766 426.696l2.985 15.109-21.094 4.167-2.985-15.109z"/><path class="st78" d="M367.6 445.9l18.1-19.3 3 15.2z"/><path class="st0" d="M408.926 433.596l8.381 16.269-21.692 11.175-8.381-16.269z"/><path class="st4" d="M408.305 435.571l7.053 13.689-19.111 9.847-7.053-13.689z"/><path class="st72" d="M396.2 459.1l12.1-23.6 7.1 13.7z"/><path class="st0" d="M435.762 420.613l27.663-27.773 39.251 39.096-27.663 27.773z"/><path class="st6" d="M502.8 431.9l-27.8 27.9-39.4-39.2 27.8-27.9 39.4 39.2zm-27.8 27.6l27.5-27.6-39.1-38.9-27.5 27.6 39.1 38.9zm-.9-28.9l-10.8 10.8-1.4-1.4 10.8-10.8 1.4 1.4zm-10.8 10.3l10.2-10.2-.8-.8-10.2 10.1.8.9zm-1.622-29.601l6.563-6.589.142.141-6.563 6.589zm-14.19 14.096l11.221-11.265.283.282-11.221 11.265z"/><path class="st7" d="M442.854 420.819l20.606-20.688 3.472 3.458-20.606 20.688z"/><path class="st6" d="M467.1 403.6l-20.6 20.7h-.1l-3.4-3.4v-.1l20.6-20.7h.1l3.4 3.4v.1m-20.7 20.5l20.5-20.6-3.3-3.3-20.5 20.6 3.3 3.3zm18.111 18.301l13.197-13.249.142.141-13.197 13.249zm6.887-21.769l4.447-4.464.283.282-4.447 4.464zm1.711 1.751l6.068-6.094.142.141-6.068 6.094zm1.651 1.624l6.069-6.093.142.141-6.069 6.093z"/><path class="st76" d="M449.303 427.213l13.197-13.249 11.265 11.221-13.197 13.249z"/><path class="st6" d="M473.9 425.2l-13.2 13.3h-.1l-11.3-11.2v-.1l13.2-13.3h.1l11.3 11.2v.1m-13.3 13.1l13.1-13.1-11.1-11.1-13.1 13.1 11.1 11.1z"/><path class="st76" d="M463.56 412.936l6.281-6.306 6.306 6.281-6.281 6.306z"/><path class="st6" d="M476.3 412.9l-6.3 6.3h-.1l-6.3-6.3v-.1l6.3-6.3h.1l6.3 6.3v.1m-6.4 6.1l6.1-6.2-6.2-6.1-6.1 6.2 6.2 6.1z"/><path class="st76" d="M466.457 444.314l6.281-6.306 3.613 3.599-6.281 6.306z"/><path class="st6" d="M476.4 441.6l-6.3 6.3h-.1l-3.6-3.6v-.1l6.3-6.3h.1l3.6 3.6v.1m-6.4 6.1l6.1-6.2-3.4-3.4-6.1 6.2 3.4 3.4zm3.592-10.608l4.446-4.464.283.282-4.446 4.464zm1.687 1.744l6.069-6.093.142.141-6.069 6.093zm1.718 1.598l6.069-6.093.142.141-6.069 6.093zm1.581 1.691l6.069-6.093.142.141-6.069 6.093zm1.816 1.804l6.069-6.093.142.141-6.069 6.093zm-8.797 5.349l4.447-4.464.283.282-4.447 4.464zm1.712 1.813l6.069-6.093.142.141-6.069 6.093zm10.835-17.763l4.446-4.464.283.282-4.446 4.464zm1.754 1.75l6.069-6.093.142.141-6.069 6.093zm1.579 1.656l6.069-6.093.142.141-6.069 6.093z"/><path class="st76" d="M476.432 425.699l6.281-6.306 6.306 6.281-6.281 6.306z"/><path class="st6" d="M489.1 425.7l-6.3 6.3h-.1l-6.3-6.3v-.1l6.3-6.3h.1l6.3 6.3c.1 0 .1.1 0 .1m-6.3 6.1l6.1-6.2-6.2-6.1-6.1 6.2 6.2 6.1z"/><path class="st18" d="M498.8 359.9c-1.3-.8-2.9-.4-3.7.9l-37.4 61.4c-.8 1.3-.4 2.9.9 3.7l42.1 25.6c1.3.8 2.9.4 3.7-.9l37.4-61.4c.8-1.3.4-2.9-.9-3.7l-42.1-25.6z"/><path class="st79" d="M504.1 451.3c-.9.9-2.4 1.1-3.5.4l-42.1-25.7c-1.4-.8-1.8-2.6-1-4l37.4-61.4c.1-.2.3-.4.4-.5.9-.9 2.4-1.1 3.5-.4l42.1 25.6c1.4.8 1.8 2.6 1 4l-37.4 61.4c-.1.2-.2.4-.4.6m-8.5-90.9c-.1.1-.3.3-.4.5l-37.4 61.4c-.7 1.2-.3 2.8.8 3.5l42.1 25.6c1 .6 2.3.5 3.1-.4.1-.1.3-.3.4-.5l37.4-61.4c.7-1.2.4-2.8-.8-3.5l-42-25.6c-1-.6-2.3-.4-3.2.4"/><path class="st5" d="M497 357.7l-41.2 67.6c-.9 1.4-.5 3.2.8 4l.3.2 44.3-72.7-.3-.2c-1.3-.8-3-.3-3.9 1.1"/><path class="st79" d="M456.9 429.7l-.5-.3c-1.4-.8-1.7-2.7-.8-4.2l41.2-67.6c.1-.2.3-.4.5-.6 1-1 2.5-1.2 3.6-.6l.5.3-.1.1-44.4 72.9zm40.7-72.5l-.5.6-41.2 67.6c-.8 1.3-.5 3 .7 3.7l.2.1 44.2-72.4-.2-.1c-1-.6-2.3-.4-3.2.5"/><path class="st80" d="M526.3 407c.5.3.6.9.3 1.3l-12 19.7c-.3.5-.9.6-1.3.3l-13.7-8.3c-.5-.3-.6-.9-.3-1.3l12-19.7c.3-.5.9-.6 1.3-.3l13.7 8.3z"/><path class="st79" d="M514.6 428.4c-.4.4-1 .4-1.4.2l-13.7-8.3c-.5-.3-.7-1-.4-1.6l12-19.7c.3-.5 1-.7 1.6-.4l13.7 8.3c.5.3.7 1 .4 1.6l-12 19.7c-.1.1-.2.1-.2.2m-3.1-29.4s-.1.1-.1.2l-12 19.7c-.2.4-.1.9.3 1.1l13.7 8.3c.4.2.9.1 1.1-.3l12-19.7c.2-.4.1-.9-.3-1.1l-13.7-8.3c-.3-.3-.7-.2-1 .1"/><path class="st80" d="M469.3 424.9c-.1.1-.2.1-.3 0l-2.5-1.5c-.1-.1-.1-.2-.1-.3l1.6-2.6c.1-.1.2-.1.3 0l2.5 1.5c.1.1.1.2.1.3l-1.6 2.6"/><path class="st79" d="M468.1 420.5l2.6 1.5v.1l-1.6 2.6h-.1l-2.5-1.5v-.1l1.6-2.6m-.2-.2l-1.6 2.6c-.1.2-.1.4.1.6l2.5 1.5c.2.1.4.1.5-.1l.1-.1 1.6-2.6c.1-.2.1-.4-.1-.6l-2.5-1.5c-.3 0-.5.1-.6.2"/><path class="st80" d="M471.7 421c-.1.1-.2.1-.3 0l-2.5-1.5c-.1-.1-.1-.2-.1-.3l1.6-2.6c.1-.1.2-.1.3 0l2.5 1.5c.1.1.1.2.1.3l-1.6 2.6"/><path class="st79" d="M470.5 416.6l2.6 1.5v.1l-1.6 2.6h-.1l-2.5-1.5v-.1l1.6-2.6m-.2-.2c-.1 0-.1.1 0 0l-1.6 2.6c-.1.2-.1.4.1.6l2.5 1.5c.2.1.4.1.5-.1l.1-.1 1.6-2.6c.1-.2.1-.4-.1-.6l-2.5-1.5c-.3.1-.5.1-.6.2"/><path class="st80" d="M474 417.1c-.1.1-.2.1-.3 0l-2.5-1.5c-.1 0-.1-.1-.1-.1v-.2l1.6-2.6c.1-.1.2-.1.3 0l2.5 1.5c.1 0 .1.1.1.1v.2l-1.6 2.6"/><path class="st79" d="M472.9 412.8l2.6 1.5v.1l-1.6 2.6h-.1l-2.5-1.5v-.1l1.6-2.6m-.3-.3l-1.6 2.6c-.1.2-.1.4.1.6l2.5 1.5c.2.1.4.1.5-.1l.1-.1 1.6-2.6c.1-.2.1-.4-.1-.6l-2.5-1.5-.6.2"/><path class="st80" d="M476.4 413.2c-.1.1-.2.1-.3 0l-2.5-1.5c-.1 0-.1-.1-.1-.1v-.2l1.6-2.6c.1-.1.2-.1.3 0l2.5 1.5c.1 0 .1.1.1.1v.2l-1.6 2.6"/><path class="st79" d="M475.2 408.9l2.6 1.5v.1l-1.6 2.6h-.1l-2.5-1.5v-.1l1.6-2.6m-.2-.3l-1.6 2.6c-.1.2-.1.4.1.6l2.5 1.5c.2.1.4.1.5-.1l.1-.1 1.6-2.6c.1-.2.1-.4-.1-.6l-2.5-1.5c-.3.1-.5.1-.6.2"/><path class="st80" d="M478.8 409.3c-.1.1-.2.1-.3 0l-2.5-1.5c-.1-.1-.1-.2-.1-.3l1.6-2.6c.1-.1.2-.1.3 0l2.5 1.5c.1 0 .1.1.1.1v.2l-1.6 2.6"/><path class="st79" d="M477.6 405l2.6 1.5v.1l-1.6 2.6h-.1l-2.5-1.5v-.1l1.6-2.6m-.2-.3l-1.6 2.6c-.1.2-.1.4.1.6l2.5 1.5c.2.1.4.1.5-.1l.1-.1 1.6-2.6c.1-.2.1-.4-.1-.6l-2.5-1.5c-.3.1-.5.1-.6.2"/><path class="st80" d="M481.1 405.4c-.1.1-.2.1-.3 0l-2.5-1.5c-.1-.1-.1-.2-.1-.3l1.6-2.6c.1-.1.2-.1.3 0l2.5 1.5c.1 0 .1.1.1.1v.2l-1.6 2.6"/><path class="st79" d="M480 401.1l2.6 1.5v.1l-1.6 2.6h-.1l-2.5-1.5v-.1l1.6-2.6m-.3-.2l-1.6 2.6c-.1.2-.1.4.1.6l2.5 1.5c.2.1.4.1.5-.1l.1-.1 1.6-2.6c.1-.2.1-.4-.1-.6l-2.5-1.5c-.2 0-.4 0-.6.2"/><path class="st80" d="M483.5 401.5c-.1.1-.2.1-.3 0l-2.5-1.5c-.1 0-.1-.1-.1-.1v-.2l1.6-2.6c.1-.1.2-.1.3 0l2.5 1.5c.1.1.1.2.1.3l-1.6 2.6"/><path class="st79" d="M482.4 397.2l2.6 1.5v.1l-1.6 2.6h-.1l-2.5-1.5v-.1l1.6-2.6m-.3-.2l-1.6 2.6c-.1.2-.1.4.1.6l2.5 1.5c.2.1.4.1.5-.1l.1-.1 1.6-2.6c.1-.2.1-.4-.1-.6l-2.5-1.5c-.3 0-.5 0-.6.2"/><path class="st80" d="M485.9 397.6c-.1.1-.2.1-.3 0l-2.5-1.5c-.1 0-.1-.1-.1-.1v-.2l1.6-2.6c.1-.1.2-.1.3 0l2.5 1.5c.1.1.1.2.1.3l-1.6 2.6"/><path class="st79" d="M484.7 393.3l2.6 1.5v.1l-1.6 2.6h-.1l-2.5-1.5v-.1l1.6-2.6m-.2-.2l-1.6 2.6c-.1.2-.1.4.1.6l2.5 1.5c.2.1.4.1.5-.1l.1-.1 1.6-2.6c.1-.2.1-.4-.1-.6l-2.6-1.4c-.2-.1-.4-.1-.5.1"/><path class="st80" d="M488.3 393.7c-.1.1-.2.1-.3 0l-2.5-1.5c-.1-.1-.1-.2-.1-.3l1.6-2.6c.1-.1.2-.1.3 0l2.5 1.5c.1 0 .1.1.1.1v.2l-1.6 2.6"/><path class="st79" d="M487.1 389.4l2.6 1.5v.1l-1.6 2.6h-.1l-2.5-1.5v-.1l1.6-2.6m-.2-.2l-1.6 2.6c-.1.2-.1.4.1.6l2.5 1.5c.2.1.4.1.5-.1l.1-.1 1.6-2.6c.1-.2.1-.4-.1-.6l-2.5-1.5c-.3 0-.5.1-.6.2"/><path class="st80" d="M490.6 389.8c-.1.1-.2.1-.3 0l-2.5-1.5c-.1-.1-.1-.2-.1-.3l1.6-2.6c.1-.1.2-.1.3 0l2.5 1.5c.1.1.1.2.1.3l-1.6 2.6"/><path class="st79" d="M489.5 385.5l2.6 1.5v.1l-1.6 2.6h-.1l-2.5-1.5v-.1l1.6-2.6m-.3-.2l-1.6 2.6c-.1.2-.1.4.1.6l2.5 1.5c.2.1.4.1.5-.1l.1-.1 1.6-2.6c.1-.2.1-.4-.1-.6l-2.5-1.5c-.2 0-.4.1-.6.2"/><path class="st80" d="M493 385.9c-.1.1-.2.1-.3 0l-2.5-1.5c-.1-.1-.1-.2-.1-.3l1.6-2.6c.1-.1.2-.1.3 0l2.5 1.5c.1.1.1.2.1.3l-1.6 2.6"/><path class="st79" d="M491.8 381.6l2.6 1.5v.1l-1.6 2.6h-.1l-2.5-1.5v-.1l1.6-2.6m-.2-.2l-1.6 2.6c-.1.2-.1.4.1.6l2.5 1.5c.2.1.4.1.5-.1l.1-.1 1.6-2.6c.1-.2.1-.4-.1-.6l-2.5-1.5c-.3 0-.5.1-.6.2"/><path class="st80" d="M476.9 429.6c-.1.1-.2.1-.3 0l-2.5-1.5c-.1-.1-.1-.2-.1-.3l3.3-5.4c.1-.1.2-.1.3 0l2.5 1.5c.1 0 .1.1.1.1v.2l-3.3 5.4"/><path class="st79" d="M477.5 422.4l2.6 1.5v.1l-3.3 5.4h-.1l-2.5-1.5v-.1l3.3-5.4m-.3-.2l-3.4 5.5c-.1.2-.1.4.1.6l2.5 1.5c.2.1.4.1.5-.1l.1-.1 3.3-5.4c.1-.2.1-.4-.1-.6l-2.5-1.5c-.1-.1-.3-.1-.5.1"/><path class="st80" d="M481 422.8c-.1.1-.2.1-.3 0l-2.5-1.5c-.1 0-.1-.1-.1-.1v-.2l1.6-2.6c.1-.1.2-.1.3 0l2.5 1.5c.1.1.1.2.1.3l-1.6 2.6"/><path class="st79" d="M479.8 418.5l2.6 1.5v.1l-1.6 2.6h-.1l-2.5-1.5v-.1l1.6-2.6m-.2-.2l-1.6 2.6c-.1.2-.1.4.1.6l2.5 1.5c.2.1.4.1.5-.1l.1-.1 1.6-2.6c.1-.2.1-.4-.1-.6l-2.5-1.5c-.3 0-.5 0-.6.2"/><path class="st80" d="M483.4 418.9c-.1.1-.2.1-.3 0l-2.5-1.5c-.1-.1-.1-.2-.1-.3l1.6-2.6c.1-.1.2-.1.3 0l2.5 1.5c.1 0 .1.1.1.1v.2l-1.6 2.6"/><path class="st79" d="M482.2 414.6l2.6 1.5v.1l-1.6 2.6h-.1l-2.5-1.5v-.1l1.6-2.6m-.2-.2l-1.6 2.6c-.1.2-.1.4.1.6l2.5 1.5c.2.1.4.1.5-.1l.1-.1 1.6-2.6c.1-.2.1-.4-.1-.6l-2.5-1.5c-.3 0-.5 0-.6.2"/><path class="st80" d="M485.7 415c-.1.1-.2.1-.3 0l-2.5-1.5c-.1-.1-.1-.2-.1-.3l1.6-2.6c.1-.1.2-.1.3 0l2.5 1.5c.1.1.1.2.1.3l-1.6 2.6"/><path class="st79" d="M484.6 410.7l2.6 1.5v.1l-1.6 2.6h-.1l-2.5-1.5v-.1l1.6-2.6m-.3-.2l-1.6 2.6c-.1.2-.1.4.1.6l2.5 1.5c.2.1.4.1.5-.1l.1-.1 1.6-2.6c.1-.2.1-.4-.1-.6l-2.5-1.5c-.2 0-.4.1-.6.2"/><path class="st80" d="M488.1 411.1c-.1.1-.2.1-.3 0l-2.5-1.5c-.1-.1-.1-.2-.1-.3l1.6-2.6c.1-.1.2-.1.3 0l2.5 1.5c.1.1.1.2.1.3l-1.6 2.6"/><path class="st79" d="M487 406.8l2.6 1.5v.1l-1.6 2.6h-.1l-2.5-1.5v-.1l1.6-2.6m-.3-.2l-1.6 2.6c-.1.2-.1.4.1.6l2.5 1.5c.2.1.4.1.5-.1l.1-.1 1.6-2.6c.1-.2.1-.4-.1-.6l-2.5-1.5c-.3 0-.5.1-.6.2"/><path class="st80" d="M490.5 407.2c-.1.1-.2.1-.3 0l-2.5-1.5c-.1 0-.1-.1-.1-.1v-.2l1.6-2.6c.1-.1.2-.1.3 0l2.5 1.5c.1.1.1.2.1.3l-1.6 2.6"/><path class="st79" d="M489.3 402.9l2.6 1.5v.1l-1.6 2.6h-.1l-2.5-1.5v-.1l1.6-2.6m-.2-.2l-1.6 2.6c-.1.2-.1.4.1.6l2.5 1.5c.2.1.4.1.5-.1l.1-.1 1.6-2.6c.1-.2.1-.4-.1-.6l-2.5-1.5c-.3 0-.5.1-.6.2"/><path class="st80" d="M492.9 403.4c-.1.1-.2.1-.3 0l-2.5-1.5c-.1-.1-.1-.2-.1-.3l1.6-2.6c.1-.1.2-.1.3 0l2.5 1.5c.1.1.1.2.1.3l-1.6 2.6"/><path class="st79" d="M491.7 399l2.6 1.5v.1l-1.6 2.6h-.1l-2.5-1.5v-.1l1.6-2.6m-.2-.2c-.1 0-.1.1 0 0l-1.6 2.6c-.1.2-.1.4.1.6l2.5 1.5c.2.1.4.1.5-.1l.1-.1 1.6-2.6c.1-.2.1-.4-.1-.6l-2.5-1.5c-.3.1-.5.1-.6.2"/><path class="st80" d="M495.2 399.5c-.1.1-.2.1-.3 0l-2.5-1.5c-.1-.1-.1-.2-.1-.3l1.6-2.6c.1-.1.2-.1.3 0l2.5 1.5c.1 0 .1.1.1.1v.2l-1.6 2.6"/><path class="st79" d="M494.1 395.2l2.6 1.5v.1l-1.6 2.6h-.1l-2.5-1.5v-.1l1.6-2.6m-.3-.3l-1.6 2.6c-.1.2-.1.4.1.6l2.5 1.5c.2.1.4.1.5-.1l.1-.1 1.6-2.6c.1-.2.1-.4-.1-.6l-2.5-1.5-.6.2"/><path class="st80" d="M497.6 395.6c-.1.1-.2.1-.3 0l-2.5-1.5c-.1 0-.1-.1-.1-.1v-.2l1.6-2.6c.1-.1.2-.1.3 0l2.5 1.5c.1 0 .1.1.1.1v.2l-1.6 2.6"/><path class="st79" d="M496.4 391.3l2.6 1.5v.1l-1.6 2.6h-.1l-2.5-1.5v-.1l1.6-2.6m-.2-.3l-1.6 2.6c-.1.2-.1.4.1.6l2.5 1.5c.2.1.4.1.5-.1l.1-.1 1.6-2.6c.1-.2.1-.4-.1-.6l-2.5-1.5c-.3.1-.5.1-.6.2"/><path class="st80" d="M500 391.7c-.1.1-.2.1-.3 0l-2.5-1.5c-.1 0-.1-.1-.1-.1v-.2l1.6-2.6c.1-.1.2-.1.3 0l2.5 1.5c.1.1.1.2.1.3l-1.6 2.6"/><path class="st79" d="M498.8 387.4l2.6 1.5v.1l-1.6 2.6h-.1l-2.5-1.5v-.1l1.6-2.6m-.2-.3c0 .1-.1.1 0 0l-1.6 2.6c-.1.2-.1.4.1.6l2.5 1.5c.2.1.4.1.5-.1l.1-.1 1.6-2.6c.1-.2.1-.4-.1-.6l-2.5-1.5c-.3.1-.5.1-.6.2"/><path class="st80" d="M502.4 387.8c-.1.1-.2.1-.3 0l-2.5-1.5c-.1-.1-.1-.2-.1-.3l1.6-2.6c.1-.1.2-.1.3 0l2.5 1.5c.1 0 .1.1.1.1v.2l-1.6 2.6"/><path class="st79" d="M501.2 383.5l2.6 1.5v.1l-1.6 2.6h-.1l-2.5-1.5v-.1l1.6-2.6m-.3-.2l-1.6 2.6c-.1.2-.1.4.1.6l2.5 1.5c.2.1.4.1.5-.1l.1-.1 1.6-2.6c.1-.2.1-.4-.1-.6l-2.5-1.5c-.2 0-.4 0-.6.2"/><path class="st80" d="M486 423c-.1.1-.2.1-.3 0l-2.5-1.5c-.1-.1-.1-.2-.1-.3l1.6-2.6c.1-.1.2-.1.3 0l2.5 1.5c.1 0 .1.1.1.1v.2l-1.6 2.6c.1-.1.1 0 0 0"/><path class="st79" d="M484.9 418.7l2.6 1.5v.1l-1.6 2.6h-.1l-2.5-1.5v-.1l1.6-2.6m-.3-.3l-1.6 2.6c-.1.2-.1.4.1.6l2.5 1.5c.2.1.4.1.5-.1l.1-.1 1.6-2.6c.1-.2.1-.4-.1-.6l-2.5-1.5-.6.2"/><path class="st80" d="M480.6 431.8c-.1.1-.2.1-.3 0l-2.5-1.5c-.1-.1-.1-.2-.1-.3l4.6-7.5c.1-.1.2-.1.3 0l2.5 1.5c.1 0 .1.1.1.1v.2l-4.6 7.5"/><path class="st79" d="M482.5 422.6c0-.1.1-.1 0 0l2.6 1.5v.1l-4.6 7.5h-.1l-2.5-1.5v-.1l4.6-7.5m-.2-.3c-.1 0-.1.1 0 0l-4.7 7.6c-.1.2-.1.4.1.6l2.5 1.5c.2.1.4.1.5-.1l.1-.1 4.6-7.5c.1-.2.1-.4-.1-.6l-2.5-1.5c-.2 0-.4 0-.5.1"/><path class="st80" d="M509.6 384.3c-.1.1-.2.1-.3 0l-2.5-1.5c-.1-.1-.1-.2-.1-.3l4.6-7.5c.1-.1.2-.1.3 0l2.5 1.5c.1 0 .1.1.1.1v.2l-4.6 7.5"/><path class="st79" d="M511.5 375l2.6 1.5v.1l-4.6 7.5h-.1l-2.5-1.5v-.1l4.6-7.5m-.3-.2l-4.6 7.6c-.1.2-.1.4.1.6l2.5 1.5c.2.1.4.1.5-.1l.1-.1 4.6-7.5c.1-.2.1-.4-.1-.6l-2.5-1.5c-.2-.1-.4 0-.6.1"/><path class="st80" d="M488.4 419.1c-.1.1-.2.1-.3 0l-2.5-1.5c-.1-.1-.1-.2-.1-.3l1.6-2.6c.1-.1.2-.1.3 0l2.5 1.5c.1 0 .1.1.1.1v.2l-1.6 2.6"/><path class="st79" d="M487.2 414.8l2.6 1.5v.1l-1.6 2.6h-.1l-2.5-1.5v-.1l1.6-2.6m-.2-.3l-1.6 2.6c-.1.2-.1.4.1.6l2.5 1.5c.2.1.4.1.5-.1l.1-.1 1.6-2.6c.1-.2.1-.4-.1-.6l-2.5-1.5c-.3.1-.5.1-.6.2"/><path class="st80" d="M490.8 415.2c-.1.1-.2.1-.3 0l-2.5-1.5c-.1-.1-.1-.2-.1-.3l1.6-2.6c.1-.1.2-.1.3 0l2.5 1.5c.1 0 .1.1.1.1v.2l-1.6 2.6"/><path class="st79" d="M489.6 410.9l2.6 1.5v.1l-1.6 2.6h-.1l-2.5-1.5v-.1l1.6-2.6m-.2-.3c0 .1-.1.1 0 0l-1.6 2.6c-.1.2-.1.4.1.6l2.5 1.5c.2.1.4.1.5-.1l.1-.1 1.6-2.6c.1-.2.1-.4-.1-.6l-2.5-1.5c-.3.1-.5.1-.6.2"/><path class="st80" d="M493.2 411.3c-.1.1-.2.1-.3 0l-2.5-1.5c-.1 0-.1-.1-.1-.1v-.2l1.6-2.6c.1-.1.2-.1.3 0l2.5 1.5c.1.1.1.2.1.3l-1.6 2.6"/><path class="st79" d="M492 407l2.6 1.5v.1l-1.6 2.6h-.1l-2.5-1.5v-.1l1.6-2.6m-.3-.2l-1.6 2.6c-.1.2-.1.4.1.6l2.5 1.5c.2.1.4.1.5-.1l.1-.1 1.6-2.6c.1-.2.1-.4-.1-.6l-2.5-1.5c-.2 0-.4 0-.6.2"/><path class="st80" d="M484.5 434.2c-.1.1-.2.1-.3 0l-2.5-1.5c-.1-.1-.1-.2-.1-.3l2.2-3.5c.1-.1.2-.1.3 0l2.5 1.5c.1.1.1.2.1.3l-2.2 3.5"/><path class="st79" d="M483.9 428.9l2.6 1.5v.1l-2.2 3.6h-.1l-2.5-1.5v-.1l2.2-3.6m-.2-.3l-2.2 3.6c-.1.2-.1.4.1.6l2.5 1.5c.2.1.4.1.5-.1l.1-.1 2.2-3.5c.1-.2.1-.4-.1-.6l-2.5-1.5c-.3 0-.5 0-.6.1"/><path class="st80" d="M487.4 429.3c-.1.1-.2.1-.3 0l-2.5-1.5c-.1-.1-.1-.2-.1-.3l1.6-2.6c.1-.1.2-.1.3 0l2.5 1.5c.1.1.1.2.1.3l-1.6 2.6"/><path class="st79" d="M486.3 425l2.6 1.5v.1l-1.6 2.6h-.1l-2.5-1.5v-.1l1.6-2.6m-.3-.2l-1.6 2.6c-.1.2-.1.4.1.6l2.5 1.5c.2.1.4.1.5-.1l.1-.1 1.6-2.6c.1-.2.1-.4-.1-.6l-2.5-1.5c-.2 0-.4 0-.6.2"/><path class="st80" d="M489.8 425.4c-.1.1-.2.1-.3 0l-2.5-1.5c-.1 0-.1-.1-.1-.1v-.2l1.6-2.6c.1-.1.2-.1.3 0l2.5 1.5c.1.1.1.2.1.3l-1.6 2.6"/><path class="st79" d="M488.6 421.1l2.6 1.5v.1l-1.6 2.6h-.1l-2.5-1.5v-.1l1.6-2.6m-.2-.2l-1.6 2.6c-.1.2-.1.4.1.6l2.5 1.5c.2.1.4.1.5-.1l.1-.1 1.6-2.6c.1-.2.1-.4-.1-.6l-2.5-1.5c-.3 0-.5 0-.6.2"/><path class="st80" d="M492.2 421.5c-.1.1-.2.1-.3 0l-2.5-1.5c-.1 0-.1-.1-.1-.1v-.2l1.6-2.6c.1-.1.2-.1.3 0l2.5 1.5c.1.1.1.2.1.3l-1.6 2.6"/><path class="st79" d="M491 417.2l2.6 1.5v.1l-1.6 2.6h-.1l-2.5-1.5v-.1l1.6-2.6m-.2-.2l-1.6 2.6c-.1.2-.1.4.1.6l2.5 1.5c.2.1.4.1.5-.1l.1-.1 1.6-2.6c.1-.2.1-.4-.1-.6l-2.5-1.5c-.3 0-.5 0-.6.2"/><path class="st80" d="M509.3 393.5c-.1.1-.2.1-.3 0l-2.5-1.5c-.1 0-.1-.1-.1-.1v-.2l1.6-2.6c.1-.1.2-.1.3 0l2.5 1.5c.1.1.1.2.1.3l-1.6 2.6"/><path class="st79" d="M508.1 389.1l2.6 1.5v.1l-1.6 2.6h-.1l-2.5-1.5v-.1l1.6-2.6m-.2-.2l-1.6 2.6c-.1.2-.1.4.1.6l2.5 1.5c.2.1.4.1.5-.1l.1-.1 1.6-2.6c.1-.2.1-.4-.1-.6l-2.5-1.5c-.3 0-.5.1-.6.2"/><path class="st80" d="M494.6 417.6c-.1.1-.2.1-.3 0l-2.5-1.5c-.1 0-.1-.1-.1-.1v-.2l13.9-22.8c.1-.1.2-.1.3 0l2.5 1.5c.1 0 .1.1.1.1v.2l-13.9 22.8"/><path class="st79" d="M505.7 393.1l2.6 1.5v.1l-13.9 22.8h-.1l-2.5-1.5v-.1l13.9-22.8m-.2-.3l-14 22.9c-.1.2-.1.4.1.6l2.5 1.5c.2.1.4.1.5-.1l.1-.1 13.9-22.8c.1-.2.1-.4-.1-.6l-2.5-1.5c-.2 0-.4 0-.5.1"/><path class="st80" d="M511.7 389.6c-.1.1-.2.1-.3 0l-2.5-1.5c-.1 0-.1-.1-.1-.1v-.2l1.6-2.6c.1-.1.2-.1.3 0l2.5 1.5c.1 0 .1.1.1.1v.2l-1.6 2.6"/><path class="st79" d="M510.5 385.3c0-.1.1-.1 0 0l2.6 1.5v.1l-1.6 2.6h-.1l-2.5-1.5v-.1l1.6-2.6m-.2-.3c-.1 0-.1.1 0 0l-1.6 2.6c-.1.2-.1.4.1.6l2.5 1.5c.2.1.4.1.5-.1l.1-.1 1.6-2.6c.1-.2.1-.4-.1-.6l-2.5-1.5c-.3.1-.5.1-.6.2"/><path class="st80" d="M514 385.7c-.1.1-.2.1-.3 0l-2.5-1.5c-.1 0-.1-.1-.1-.1v-.2l1.6-2.6c.1-.1.2-.1.3 0l2.5 1.5c.1.1.1.2.1.3l-1.6 2.6c.1-.1.1 0 0 0"/><path class="st79" d="M512.9 381.4l2.6 1.5v.1l-1.6 2.6h-.1l-2.5-1.5v-.1l1.6-2.6m-.3-.3l-1.6 2.6c-.1.2-.1.4.1.6l2.5 1.5c.2.1.4.1.5-.1l.1-.1 1.6-2.6c.1-.2.1-.4-.1-.6l-2.5-1.5-.6.2"/><path class="st80" d="M516.4 381.8c-.1.1-.2.1-.3 0l-2.5-1.5c-.1 0-.1-.1-.1-.1v-.2l1.6-2.6c.1-.1.2-.1.3 0l2.5 1.5c.1 0 .1.1.1.1v.2l-1.6 2.6"/><path class="st79" d="M515.2 377.5c.1 0 .1-.1 0 0l2.6 1.5v.1l-1.6 2.6h-.1l-2.5-1.5v-.1l1.6-2.6m-.2-.3l-1.6 2.6c-.1.2-.1.4.1.6l2.5 1.5c.2.1.4.1.5-.1l.1-.1 1.6-2.6c.1-.2.1-.4-.1-.6l-2.5-1.5c-.3.1-.5.1-.6.2"/><path class="st80" d="M495.5 407.4c-.1.1-.2.1-.3 0l-2.5-1.5c-.1 0-.1-.1-.1-.1v-.2l1.6-2.6c.1-.1.2-.1.3 0l2.5 1.5c.1.1.1.2.1.3l-1.6 2.6"/><path class="st79" d="M494.4 403.1l2.6 1.5v.1l-1.6 2.6h-.1l-2.5-1.5v-.1l1.6-2.6m-.3-.2l-1.6 2.6c-.1.2-.1.4.1.6l2.5 1.5c.2.1.4.1.5-.1l.1-.1 1.6-2.6c.1-.2.1-.4-.1-.6l-2.5-1.5c-.2 0-.4 0-.6.2"/><path class="st80" d="M497.9 403.5c-.1.1-.2.1-.3 0l-2.5-1.5c-.1 0-.1-.1-.1-.1v-.2l1.6-2.6c.1-.1.2-.1.3 0l2.5 1.5c.1.1.1.2.1.3l-1.6 2.6"/><path class="st79" d="M496.7 399.2l2.6 1.5v.1l-1.6 2.6h-.1l-2.5-1.5v-.1l1.6-2.6m-.2-.2l-1.6 2.6c-.1.2-.1.4.1.6l2.5 1.5c.2.1.4.1.5-.1l.1-.1 1.6-2.6c.1-.2.1-.4-.1-.6l-2.5-1.5c-.3 0-.5 0-.6.2"/><path class="st80" d="M500.3 399.6c-.1.1-.2.1-.3 0l-2.5-1.5c-.1-.1-.1-.2-.1-.3l1.6-2.6c.1-.1.2-.1.3 0l2.5 1.5c.1.1.1.2.1.3l-1.6 2.6"/><path class="st79" d="M499.1 395.3l2.6 1.5v.1l-1.6 2.6h-.1l-2.5-1.5v-.1l1.6-2.6m-.2-.2l-1.6 2.6c-.1.2-.1.4.1.6l2.5 1.5c.2.1.4.1.5-.1l.1-.1 1.6-2.6c.1-.2.1-.4-.1-.6l-2.5-1.5c-.3 0-.5.1-.6.2"/><path class="st80" d="M502.6 395.7c-.1.1-.2.1-.3 0l-2.5-1.5c-.1 0-.1-.1-.1-.1v-.2l1.6-2.6c.1-.1.2-.1.3 0l2.5 1.5c.1 0 .1.1.1.1v.2l-1.6 2.6"/><path class="st79" d="M501.5 391.4l2.6 1.5v.1l-1.6 2.6h-.1l-2.5-1.5v-.1l1.6-2.6m-.3-.2l-1.6 2.6c-.1.2-.1.4.1.6l2.5 1.5c.2.1.4.1.5-.1l.1-.1 1.6-2.6c.1-.2.1-.4-.1-.6l-2.5-1.5c-.2 0-.4.1-.6.2"/><path class="st80" d="M505 391.9c-.1.1-.2.1-.3 0l-2.5-1.5c-.1 0-.1-.1-.1-.1v-.2l1.6-2.6c.1-.1.2-.1.3 0l2.5 1.5c.1 0 .1.1.1.1v.2l-1.6 2.6"/><path class="st79" d="M503.8 387.5l2.6 1.5v.1l-1.6 2.6h-.1l-2.5-1.5v-.1l1.6-2.6m-.2-.2l-1.6 2.6c-.1.2-.1.4.1.6l2.5 1.5c.2.1.4.1.5-.1l.1-.1 1.6-2.6c.1-.2.1-.4-.1-.6l-2.5-1.5c-.3 0-.5.1-.6.2"/><path class="st80" d="M507.4 388c-.1.1-.2.1-.3 0l-2.5-1.5c-.1-.1-.1-.2-.1-.3l1.6-2.6c.1-.1.2-.1.3 0l2.5 1.5c.1.1.1.2.1.3l-1.6 2.6"/><path class="st79" d="M506.2 383.6l2.6 1.5v.1l-1.6 2.6h-.1l-2.5-1.5v-.1l1.6-2.6m-.2-.2l-1.6 2.6c-.1.2-.1.4.1.6l2.5 1.5c.2.1.4.1.5-.1l.1-.1 1.6-2.6c.1-.2.1-.4-.1-.6l-2.5-1.5c-.3.1-.5.1-.6.2"/><path class="st80" d="M504.7 383.9c-.1.1-.2.1-.3 0l-2.5-1.5c-.1 0-.1-.1-.1-.1v-.2l1.6-2.6c.1-.1.2-.1.3 0l2.5 1.5c.1.1.1.2.1.3l-1.6 2.6"/><path class="st79" d="M503.6 379.6l2.6 1.5v.1l-1.6 2.6h-.1l-2.5-1.5v-.1l1.6-2.6m-.3-.2l-1.6 2.6c-.1.2-.1.4.1.6l2.5 1.5c.2.1.4.1.5-.1l.1-.1 1.6-2.6c.1-.2.1-.4-.1-.6l-2.5-1.5c-.2 0-.5 0-.6.2"/><path class="st80" d="M507.1 380c-.1.1-.2.1-.3 0l-2.5-1.5c-.1 0-.1-.1-.1-.1v-.2l3.4-5.5c.1-.1.2-.1.3 0l2.5 1.5c.1.1.1.2.1.3l-3.4 5.5"/><path class="st79" d="M507.7 372.7l2.6 1.5v.1l-3.4 5.5h-.1l-2.5-1.5v-.1l3.4-5.5m-.2-.2l-3.4 5.6c-.1.2-.1.4.1.6l2.5 1.5c.2.1.4.1.5-.1l.1-.1 3.4-5.5c.1-.2.1-.4-.1-.6l-2.5-1.5c-.3 0-.5 0-.6.1"/><path class="st80" d="M500.3 382.6c-.1.1-.2.1-.3 0l-2.5-1.5c-.1 0-.1-.1-.1-.1v-.2l1.6-2.6c.1-.1.2-.1.3 0l2.5 1.5c.1 0 .1.1.1.1v.2l-1.6 2.6"/><path class="st79" d="M499.2 378.3l2.6 1.5v.1l-1.6 2.6h-.1l-2.5-1.5v-.1l1.6-2.6m-.3-.3l-1.6 2.6c-.1.2-.1.4.1.6l2.5 1.5c.2.1.4.1.5-.1l.1-.1 1.6-2.6c.1-.2.1-.4-.1-.6l-2.5-1.5-.6.2"/><path class="st80" d="M498 386.5c-.1.1-.2.1-.3 0l-2.5-1.5c-.1 0-.1-.1-.1-.1v-.2l1.6-2.6c.1-.1.2-.1.3 0l2.5 1.5c.1.1.1.2.1.3l-1.6 2.6"/><path class="st79" d="M496.8 382.2l2.6 1.5v.1l-1.6 2.6h-.1l-2.5-1.5v-.1l1.6-2.6m-.2-.3c-.1 0-.1.1 0 0l-1.6 2.6c-.1.2-.1.4.1.6l2.5 1.5c.2.1.4.1.5-.1l.1-.1 1.6-2.6c.1-.2.1-.4-.1-.6l-2.5-1.5c-.3.1-.5.1-.6.2"/><path class="st80" d="M495.6 390.4c-.1.1-.2.1-.3 0l-2.5-1.5c-.1-.1-.1-.2-.1-.3l1.6-2.6c.1-.1.2-.1.3 0l2.5 1.5c.1.1.1.2.1.3l-1.6 2.6"/><path class="st79" d="M494.4 386l2.6 1.5v.1l-1.6 2.6h-.1l-2.5-1.5v-.1l1.6-2.6m-.2-.2l-1.6 2.6c-.1.2-.1.4.1.6l2.5 1.5c.2.1.4.1.5-.1l.1-.1 1.6-2.6c.1-.2.1-.4-.1-.6l-2.5-1.5c-.3.1-.5.1-.6.2"/><path class="st80" d="M493.2 394.2c-.1.1-.2.1-.3 0l-2.5-1.5c-.1 0-.1-.1-.1-.1v-.2l1.6-2.6c.1-.1.2-.1.3 0l2.5 1.5c.1.1.1.2.1.3l-1.6 2.6"/><path class="st79" d="M492 389.9l2.6 1.5v.1l-1.6 2.6h-.1l-2.5-1.5v-.1l1.6-2.6m-.2-.2l-1.6 2.6c-.1.2-.1.4.1.6l2.5 1.5c.2.1.4.1.5-.1l.1-.1 1.6-2.6c.1-.2.1-.4-.1-.6l-2.5-1.5c-.3 0-.5.1-.6.2"/><path class="st80" d="M490.8 398.1c-.1.1-.2.1-.3 0l-2.5-1.5c-.1 0-.1-.1-.1-.1v-.2l1.6-2.6c.1-.1.2-.1.3 0l2.5 1.5c.1.1.1.2.1.3l-1.6 2.6"/><path class="st79" d="M489.7 393.8l2.6 1.5v.1l-1.6 2.6h-.1l-2.5-1.5v-.1l1.6-2.6m-.3-.2l-1.6 2.6c-.1.2-.1.4.1.6l2.5 1.5c.2.1.4.1.5-.1l.1-.1 1.6-2.6c.1-.2.1-.4-.1-.6l-2.5-1.5c-.2 0-.4.1-.6.2"/><path class="st80" d="M488.5 402c-.1.1-.2.1-.3 0l-2.5-1.5c-.1-.1-.1-.2-.1-.3l1.6-2.6c.1-.1.2-.1.3 0l2.5 1.5c.1.1.1.2.1.3l-1.6 2.6"/><path class="st79" d="M487.3 397.7l2.6 1.5v.1l-1.6 2.6h-.1l-2.5-1.5v-.1l1.6-2.6m-.2-.2l-1.6 2.6c-.1.2-.1.4.1.6l2.5 1.5c.2.1.4.1.5-.1l.1-.1 1.6-2.6c.1-.2.1-.4-.1-.6l-2.5-1.5c-.3 0-.5.1-.6.2"/><path class="st80" d="M486.1 405.9c-.1.1-.2.1-.3 0l-2.5-1.5c-.1-.1-.1-.2-.1-.3l1.6-2.6c.1-.1.2-.1.3 0l2.5 1.5c.1.1.1.2.1.3l-1.6 2.6"/><path class="st79" d="M484.9 401.6l2.6 1.5v.1l-1.6 2.6h-.1l-2.5-1.5v-.1l1.6-2.6m-.2-.2l-1.6 2.6c-.1.2-.1.4.1.6l2.5 1.5c.2.1.4.1.5-.1l.1-.1 1.6-2.6c.1-.2.1-.4-.1-.6l-2.5-1.5c-.3 0-.5 0-.6.2"/><path class="st80" d="M483.7 409.8c-.1.1-.2.1-.3 0l-2.5-1.5c-.1 0-.1-.1-.1-.1v-.2l1.6-2.6c.1-.1.2-.1.3 0l2.5 1.5c.1.1.1.2.1.3l-1.6 2.6"/><path class="st79" d="M482.6 405.5l2.6 1.5v.1l-1.6 2.6h-.1l-2.5-1.5v-.1l1.6-2.6m-.3-.2l-1.6 2.6c-.1.2-.1.4.1.6l2.5 1.5c.2.1.4.1.5-.1l.1-.1 1.6-2.6c.1-.2.1-.4-.1-.6l-2.5-1.5c-.2 0-.4 0-.6.2"/><path class="st80" d="M481.4 413.7c-.1.1-.2.1-.3 0l-2.5-1.5c-.1 0-.1-.1-.1-.1v-.2l1.6-2.6c.1-.1.2-.1.3 0l2.5 1.5c.1.1.1.2.1.3l-1.6 2.6"/><path class="st79" d="M480.2 409.4l2.6 1.5v.1l-1.6 2.6h-.1l-2.5-1.5v-.1l1.6-2.6m-.2-.2l-1.6 2.6c-.1.2-.1.4.1.6l2.5 1.5c.2.1.4.1.5-.1l.1-.1 1.6-2.6c.1-.2.1-.4-.1-.6l-2.5-1.5c-.3 0-.5 0-.6.2"/><path class="st80" d="M479 417.6c-.1.1-.2.1-.3 0l-2.5-1.5c-.1-.1-.1-.2-.1-.3l1.6-2.6c.1-.1.2-.1.3 0l2.5 1.5c.1 0 .1.1.1.1v.2l-1.6 2.6"/><path class="st79" d="M477.8 413.3l2.6 1.5v.1l-1.6 2.6h-.1l-2.5-1.5v-.1l1.6-2.6m-.2-.3c0 .1-.1.1 0 0l-1.6 2.6c-.1.2-.1.4.1.6l2.5 1.5c.2.1.4.1.5-.1l.1-.1 1.6-2.6c.1-.2.1-.4-.1-.6l-2.5-1.5c-.3.1-.5.1-.6.2"/><path class="st80" d="M476.6 421.5c-.1.1-.2.1-.3 0l-2.5-1.5c-.1-.1-.1-.2-.1-.3l1.6-2.6c.1-.1.2-.1.3 0l2.5 1.5c.1 0 .1.1.1.1v.2l-1.6 2.6"/><path class="st79" d="M475.4 417.2l2.6 1.5v.1l-1.6 2.6h-.1l-2.5-1.5v-.1l1.6-2.6m-.2-.3l-1.6 2.6c-.1.2-.1.4.1.6l2.5 1.5c.2.1.4.1.5-.1l.1-.1 1.6-2.6c.1-.2.1-.4-.1-.6l-2.5-1.5c-.3.1-.5.1-.6.2"/><path class="st80" d="M473.1 427.2c-.1.1-.2.1-.3 0l-2.5-1.5c-.1 0-.1-.1-.1-.1v-.2l2.7-4.4c.1-.1.2-.1.3 0l2.5 1.5c.1.1.1.2.1.3l-2.7 4.4"/><path class="st79" d="M473.1 421.1l2.6 1.5v.1l-2.7 4.4h-.1l-2.5-1.5v-.1l2.7-4.4m-.3-.3l-2.7 4.5c-.1.2-.1.4.1.6l2.5 1.5c.2.1.4.1.5-.1l.1-.1 2.7-4.4c.1-.2.1-.4-.1-.6l-2.5-1.5c-.2 0-.4 0-.6.1"/><path class="st79" d="M463.089 419.272l31.861-52.253 1.11.677-31.861 52.253zm1.211.928l-1.4-.9.1-.1 31.9-52.4 1.4.9-.1.1-31.9 52.4zm-1-1l.8.5 31.7-52-.8-.5-31.7 52z"/><path class="st17" d="M514.7 401.7l11.5.9h.2l4 .3-.8.7-3.2-.3c-1.3-.1-2.4.9-2.6 2.2l-.1.8v.1l3 .2 3.9.3 5.7-4.9h-.1c.5-.5.9-1.1 1.2-1.8l6.1.5.8-10.2-6.8-.5c-.7-1.1-1.8-1.8-3.2-1.9l-2.8-.2-4-.3-3.6-.3c-.9-.1-1.7.6-1.7 1.5-.1.7.4 1.4 1 1.6-.1.2-.1.5-.2.8l-1-.2c-.9-.1-1.7.6-1.7 1.5-.1.9.6 1.7 1.5 1.7l1.1.1-.1.8-2.5-.2c-.9-.1-1.7.6-1.7 1.5-.1.9.6 1.7 1.5 1.7l2.6.2v.8l-7.6-.6c-.9-.1-1.7.6-1.7 1.5-.3.8.4 1.6 1.3 1.7"/><path class="st81" d="M589.036 391.422l-1.384 17.446-46.954-3.724 1.384-17.446z"/><path class="st82" d="M588.376 392.155l-.569 7.178-45.857-3.636.569-7.178z"/><path class="st17" d="M492.5 426.8l7.9 8.2-.6.5-5.2-5.4c-.6-.6-1.6-.7-2.3 0-.6.6-.7 1.6 0 2.3l5.2 5.4c-.2.2-.3.4-.4.6l-2.6-2.7c-.6-.6-1.6-.7-2.3 0-.6.6-.7 1.6 0 2.3l8.2 8.5 2 2c1 1 2.3 1.4 3.5 1.2l6.2 6.4 7.4-7.1-5.7-5.9c.4-.6.6-1.3.6-2l.1.1.1-7.5-2.7-2.8-2.1-2.1s-.1 0-.1.1l-.6.5c-.9.9-1 2.4-.1 3.4l2.2 2.3v1l-2.8-2.9-.1-.1-8-8.3c-.6-.6-1.6-.7-2.3 0-.6.6-.7 1.6 0 2.3l5.3 5.5c-.2.1-.4.3-.6.5l-7.9-8.2c-.6-.6-1.6-.7-2.3 0-.6.2-.7 1.2 0 1.9"/><path class="st81" d="M540.352 489.774l-32.725-33.874 12.586-12.159 32.725 33.874z"/><path class="st82" d="M519.996 444.645l31.961 33.083-5.178 5.003-31.961-33.083z"/><path class="st83" d="M416.9 418.5l-2.2.2-2.6-2.9-7.6.6-2.1 3.2-7.9.7c-.9.1-1.6.9-1.5 1.8l1.2 14.7c.1.9.9 1.6 1.8 1.5l22.5-1.9c.9-.1 1.6-.9 1.5-1.8l-1.2-14.7c-.1-.8-.9-1.5-1.9-1.4"/><path class="st84" d="M415.3 427.7c.3 3.3-2.2 6.2-5.5 6.5-3.3.3-6.2-2.2-6.5-5.5-.3-3.3 2.2-6.2 5.5-6.5 3.3-.3 6.2 2.2 6.5 5.5"/><path class="st83" d="M414.5 427.7c.2 2.9-1.9 5.4-4.8 5.6-2.9.2-5.4-1.9-5.6-4.8-.2-2.9 1.9-5.4 4.8-5.6 2.9-.2 5.4 2 5.6 4.8"/><path class="st85" d="M413.2 427.9c.2 2.1-1.4 4-3.5 4.2-2.1.2-4-1.4-4.2-3.5-.2-2.1 1.4-4 3.5-4.2 2.1-.3 4 1.3 4.2 3.5"/><path class="st0" d="M409.4 426.6c.1.8-.5 1.4-1.3 1.5-.8.1-1.4-.5-1.5-1.3-.1-.8.5-1.4 1.3-1.5.7 0 1.4.5 1.5 1.3m-1.8 2.3c0 .4-.3.8-.7.8-.4 0-.8-.3-.8-.7 0-.4.3-.8.7-.8.3-.1.7.3.8.7"/><path class="st84" d="M395.2 421.4c-.6.1-1.2-.3-1.6-.8-.5.3-.7.9-.7 1.5l1.2 14.7c.1.9.9 1.6 1.8 1.5l4.7-.4-1.4-16.9-4 .4zm4-1.5c0 .3-.2.5-.4.5l-3.3.3c-.3 0-.5-.2-.5-.4v-.2c0-.3.2-.5.4-.5l3.3-.3c.3 0 .5.2.5.4v.2z"/><path class="st0" d="M412.1 417.9c0 .3-.2.5-.5.5l-6.3.5c-.3 0-.5-.2-.5-.5l-.1-1c0-.3.2-.5.5-.5l6.3-.5c.3 0 .5.2.5.5l.1 1z"/><path class="st86" d="M368.1 436.9c1-.6 1.6.1.8 1-1.5 1.4-2.4 2.4-3.8 3.8-.6-.5-1.2-1.2-1.5-1.9l4.5-2.9"/><path class="st17" d="M345.4 454.9c-2.4 2-1.5 3.1 1 1.2l18.6-14.4c-.5-.6-1-1.2-1.5-1.9-4 3.5-14.1 11.7-18.1 15.1"/><path class="st87" d="M365.027 441.742l-1.563-1.951.624-.5 1.563 1.951z"/><path class="st0" d="M368.3 437.6l-3.4 2.7.7.8c1-1.1 2.9-2.9 2.9-2.9l-.2-.6z"/><path class="st8" d="M364.3 440.8l-20.2 16.2c.3.2 1.1 0 2.3-.9l18.6-14.4-.7-.9z"/><path class="st88" d="M364.3 440.8l.7.9v.1l.6-.5-.1-.1-.6-.8z"/><path class="st17" d="M367.6 437.3l.8 1c.6 0 1.4-.4 2.2-1 .3-.3.6-.6.8-.9.4-.6.5-1.7 1.7-2.1 0 0-1.4-.5-3.2.5-.4.2-.7.4-1.1.8-.7.5-1.1 1.2-1.2 1.7"/><path class="st89" d="M368.1 438l.3.3h.1c.6 0 1.4-.4 2.1-1 .3-.3.6-.6.8-.9.4-.6.5-1.7 1.7-2.1 0 0-.9-.3-2.3 1.6-1.1 1.4-2.1 1.9-2.7 2.1"/><path class="st8" d="M368.9 173.1c-.4-.4-.4-1 0-1.4l1.6-1.6c.4-.4 1-.4 1.4 0l.4.4c.4.4.4 1 0 1.4l-1.6 1.6c-.4.4-1 .4-1.4 0l-.4-.4zm2.2-2c-3.5-3.4-3.5-9.1 0-12.5 3.4-3.5 9.1-3.5 12.5 0 3.5 3.4 3.5 9.1 0 12.5-3.4 3.5-9 3.5-12.5 0"/><path class="st0" d="M371.6 170.6c-3.2-3.2-3.2-8.3 0-11.5 3.2-3.2 8.3-3.2 11.5 0 3.2 3.2 3.2 8.3 0 11.5-3.1 3.2-8.3 3.2-11.5 0"/><path class="st68" d="M372.3 170c-2.8-2.8-2.8-7.4 0-10.2 2.8-2.8 7.4-2.8 10.2 0 2.8 2.8 2.8 7.4 0 10.2-2.8 2.8-7.4 2.8-10.2 0"/><path class="st6" d="M379 172c-2.5.6-5-.2-6.8-1.9-1.4-1.4-2.2-3.2-2.2-5.2s.8-3.8 2.1-5.2c1-1 2.2-1.7 3.5-2 2.5-.6 5 .2 6.8 1.9 2.9 2.8 2.9 7.5 0 10.4-.8 1-2 1.7-3.4 2m-3.2-14.1c-1.3.3-2.5 1-3.4 1.9-2.8 2.8-2.8 7.3 0 10.1 1.8 1.7 4.2 2.4 6.6 1.9 1.3-.3 2.5-1 3.4-1.9 2.8-2.8 2.8-7.3 0-10.1-1.7-1.7-4.2-2.4-6.6-1.9"/><path class="st69" d="M383.6 168.5c1.7-2.8 1.3-6.4-1.1-8.8-2.4-2.4-6-2.7-8.8-1.1-1.7 2.8-1.3 6.4 1.1 8.8 2.4 2.5 6 2.8 8.8 1.1"/><path class="st12" d="M344 189.3c-.1-.4-.1-.8 0-1.1.1-.4.3-.7.6-1 1.3.4 26.3 7.3 26.3 7.3l2.2 1.8-2.8.4c0-.1-24.9-7-26.3-7.4"/><path class="st72" d="M370.3 196.6h-.1c-.1-.4-.1-.8 0-1.1.1-.4.3-.7.6-1-1.9-.5-24.8-6.9-26.1-7.2-.3.3-.5.6-.6 1-.1.4-.1.8 0 1.1 1.3.3 26.2 7.2 26.2 7.2z"/><path class="st12" d="M371.3 196.5c-.1-.4 0-.9.3-1.2l-.3 1.2z"/><path class="st72" d="M371.7 195.2c-.2.3-.4.7-.3 1.1v.1l1.6-.2-1.3-1z"/><path class="st17" d="M388.477 244.335l-10.733-5.588 7.851-15.079 10.733 5.588z"/><path class="st74" d="M348.285 291.902l30.571-58.719 13.571 7.066-30.571 58.719z"/><path class="st73" d="M391.559 240.449l-30.109 57.832-5.499-2.863 30.109-57.832z"/><path class="st80" d="M386.8 210.3l7.7 33.1c.3 1.5 1.8 2.4 3.3 2l48-11.1c1.5-.3 2.4-1.8 2-3.3l-7.7-33.1c-.3-1.5-1.8-2.4-3.3-2l-48 11.1c-1.4.4-2.3 1.8-2 3.3"/><path class="st79" d="M445.8 234.5l-48 11.1c-1.5.4-3.1-.6-3.5-2.2l-7.7-33.1c-.4-1.5.6-3.1 2.2-3.5l48-11.1c1.5-.4 3.1.6 3.5 2.2l7.7 33.1c.3 1.6-.7 3.1-2.2 3.5m-56.9-27.3c-1.4.3-2.2 1.7-1.9 3.1l7.7 33.1c.3 1.4 1.7 2.2 3.1 1.9l48-11.1c1.4-.3 2.2-1.7 1.9-3.1l-7.7-33.1c-.3-1.4-1.7-2.2-3.1-1.9l-48 11.1z"/><path class="st11" d="M443.014 230.733l-44.322 10.283-7.029-30.295 44.322-10.283z"/><defs><path id="SVGID_1_" d="M443.013 230.733l-44.322 10.283-7.029-30.295 44.322-10.283z"/></defs><clipPath id="SVGID_2_"><use xlink:href="#SVGID_1_" overflow="visible"/></clipPath><path class="st90" d="M391.356 208.697l.584-.136 7.887 33.996-.584.136zm1.115-.194l.584-.136 7.887 33.996-.584.136zm1.189-.315l.584-.136 7.887 33.996-.584.136zm1.093-.292l.584-.136 7.887 33.996-.584.136zm1.114-.195l.584-.136 7.887 33.996-.584.136zm1.093-.292l.584-.136 7.887 33.996-.584.136zm1.189-.315l.584-.136 7.887 33.996-.584.136zm1.115-.195l.584-.136 7.887 33.996-.584.136zm1.092-.292l.584-.136 7.887 33.996-.584.136zm1.212-.217l.584-.136 7.887 33.996-.584.136zm1.093-.293l.584-.136 7.887 33.996-.584.136zm1.092-.292l.584-.136 7.887 33.996-.584.136z"/><path class="st91" d="M391.962 208.589l.584-.136 7.887 33.996-.584.136zm1.092-.293l.584-.136 7.887 33.996-.584.136zm1.115-.194l.584-.136 7.887 33.996-.584.136zm1.19-.315l.584-.136 7.887 33.996-.584.136zm1.092-.292l.584-.136 7.887 33.996-.584.136zm1.115-.195l.584-.136 7.887 33.996-.584.136zm1.092-.292l.584-.136 7.887 33.996-.584.136zm1.189-.315l.584-.136 7.887 33.996-.584.136zm1.115-.195l.584-.136 7.887 33.996-.584.136zm1.092-.292l.584-.136 7.887 33.996-.584.136zm1.213-.217l.584-.136 7.887 33.996-.584.136zm1.092-.293l.584-.136 7.887 33.996-.584.136z"/><path class="st90" d="M391.089 208.408l13.93-3.232.181.779-13.93 3.232z"/><path class="st92" d="M410.7 234.2l-10.2 2.4-1.6-7 10.5-.7z"/><path class="st93" d="M409.5 229.2l-10.7.7-.2-.5 10.8-.8z"/><path class="st92" d="M394.684 238.109l16.073-3.729 1.243 5.358-16.073 3.729z"/><path class="st94" d="M407.908 238.671l2.24-.52.452 1.948-2.24.52z"/><path class="st90" d="M402.536 240.767l-5.65 1.311-.588-2.533 5.65-1.311zm7.655-3.487l-6.819 1.582-.226-.974 6.819-1.582zm-2.358-3.603l-7.501 1.74-.588-2.533 7.501-1.74z"/><path class="st93" d="M394.235 237.896l16.365-3.797.136.584-16.365 3.797z"/><path class="st95" d="M391 230.9c-.1-.4-.4-.6-.7-.5h-.1c-.1-.2-.4-.3-.6-.4-.3-.3-.7-.5-1.2-.4-.4.1-.7.4-.8.8-.2-.1-.4-.2-.7-.1-.3.1-.5.3-.6.6-.3-.2-.6-.3-1-.2-.4.1-.7.4-.9.8-.5.2-.8.6-.8 1.2l7.4-1.8zm50.4-34.1c-.1-.4-.4-.6-.7-.5h-.1c-.1-.2-.4-.3-.6-.4-.3-.3-.7-.5-1.2-.4-.4.1-.7.4-.8.8-.2-.1-.4-.2-.7-.1-.3.1-.5.3-.6.6-.3-.2-.6-.3-1-.2-.4.1-.7.4-.9.8-.5.2-.8.6-.8 1.2l7.4-1.8z"/><path class="st96" d="M437.589 225.414l.779-.181.814 3.507-.779.181z"/><path class="st92" d="M445.2 232l-6.7 1.6-1.2-5.3 2.8-2.8 3.9 1.3z"/><path class="st94" d="M440.1 225.5l4.1 1.4-.1-.3-4.1-1.4-2.9 3 .1.3z"/><path class="st97" d="M440.751 228.054l1.266-.294.294 1.266-1.266.294zm1.504-.32l1.266-.294.294 1.266-1.266.294z"/><path class="st96" d="M411.7 239.8v-.1c-.1-.4-.5-.6-.9-.5h-.1c-.2-.2-.5-.4-.8-.5-.4-.4-.9-.7-1.5-.5-.5.1-.9.5-1.1 1-.2-.2-.6-.2-.9-.2-.4.1-.7.4-.8.8-.4-.3-.8-.4-1.3-.3-.6.1-1 .5-1.1 1.1-.6.2-1.1.8-1 1.5l9.5-2.3z"/><path class="st98" d="M400.7 232.3c.4 1.9 2.3 3 4.1 2.6 1.9-.4 3-2.3 2.6-4.1-.4-1.9-2.3-3-4.1-2.6-1.9.4-3 2.2-2.6 4.1"/><path class="st99" d="M402.4 231c-.4.1-.8-.2-1-.6.4-.1.8.2 1 .6m3.9 0c-.1-.4.2-.8.6-1 0 .4-.2.8-.6 1"/><path class="st96" d="M405.5 231.7c-.4-.3-.6-1-.4-1.5.4.3.6 1 .4 1.5m-2.4-.5c-.4-.3-.6-1-.4-1.5.5.4.6 1 .4 1.5m-1.6.9c.3-.4 1-.6 1.5-.4-.3.4-.9.6-1.5.4m5.9-.4c-.3.4-1 .6-1.5.4.3-.4 1-.6 1.5-.4"/><path class="st100" d="M403.7 229.7l1.1 5.7 1.2 5.7h.3l.3-.1-1.5-5.7zm2.4 1.6l-.8 1.1-.8 1.2.1.1.8-1.2zm-3.3 0l.7.5.7.4h.1l-.8-.5zm.5 2.1l.7.5.7.5v-.1l.1-.1-.8-.4z"/><path class="st90" d="M408.017 195.423l.584-.136 9.944 42.86-.584.136zm1.213-.218l.584-.136 9.944 42.86-.584.136zm1.092-.292l.584-.136 9.944 42.86-.584.136zm1.115-.195l.584-.136 9.944 42.86-.584.136zm1.092-.292l.584-.136 9.944 42.86-.584.136zm1.19-.315l.584-.136 9.944 42.86-.584.136zm1.114-.194l.584-.136 9.944 42.86-.584.136zm1.093-.292l.584-.136 9.944 42.86-.584.136zm1.189-.315l.584-.136 9.944 42.86-.584.136zm1.115-.195l.584-.136 9.944 42.86-.584.136zm1.092-.292l.584-.136 9.944 42.86-.584.136zm1.212-.218l.584-.136 9.944 42.86-.584.136z"/><path class="st91" d="M408.624 195.314l.584-.136 9.944 42.86-.584.136zm1.092-.292l.584-.136 9.944 42.86-.584.136zm1.212-.217l.584-.136 9.944 42.86-.584.136zm1.092-.293l.584-.136 9.944 42.86-.584.136zm1.115-.195l.584-.136 9.944 42.86-.584.136zm1.092-.292l.584-.136 9.944 42.86-.584.136zm1.19-.314l.584-.136 9.944 42.86-.584.136zm1.115-.195l.584-.136 9.944 42.86-.584.136zm1.092-.292l.584-.136 9.944 42.86-.584.136zm1.189-.315l.584-.136 9.944 42.86-.584.136zm1.115-.195l.584-.136 9.944 42.86-.584.136zm1.092-.292l.584-.136 9.944 42.86-.584.136z"/><path class="st90" d="M407.778 195.108l13.93-3.232.181.779-13.93 3.232z"/><path class="st95" d="M407 202.1v-.1c-.1-.5-.6-.8-1.1-.7-.1 0-.1 0-.2.1-.2-.3-.6-.5-1-.7-.5-.6-1.2-.9-2-.7-.7.2-1.2.6-1.4 1.3-.3-.2-.7-.3-1.1-.2-.5.1-.9.5-1.1 1-.5-.3-1-.5-1.6-.4-.7.2-1.2.7-1.4 1.4-.8.3-1.4 1.1-1.3 1.9l12.2-2.9zm33.3 3.9v-.1c-.1-.5-.6-.8-1.1-.7-.1 0-.1 0-.2.1-.2-.3-.6-.5-1-.7-.5-.6-1.2-.9-2-.7-.7.2-1.2.6-1.4 1.3-.3-.2-.7-.3-1.1-.2-.5.1-.9.5-1.1 1-.5-.3-1-.5-1.6-.4-.7.2-1.2.7-1.4 1.4-.8.3-1.4 1.1-1.3 1.9l12.2-2.9z"/><path class="st93" d="M415.568 199.865l12.371-2.87 7.955 34.288-12.371 2.87z"/><path class="st94" d="M422.883 233.668l13.345-3.096.791 3.409-13.345 3.096z"/><path class="st93" d="M422.869 233.963l2.046-.475.723 3.117-2.046.475zm11.385-2.705l2.046-.475.723 3.117-2.046.475zm-9.982 2.287l11.494-2.667.723 3.117-11.494 2.667z"/><path class="st101" d="M415.611 199.918l12.371-2.87.294 1.266-12.371 2.87z"/><path class="st93" d="M414.689 198.767l13.54-3.141.362 1.559-13.54 3.141z"/><path class="st94" d="M416.973 201.856l2.046-.475.475 2.046-2.046.475zm2.81-.602l2.046-.475.475 2.046-2.046.475z"/><path class="st90" d="M422.572 200.555l2.046-.475.475 2.046-2.046.475zm2.811-.602l2.046-.475.475 2.046-2.046.475zm-7.698 4.686l2.046-.475.475 2.046-2.046.475zm2.789-.699l2.046-.475.475 2.046-2.046.475zm2.811-.602l2.046-.475.475 2.046-2.046.475zm2.788-.699l2.046-.475.475 2.046-2.046.475zm-7.794 4.709l2.046-.475.475 2.046-2.046.475zm2.811-.602l2.046-.475.475 2.046-2.046.475z"/><path class="st94" d="M423.878 206.047l2.046-.475.475 2.046-2.046.475z"/><path class="st90" d="M426.689 205.445l2.046-.475.475 2.046-2.046.475zm-7.817 4.611l2.046-.475.475 2.046-2.046.475z"/><path class="st94" d="M421.683 209.454l2.046-.475.475 2.046-2.046.475z"/><path class="st90" d="M424.471 208.755l2.046-.475.475 2.046-2.046.475zm2.811-.602l2.046-.475.475 2.046-2.046.475zm-7.697 4.686l2.046-.475.475 2.046-2.046.475zm2.788-.699l2.046-.475.475 2.046-2.046.475zm2.811-.601l2.046-.475.475 2.046-2.046.475zm2.789-.7l2.046-.475.475 2.046-2.046.475z"/><path class="st94" d="M420.178 215.548l2.046-.475.475 2.046-2.046.475z"/><path class="st90" d="M422.989 214.946l2.046-.475.475 2.046-2.046.475zm2.788-.699l2.046-.475.475 2.046-2.046.475z"/><path class="st94" d="M428.588 213.645l2.046-.475.475 2.046-2.046.475zm-7.817 4.612l2.046-.475.475 2.046-2.046.475z"/><path class="st90" d="M423.582 217.655l2.046-.475.475 2.046-2.046.475zm2.788-.699l2.046-.475.475 2.046-2.046.475zm2.811-.602l2.046-.475.475 2.046-2.046.475zm-7.697 4.686l2.046-.475.475 2.046-2.046.475z"/><path class="st94" d="M424.272 220.341l2.046-.475.475 2.046-2.046.475z"/><path class="st90" d="M427.083 219.739l2.046-.475.475 2.046-2.046.475zm2.789-.699l2.046-.475.475 2.046-2.046.475zm-7.795 4.709l2.046-.475.475 2.046-2.046.475zm2.811-.602l2.046-.475.475 2.046-2.046.475zm2.788-.699l2.046-.475.475 2.046-2.046.475z"/><path class="st94" d="M430.487 221.846l2.046-.475.475 2.046-2.046.475z"/><path class="st90" d="M422.67 226.457l2.046-.475.475 2.046-2.046.475zm2.811-.602l2.046-.475.475 2.046-2.046.475zm2.811-.601l2.046-.475.475 2.046-2.046.475zm2.789-.7l2.046-.475.475 2.046-2.046.475z"/><path class="st93" d="M401.4 214.4l6.3-3.6 7.3.5zm.954 1.1l12.371-2.87 5.198 22.404-12.371 2.87z"/><path class="st94" d="M406.881 237.366l13.345-3.096.791 3.409-13.345 3.096z"/><path class="st93" d="M406.866 237.662l2.046-.475.723 3.117-2.046.475zm1.125-.312l12.274-2.848.723 3.117-12.274 2.848z"/><path class="st101" d="M402.308 215.531l12.371-2.87.294 1.266-12.371 2.87z"/><path class="st93" d="M401.386 214.38l13.54-3.141.362 1.559-13.54 3.141z"/><path class="st94" d="M403.79 217.543l2.046-.475.475 2.046-2.046.475z"/><path class="st90" d="M406.578 216.844l2.046-.475.475 2.046-2.046.475zm2.811-.602l2.046-.475.475 2.046-2.046.475zm2.788-.699l2.046-.475.475 2.046-2.046.475zm-7.794 4.709l2.046-.475.475 2.046-2.046.475z"/><path class="st94" d="M407.171 219.553l2.046-.475.475 2.046-2.046.475z"/><path class="st90" d="M409.982 218.951l2.046-.475.475 2.046-2.046.475zm2.789-.699l2.046-.475.475 2.046-2.046.475z"/><path class="st94" d="M405.074 222.938l2.046-.475.475 2.046-2.046.475z"/><path class="st90" d="M407.884 222.336l2.046-.475.475 2.046-2.046.475zm2.789-.699l2.046-.475.475 2.046-2.046.475z"/><path class="st94" d="M413.386 221.058l2.046-.475.475 2.046-2.046.475z"/><path class="st90" d="M405.689 225.744l2.046-.475.475 2.046-2.046.475zm2.788-.699l2.046-.475.475 2.046-2.046.475zm2.811-.602l2.046-.475.475 2.046-2.046.475zm2.789-.699l2.046-.475.475 2.046-2.046.475zm-7.795 4.708l2.046-.475.475 2.046-2.046.475zm2.789-.699l2.046-.475.475 2.046-2.046.475zm2.81-.602l2.046-.475.475 2.046-2.046.475zm2.789-.699l2.046-.475.475 2.046-2.046.475zm-7.697 4.686l2.046-.475.475 2.046-2.046.475zm2.811-.601l2.046-.475.475 2.046-2.046.475z"/><path class="st94" d="M412.572 229.837l2.046-.475.475 2.046-2.046.475zm2.811-.601l2.046-.475.475 2.046-2.046.475z"/><path class="st90" d="M407.588 233.944l2.046-.475.475 2.046-2.046.475zm2.789-.699l2.046-.475.475 2.046-2.046.475zm2.811-.602l2.046-.475.475 2.046-2.046.475zm2.788-.699l2.046-.475.475 2.046-2.046.475z"/><path class="st94" d="M440.5 233.1l-5.9 1.4-4.1-17.6 2.4-2.8 3.5 1.4z"/><path class="st92" d="M432.9 214.2l3.7 1.6-.2-.6-3.6-1.7-2.5 3.2.2.5z"/><path class="st96" d="M433.374 217.699l.877-.203.429 1.851-.877.203z"/><path class="st95" d="M433.988 220.4l.877-.203.429 1.851-.877.203z"/><path class="st96" d="M434.58 223.003l.877-.203.429 1.851-.877.203z"/><path class="st95" d="M435.195 225.704l.877-.203.429 1.851-.877.203z"/><path class="st98" d="M435.6 218.4c.4 1.9 2.3 3 4.1 2.6 1.9-.4 3-2.3 2.6-4.1-.4-1.9-2.3-3-4.1-2.6-1.9.4-3 2.2-2.6 4.1"/><path class="st99" d="M441.3 223c.3 1.3 1.6 2.1 2.8 1.8 1.3-.3 2.1-1.6 1.8-2.8-.3-1.3-1.6-2.1-2.8-1.8-1.3.2-2.1 1.5-1.8 2.8"/><path class="st96" d="M435.7 221.9c.2.9 1 1.4 1.9 1.2.9-.2 1.4-1 1.2-1.9-.2-.9-1-1.4-1.9-1.2-.9.2-1.4 1.1-1.2 1.9"/><path class="st99" d="M437.9 221.6c-.3-.3-.5-.7-.3-1.1.3.3.4.7.3 1.1m-.6-4.5c-.4.1-.8-.2-1-.6.4-.1.8.2 1 .6m3.9 0c-.1-.4.2-.8.6-1 0 .4-.2.8-.6 1"/><path class="st96" d="M442.5 223.7c-.4-.2-.5-.6-.4-1.1.3.3.5.7.4 1.1m1.5-1c.6-.1 1.1.2 1.4.8-.6 0-1.2-.3-1.4-.8m.3-.5c-.1-.6.2-1.1.8-1.4.1.6-.2 1.2-.8 1.4m-3.9-4.4c-.4-.4-.6-1-.4-1.5.4.3.6 1 .4 1.5m-2.4-.5c-.4-.3-.6-1-.4-1.5.4.4.6 1 .4 1.5m-1.6.9c.3-.4 1-.6 1.5-.4-.3.4-.9.6-1.5.4m5.9-.4c-.4.4-1 .6-1.5.4.3-.4.9-.6 1.5-.4m.6 4.4c0-.4.2-.8.5-.9.1.3-.1.7-.5.9m-.5-1.3c-.2.3-.1.6.2.8.2-.4.1-.7-.2-.8"/><path class="st102" d="M445.6 222.1c-.3-.2-.6-.1-.8.2.4.2.7.1.8-.2m-3 0c-.4 0-.8-.2-.9-.5.4-.1.7.1.9.5m-5.6-.7c-.4 0-.7-.1-.9-.5.4-.1.7.1.9.5"/><path class="st99" d="M437.3 222.2c-.3 0-.5-.1-.7-.4.3-.1.5.1.7.4m-.2-1.4c-.2 0-.4-.1-.5-.3.3 0 .5.1.5.3m.2 1.7c0 .2-.1.4-.3.5 0-.2.1-.4.3-.5"/><path class="st100" d="M438.5 215.8l1.8 8.5 1.8 8.5.4-.1.3-.1-2.1-8.4zm2.5 1.6l-.8 1.1-.8 1.2.1.1.7-1.2zm2.9 4.6l-1.5 2.3-1.5 2.3h.1l.2.1 1.3-2.4zm-6.8-.5l1.6 1 1.6 1.1v-.2l-1.6-.9zm-.2.9l.6-.1.6-.2-.6.1zm5.8-.3l.2.7.1.6h.1l-.2-.6zm1.7 1.4l-.8.2-.9.2v.1l.9-.2zm0-1l-.4.1-.5.1.5-.1zm-6.7-5.1l.7.5.7.4-.7-.5zm.5 2.1l.7.5.7.5v-.1l.1-.1-.8-.4z"/><path class="st98" d="M445.4 232v-.1c-.1-.4-.5-.6-.9-.5h-.1c-.2-.2-.5-.4-.8-.5-.4-.4-.9-.7-1.5-.5-.5.1-.9.5-1.1 1-.2-.2-.6-.2-.9-.2-.4.1-.7.4-.8.8-.4-.3-.8-.4-1.3-.3-.6.1-1 .5-1.1 1.1-.6.2-1.1.8-1 1.5l9.5-2.3z"/><path class="st99" d="M406.7 237.6c1.1.7 2.6.4 3.3-.8.7-1.1.4-2.6-.8-3.3-1.1-.7-2.6-.4-3.3.8-.7 1.2-.3 2.6.8 3.3"/><path class="st96" d="M408.1 237.3c-.4.1-.8-.1-1.1-.4.4-.1.9.1 1.1.4m.2-1.8c.3-.4 1-.6 1.5-.4-.3.5-.9.7-1.5.4m0-.5c-.4-.3-.6-1-.4-1.5.4.3.6 1 .4 1.5m-1.1 1c-.3-.2-.4-.7-.3-1 .4.2.5.6.3 1m-1.2-.6c.1.3.4.5.7.4-.1-.4-.4-.5-.7-.4"/><path class="st102" d="M409.2 234c-.3.1-.5.4-.4.7.3-.1.4-.4.4-.7m-2.2 2.1c-.2.3-.7.4-1 .3.2-.3.6-.4 1-.3"/><path class="st100" d="M407.8 235.1l.6 2.7.5 2.7.2-.1h.1l-.7-2.7zm-.7.9l.5.4.6.4v-.1l-.5-.3zm2.2-.1l-.5.7-.5.7h.1v.1l.4-.8zm-.8-.8l-.2.4-.3.4.3-.4z"/><path class="st91" d="M415.466 225.592l10.813-2.509 2.938 12.663-10.813 2.509z"/><path class="st93" d="M424.645 231.509l2.338-.542 1.175 5.065-2.338.542z"/><path class="st97" d="M425.147 235.865l3.215-.746.181.779-3.215.746z"/><path class="st90" d="M416.807 231.653l10.813-2.509.271 1.169-10.813 2.509z"/><path class="st97" d="M416.803 231.326l10.813-2.509.068.292-10.813 2.509z"/><path class="st90" d="M415.439 225.749l10.813-2.509.203.877-10.813 2.509z"/><path class="st91" d="M416.651 231.473l11.007-2.554.181.779-11.007 2.554z"/><path class="st97" d="M416.918 226.779l.682-.158.362 1.559-.682.158zm1.005-.206l.682-.158.362 1.559-.682.158zm-.503 2.197l.682-.158.362 1.559-.682.158zm.908-.184l.682-.158.362 1.559-.682.158zm1.882-2.606l.682-.158.362 1.559-.682.158zm1.005-.207l.682-.158.362 1.559-.682.158zm-.503 2.197l.682-.158.362 1.559-.682.158zm.907-.184l.682-.158.362 1.559-.682.158zm1.905-2.509l.682-.158.362 1.559-.682.158zm.982-.304l.682-.158.362 1.559-.682.158zm-.48 2.295l.682-.158.362 1.559-.682.158zm.885-.282l.682-.158.362 1.559-.682.158zm-6.597 6.003l.682-.158.362 1.559-.682.158zm1.006-.206l.682-.158.362 1.559-.682.158zm-.503 2.197l.682-.158.362 1.559-.682.158zm1.005-.207l.682-.158.362 1.559-.682.158zm1.807-2.486l.682-.158.362 1.559-.682.158zm.982-.304l.682-.158.362 1.559-.682.158zm-.502 2.197l.682-.158.362 1.559-.682.158zm1.005-.206l.682-.158.362 1.559-.682.158z"/><path class="st99" d="M423.8 219.8l-1.8.5-.8.1-2.5.6-1 .3-1.7.3-.5 3.7.9-.2 4.2-1 .2-.1 4.1-.9 1-.3z"/><path class="st91" d="M415.246 225.266l11.007-2.554.181.779-11.007 2.554z"/><g class="st103"><defs><path id="SVGID_3_" d="M404.641 237.582l-4.968 1.153-.746-3.215 4.968-1.153z"/></defs><clipPath id="SVGID_4_"><use xlink:href="#SVGID_3_" overflow="visible"/></clipPath><path class="st104" d="M404 234.7c0-.2-.2-.3-.4-.3l-4.3 1c-.2 0-.3.2-.3.4l.6 2.6c0 .2.2.3.4.3l4.3-1c.2 0 .3-.2.3-.4l-.6-2.6z"/></g><g class="st103"><defs><path id="SVGID_5_" d="M440.643 228.905l-35.36 8.204-.588-2.533 35.36-8.204z"/></defs><clipPath id="SVGID_6_"><use xlink:href="#SVGID_5_" overflow="visible"/></clipPath><path class="st105" d="M440.5 228.6c0 .2-.1.4-.3.4l-34.7 8.1c-.2 0-.4-.1-.4-.3l-.4-1.9c0-.2.1-.4.3-.4l34.7-8.1c.2 0 .4.1.4.3l.4 1.9z"/></g><path class="st106" d="M435.1 229.6l-29.4 6.8-.4-1.6 29.4-6.8.4 1.6zm-29.3 6.7l29.2-6.8-.3-1.3-29.2 6.8.3 1.3zm25.732-6.066l-25.619 5.944-.226-.974 25.619-5.944z"/><path class="st107" d="M414.404 234.184l-8.572 1.989-.226-.974 8.572-1.989z"/><path class="st0" d="M402.4 236.4l-.5.5-.5.5-.2-.7-.2-.7.7.2z"/><path class="st8" d="M387.2 220.3l1.9-1.5 2-1.5 1.8-1.4 5.8 3.1s0 .1-.1.1l-.5 1c-.9 1.6-2.8 2.2-4.4 1.3l-.7-.4-2.3 2.2c1.1 2.3 1 5.5-.5 8.5-1.2 2.3-3 3.9-4.9 4.8l-5.1-2.6 7-13.6zm12.4 30.9l-.2-3h.1l.8-.1c1.3-.1 2.4.9 2.5 2.2l.2 3.2.8.7-.3-4v-.2l-.9-11.5c-.1-.9.6-1.7 1.5-1.7.9-.1 1.7.6 1.7 1.5l.6 7.6c.2-.1.5-.1.8-.2l-.2-2.6c-.1-.9.6-1.7 1.5-1.7.9-.1 1.7.6 1.7 1.5l.2 2.5.8-.1-.1-1.1c-.1-.9.6-1.7 1.5-1.7.9-.1 1.7.6 1.7 1.5l.1 1.1c.3 0 .5 0 .8.1.1-.7.7-1.2 1.4-1.3.9-.1 1.7.6 1.7 1.5l.3 3.6.3 4 .2 2.8c.1 1.4-.5 2.7-1.5 3.5l2.1 26.7-10.3.8-2-26.1c-.7-.1-1.3-.4-1.8-.9l-5.7-4.8-.3-3.8"/><path class="st74" d="M409.662 316.22l-4.164-53.738 15.254-1.182 4.164 53.738z"/><path class="st73" d="M412.226 262.424l4.096 52.841-6.181.479-4.096-52.841z"/></svg>