<?xml version="1.0" encoding="utf-8"?>
<!-- Generator: Adobe Illustrator 20.1.0, SVG Export Plug-In . SVG Version: 6.00 Build 0)  -->
<svg version="1.1" id="Layer_1" xmlns="http://www.w3.org/2000/svg" xmlns:xlink="http://www.w3.org/1999/xlink" x="0px" y="0px"
	 viewBox="0 0 100 100" style="enable-background:new 0 0 100 100;" xml:space="preserve">
<style type="text/css">
	.st0{fill:url(#SVGID_1_);}
	.st1{fill:#D8A1FF;}
</style>
<radialGradient id="SVGID_1_" cx="-395.616" cy="620.7531" r="0.1309" gradientTransform="matrix(532.0327 0 0 528.3113 210515.0469 -327926.0625)" gradientUnits="userSpaceOnUse">
	<stop  offset="0" style="stop-color:#442F55;stop-opacity:0.98"/>
	<stop  offset="1" style="stop-color:#12002C"/>
</radialGradient>
<path class="st0" d="M4.2,4.3h91.7v91.5H4.2V4.3z"/>
<g>
	<path class="st1" d="M4.2,4.3h91.7v91.5H4.2V4.3z M0,100h100V0H0V100z M70.7,48.2c2.1,0,2.9,0,3.1-0.1c0-0.3,0.1-0.5,0.1-0.7
		c0-2.3-1.1-6.6-5.4-6.6c-4,0-5.7,3.6-6.1,7.4C62.4,48.2,70.7,48.2,70.7,48.2z M62.3,54.1c0.1,5.8,2.7,9.7,9.1,9.7
		c2.5,0,4.6-0.3,6.8-1.3c0.3-0.1,0.5-0.1,0.5,0.3V68c0,0.4-0.1,0.6-0.4,0.9c-2.2,1.1-5,1.6-8.4,1.6c-11,0-15.1-8.3-15.1-17.6
		c0-10.1,5.1-18.3,14-18.3c9.1,0,12.3,7.8,12.3,14.2c0,2.1-0.1,3.7-0.3,4.5c-0.1,0.3-0.2,0.5-0.5,0.6c-0.8,0.1-3.3,0.3-7,0.3
		L62.3,54.1L62.3,54.1L62.3,54.1z M40,49.7c-1.2-4.7-4-15.1-5-20.1h-0.1c-0.9,5-3.2,13.5-4.9,20.1H40L40,49.7z M28.2,56.6L25,69.4
		c-0.1,0.3-0.2,0.5-0.6,0.5h-6.1c-0.4,0-0.5-0.1-0.4-0.6l11.8-42.4c0.2-0.8,0.3-1.4,0.4-3.5c0-0.3,0.1-0.4,0.3-0.4h8.8
		c0.3,0,0.4,0.1,0.5,0.4l13.2,46c0.1,0.3,0,0.6-0.3,0.6h-6.9c-0.3,0-0.5-0.1-0.6-0.4l-3.4-12.8L28.2,56.6L28.2,56.6z"/>
</g>
</svg>
