<?xml version="1.0" encoding="utf-8"?>
<!-- Generator: Adobe Illustrator 20.1.0, SVG Export Plug-In . SVG Version: 6.00 Build 0)  -->
<svg version="1.1" id="Layer_1" xmlns="http://www.w3.org/2000/svg" xmlns:xlink="http://www.w3.org/1999/xlink" x="0px" y="0px"
	 viewBox="0 0 100 100" style="enable-background:new 0 0 100 100;" xml:space="preserve">
<style type="text/css">
	.st0{fill:#E44D26;}
	.st1{fill:#FFFFFF;}
</style>
<g>
	<title>HTML5 Logo</title>
	<polygon class="st0" points="13.9,90 5.9,0 94.1,0 86.1,90 49.9,100 	"/>
	<polygon class="st1" points="50,40.7 35.4,40.7 34.4,29.4 50,29.4 50,18.4 50,18.4 22.3,18.4 22.6,21.4 25.3,51.8 50,51.8 	"/>
	<polygon class="st1" points="50,69.4 50,69.4 37.7,66.1 36.9,57.3 30.9,57.3 25.8,57.3 27.3,74.6 49.9,80.9 50,80.9 	"/>
	<polygon class="st1" points="50,40.7 50,51.8 63.6,51.8 62.3,66.1 50,69.4 50,80.9 72.6,74.6 72.8,72.8 75.4,43.7 75.6,40.7 
		72.6,40.7 	"/>
	<polygon class="st1" points="50,18.4 50,25.3 50,29.4 50,29.4 76.6,29.4 76.6,29.4 76.6,29.4 76.8,27 77.3,21.4 77.6,18.4 	"/>
</g>
</svg>
